M48
; DRILL file {KiCad (5.1.2-1)-1} date Monday, 15 July 2019 at 16:18:11
; FORMAT={3:3/ absolute / metric / suppress leading zeros}
; #@! TF.CreationDate,2019-07-15T16:18:11+09:00
; #@! TF.GenerationSoftware,Kicad,Pcbnew,(5.1.2-1)-1
FMAT,2
METRIC,TZ
T1C0.800
T2C1.000
T3C1.016
T4C3.048
%
G90
G05
T1
X133858Y-93726
X133858Y-96226
T2
X121158Y-93726
X121158Y-96266
T3
X177038Y-119126
X179578Y-119126
X182118Y-119126
X184658Y-119126
X187198Y-119126
X189738Y-119126
X192278Y-119126
X194818Y-119126
X122174Y-70866
X124714Y-70866
X127254Y-70866
X129794Y-70866
X132334Y-70866
X134874Y-70866
X137414Y-70866
X139954Y-70866
X142494Y-70866
X145034Y-70866
X131318Y-119126
X133858Y-119126
X136398Y-119126
X138938Y-119126
X141478Y-119126
X144018Y-119126
X146558Y-119126
X149098Y-119126
X149098Y-70866
X151638Y-70866
X154178Y-70866
X156718Y-70866
X159258Y-70866
X161798Y-70866
X164338Y-70866
X166878Y-70866
X197358Y-70866
X197358Y-73406
X197358Y-75946
X197358Y-78486
X197358Y-81026
X197358Y-83566
X197358Y-86106
X197358Y-88646
X197358Y-91186
X197358Y-93726
X197358Y-96266
X197358Y-98806
X197358Y-101346
X197358Y-103886
X197358Y-106426
X197358Y-108966
X197358Y-111506
X197358Y-114046
X199898Y-70866
X199898Y-73406
X199898Y-75946
X199898Y-78486
X199898Y-81026
X199898Y-83566
X199898Y-86106
X199898Y-88646
X199898Y-91186
X199898Y-93726
X199898Y-96266
X199898Y-98806
X199898Y-101346
X199898Y-103886
X199898Y-106426
X199898Y-108966
X199898Y-111506
X199898Y-114046
X154178Y-119126
X156718Y-119126
X159258Y-119126
X161798Y-119126
X164338Y-119126
X166878Y-119126
X169418Y-119126
X171958Y-119126
X171958Y-70866
X174498Y-70866
X177038Y-70866
X179578Y-70866
X182118Y-70866
X184658Y-70866
X187198Y-70866
X189738Y-70866
T4
X193548Y-70866
X118618Y-70866
X199898Y-119126
X117348Y-119126
T2
G00X110078Y-93996
M15
G01X110078Y-95996
M16
G05
G00X112078Y-99696
M15
G01X114078Y-99696
M16
G05
G00X116078Y-93996
M15
G01X116078Y-95996
M16
G05
T0
M30
