M48
; DRILL file {KiCad (5.1.2-1)-1} date Tuesday, 30 July 2019 at 03:04:35
; FORMAT={3:3/ absolute / metric / suppress leading zeros}
; #@! TF.CreationDate,2019-07-30T03:04:35+09:00
; #@! TF.GenerationSoftware,Kicad,Pcbnew,(5.1.2-1)-1
FMAT,2
METRIC,TZ
T1C0.800
T2C1.000
T3C1.016
T4C3.048
%
G90
G05
T1
X30480Y27940
X30480Y25440
T2
X17780Y27940
X17780Y25400
T3
X73660Y2540
X76200Y2540
X78740Y2540
X81280Y2540
X83820Y2540
X86360Y2540
X88900Y2540
X91440Y2540
X18796Y50800
X21336Y50800
X23876Y50800
X26416Y50800
X28956Y50800
X31496Y50800
X34036Y50800
X36576Y50800
X39116Y50800
X41656Y50800
X27940Y2540
X30480Y2540
X33020Y2540
X35560Y2540
X38100Y2540
X40640Y2540
X43180Y2540
X45720Y2540
X45720Y50800
X48260Y50800
X50800Y50800
X53340Y50800
X55880Y50800
X58420Y50800
X60960Y50800
X63500Y50800
X93980Y50800
X93980Y48260
X93980Y45720
X93980Y43180
X93980Y40640
X93980Y38100
X93980Y35560
X93980Y33020
X93980Y30480
X93980Y27940
X93980Y25400
X93980Y22860
X93980Y20320
X93980Y17780
X93980Y15240
X93980Y12700
X93980Y10160
X93980Y7620
X96520Y50800
X96520Y48260
X96520Y45720
X96520Y43180
X96520Y40640
X96520Y38100
X96520Y35560
X96520Y33020
X96520Y30480
X96520Y27940
X96520Y25400
X96520Y22860
X96520Y20320
X96520Y17780
X96520Y15240
X96520Y12700
X96520Y10160
X96520Y7620
X50800Y2540
X53340Y2540
X55880Y2540
X58420Y2540
X60960Y2540
X63500Y2540
X66040Y2540
X68580Y2540
X68580Y50800
X71120Y50800
X73660Y50800
X76200Y50800
X78740Y50800
X81280Y50800
X83820Y50800
X86360Y50800
T4
X90170Y50800
X15240Y50800
X96520Y2540
X13970Y2540
T2
G00X6700Y27670
M15
G01X6700Y25670
M16
G05
G00X8700Y21970
M15
G01X10700Y21970
M16
G05
G00X12700Y27670
M15
G01X12700Y25670
M16
G05
T0
M30
