G04 #@! TF.GenerationSoftware,KiCad,Pcbnew,(5.1.2-1)-1*
G04 #@! TF.CreationDate,2019-07-30T03:04:29+09:00*
G04 #@! TF.ProjectId,base-shield,62617365-2d73-4686-9965-6c642e6b6963,rev?*
G04 #@! TF.SameCoordinates,PX6296c50PY74079d0*
G04 #@! TF.FileFunction,Legend,Bot*
G04 #@! TF.FilePolarity,Positive*
%FSLAX46Y46*%
G04 Gerber Fmt 4.6, Leading zero omitted, Abs format (unit mm)*
G04 Created by KiCad (PCBNEW (5.1.2-1)-1) date 2019-07-30 03:04:29*
%MOMM*%
%LPD*%
G04 APERTURE LIST*
%ADD10C,1.727200*%
%ADD11O,1.727200X1.727200*%
%ADD12O,1.727200X2.032000*%
%ADD13C,4.064000*%
%ADD14R,1.600000X1.600000*%
%ADD15C,1.600000*%
%ADD16R,3.500000X3.500000*%
%ADD17C,0.100000*%
%ADD18C,3.000000*%
%ADD19C,3.500000*%
%ADD20R,1.700000X1.700000*%
%ADD21O,1.700000X1.700000*%
G04 APERTURE END LIST*
%LPC*%
D10*
X93980000Y7620000D03*
D11*
X96520000Y7620000D03*
X93980000Y10160000D03*
X96520000Y10160000D03*
X93980000Y12700000D03*
X96520000Y12700000D03*
X93980000Y15240000D03*
X96520000Y15240000D03*
X93980000Y17780000D03*
X96520000Y17780000D03*
X93980000Y20320000D03*
X96520000Y20320000D03*
X93980000Y22860000D03*
X96520000Y22860000D03*
X93980000Y25400000D03*
X96520000Y25400000D03*
X93980000Y27940000D03*
X96520000Y27940000D03*
X93980000Y30480000D03*
X96520000Y30480000D03*
X93980000Y33020000D03*
X96520000Y33020000D03*
X93980000Y35560000D03*
X96520000Y35560000D03*
X93980000Y38100000D03*
X96520000Y38100000D03*
X93980000Y40640000D03*
X96520000Y40640000D03*
X93980000Y43180000D03*
X96520000Y43180000D03*
X93980000Y45720000D03*
X96520000Y45720000D03*
X93980000Y48260000D03*
X96520000Y48260000D03*
X93980000Y50800000D03*
X96520000Y50800000D03*
D12*
X27940000Y2540000D03*
X30480000Y2540000D03*
X33020000Y2540000D03*
X35560000Y2540000D03*
X38100000Y2540000D03*
X40640000Y2540000D03*
X43180000Y2540000D03*
X45720000Y2540000D03*
X50800000Y2540000D03*
X53340000Y2540000D03*
X55880000Y2540000D03*
X58420000Y2540000D03*
X60960000Y2540000D03*
X63500000Y2540000D03*
X66040000Y2540000D03*
X68580000Y2540000D03*
X73660000Y2540000D03*
X76200000Y2540000D03*
X78740000Y2540000D03*
X81280000Y2540000D03*
X83820000Y2540000D03*
X86360000Y2540000D03*
X88900000Y2540000D03*
X91440000Y2540000D03*
X18796000Y50800000D03*
X21336000Y50800000D03*
X23876000Y50800000D03*
X26416000Y50800000D03*
X28956000Y50800000D03*
X31496000Y50800000D03*
X34036000Y50800000D03*
X36576000Y50800000D03*
X39116000Y50800000D03*
X41656000Y50800000D03*
X45720000Y50800000D03*
X48260000Y50800000D03*
X50800000Y50800000D03*
X53340000Y50800000D03*
X55880000Y50800000D03*
X58420000Y50800000D03*
X60960000Y50800000D03*
X63500000Y50800000D03*
X68580000Y50800000D03*
X71120000Y50800000D03*
X73660000Y50800000D03*
X76200000Y50800000D03*
X78740000Y50800000D03*
X81280000Y50800000D03*
X83820000Y50800000D03*
X86360000Y50800000D03*
D13*
X13970000Y2540000D03*
X96520000Y2540000D03*
X15240000Y50800000D03*
X90170000Y50800000D03*
D14*
X30480000Y27940000D03*
D15*
X30480000Y25440000D03*
D16*
X12700000Y26670000D03*
D17*
G36*
X7523513Y28416389D02*
G01*
X7596318Y28405589D01*
X7667714Y28387705D01*
X7737013Y28362910D01*
X7803548Y28331441D01*
X7866678Y28293602D01*
X7925795Y28249758D01*
X7980330Y28200330D01*
X8029758Y28145795D01*
X8073602Y28086678D01*
X8111441Y28023548D01*
X8142910Y27957013D01*
X8167705Y27887714D01*
X8185589Y27816318D01*
X8196389Y27743513D01*
X8200000Y27670000D01*
X8200000Y25670000D01*
X8196389Y25596487D01*
X8185589Y25523682D01*
X8167705Y25452286D01*
X8142910Y25382987D01*
X8111441Y25316452D01*
X8073602Y25253322D01*
X8029758Y25194205D01*
X7980330Y25139670D01*
X7925795Y25090242D01*
X7866678Y25046398D01*
X7803548Y25008559D01*
X7737013Y24977090D01*
X7667714Y24952295D01*
X7596318Y24934411D01*
X7523513Y24923611D01*
X7450000Y24920000D01*
X5950000Y24920000D01*
X5876487Y24923611D01*
X5803682Y24934411D01*
X5732286Y24952295D01*
X5662987Y24977090D01*
X5596452Y25008559D01*
X5533322Y25046398D01*
X5474205Y25090242D01*
X5419670Y25139670D01*
X5370242Y25194205D01*
X5326398Y25253322D01*
X5288559Y25316452D01*
X5257090Y25382987D01*
X5232295Y25452286D01*
X5214411Y25523682D01*
X5203611Y25596487D01*
X5200000Y25670000D01*
X5200000Y27670000D01*
X5203611Y27743513D01*
X5214411Y27816318D01*
X5232295Y27887714D01*
X5257090Y27957013D01*
X5288559Y28023548D01*
X5326398Y28086678D01*
X5370242Y28145795D01*
X5419670Y28200330D01*
X5474205Y28249758D01*
X5533322Y28293602D01*
X5596452Y28331441D01*
X5662987Y28362910D01*
X5732286Y28387705D01*
X5803682Y28405589D01*
X5876487Y28416389D01*
X5950000Y28420000D01*
X7450000Y28420000D01*
X7523513Y28416389D01*
X7523513Y28416389D01*
G37*
D18*
X6700000Y26670000D03*
D17*
G36*
X10660765Y23715787D02*
G01*
X10745704Y23703187D01*
X10828999Y23682323D01*
X10909848Y23653395D01*
X10987472Y23616681D01*
X11061124Y23572536D01*
X11130094Y23521384D01*
X11193718Y23463718D01*
X11251384Y23400094D01*
X11302536Y23331124D01*
X11346681Y23257472D01*
X11383395Y23179848D01*
X11412323Y23098999D01*
X11433187Y23015704D01*
X11445787Y22930765D01*
X11450000Y22845000D01*
X11450000Y21095000D01*
X11445787Y21009235D01*
X11433187Y20924296D01*
X11412323Y20841001D01*
X11383395Y20760152D01*
X11346681Y20682528D01*
X11302536Y20608876D01*
X11251384Y20539906D01*
X11193718Y20476282D01*
X11130094Y20418616D01*
X11061124Y20367464D01*
X10987472Y20323319D01*
X10909848Y20286605D01*
X10828999Y20257677D01*
X10745704Y20236813D01*
X10660765Y20224213D01*
X10575000Y20220000D01*
X8825000Y20220000D01*
X8739235Y20224213D01*
X8654296Y20236813D01*
X8571001Y20257677D01*
X8490152Y20286605D01*
X8412528Y20323319D01*
X8338876Y20367464D01*
X8269906Y20418616D01*
X8206282Y20476282D01*
X8148616Y20539906D01*
X8097464Y20608876D01*
X8053319Y20682528D01*
X8016605Y20760152D01*
X7987677Y20841001D01*
X7966813Y20924296D01*
X7954213Y21009235D01*
X7950000Y21095000D01*
X7950000Y22845000D01*
X7954213Y22930765D01*
X7966813Y23015704D01*
X7987677Y23098999D01*
X8016605Y23179848D01*
X8053319Y23257472D01*
X8097464Y23331124D01*
X8148616Y23400094D01*
X8206282Y23463718D01*
X8269906Y23521384D01*
X8338876Y23572536D01*
X8412528Y23616681D01*
X8490152Y23653395D01*
X8571001Y23682323D01*
X8654296Y23703187D01*
X8739235Y23715787D01*
X8825000Y23720000D01*
X10575000Y23720000D01*
X10660765Y23715787D01*
X10660765Y23715787D01*
G37*
D19*
X9700000Y21970000D03*
D20*
X17780000Y27940000D03*
D21*
X17780000Y25400000D03*
M02*
