G04 #@! TF.GenerationSoftware,KiCad,Pcbnew,(5.1.2-1)-1*
G04 #@! TF.CreationDate,2019-07-30T03:14:59+09:00*
G04 #@! TF.ProjectId,switcher-shield,73776974-6368-4657-922d-736869656c64,rev?*
G04 #@! TF.SameCoordinates,PX6296c50PY74079d0*
G04 #@! TF.FileFunction,Copper,L1,Top*
G04 #@! TF.FilePolarity,Positive*
%FSLAX46Y46*%
G04 Gerber Fmt 4.6, Leading zero omitted, Abs format (unit mm)*
G04 Created by KiCad (PCBNEW (5.1.2-1)-1) date 2019-07-30 03:14:59*
%MOMM*%
%LPD*%
G04 APERTURE LIST*
%ADD10O,1.700000X1.700000*%
%ADD11R,1.700000X1.700000*%
%ADD12C,1.727200*%
%ADD13O,1.727200X1.727200*%
%ADD14O,1.727200X2.032000*%
%ADD15C,4.064000*%
%ADD16C,1.900000*%
%ADD17C,2.000000*%
%ADD18C,0.200000*%
%ADD19C,0.600000*%
%ADD20C,0.254000*%
G04 APERTURE END LIST*
D10*
X71120000Y19050000D03*
D11*
X71120000Y16510000D03*
D12*
X93980000Y7620000D03*
D13*
X96520000Y7620000D03*
X93980000Y10160000D03*
X96520000Y10160000D03*
X93980000Y12700000D03*
X96520000Y12700000D03*
X93980000Y15240000D03*
X96520000Y15240000D03*
X93980000Y17780000D03*
X96520000Y17780000D03*
X93980000Y20320000D03*
X96520000Y20320000D03*
X93980000Y22860000D03*
X96520000Y22860000D03*
X93980000Y25400000D03*
X96520000Y25400000D03*
X93980000Y27940000D03*
X96520000Y27940000D03*
X93980000Y30480000D03*
X96520000Y30480000D03*
X93980000Y33020000D03*
X96520000Y33020000D03*
X93980000Y35560000D03*
X96520000Y35560000D03*
X93980000Y38100000D03*
X96520000Y38100000D03*
X93980000Y40640000D03*
X96520000Y40640000D03*
X93980000Y43180000D03*
X96520000Y43180000D03*
X93980000Y45720000D03*
X96520000Y45720000D03*
X93980000Y48260000D03*
X96520000Y48260000D03*
X93980000Y50800000D03*
X96520000Y50800000D03*
D14*
X27940000Y2540000D03*
X30480000Y2540000D03*
X33020000Y2540000D03*
X35560000Y2540000D03*
X38100000Y2540000D03*
X40640000Y2540000D03*
X43180000Y2540000D03*
X45720000Y2540000D03*
X50800000Y2540000D03*
X53340000Y2540000D03*
X55880000Y2540000D03*
X58420000Y2540000D03*
X60960000Y2540000D03*
X63500000Y2540000D03*
X66040000Y2540000D03*
X68580000Y2540000D03*
X73660000Y2540000D03*
X76200000Y2540000D03*
X78740000Y2540000D03*
X81280000Y2540000D03*
X83820000Y2540000D03*
X86360000Y2540000D03*
X88900000Y2540000D03*
X91440000Y2540000D03*
X18796000Y50800000D03*
X21336000Y50800000D03*
X23876000Y50800000D03*
X26416000Y50800000D03*
X28956000Y50800000D03*
X31496000Y50800000D03*
X34036000Y50800000D03*
X36576000Y50800000D03*
X39116000Y50800000D03*
X41656000Y50800000D03*
X45720000Y50800000D03*
X48260000Y50800000D03*
X50800000Y50800000D03*
X53340000Y50800000D03*
X55880000Y50800000D03*
X58420000Y50800000D03*
X60960000Y50800000D03*
X63500000Y50800000D03*
X68580000Y50800000D03*
X71120000Y50800000D03*
X73660000Y50800000D03*
X76200000Y50800000D03*
X78740000Y50800000D03*
X81280000Y50800000D03*
X83820000Y50800000D03*
X86360000Y50800000D03*
D15*
X13970000Y2540000D03*
X96520000Y2540000D03*
X15240000Y50800000D03*
X90170000Y50800000D03*
D11*
X87630000Y7620000D03*
D10*
X90170000Y7620000D03*
X87630000Y10160000D03*
X90170000Y10160000D03*
X87630000Y12700000D03*
X90170000Y12700000D03*
X87630000Y15240000D03*
X90170000Y15240000D03*
X87630000Y17780000D03*
X90170000Y17780000D03*
X87630000Y20320000D03*
X90170000Y20320000D03*
X87630000Y22860000D03*
X90170000Y22860000D03*
X87630000Y25400000D03*
X90170000Y25400000D03*
X87630000Y27940000D03*
X90170000Y27940000D03*
X87630000Y30480000D03*
X90170000Y30480000D03*
X87630000Y33020000D03*
X90170000Y33020000D03*
X87630000Y35560000D03*
X90170000Y35560000D03*
X87630000Y38100000D03*
X90170000Y38100000D03*
X87630000Y40640000D03*
X90170000Y40640000D03*
X87630000Y43180000D03*
X90170000Y43180000D03*
X87630000Y45720000D03*
X90170000Y45720000D03*
D11*
X43180000Y6350000D03*
D10*
X45720000Y6350000D03*
X48260000Y6350000D03*
X50800000Y6350000D03*
X53340000Y6350000D03*
X55880000Y6350000D03*
X58420000Y6350000D03*
X60960000Y6350000D03*
X83820000Y6350000D03*
X81280000Y6350000D03*
X78740000Y6350000D03*
X76200000Y6350000D03*
X73660000Y6350000D03*
X71120000Y6350000D03*
X68580000Y6350000D03*
D11*
X66040000Y6350000D03*
X66040000Y46990000D03*
D10*
X68580000Y46990000D03*
X71120000Y46990000D03*
X73660000Y46990000D03*
X76200000Y46990000D03*
X78740000Y46990000D03*
X81280000Y46990000D03*
X83820000Y46990000D03*
D11*
X28956000Y46990000D03*
D10*
X31496000Y46990000D03*
X34036000Y46990000D03*
X36576000Y46990000D03*
X39116000Y46990000D03*
X41656000Y46990000D03*
X58420000Y46990000D03*
X55880000Y46990000D03*
X53340000Y46990000D03*
X50800000Y46990000D03*
X48260000Y46990000D03*
D11*
X45720000Y46990000D03*
D16*
X40640000Y25146000D03*
X40640000Y22606000D03*
X40640000Y20066000D03*
X40640000Y17526000D03*
X40640000Y14986000D03*
X40640000Y12446000D03*
X40640000Y9906000D03*
D11*
X5080000Y5080000D03*
D10*
X2540000Y5080000D03*
X5080000Y7620000D03*
X2540000Y7620000D03*
X5080000Y10160000D03*
X2540000Y10160000D03*
D11*
X17780000Y27940000D03*
D10*
X17780000Y25400000D03*
D16*
X63500000Y25146000D03*
X63500000Y22606000D03*
X63500000Y20066000D03*
X63500000Y17526000D03*
X63500000Y14986000D03*
X63500000Y12446000D03*
X63500000Y9906000D03*
X40640000Y43434000D03*
X40640000Y40894000D03*
X40640000Y38354000D03*
X40640000Y35814000D03*
X40640000Y33274000D03*
X40640000Y30734000D03*
X40640000Y28194000D03*
X63500000Y28194000D03*
X63500000Y30734000D03*
X63500000Y33274000D03*
X63500000Y35814000D03*
X63500000Y38354000D03*
X63500000Y40894000D03*
X63500000Y43434000D03*
D11*
X78740000Y16510000D03*
D10*
X78740000Y19050000D03*
D11*
X5080000Y17780000D03*
D10*
X2540000Y17780000D03*
X5080000Y20320000D03*
X2540000Y20320000D03*
X5080000Y22860000D03*
X2540000Y22860000D03*
X71120000Y36830000D03*
D11*
X71120000Y34290000D03*
X78740000Y34290000D03*
D10*
X78740000Y36830000D03*
D11*
X5080000Y30480000D03*
D10*
X2540000Y30480000D03*
X5080000Y33020000D03*
X2540000Y33020000D03*
X5080000Y35560000D03*
X2540000Y35560000D03*
X2540000Y48260000D03*
X5080000Y48260000D03*
X2540000Y45720000D03*
X5080000Y45720000D03*
X2540000Y43180000D03*
D11*
X5080000Y43180000D03*
D17*
X12780000Y10795000D03*
X17780000Y10795000D03*
X17827000Y18796000D03*
X12827000Y18796000D03*
X12700000Y34544000D03*
X17700000Y34544000D03*
X17700000Y42799000D03*
X12700000Y42799000D03*
D18*
X91872002Y10160000D02*
X90602002Y8890000D01*
X93980000Y10160000D02*
X91872002Y10160000D01*
X90602002Y8890000D02*
X88900000Y8890000D01*
X88900000Y8890000D02*
X87630000Y7620000D01*
X91019999Y8469999D02*
X90170000Y7620000D01*
X91440000Y8890000D02*
X91019999Y8469999D01*
X95250000Y8890000D02*
X91440000Y8890000D01*
X96520000Y10160000D02*
X95250000Y8890000D01*
X88479999Y11009999D02*
X87630000Y10160000D01*
X88780001Y11310001D02*
X88479999Y11009999D01*
X90482003Y11310001D02*
X88780001Y11310001D01*
X91872002Y12700000D02*
X90482003Y11310001D01*
X93980000Y12700000D02*
X91872002Y12700000D01*
X91019999Y11009999D02*
X90170000Y10160000D01*
X95250000Y11430000D02*
X91440000Y11430000D01*
X91440000Y11430000D02*
X91019999Y11009999D01*
X96520000Y12700000D02*
X95250000Y11430000D01*
X88479999Y13549999D02*
X87630000Y12700000D01*
X90482003Y13850001D02*
X88780001Y13850001D01*
X91872002Y15240000D02*
X90482003Y13850001D01*
X88780001Y13850001D02*
X88479999Y13549999D01*
X93980000Y15240000D02*
X91872002Y15240000D01*
X91019999Y13549999D02*
X90170000Y12700000D01*
X95356399Y14076399D02*
X91546399Y14076399D01*
X91546399Y14076399D02*
X91019999Y13549999D01*
X96520000Y15240000D02*
X95356399Y14076399D01*
X88479999Y16089999D02*
X87630000Y15240000D01*
X88780001Y16390001D02*
X88479999Y16089999D01*
X90482003Y16390001D02*
X88780001Y16390001D01*
X91872002Y17780000D02*
X90482003Y16390001D01*
X93980000Y17780000D02*
X91872002Y17780000D01*
X91019999Y16089999D02*
X90170000Y15240000D01*
X91333601Y16403601D02*
X91019999Y16089999D01*
X95143601Y16403601D02*
X91333601Y16403601D01*
X96520000Y17780000D02*
X95143601Y16403601D01*
X88780001Y18930001D02*
X88479999Y18629999D01*
X91872002Y20320000D02*
X90482003Y18930001D01*
X88479999Y18629999D02*
X87630000Y17780000D01*
X90482003Y18930001D02*
X88780001Y18930001D01*
X93980000Y20320000D02*
X91872002Y20320000D01*
X91019999Y18629999D02*
X90170000Y17780000D01*
X91546399Y19156399D02*
X91019999Y18629999D01*
X95356399Y19156399D02*
X91546399Y19156399D01*
X96520000Y20320000D02*
X95356399Y19156399D01*
X88479999Y21169999D02*
X87630000Y20320000D01*
X90482003Y21470001D02*
X88780001Y21470001D01*
X88780001Y21470001D02*
X88479999Y21169999D01*
X91872002Y22860000D02*
X90482003Y21470001D01*
X93980000Y22860000D02*
X91872002Y22860000D01*
X91019999Y21169999D02*
X90170000Y20320000D01*
X91546399Y21696399D02*
X91019999Y21169999D01*
X95356399Y21696399D02*
X91546399Y21696399D01*
X96520000Y22860000D02*
X95356399Y21696399D01*
X88780001Y24010001D02*
X88479999Y23709999D01*
X90482003Y24010001D02*
X88780001Y24010001D01*
X88479999Y23709999D02*
X87630000Y22860000D01*
X91872002Y25400000D02*
X90482003Y24010001D01*
X93980000Y25400000D02*
X91872002Y25400000D01*
X91546399Y24236399D02*
X91019999Y23709999D01*
X91019999Y23709999D02*
X90170000Y22860000D01*
X95356399Y24236399D02*
X91546399Y24236399D01*
X96520000Y25400000D02*
X95356399Y24236399D01*
X90482003Y26550001D02*
X88780001Y26550001D01*
X91872002Y27940000D02*
X90482003Y26550001D01*
X88479999Y26249999D02*
X87630000Y25400000D01*
X88780001Y26550001D02*
X88479999Y26249999D01*
X93980000Y27940000D02*
X91872002Y27940000D01*
X91019999Y26249999D02*
X90170000Y25400000D01*
X91333601Y26563601D02*
X91019999Y26249999D01*
X95143601Y26563601D02*
X91333601Y26563601D01*
X96520000Y27940000D02*
X95143601Y26563601D01*
X88479999Y28789999D02*
X87630000Y27940000D01*
X88780001Y29090001D02*
X88479999Y28789999D01*
X90482003Y29090001D02*
X88780001Y29090001D01*
X91872002Y30480000D02*
X90482003Y29090001D01*
X93980000Y30480000D02*
X91872002Y30480000D01*
X91019999Y28789999D02*
X90170000Y27940000D01*
X91333601Y29103601D02*
X91019999Y28789999D01*
X95143601Y29103601D02*
X91333601Y29103601D01*
X96520000Y30480000D02*
X95143601Y29103601D01*
X88780001Y31630001D02*
X88479999Y31329999D01*
X90482003Y31630001D02*
X88780001Y31630001D01*
X91872002Y33020000D02*
X90482003Y31630001D01*
X88479999Y31329999D02*
X87630000Y30480000D01*
X93980000Y33020000D02*
X91872002Y33020000D01*
X91019999Y31329999D02*
X90170000Y30480000D01*
X91546399Y31856399D02*
X91019999Y31329999D01*
X95356399Y31856399D02*
X91546399Y31856399D01*
X96520000Y33020000D02*
X95356399Y31856399D01*
X88479999Y33869999D02*
X87630000Y33020000D01*
X90482003Y34170001D02*
X88780001Y34170001D01*
X88780001Y34170001D02*
X88479999Y33869999D01*
X91872002Y35560000D02*
X90482003Y34170001D01*
X93980000Y35560000D02*
X91872002Y35560000D01*
X91019999Y33869999D02*
X90170000Y33020000D01*
X91546399Y34396399D02*
X91019999Y33869999D01*
X95356399Y34396399D02*
X91546399Y34396399D01*
X96520000Y35560000D02*
X95356399Y34396399D01*
X88780001Y36710001D02*
X88479999Y36409999D01*
X88479999Y36409999D02*
X87630000Y35560000D01*
X91872002Y38100000D02*
X90482003Y36710001D01*
X90482003Y36710001D02*
X88780001Y36710001D01*
X93980000Y38100000D02*
X91872002Y38100000D01*
X91019999Y36409999D02*
X90170000Y35560000D01*
X95356399Y36936399D02*
X91546399Y36936399D01*
X91546399Y36936399D02*
X91019999Y36409999D01*
X96520000Y38100000D02*
X95356399Y36936399D01*
X88479999Y38949999D02*
X87630000Y38100000D01*
X91872002Y40640000D02*
X90482003Y39250001D01*
X88780001Y39250001D02*
X88479999Y38949999D01*
X90482003Y39250001D02*
X88780001Y39250001D01*
X93980000Y40640000D02*
X91872002Y40640000D01*
X91019999Y38949999D02*
X90170000Y38100000D01*
X91546399Y39476399D02*
X91019999Y38949999D01*
X95356399Y39476399D02*
X91546399Y39476399D01*
X96520000Y40640000D02*
X95356399Y39476399D01*
X89019999Y42029999D02*
X88479999Y41489999D01*
X91872002Y43180000D02*
X90722001Y42029999D01*
X88479999Y41489999D02*
X87630000Y40640000D01*
X90722001Y42029999D02*
X89019999Y42029999D01*
X93980000Y43180000D02*
X91872002Y43180000D01*
X91019999Y41489999D02*
X90170000Y40640000D01*
X91546399Y42016399D02*
X91019999Y41489999D01*
X95356399Y42016399D02*
X91546399Y42016399D01*
X96520000Y43180000D02*
X95356399Y42016399D01*
X88479999Y44029999D02*
X87630000Y43180000D01*
X88780001Y44330001D02*
X88479999Y44029999D01*
X90482003Y44330001D02*
X88780001Y44330001D01*
X91872002Y45720000D02*
X90482003Y44330001D01*
X93980000Y45720000D02*
X91872002Y45720000D01*
X91019999Y44029999D02*
X90170000Y43180000D01*
X91333601Y44343601D02*
X91019999Y44029999D01*
X95143601Y44343601D02*
X91333601Y44343601D01*
X96520000Y45720000D02*
X95143601Y44343601D01*
X90170000Y48260000D02*
X87630000Y45720000D01*
X93980000Y48260000D02*
X90170000Y48260000D01*
X91019999Y46569999D02*
X90170000Y45720000D01*
X91333601Y46883601D02*
X91019999Y46569999D01*
X95143601Y46883601D02*
X91333601Y46883601D01*
X96520000Y48260000D02*
X95143601Y46883601D01*
X49584000Y3756000D02*
X48540012Y4799988D01*
X48540012Y4799988D02*
X46704312Y4799988D01*
X44330001Y5199999D02*
X44029999Y5500001D01*
X46304301Y5199999D02*
X44330001Y5199999D01*
X50800000Y2540000D02*
X50800000Y2692400D01*
X44029999Y5500001D02*
X43180000Y6350000D01*
X46704312Y4799988D02*
X46304301Y5199999D01*
X49736400Y3756000D02*
X49584000Y3756000D01*
X50800000Y2692400D02*
X49736400Y3756000D01*
X52124000Y3756000D02*
X51080012Y4799988D01*
X51080012Y4799988D02*
X49244312Y4799988D01*
X46870001Y5199999D02*
X46569999Y5500001D01*
X48844301Y5199999D02*
X46870001Y5199999D01*
X53340000Y2540000D02*
X53340000Y2692400D01*
X46569999Y5500001D02*
X45720000Y6350000D01*
X49244312Y4799988D02*
X48844301Y5199999D01*
X52276400Y3756000D02*
X52124000Y3756000D01*
X53340000Y2692400D02*
X52276400Y3756000D01*
X54664000Y3756000D02*
X53620012Y4799988D01*
X53620012Y4799988D02*
X51784312Y4799988D01*
X49410001Y5199999D02*
X49109999Y5500001D01*
X51384301Y5199999D02*
X49410001Y5199999D01*
X55880000Y2540000D02*
X55880000Y2692400D01*
X49109999Y5500001D02*
X48260000Y6350000D01*
X51784312Y4799988D02*
X51384301Y5199999D01*
X54816400Y3756000D02*
X54664000Y3756000D01*
X55880000Y2692400D02*
X54816400Y3756000D01*
X57204000Y3756000D02*
X56160012Y4799988D01*
X56160012Y4799988D02*
X54324312Y4799988D01*
X51950001Y5199999D02*
X51649999Y5500001D01*
X53924301Y5199999D02*
X51950001Y5199999D01*
X58420000Y2540000D02*
X58420000Y2692400D01*
X51649999Y5500001D02*
X50800000Y6350000D01*
X54324312Y4799988D02*
X53924301Y5199999D01*
X57356400Y3756000D02*
X57204000Y3756000D01*
X58420000Y2692400D02*
X57356400Y3756000D01*
X59744000Y3756000D02*
X58700012Y4799988D01*
X58700012Y4799988D02*
X56864312Y4799988D01*
X54490001Y5199999D02*
X54189999Y5500001D01*
X56464301Y5199999D02*
X54490001Y5199999D01*
X60960000Y2540000D02*
X60960000Y2692400D01*
X54189999Y5500001D02*
X53340000Y6350000D01*
X56864312Y4799988D02*
X56464301Y5199999D01*
X59896400Y3756000D02*
X59744000Y3756000D01*
X60960000Y2692400D02*
X59896400Y3756000D01*
X62284000Y3756000D02*
X61240012Y4799988D01*
X61240012Y4799988D02*
X59404312Y4799988D01*
X57030001Y5199999D02*
X56729999Y5500001D01*
X59004301Y5199999D02*
X57030001Y5199999D01*
X63500000Y2540000D02*
X63500000Y2692400D01*
X56729999Y5500001D02*
X55880000Y6350000D01*
X59404312Y4799988D02*
X59004301Y5199999D01*
X62436400Y3756000D02*
X62284000Y3756000D01*
X63500000Y2692400D02*
X62436400Y3756000D01*
X64824000Y3756000D02*
X63780012Y4799988D01*
X63780012Y4799988D02*
X61944312Y4799988D01*
X59570001Y5199999D02*
X59269999Y5500001D01*
X61544301Y5199999D02*
X59570001Y5199999D01*
X66040000Y2540000D02*
X66040000Y2692400D01*
X59269999Y5500001D02*
X58420000Y6350000D01*
X61944312Y4799988D02*
X61544301Y5199999D01*
X64976400Y3756000D02*
X64824000Y3756000D01*
X66040000Y2692400D02*
X64976400Y3756000D01*
X67364000Y3756000D02*
X66320012Y4799988D01*
X66320012Y4799988D02*
X64484312Y4799988D01*
X62110001Y5199999D02*
X61809999Y5500001D01*
X64084301Y5199999D02*
X62110001Y5199999D01*
X68580000Y2540000D02*
X68580000Y2692400D01*
X61809999Y5500001D02*
X60960000Y6350000D01*
X64484312Y4799988D02*
X64084301Y5199999D01*
X67516400Y3756000D02*
X67364000Y3756000D01*
X68580000Y2692400D02*
X67516400Y3756000D01*
X72444000Y3756000D02*
X71400012Y4799988D01*
X71400012Y4799988D02*
X69564312Y4799988D01*
X67190001Y5199999D02*
X66889999Y5500001D01*
X69164301Y5199999D02*
X67190001Y5199999D01*
X73660000Y2540000D02*
X73660000Y2692400D01*
X66889999Y5500001D02*
X66040000Y6350000D01*
X69564312Y4799988D02*
X69164301Y5199999D01*
X72596400Y3756000D02*
X72444000Y3756000D01*
X73660000Y2692400D02*
X72596400Y3756000D01*
X74984000Y3756000D02*
X73940012Y4799988D01*
X73940012Y4799988D02*
X72104312Y4799988D01*
X69730001Y5199999D02*
X69429999Y5500001D01*
X71704301Y5199999D02*
X69730001Y5199999D01*
X76200000Y2540000D02*
X76200000Y2692400D01*
X69429999Y5500001D02*
X68580000Y6350000D01*
X72104312Y4799988D02*
X71704301Y5199999D01*
X75136400Y3756000D02*
X74984000Y3756000D01*
X76200000Y2692400D02*
X75136400Y3756000D01*
X74644312Y4799988D02*
X74244301Y5199999D01*
X77676400Y3756000D02*
X77524000Y3756000D01*
X78740000Y2540000D02*
X78740000Y2692400D01*
X71969999Y5500001D02*
X71120000Y6350000D01*
X78740000Y2692400D02*
X77676400Y3756000D01*
X77524000Y3756000D02*
X76480012Y4799988D01*
X72270001Y5199999D02*
X71969999Y5500001D01*
X76480012Y4799988D02*
X74644312Y4799988D01*
X74244301Y5199999D02*
X72270001Y5199999D01*
X80064000Y3756000D02*
X79020012Y4799988D01*
X79020012Y4799988D02*
X77184312Y4799988D01*
X74810001Y5199999D02*
X74509999Y5500001D01*
X76784301Y5199999D02*
X74810001Y5199999D01*
X81280000Y2540000D02*
X81280000Y2692400D01*
X74509999Y5500001D02*
X73660000Y6350000D01*
X77184312Y4799988D02*
X76784301Y5199999D01*
X80216400Y3756000D02*
X80064000Y3756000D01*
X81280000Y2692400D02*
X80216400Y3756000D01*
X82604000Y3756000D02*
X81560012Y4799988D01*
X81560012Y4799988D02*
X79724312Y4799988D01*
X77350001Y5199999D02*
X77049999Y5500001D01*
X79324301Y5199999D02*
X77350001Y5199999D01*
X83820000Y2540000D02*
X83820000Y2692400D01*
X77049999Y5500001D02*
X76200000Y6350000D01*
X79724312Y4799988D02*
X79324301Y5199999D01*
X82756400Y3756000D02*
X82604000Y3756000D01*
X83820000Y2692400D02*
X82756400Y3756000D01*
X85144000Y3756000D02*
X84100012Y4799988D01*
X84100012Y4799988D02*
X82264312Y4799988D01*
X79890001Y5199999D02*
X79589999Y5500001D01*
X81864301Y5199999D02*
X79890001Y5199999D01*
X86360000Y2540000D02*
X86360000Y2692400D01*
X79589999Y5500001D02*
X78740000Y6350000D01*
X82264312Y4799988D02*
X81864301Y5199999D01*
X85296400Y3756000D02*
X85144000Y3756000D01*
X86360000Y2692400D02*
X85296400Y3756000D01*
X87684000Y3756000D02*
X86640012Y4799988D01*
X86640012Y4799988D02*
X84804312Y4799988D01*
X82430001Y5199999D02*
X82129999Y5500001D01*
X84404301Y5199999D02*
X82430001Y5199999D01*
X88900000Y2540000D02*
X88900000Y2692400D01*
X82129999Y5500001D02*
X81280000Y6350000D01*
X84804312Y4799988D02*
X84404301Y5199999D01*
X87836400Y3756000D02*
X87684000Y3756000D01*
X88900000Y2692400D02*
X87836400Y3756000D01*
X90224000Y3756000D02*
X89180012Y4799988D01*
X89180012Y4799988D02*
X87344312Y4799988D01*
X84970001Y5199999D02*
X84669999Y5500001D01*
X86944301Y5199999D02*
X84970001Y5199999D01*
X91440000Y2540000D02*
X91440000Y2692400D01*
X84669999Y5500001D02*
X83820000Y6350000D01*
X87344312Y4799988D02*
X86944301Y5199999D01*
X90376400Y3756000D02*
X90224000Y3756000D01*
X91440000Y2692400D02*
X90376400Y3756000D01*
X83820000Y49530000D02*
X81280000Y46990000D01*
X83820000Y50800000D02*
X83820000Y49530000D01*
X86360000Y49530000D02*
X83820000Y46990000D01*
X86360000Y50800000D02*
X86360000Y49530000D01*
X68580000Y49530000D02*
X66040000Y46990000D01*
X68580000Y50800000D02*
X68580000Y49530000D01*
X71120000Y49530000D02*
X68580000Y46990000D01*
X71120000Y50800000D02*
X71120000Y49530000D01*
X73660000Y49530000D02*
X71120000Y46990000D01*
X73660000Y50800000D02*
X73660000Y49530000D01*
X76200000Y49530000D02*
X73660000Y46990000D01*
X76200000Y50800000D02*
X76200000Y49530000D01*
X78740000Y49530000D02*
X76200000Y46990000D01*
X78740000Y50800000D02*
X78740000Y49530000D01*
X81280000Y49530000D02*
X78740000Y46990000D01*
X81280000Y50800000D02*
X81280000Y49530000D01*
X28956000Y49584000D02*
X28956000Y46990000D01*
X28956000Y50800000D02*
X28956000Y49584000D01*
X31496000Y49584000D02*
X31496000Y46990000D01*
X31496000Y50800000D02*
X31496000Y49584000D01*
X34036000Y49584000D02*
X34036000Y46990000D01*
X34036000Y50800000D02*
X34036000Y49584000D01*
X36576000Y49584000D02*
X36576000Y46990000D01*
X36576000Y50800000D02*
X36576000Y49584000D01*
X39116000Y49584000D02*
X39116000Y46990000D01*
X39116000Y50800000D02*
X39116000Y49584000D01*
X41656000Y49584000D02*
X41656000Y46990000D01*
X41656000Y50800000D02*
X41656000Y49584000D01*
X58420000Y50800000D02*
X58420000Y46990000D01*
X55880000Y50800000D02*
X55880000Y46990000D01*
X53340000Y50800000D02*
X53340000Y46990000D01*
X50800000Y50800000D02*
X50800000Y46990000D01*
X48260000Y50800000D02*
X48260000Y46990000D01*
X45720000Y50800000D02*
X45720000Y46990000D01*
D19*
X2540000Y5080000D02*
X2540000Y10160000D01*
X33909000Y13335000D02*
X39690001Y19116001D01*
X5715000Y13335000D02*
X33909000Y13335000D01*
X39690001Y19116001D02*
X40640000Y20066000D01*
X2540000Y10160000D02*
X5715000Y13335000D01*
X5334000Y38354000D02*
X2540000Y35560000D01*
X40640000Y38354000D02*
X5334000Y38354000D01*
X2540000Y35560000D02*
X2540000Y30480000D01*
X2540000Y18982081D02*
X2540000Y17780000D01*
X2540000Y22860000D02*
X2540000Y18982081D01*
X3890001Y24210001D02*
X2540000Y22860000D01*
X6269999Y24210001D02*
X3890001Y24210001D01*
X6985000Y23495000D02*
X6269999Y24210001D01*
X18461501Y23495000D02*
X6985000Y23495000D01*
X21562502Y26596001D02*
X18461501Y23495000D01*
X56969999Y26596001D02*
X21562502Y26596001D01*
X63500000Y20066000D02*
X56969999Y26596001D01*
D18*
X70866000Y12446000D02*
X63500000Y12446000D01*
X77470000Y19050000D02*
X70866000Y12446000D01*
X78740000Y19050000D02*
X77470000Y19050000D01*
X71086000Y9906000D02*
X63500000Y9906000D01*
X77690000Y16510000D02*
X71086000Y9906000D01*
X78740000Y16510000D02*
X77690000Y16510000D01*
X63754000Y28194000D02*
X63500000Y27940000D01*
X77690000Y34290000D02*
X71594000Y28194000D01*
X78740000Y34290000D02*
X77690000Y34290000D01*
X71594000Y28194000D02*
X63500000Y28194000D01*
X63754000Y30734000D02*
X63500000Y30480000D01*
X77470000Y36830000D02*
X71374000Y30734000D01*
X78740000Y36830000D02*
X77470000Y36830000D01*
X71374000Y30734000D02*
X63500000Y30734000D01*
D19*
X2540000Y48260000D02*
X2540000Y43180000D01*
X3389999Y49109999D02*
X2540000Y48260000D01*
X6316500Y49610001D02*
X3890001Y49610001D01*
X3890001Y49610001D02*
X3389999Y49109999D01*
X11042500Y44884001D02*
X6316500Y49610001D01*
X56969999Y44884001D02*
X11042500Y44884001D01*
X63500000Y38354000D02*
X56969999Y44884001D01*
X5080000Y5080000D02*
X5080000Y10160000D01*
X5715000Y10795000D02*
X5080000Y10160000D01*
X12780000Y10795000D02*
X5715000Y10795000D01*
X36449000Y10795000D02*
X40640000Y14986000D01*
X17780000Y10795000D02*
X36449000Y10795000D01*
X9144000Y18796000D02*
X5080000Y22860000D01*
X12827000Y18796000D02*
X9144000Y18796000D01*
X5080000Y22860000D02*
X5080000Y17780000D01*
X6096000Y34544000D02*
X5080000Y35560000D01*
X12700000Y34544000D02*
X6096000Y34544000D01*
X5080000Y35560000D02*
X5080000Y30480000D01*
X39370000Y34544000D02*
X40640000Y33274000D01*
X17700000Y34544000D02*
X39370000Y34544000D01*
X10541000Y42799000D02*
X5080000Y48260000D01*
X12700000Y42799000D02*
X10541000Y42799000D01*
X5080000Y48260000D02*
X5080000Y43180000D01*
X63500000Y14986000D02*
X55880000Y22606000D01*
X36830000Y18796000D02*
X40640000Y22606000D01*
X17827000Y18796000D02*
X36830000Y18796000D01*
X40640000Y22606000D02*
X55880000Y22606000D01*
X55880000Y40894000D02*
X40640000Y40894000D01*
X63500000Y33274000D02*
X55880000Y40894000D01*
X38735000Y42799000D02*
X40640000Y40894000D01*
X17700000Y42799000D02*
X38735000Y42799000D01*
D20*
G36*
X67327931Y51789005D02*
G01*
X67188775Y51528663D01*
X67103084Y51246176D01*
X67081400Y51026018D01*
X67081400Y50573981D01*
X67103084Y50353823D01*
X67188775Y50071336D01*
X67327931Y49810994D01*
X67515203Y49582803D01*
X67558128Y49547575D01*
X66488626Y48478072D01*
X65190000Y48478072D01*
X65065518Y48465812D01*
X64945820Y48429502D01*
X64835506Y48370537D01*
X64738815Y48291185D01*
X64659463Y48194494D01*
X64600498Y48084180D01*
X64564188Y47964482D01*
X64551928Y47840000D01*
X64551928Y46140000D01*
X64564188Y46015518D01*
X64600498Y45895820D01*
X64659463Y45785506D01*
X64738815Y45688815D01*
X64835506Y45609463D01*
X64945820Y45550498D01*
X65065518Y45514188D01*
X65190000Y45501928D01*
X66890000Y45501928D01*
X67014482Y45514188D01*
X67134180Y45550498D01*
X67244494Y45609463D01*
X67341185Y45688815D01*
X67420537Y45785506D01*
X67479502Y45895820D01*
X67500393Y45964687D01*
X67524866Y45934866D01*
X67750986Y45749294D01*
X68008966Y45611401D01*
X68288889Y45526487D01*
X68507050Y45505000D01*
X68652950Y45505000D01*
X68871111Y45526487D01*
X69151034Y45611401D01*
X69409014Y45749294D01*
X69635134Y45934866D01*
X69820706Y46160986D01*
X69850000Y46215791D01*
X69879294Y46160986D01*
X70064866Y45934866D01*
X70290986Y45749294D01*
X70548966Y45611401D01*
X70828889Y45526487D01*
X71047050Y45505000D01*
X71192950Y45505000D01*
X71411111Y45526487D01*
X71691034Y45611401D01*
X71949014Y45749294D01*
X72175134Y45934866D01*
X72360706Y46160986D01*
X72390000Y46215791D01*
X72419294Y46160986D01*
X72604866Y45934866D01*
X72830986Y45749294D01*
X73088966Y45611401D01*
X73368889Y45526487D01*
X73587050Y45505000D01*
X73732950Y45505000D01*
X73951111Y45526487D01*
X74231034Y45611401D01*
X74489014Y45749294D01*
X74715134Y45934866D01*
X74900706Y46160986D01*
X74930000Y46215791D01*
X74959294Y46160986D01*
X75144866Y45934866D01*
X75370986Y45749294D01*
X75628966Y45611401D01*
X75908889Y45526487D01*
X76127050Y45505000D01*
X76272950Y45505000D01*
X76491111Y45526487D01*
X76771034Y45611401D01*
X77029014Y45749294D01*
X77255134Y45934866D01*
X77440706Y46160986D01*
X77470000Y46215791D01*
X77499294Y46160986D01*
X77684866Y45934866D01*
X77910986Y45749294D01*
X78168966Y45611401D01*
X78448889Y45526487D01*
X78667050Y45505000D01*
X78812950Y45505000D01*
X79031111Y45526487D01*
X79311034Y45611401D01*
X79569014Y45749294D01*
X79795134Y45934866D01*
X79980706Y46160986D01*
X80010000Y46215791D01*
X80039294Y46160986D01*
X80224866Y45934866D01*
X80450986Y45749294D01*
X80708966Y45611401D01*
X80988889Y45526487D01*
X81207050Y45505000D01*
X81352950Y45505000D01*
X81571111Y45526487D01*
X81851034Y45611401D01*
X82109014Y45749294D01*
X82335134Y45934866D01*
X82520706Y46160986D01*
X82550000Y46215791D01*
X82579294Y46160986D01*
X82764866Y45934866D01*
X82990986Y45749294D01*
X83248966Y45611401D01*
X83528889Y45526487D01*
X83747050Y45505000D01*
X83892950Y45505000D01*
X84111111Y45526487D01*
X84391034Y45611401D01*
X84649014Y45749294D01*
X84875134Y45934866D01*
X85060706Y46160986D01*
X85198599Y46418966D01*
X85283513Y46698889D01*
X85312185Y46990000D01*
X85283513Y47281111D01*
X85252568Y47383122D01*
X86854193Y48984746D01*
X86882238Y49007762D01*
X86974087Y49119680D01*
X87042337Y49247367D01*
X87066126Y49325788D01*
X87196606Y49395531D01*
X87424797Y49582803D01*
X87612069Y49810994D01*
X87657621Y49896215D01*
X87806536Y49536702D01*
X88098406Y49099887D01*
X88469887Y48728406D01*
X88906702Y48436536D01*
X89189818Y48319265D01*
X88023122Y47152568D01*
X87921111Y47183513D01*
X87702950Y47205000D01*
X87557050Y47205000D01*
X87338889Y47183513D01*
X87058966Y47098599D01*
X86800986Y46960706D01*
X86574866Y46775134D01*
X86389294Y46549014D01*
X86251401Y46291034D01*
X86166487Y46011111D01*
X86137815Y45720000D01*
X86166487Y45428889D01*
X86251401Y45148966D01*
X86389294Y44890986D01*
X86574866Y44664866D01*
X86800986Y44479294D01*
X86855791Y44450000D01*
X86800986Y44420706D01*
X86574866Y44235134D01*
X86389294Y44009014D01*
X86251401Y43751034D01*
X86166487Y43471111D01*
X86137815Y43180000D01*
X86166487Y42888889D01*
X86251401Y42608966D01*
X86389294Y42350986D01*
X86574866Y42124866D01*
X86800986Y41939294D01*
X86855791Y41910000D01*
X86800986Y41880706D01*
X86574866Y41695134D01*
X86389294Y41469014D01*
X86251401Y41211034D01*
X86166487Y40931111D01*
X86137815Y40640000D01*
X86166487Y40348889D01*
X86251401Y40068966D01*
X86389294Y39810986D01*
X86574866Y39584866D01*
X86800986Y39399294D01*
X86855791Y39370000D01*
X86800986Y39340706D01*
X86574866Y39155134D01*
X86389294Y38929014D01*
X86251401Y38671034D01*
X86166487Y38391111D01*
X86137815Y38100000D01*
X86166487Y37808889D01*
X86251401Y37528966D01*
X86389294Y37270986D01*
X86574866Y37044866D01*
X86800986Y36859294D01*
X86855791Y36830000D01*
X86800986Y36800706D01*
X86574866Y36615134D01*
X86389294Y36389014D01*
X86251401Y36131034D01*
X86166487Y35851111D01*
X86137815Y35560000D01*
X86166487Y35268889D01*
X86251401Y34988966D01*
X86389294Y34730986D01*
X86574866Y34504866D01*
X86800986Y34319294D01*
X86855791Y34290000D01*
X86800986Y34260706D01*
X86574866Y34075134D01*
X86389294Y33849014D01*
X86251401Y33591034D01*
X86166487Y33311111D01*
X86137815Y33020000D01*
X86166487Y32728889D01*
X86251401Y32448966D01*
X86389294Y32190986D01*
X86574866Y31964866D01*
X86800986Y31779294D01*
X86855791Y31750000D01*
X86800986Y31720706D01*
X86574866Y31535134D01*
X86389294Y31309014D01*
X86251401Y31051034D01*
X86166487Y30771111D01*
X86137815Y30480000D01*
X86166487Y30188889D01*
X86251401Y29908966D01*
X86389294Y29650986D01*
X86574866Y29424866D01*
X86800986Y29239294D01*
X86855791Y29210000D01*
X86800986Y29180706D01*
X86574866Y28995134D01*
X86389294Y28769014D01*
X86251401Y28511034D01*
X86166487Y28231111D01*
X86137815Y27940000D01*
X86166487Y27648889D01*
X86251401Y27368966D01*
X86389294Y27110986D01*
X86574866Y26884866D01*
X86800986Y26699294D01*
X86855791Y26670000D01*
X86800986Y26640706D01*
X86574866Y26455134D01*
X86389294Y26229014D01*
X86251401Y25971034D01*
X86166487Y25691111D01*
X86137815Y25400000D01*
X86166487Y25108889D01*
X86251401Y24828966D01*
X86389294Y24570986D01*
X86574866Y24344866D01*
X86800986Y24159294D01*
X86855791Y24130000D01*
X86800986Y24100706D01*
X86574866Y23915134D01*
X86389294Y23689014D01*
X86251401Y23431034D01*
X86166487Y23151111D01*
X86137815Y22860000D01*
X86166487Y22568889D01*
X86251401Y22288966D01*
X86389294Y22030986D01*
X86574866Y21804866D01*
X86800986Y21619294D01*
X86855791Y21590000D01*
X86800986Y21560706D01*
X86574866Y21375134D01*
X86389294Y21149014D01*
X86251401Y20891034D01*
X86166487Y20611111D01*
X86137815Y20320000D01*
X86166487Y20028889D01*
X86251401Y19748966D01*
X86389294Y19490986D01*
X86574866Y19264866D01*
X86800986Y19079294D01*
X86855791Y19050000D01*
X86800986Y19020706D01*
X86574866Y18835134D01*
X86389294Y18609014D01*
X86251401Y18351034D01*
X86166487Y18071111D01*
X86137815Y17780000D01*
X86166487Y17488889D01*
X86251401Y17208966D01*
X86389294Y16950986D01*
X86574866Y16724866D01*
X86800986Y16539294D01*
X86855791Y16510000D01*
X86800986Y16480706D01*
X86574866Y16295134D01*
X86389294Y16069014D01*
X86251401Y15811034D01*
X86166487Y15531111D01*
X86137815Y15240000D01*
X86166487Y14948889D01*
X86251401Y14668966D01*
X86389294Y14410986D01*
X86574866Y14184866D01*
X86800986Y13999294D01*
X86855791Y13970000D01*
X86800986Y13940706D01*
X86574866Y13755134D01*
X86389294Y13529014D01*
X86251401Y13271034D01*
X86166487Y12991111D01*
X86137815Y12700000D01*
X86166487Y12408889D01*
X86251401Y12128966D01*
X86389294Y11870986D01*
X86574866Y11644866D01*
X86800986Y11459294D01*
X86855791Y11430000D01*
X86800986Y11400706D01*
X86574866Y11215134D01*
X86389294Y10989014D01*
X86251401Y10731034D01*
X86166487Y10451111D01*
X86137815Y10160000D01*
X86166487Y9868889D01*
X86251401Y9588966D01*
X86389294Y9330986D01*
X86574866Y9104866D01*
X86604687Y9080393D01*
X86535820Y9059502D01*
X86425506Y9000537D01*
X86328815Y8921185D01*
X86249463Y8824494D01*
X86190498Y8714180D01*
X86154188Y8594482D01*
X86141928Y8470000D01*
X86141928Y6770000D01*
X86154188Y6645518D01*
X86190498Y6525820D01*
X86249463Y6415506D01*
X86328815Y6318815D01*
X86425506Y6239463D01*
X86535820Y6180498D01*
X86655518Y6144188D01*
X86780000Y6131928D01*
X88480000Y6131928D01*
X88604482Y6144188D01*
X88724180Y6180498D01*
X88834494Y6239463D01*
X88931185Y6318815D01*
X89010537Y6415506D01*
X89069502Y6525820D01*
X89090393Y6594687D01*
X89114866Y6564866D01*
X89340986Y6379294D01*
X89598966Y6241401D01*
X89878889Y6156487D01*
X90097050Y6135000D01*
X90242950Y6135000D01*
X90461111Y6156487D01*
X90741034Y6241401D01*
X90999014Y6379294D01*
X91225134Y6564866D01*
X91239110Y6581896D01*
X93121501Y6581896D01*
X93200782Y6331433D01*
X93467141Y6204174D01*
X93753210Y6131325D01*
X94047993Y6115685D01*
X94340164Y6157855D01*
X94618493Y6256214D01*
X94759218Y6331433D01*
X94838499Y6581896D01*
X93980000Y7440395D01*
X93121501Y6581896D01*
X91239110Y6581896D01*
X91410706Y6790986D01*
X91548599Y7048966D01*
X91633513Y7328889D01*
X91662185Y7620000D01*
X91633513Y7911111D01*
X91602568Y8013122D01*
X91744446Y8155000D01*
X92574752Y8155000D01*
X92564174Y8132859D01*
X92491325Y7846790D01*
X92475685Y7552007D01*
X92517855Y7259836D01*
X92616214Y6981507D01*
X92691433Y6840782D01*
X92941896Y6761501D01*
X93800395Y7620000D01*
X93786253Y7634142D01*
X93965858Y7813747D01*
X93980000Y7799605D01*
X93994143Y7813747D01*
X94173748Y7634142D01*
X94159605Y7620000D01*
X95018104Y6761501D01*
X95251434Y6835359D01*
X95313183Y6731512D01*
X95509707Y6513146D01*
X95745056Y6337316D01*
X96010186Y6210778D01*
X96160974Y6165042D01*
X96393000Y6286183D01*
X96393000Y7493000D01*
X96647000Y7493000D01*
X96647000Y6286183D01*
X96879026Y6165042D01*
X97029814Y6210778D01*
X97294944Y6337316D01*
X97530293Y6513146D01*
X97726817Y6731512D01*
X97876964Y6984022D01*
X97974963Y7260973D01*
X97854464Y7493000D01*
X96647000Y7493000D01*
X96393000Y7493000D01*
X96373000Y7493000D01*
X96373000Y7747000D01*
X96393000Y7747000D01*
X96393000Y7767000D01*
X96647000Y7767000D01*
X96647000Y7747000D01*
X97854464Y7747000D01*
X97974963Y7979027D01*
X97876964Y8255978D01*
X97726817Y8508488D01*
X97530293Y8726854D01*
X97316567Y8886530D01*
X97356606Y8907931D01*
X97584797Y9095203D01*
X97772069Y9323394D01*
X97911225Y9583736D01*
X97996916Y9866223D01*
X98025851Y10160000D01*
X97996916Y10453777D01*
X97911225Y10736264D01*
X97772069Y10996606D01*
X97584797Y11224797D01*
X97356606Y11412069D01*
X97323060Y11430000D01*
X97356606Y11447931D01*
X97584797Y11635203D01*
X97772069Y11863394D01*
X97911225Y12123736D01*
X97996916Y12406223D01*
X98025851Y12700000D01*
X97996916Y12993777D01*
X97911225Y13276264D01*
X97772069Y13536606D01*
X97584797Y13764797D01*
X97356606Y13952069D01*
X97323060Y13970000D01*
X97356606Y13987931D01*
X97584797Y14175203D01*
X97772069Y14403394D01*
X97911225Y14663736D01*
X97996916Y14946223D01*
X98025851Y15240000D01*
X97996916Y15533777D01*
X97911225Y15816264D01*
X97772069Y16076606D01*
X97584797Y16304797D01*
X97356606Y16492069D01*
X97323060Y16510000D01*
X97356606Y16527931D01*
X97584797Y16715203D01*
X97772069Y16943394D01*
X97911225Y17203736D01*
X97996916Y17486223D01*
X98025851Y17780000D01*
X97996916Y18073777D01*
X97911225Y18356264D01*
X97772069Y18616606D01*
X97584797Y18844797D01*
X97356606Y19032069D01*
X97323060Y19050000D01*
X97356606Y19067931D01*
X97584797Y19255203D01*
X97772069Y19483394D01*
X97911225Y19743736D01*
X97996916Y20026223D01*
X98025851Y20320000D01*
X97996916Y20613777D01*
X97911225Y20896264D01*
X97772069Y21156606D01*
X97584797Y21384797D01*
X97356606Y21572069D01*
X97323060Y21590000D01*
X97356606Y21607931D01*
X97584797Y21795203D01*
X97772069Y22023394D01*
X97911225Y22283736D01*
X97996916Y22566223D01*
X98025851Y22860000D01*
X97996916Y23153777D01*
X97911225Y23436264D01*
X97772069Y23696606D01*
X97584797Y23924797D01*
X97356606Y24112069D01*
X97323060Y24130000D01*
X97356606Y24147931D01*
X97584797Y24335203D01*
X97772069Y24563394D01*
X97911225Y24823736D01*
X97996916Y25106223D01*
X98025851Y25400000D01*
X97996916Y25693777D01*
X97911225Y25976264D01*
X97772069Y26236606D01*
X97584797Y26464797D01*
X97356606Y26652069D01*
X97323060Y26670000D01*
X97356606Y26687931D01*
X97584797Y26875203D01*
X97772069Y27103394D01*
X97911225Y27363736D01*
X97996916Y27646223D01*
X98025851Y27940000D01*
X97996916Y28233777D01*
X97911225Y28516264D01*
X97772069Y28776606D01*
X97584797Y29004797D01*
X97356606Y29192069D01*
X97323060Y29210000D01*
X97356606Y29227931D01*
X97584797Y29415203D01*
X97772069Y29643394D01*
X97911225Y29903736D01*
X97996916Y30186223D01*
X98025851Y30480000D01*
X97996916Y30773777D01*
X97911225Y31056264D01*
X97772069Y31316606D01*
X97584797Y31544797D01*
X97356606Y31732069D01*
X97323060Y31750000D01*
X97356606Y31767931D01*
X97584797Y31955203D01*
X97772069Y32183394D01*
X97911225Y32443736D01*
X97996916Y32726223D01*
X98025851Y33020000D01*
X97996916Y33313777D01*
X97911225Y33596264D01*
X97772069Y33856606D01*
X97584797Y34084797D01*
X97356606Y34272069D01*
X97323060Y34290000D01*
X97356606Y34307931D01*
X97584797Y34495203D01*
X97772069Y34723394D01*
X97911225Y34983736D01*
X97996916Y35266223D01*
X98025851Y35560000D01*
X97996916Y35853777D01*
X97911225Y36136264D01*
X97772069Y36396606D01*
X97584797Y36624797D01*
X97356606Y36812069D01*
X97323060Y36830000D01*
X97356606Y36847931D01*
X97584797Y37035203D01*
X97772069Y37263394D01*
X97911225Y37523736D01*
X97996916Y37806223D01*
X98025851Y38100000D01*
X97996916Y38393777D01*
X97911225Y38676264D01*
X97772069Y38936606D01*
X97584797Y39164797D01*
X97356606Y39352069D01*
X97323060Y39370000D01*
X97356606Y39387931D01*
X97584797Y39575203D01*
X97772069Y39803394D01*
X97911225Y40063736D01*
X97975330Y40275064D01*
X98350000Y39900394D01*
X98350001Y4481706D01*
X98220113Y4611594D01*
X97783298Y4903464D01*
X97297935Y5104508D01*
X96782677Y5207000D01*
X96257323Y5207000D01*
X95742065Y5104508D01*
X95256702Y4903464D01*
X94819887Y4611594D01*
X94448406Y4240113D01*
X94156536Y3803298D01*
X93955492Y3317935D01*
X93853000Y2802677D01*
X93853000Y2277323D01*
X93955492Y1762065D01*
X94106707Y1397000D01*
X92565689Y1397000D01*
X92692069Y1550994D01*
X92831225Y1811337D01*
X92916916Y2093824D01*
X92938600Y2313982D01*
X92938600Y2766019D01*
X92916916Y2986177D01*
X92831225Y3268664D01*
X92692069Y3529006D01*
X92504797Y3757197D01*
X92276605Y3944469D01*
X92016263Y4083625D01*
X91733776Y4169316D01*
X91440000Y4198251D01*
X91146223Y4169316D01*
X91035974Y4135872D01*
X90921658Y4250188D01*
X90898638Y4278238D01*
X90786720Y4370087D01*
X90659033Y4438337D01*
X90547179Y4472267D01*
X89725270Y5294176D01*
X89702250Y5322226D01*
X89590332Y5414075D01*
X89462645Y5482325D01*
X89324097Y5524353D01*
X89216117Y5534988D01*
X89180012Y5538544D01*
X89143907Y5534988D01*
X87648758Y5534988D01*
X87489560Y5694186D01*
X87466539Y5722237D01*
X87354621Y5814086D01*
X87226934Y5882336D01*
X87088386Y5924364D01*
X86980406Y5934999D01*
X86944301Y5938555D01*
X86908196Y5934999D01*
X85274447Y5934999D01*
X85252568Y5956878D01*
X85283513Y6058889D01*
X85312185Y6350000D01*
X85283513Y6641111D01*
X85198599Y6921034D01*
X85060706Y7179014D01*
X84875134Y7405134D01*
X84649014Y7590706D01*
X84391034Y7728599D01*
X84111111Y7813513D01*
X83892950Y7835000D01*
X83747050Y7835000D01*
X83528889Y7813513D01*
X83248966Y7728599D01*
X82990986Y7590706D01*
X82764866Y7405134D01*
X82579294Y7179014D01*
X82550000Y7124209D01*
X82520706Y7179014D01*
X82335134Y7405134D01*
X82109014Y7590706D01*
X81851034Y7728599D01*
X81571111Y7813513D01*
X81352950Y7835000D01*
X81207050Y7835000D01*
X80988889Y7813513D01*
X80708966Y7728599D01*
X80450986Y7590706D01*
X80224866Y7405134D01*
X80039294Y7179014D01*
X80010000Y7124209D01*
X79980706Y7179014D01*
X79795134Y7405134D01*
X79569014Y7590706D01*
X79311034Y7728599D01*
X79031111Y7813513D01*
X78812950Y7835000D01*
X78667050Y7835000D01*
X78448889Y7813513D01*
X78168966Y7728599D01*
X77910986Y7590706D01*
X77684866Y7405134D01*
X77499294Y7179014D01*
X77470000Y7124209D01*
X77440706Y7179014D01*
X77255134Y7405134D01*
X77029014Y7590706D01*
X76771034Y7728599D01*
X76491111Y7813513D01*
X76272950Y7835000D01*
X76127050Y7835000D01*
X75908889Y7813513D01*
X75628966Y7728599D01*
X75370986Y7590706D01*
X75144866Y7405134D01*
X74959294Y7179014D01*
X74930000Y7124209D01*
X74900706Y7179014D01*
X74715134Y7405134D01*
X74489014Y7590706D01*
X74231034Y7728599D01*
X73951111Y7813513D01*
X73732950Y7835000D01*
X73587050Y7835000D01*
X73368889Y7813513D01*
X73088966Y7728599D01*
X72830986Y7590706D01*
X72604866Y7405134D01*
X72419294Y7179014D01*
X72390000Y7124209D01*
X72360706Y7179014D01*
X72175134Y7405134D01*
X71949014Y7590706D01*
X71691034Y7728599D01*
X71411111Y7813513D01*
X71192950Y7835000D01*
X71047050Y7835000D01*
X70828889Y7813513D01*
X70548966Y7728599D01*
X70290986Y7590706D01*
X70064866Y7405134D01*
X69879294Y7179014D01*
X69850000Y7124209D01*
X69820706Y7179014D01*
X69635134Y7405134D01*
X69409014Y7590706D01*
X69151034Y7728599D01*
X68871111Y7813513D01*
X68652950Y7835000D01*
X68507050Y7835000D01*
X68288889Y7813513D01*
X68008966Y7728599D01*
X67750986Y7590706D01*
X67524866Y7405134D01*
X67500393Y7375313D01*
X67479502Y7444180D01*
X67420537Y7554494D01*
X67341185Y7651185D01*
X67244494Y7730537D01*
X67134180Y7789502D01*
X67014482Y7825812D01*
X66890000Y7838072D01*
X65190000Y7838072D01*
X65065518Y7825812D01*
X64945820Y7789502D01*
X64835506Y7730537D01*
X64738815Y7651185D01*
X64659463Y7554494D01*
X64600498Y7444180D01*
X64564188Y7324482D01*
X64551928Y7200000D01*
X64551928Y5767055D01*
X64494621Y5814086D01*
X64366934Y5882336D01*
X64228386Y5924364D01*
X64120406Y5934999D01*
X64084301Y5938555D01*
X64048196Y5934999D01*
X62414447Y5934999D01*
X62392568Y5956878D01*
X62423513Y6058889D01*
X62452185Y6350000D01*
X62423513Y6641111D01*
X62338599Y6921034D01*
X62200706Y7179014D01*
X62015134Y7405134D01*
X61789014Y7590706D01*
X61531034Y7728599D01*
X61251111Y7813513D01*
X61032950Y7835000D01*
X60887050Y7835000D01*
X60668889Y7813513D01*
X60388966Y7728599D01*
X60130986Y7590706D01*
X59904866Y7405134D01*
X59719294Y7179014D01*
X59690000Y7124209D01*
X59660706Y7179014D01*
X59475134Y7405134D01*
X59249014Y7590706D01*
X58991034Y7728599D01*
X58711111Y7813513D01*
X58492950Y7835000D01*
X58347050Y7835000D01*
X58128889Y7813513D01*
X57848966Y7728599D01*
X57590986Y7590706D01*
X57364866Y7405134D01*
X57179294Y7179014D01*
X57150000Y7124209D01*
X57120706Y7179014D01*
X56935134Y7405134D01*
X56709014Y7590706D01*
X56451034Y7728599D01*
X56171111Y7813513D01*
X55952950Y7835000D01*
X55807050Y7835000D01*
X55588889Y7813513D01*
X55308966Y7728599D01*
X55050986Y7590706D01*
X54824866Y7405134D01*
X54639294Y7179014D01*
X54610000Y7124209D01*
X54580706Y7179014D01*
X54395134Y7405134D01*
X54169014Y7590706D01*
X53911034Y7728599D01*
X53631111Y7813513D01*
X53412950Y7835000D01*
X53267050Y7835000D01*
X53048889Y7813513D01*
X52768966Y7728599D01*
X52510986Y7590706D01*
X52284866Y7405134D01*
X52099294Y7179014D01*
X52070000Y7124209D01*
X52040706Y7179014D01*
X51855134Y7405134D01*
X51629014Y7590706D01*
X51371034Y7728599D01*
X51091111Y7813513D01*
X50872950Y7835000D01*
X50727050Y7835000D01*
X50508889Y7813513D01*
X50228966Y7728599D01*
X49970986Y7590706D01*
X49744866Y7405134D01*
X49559294Y7179014D01*
X49530000Y7124209D01*
X49500706Y7179014D01*
X49315134Y7405134D01*
X49089014Y7590706D01*
X48831034Y7728599D01*
X48551111Y7813513D01*
X48332950Y7835000D01*
X48187050Y7835000D01*
X47968889Y7813513D01*
X47688966Y7728599D01*
X47430986Y7590706D01*
X47204866Y7405134D01*
X47019294Y7179014D01*
X46990000Y7124209D01*
X46960706Y7179014D01*
X46775134Y7405134D01*
X46549014Y7590706D01*
X46291034Y7728599D01*
X46011111Y7813513D01*
X45792950Y7835000D01*
X45647050Y7835000D01*
X45428889Y7813513D01*
X45148966Y7728599D01*
X44890986Y7590706D01*
X44664866Y7405134D01*
X44640393Y7375313D01*
X44619502Y7444180D01*
X44560537Y7554494D01*
X44481185Y7651185D01*
X44384494Y7730537D01*
X44274180Y7789502D01*
X44154482Y7825812D01*
X44030000Y7838072D01*
X42330000Y7838072D01*
X42205518Y7825812D01*
X42085820Y7789502D01*
X41975506Y7730537D01*
X41878815Y7651185D01*
X41799463Y7554494D01*
X41740498Y7444180D01*
X41704188Y7324482D01*
X41691928Y7200000D01*
X41691928Y5500000D01*
X41704188Y5375518D01*
X41740498Y5255820D01*
X41799463Y5145506D01*
X41878815Y5048815D01*
X41975506Y4969463D01*
X42085820Y4910498D01*
X42205518Y4874188D01*
X42330000Y4861928D01*
X43628626Y4861928D01*
X43784742Y4705812D01*
X43807763Y4677761D01*
X43919681Y4585912D01*
X44047368Y4517662D01*
X44170320Y4480365D01*
X44185916Y4475634D01*
X44330001Y4461443D01*
X44366106Y4464999D01*
X45999855Y4464999D01*
X46159053Y4305801D01*
X46182074Y4277750D01*
X46293992Y4185901D01*
X46421679Y4117651D01*
X46518198Y4088372D01*
X46560226Y4075623D01*
X46704312Y4061432D01*
X46740417Y4064988D01*
X48235566Y4064988D01*
X49038746Y3261807D01*
X49061762Y3233762D01*
X49173680Y3141913D01*
X49301367Y3073663D01*
X49345556Y3060258D01*
X49323084Y2986176D01*
X49301400Y2766018D01*
X49301400Y2313981D01*
X49323084Y2093823D01*
X49408775Y1811336D01*
X49547931Y1550994D01*
X49674311Y1397000D01*
X46845689Y1397000D01*
X46972069Y1550994D01*
X47111225Y1811337D01*
X47196916Y2093824D01*
X47218600Y2313982D01*
X47218600Y2766019D01*
X47196916Y2986177D01*
X47111225Y3268664D01*
X46972069Y3529006D01*
X46784797Y3757197D01*
X46556605Y3944469D01*
X46296263Y4083625D01*
X46013776Y4169316D01*
X45720000Y4198251D01*
X45426223Y4169316D01*
X45143736Y4083625D01*
X44883394Y3944469D01*
X44655203Y3757197D01*
X44467931Y3529005D01*
X44446576Y3489053D01*
X44298486Y3691729D01*
X44082035Y3890733D01*
X43830919Y4043686D01*
X43554789Y4144709D01*
X43539026Y4147358D01*
X43307000Y4026217D01*
X43307000Y2667000D01*
X43327000Y2667000D01*
X43327000Y2413000D01*
X43307000Y2413000D01*
X43307000Y2393000D01*
X43053000Y2393000D01*
X43053000Y2413000D01*
X40767000Y2413000D01*
X40767000Y2393000D01*
X40513000Y2393000D01*
X40513000Y2413000D01*
X40493000Y2413000D01*
X40493000Y2667000D01*
X40513000Y2667000D01*
X40513000Y4026217D01*
X40767000Y4026217D01*
X40767000Y2667000D01*
X43053000Y2667000D01*
X43053000Y4026217D01*
X42820974Y4147358D01*
X42805211Y4144709D01*
X42529081Y4043686D01*
X42277965Y3890733D01*
X42061514Y3691729D01*
X41910000Y3484367D01*
X41758486Y3691729D01*
X41542035Y3890733D01*
X41290919Y4043686D01*
X41014789Y4144709D01*
X40999026Y4147358D01*
X40767000Y4026217D01*
X40513000Y4026217D01*
X40280974Y4147358D01*
X40265211Y4144709D01*
X39989081Y4043686D01*
X39737965Y3890733D01*
X39521514Y3691729D01*
X39373424Y3489053D01*
X39352069Y3529006D01*
X39164797Y3757197D01*
X38936605Y3944469D01*
X38676263Y4083625D01*
X38393776Y4169316D01*
X38100000Y4198251D01*
X37806223Y4169316D01*
X37523736Y4083625D01*
X37263394Y3944469D01*
X37035203Y3757197D01*
X36847931Y3529005D01*
X36830000Y3495459D01*
X36812069Y3529006D01*
X36624797Y3757197D01*
X36396605Y3944469D01*
X36136263Y4083625D01*
X35853776Y4169316D01*
X35560000Y4198251D01*
X35266223Y4169316D01*
X34983736Y4083625D01*
X34723394Y3944469D01*
X34495203Y3757197D01*
X34307931Y3529005D01*
X34290000Y3495459D01*
X34272069Y3529006D01*
X34084797Y3757197D01*
X33856605Y3944469D01*
X33596263Y4083625D01*
X33313776Y4169316D01*
X33020000Y4198251D01*
X32726223Y4169316D01*
X32443736Y4083625D01*
X32183394Y3944469D01*
X31955203Y3757197D01*
X31767931Y3529005D01*
X31750000Y3495459D01*
X31732069Y3529006D01*
X31544797Y3757197D01*
X31316605Y3944469D01*
X31056263Y4083625D01*
X30773776Y4169316D01*
X30480000Y4198251D01*
X30186223Y4169316D01*
X29903736Y4083625D01*
X29643394Y3944469D01*
X29415203Y3757197D01*
X29227931Y3529005D01*
X29210000Y3495459D01*
X29192069Y3529006D01*
X29004797Y3757197D01*
X28776605Y3944469D01*
X28516263Y4083625D01*
X28233776Y4169316D01*
X27940000Y4198251D01*
X27646223Y4169316D01*
X27363736Y4083625D01*
X27103394Y3944469D01*
X26875203Y3757197D01*
X26687931Y3529005D01*
X26548775Y3268663D01*
X26463084Y2986176D01*
X26441400Y2766018D01*
X26441400Y2313981D01*
X26463084Y2093823D01*
X26548775Y1811336D01*
X26687931Y1550994D01*
X26814311Y1397000D01*
X16383293Y1397000D01*
X16534508Y1762065D01*
X16637000Y2277323D01*
X16637000Y2802677D01*
X16534508Y3317935D01*
X16333464Y3803298D01*
X16041594Y4240113D01*
X15670113Y4611594D01*
X15233298Y4903464D01*
X14747935Y5104508D01*
X14232677Y5207000D01*
X13707323Y5207000D01*
X13192065Y5104508D01*
X12706702Y4903464D01*
X12269887Y4611594D01*
X11898406Y4240113D01*
X11606536Y3803298D01*
X11405492Y3317935D01*
X11303000Y2802677D01*
X11303000Y2277323D01*
X11405492Y1762065D01*
X11556707Y1397000D01*
X1397000Y1397000D01*
X1397000Y4131931D01*
X1484866Y4024866D01*
X1710986Y3839294D01*
X1968966Y3701401D01*
X2248889Y3616487D01*
X2467050Y3595000D01*
X2612950Y3595000D01*
X2831111Y3616487D01*
X3111034Y3701401D01*
X3369014Y3839294D01*
X3595134Y4024866D01*
X3619607Y4054687D01*
X3640498Y3985820D01*
X3699463Y3875506D01*
X3778815Y3778815D01*
X3875506Y3699463D01*
X3985820Y3640498D01*
X4105518Y3604188D01*
X4230000Y3591928D01*
X5930000Y3591928D01*
X6054482Y3604188D01*
X6174180Y3640498D01*
X6284494Y3699463D01*
X6381185Y3778815D01*
X6460537Y3875506D01*
X6519502Y3985820D01*
X6555812Y4105518D01*
X6568072Y4230000D01*
X6568072Y5930000D01*
X6555812Y6054482D01*
X6519502Y6174180D01*
X6460537Y6284494D01*
X6381185Y6381185D01*
X6284494Y6460537D01*
X6174180Y6519502D01*
X6105313Y6540393D01*
X6135134Y6564866D01*
X6320706Y6790986D01*
X6458599Y7048966D01*
X6543513Y7328889D01*
X6572185Y7620000D01*
X6543513Y7911111D01*
X6458599Y8191034D01*
X6320706Y8449014D01*
X6135134Y8675134D01*
X6015000Y8773725D01*
X6015000Y9006275D01*
X6135134Y9104866D01*
X6320706Y9330986D01*
X6458599Y9588966D01*
X6540817Y9860000D01*
X11438349Y9860000D01*
X11510013Y9752748D01*
X11737748Y9525013D01*
X12005537Y9346082D01*
X12303088Y9222832D01*
X12618967Y9160000D01*
X12941033Y9160000D01*
X13256912Y9222832D01*
X13554463Y9346082D01*
X13822252Y9525013D01*
X14049987Y9752748D01*
X14228918Y10020537D01*
X14352168Y10318088D01*
X14415000Y10633967D01*
X14415000Y10956033D01*
X14352168Y11271912D01*
X14228918Y11569463D01*
X14049987Y11837252D01*
X13822252Y12064987D01*
X13554463Y12243918D01*
X13256912Y12367168D01*
X13091854Y12400000D01*
X17468146Y12400000D01*
X17303088Y12367168D01*
X17005537Y12243918D01*
X16737748Y12064987D01*
X16510013Y11837252D01*
X16331082Y11569463D01*
X16207832Y11271912D01*
X16145000Y10956033D01*
X16145000Y10633967D01*
X16207832Y10318088D01*
X16331082Y10020537D01*
X16510013Y9752748D01*
X16737748Y9525013D01*
X17005537Y9346082D01*
X17303088Y9222832D01*
X17618967Y9160000D01*
X17941033Y9160000D01*
X18256912Y9222832D01*
X18554463Y9346082D01*
X18822252Y9525013D01*
X19049987Y9752748D01*
X19121651Y9860000D01*
X36403068Y9860000D01*
X36449000Y9855476D01*
X36494932Y9860000D01*
X36632292Y9873529D01*
X36808540Y9926993D01*
X36970972Y10013814D01*
X37113344Y10130656D01*
X37142630Y10166341D01*
X39090037Y12113748D01*
X39115911Y11983673D01*
X39235391Y11695221D01*
X39408850Y11435621D01*
X39629621Y11214850D01*
X39687764Y11176000D01*
X39629621Y11137150D01*
X39408850Y10916379D01*
X39235391Y10656779D01*
X39115911Y10368327D01*
X39055000Y10062109D01*
X39055000Y9749891D01*
X39115911Y9443673D01*
X39235391Y9155221D01*
X39408850Y8895621D01*
X39629621Y8674850D01*
X39889221Y8501391D01*
X40177673Y8381911D01*
X40483891Y8321000D01*
X40796109Y8321000D01*
X41102327Y8381911D01*
X41390779Y8501391D01*
X41650379Y8674850D01*
X41871150Y8895621D01*
X42044609Y9155221D01*
X42164089Y9443673D01*
X42225000Y9749891D01*
X42225000Y10062109D01*
X42164089Y10368327D01*
X42044609Y10656779D01*
X41871150Y10916379D01*
X41650379Y11137150D01*
X41592236Y11176000D01*
X41650379Y11214850D01*
X41871150Y11435621D01*
X42044609Y11695221D01*
X42164089Y11983673D01*
X42225000Y12289891D01*
X42225000Y12602109D01*
X42164089Y12908327D01*
X42044609Y13196779D01*
X41871150Y13456379D01*
X41650379Y13677150D01*
X41592236Y13716000D01*
X41650379Y13754850D01*
X41871150Y13975621D01*
X42044609Y14235221D01*
X42164089Y14523673D01*
X42225000Y14829891D01*
X42225000Y15142109D01*
X42164089Y15448327D01*
X42044609Y15736779D01*
X41871150Y15996379D01*
X41650379Y16217150D01*
X41518324Y16305387D01*
X41560147Y16426248D01*
X40640000Y17346395D01*
X39719853Y16426248D01*
X39761676Y16305387D01*
X39629621Y16217150D01*
X39408850Y15996379D01*
X39235391Y15736779D01*
X39115911Y15448327D01*
X39055000Y15142109D01*
X39055000Y14829891D01*
X39072686Y14740976D01*
X36061711Y11730000D01*
X19121651Y11730000D01*
X19049987Y11837252D01*
X18822252Y12064987D01*
X18554463Y12243918D01*
X18256912Y12367168D01*
X18091854Y12400000D01*
X33863068Y12400000D01*
X33909000Y12395476D01*
X33954932Y12400000D01*
X34092292Y12413529D01*
X34268540Y12466993D01*
X34430972Y12553814D01*
X34573344Y12670656D01*
X34602630Y12706341D01*
X39086509Y17190219D01*
X39091816Y17152209D01*
X39194487Y16857356D01*
X39280958Y16695579D01*
X39540248Y16605853D01*
X40460395Y17526000D01*
X40819605Y17526000D01*
X41739752Y16605853D01*
X41999042Y16695579D01*
X42134935Y16976671D01*
X42213379Y17278873D01*
X42231359Y17590573D01*
X42188184Y17899791D01*
X42085513Y18194644D01*
X41999042Y18356421D01*
X41739752Y18446147D01*
X40819605Y17526000D01*
X40460395Y17526000D01*
X40446253Y17540142D01*
X40625858Y17719747D01*
X40640000Y17705605D01*
X41560147Y18625752D01*
X41518324Y18746613D01*
X41650379Y18834850D01*
X41871150Y19055621D01*
X42044609Y19315221D01*
X42164089Y19603673D01*
X42225000Y19909891D01*
X42225000Y20222109D01*
X42164089Y20528327D01*
X42044609Y20816779D01*
X41871150Y21076379D01*
X41650379Y21297150D01*
X41592236Y21336000D01*
X41650379Y21374850D01*
X41871150Y21595621D01*
X41921517Y21671000D01*
X55492711Y21671000D01*
X61932686Y15231024D01*
X61915000Y15142109D01*
X61915000Y14829891D01*
X61975911Y14523673D01*
X62095391Y14235221D01*
X62268850Y13975621D01*
X62489621Y13754850D01*
X62547764Y13716000D01*
X62489621Y13677150D01*
X62268850Y13456379D01*
X62095391Y13196779D01*
X61975911Y12908327D01*
X61915000Y12602109D01*
X61915000Y12289891D01*
X61975911Y11983673D01*
X62095391Y11695221D01*
X62268850Y11435621D01*
X62489621Y11214850D01*
X62547764Y11176000D01*
X62489621Y11137150D01*
X62268850Y10916379D01*
X62095391Y10656779D01*
X61975911Y10368327D01*
X61915000Y10062109D01*
X61915000Y9749891D01*
X61975911Y9443673D01*
X62095391Y9155221D01*
X62268850Y8895621D01*
X62489621Y8674850D01*
X62749221Y8501391D01*
X63037673Y8381911D01*
X63343891Y8321000D01*
X63656109Y8321000D01*
X63962327Y8381911D01*
X64250779Y8501391D01*
X64510379Y8674850D01*
X64731150Y8895621D01*
X64904609Y9155221D01*
X64911145Y9171000D01*
X71049895Y9171000D01*
X71086000Y9167444D01*
X71122105Y9171000D01*
X71230085Y9181635D01*
X71368633Y9223663D01*
X71496320Y9291913D01*
X71608238Y9383762D01*
X71631259Y9411813D01*
X77434058Y15214611D01*
X77438815Y15208815D01*
X77535506Y15129463D01*
X77645820Y15070498D01*
X77765518Y15034188D01*
X77890000Y15021928D01*
X79590000Y15021928D01*
X79714482Y15034188D01*
X79834180Y15070498D01*
X79944494Y15129463D01*
X80041185Y15208815D01*
X80120537Y15305506D01*
X80179502Y15415820D01*
X80215812Y15535518D01*
X80228072Y15660000D01*
X80228072Y17360000D01*
X80215812Y17484482D01*
X80179502Y17604180D01*
X80120537Y17714494D01*
X80041185Y17811185D01*
X79944494Y17890537D01*
X79834180Y17949502D01*
X79765313Y17970393D01*
X79795134Y17994866D01*
X79980706Y18220986D01*
X80118599Y18478966D01*
X80203513Y18758889D01*
X80232185Y19050000D01*
X80203513Y19341111D01*
X80118599Y19621034D01*
X79980706Y19879014D01*
X79795134Y20105134D01*
X79569014Y20290706D01*
X79311034Y20428599D01*
X79031111Y20513513D01*
X78812950Y20535000D01*
X78667050Y20535000D01*
X78448889Y20513513D01*
X78168966Y20428599D01*
X77910986Y20290706D01*
X77684866Y20105134D01*
X77499294Y19879014D01*
X77449884Y19786574D01*
X77433904Y19785000D01*
X77433895Y19785000D01*
X77325915Y19774365D01*
X77187367Y19732337D01*
X77059680Y19664087D01*
X76947762Y19572238D01*
X76924746Y19544193D01*
X70561554Y13181000D01*
X64911145Y13181000D01*
X64904609Y13196779D01*
X64731150Y13456379D01*
X64510379Y13677150D01*
X64452236Y13716000D01*
X64510379Y13754850D01*
X64731150Y13975621D01*
X64904609Y14235221D01*
X65024089Y14523673D01*
X65085000Y14829891D01*
X65085000Y15142109D01*
X65024089Y15448327D01*
X64904609Y15736779D01*
X64731150Y15996379D01*
X64510379Y16217150D01*
X64378324Y16305387D01*
X64420147Y16426248D01*
X63500000Y17346395D01*
X63485858Y17332252D01*
X63306253Y17511857D01*
X63320395Y17526000D01*
X63679605Y17526000D01*
X64599752Y16605853D01*
X64859042Y16695579D01*
X64994935Y16976671D01*
X65073379Y17278873D01*
X65091359Y17590573D01*
X65048184Y17899791D01*
X64945513Y18194644D01*
X64859042Y18356421D01*
X64599752Y18446147D01*
X63679605Y17526000D01*
X63320395Y17526000D01*
X62400248Y18446147D01*
X62140958Y18356421D01*
X62005065Y18075329D01*
X61948989Y17859300D01*
X56573630Y23234659D01*
X56544344Y23270344D01*
X56401972Y23387186D01*
X56239540Y23474007D01*
X56063292Y23527471D01*
X55925932Y23541000D01*
X55880000Y23545524D01*
X55834068Y23541000D01*
X41921517Y23541000D01*
X41871150Y23616379D01*
X41650379Y23837150D01*
X41592236Y23876000D01*
X41650379Y23914850D01*
X41871150Y24135621D01*
X42044609Y24395221D01*
X42164089Y24683673D01*
X42225000Y24989891D01*
X42225000Y25302109D01*
X42164089Y25608327D01*
X42142271Y25661001D01*
X56582710Y25661001D01*
X61932687Y20311024D01*
X61915000Y20222109D01*
X61915000Y19909891D01*
X61975911Y19603673D01*
X62095391Y19315221D01*
X62268850Y19055621D01*
X62489621Y18834850D01*
X62621676Y18746613D01*
X62579853Y18625752D01*
X63500000Y17705605D01*
X64420147Y18625752D01*
X64378324Y18746613D01*
X64510379Y18834850D01*
X64725529Y19050000D01*
X69627815Y19050000D01*
X69656487Y18758889D01*
X69741401Y18478966D01*
X69879294Y18220986D01*
X70064866Y17994866D01*
X70094687Y17970393D01*
X70025820Y17949502D01*
X69915506Y17890537D01*
X69818815Y17811185D01*
X69739463Y17714494D01*
X69680498Y17604180D01*
X69644188Y17484482D01*
X69631928Y17360000D01*
X69631928Y15660000D01*
X69644188Y15535518D01*
X69680498Y15415820D01*
X69739463Y15305506D01*
X69818815Y15208815D01*
X69915506Y15129463D01*
X70025820Y15070498D01*
X70145518Y15034188D01*
X70270000Y15021928D01*
X71970000Y15021928D01*
X72094482Y15034188D01*
X72214180Y15070498D01*
X72324494Y15129463D01*
X72421185Y15208815D01*
X72500537Y15305506D01*
X72559502Y15415820D01*
X72595812Y15535518D01*
X72608072Y15660000D01*
X72608072Y17360000D01*
X72595812Y17484482D01*
X72559502Y17604180D01*
X72500537Y17714494D01*
X72421185Y17811185D01*
X72324494Y17890537D01*
X72214180Y17949502D01*
X72145313Y17970393D01*
X72175134Y17994866D01*
X72360706Y18220986D01*
X72498599Y18478966D01*
X72583513Y18758889D01*
X72612185Y19050000D01*
X72583513Y19341111D01*
X72498599Y19621034D01*
X72360706Y19879014D01*
X72175134Y20105134D01*
X71949014Y20290706D01*
X71691034Y20428599D01*
X71411111Y20513513D01*
X71192950Y20535000D01*
X71047050Y20535000D01*
X70828889Y20513513D01*
X70548966Y20428599D01*
X70290986Y20290706D01*
X70064866Y20105134D01*
X69879294Y19879014D01*
X69741401Y19621034D01*
X69656487Y19341111D01*
X69627815Y19050000D01*
X64725529Y19050000D01*
X64731150Y19055621D01*
X64904609Y19315221D01*
X65024089Y19603673D01*
X65085000Y19909891D01*
X65085000Y20222109D01*
X65024089Y20528327D01*
X64904609Y20816779D01*
X64731150Y21076379D01*
X64510379Y21297150D01*
X64452236Y21336000D01*
X64510379Y21374850D01*
X64731150Y21595621D01*
X64904609Y21855221D01*
X65024089Y22143673D01*
X65085000Y22449891D01*
X65085000Y22762109D01*
X65024089Y23068327D01*
X64904609Y23356779D01*
X64731150Y23616379D01*
X64510379Y23837150D01*
X64452236Y23876000D01*
X64510379Y23914850D01*
X64731150Y24135621D01*
X64904609Y24395221D01*
X65024089Y24683673D01*
X65085000Y24989891D01*
X65085000Y25302109D01*
X65024089Y25608327D01*
X64904609Y25896779D01*
X64731150Y26156379D01*
X64510379Y26377150D01*
X64250779Y26550609D01*
X63962542Y26670000D01*
X64250779Y26789391D01*
X64510379Y26962850D01*
X64731150Y27183621D01*
X64904609Y27443221D01*
X64911145Y27459000D01*
X71557895Y27459000D01*
X71594000Y27455444D01*
X71630105Y27459000D01*
X71738085Y27469635D01*
X71876633Y27511663D01*
X72004320Y27579913D01*
X72116238Y27671762D01*
X72139259Y27699813D01*
X77434058Y32994611D01*
X77438815Y32988815D01*
X77535506Y32909463D01*
X77645820Y32850498D01*
X77765518Y32814188D01*
X77890000Y32801928D01*
X79590000Y32801928D01*
X79714482Y32814188D01*
X79834180Y32850498D01*
X79944494Y32909463D01*
X80041185Y32988815D01*
X80120537Y33085506D01*
X80179502Y33195820D01*
X80215812Y33315518D01*
X80228072Y33440000D01*
X80228072Y35140000D01*
X80215812Y35264482D01*
X80179502Y35384180D01*
X80120537Y35494494D01*
X80041185Y35591185D01*
X79944494Y35670537D01*
X79834180Y35729502D01*
X79765313Y35750393D01*
X79795134Y35774866D01*
X79980706Y36000986D01*
X80118599Y36258966D01*
X80203513Y36538889D01*
X80232185Y36830000D01*
X80203513Y37121111D01*
X80118599Y37401034D01*
X79980706Y37659014D01*
X79795134Y37885134D01*
X79569014Y38070706D01*
X79311034Y38208599D01*
X79031111Y38293513D01*
X78812950Y38315000D01*
X78667050Y38315000D01*
X78448889Y38293513D01*
X78168966Y38208599D01*
X77910986Y38070706D01*
X77684866Y37885134D01*
X77499294Y37659014D01*
X77449884Y37566575D01*
X77433895Y37565000D01*
X77325915Y37554365D01*
X77187367Y37512337D01*
X77059680Y37444087D01*
X76947762Y37352238D01*
X76924746Y37324193D01*
X71069554Y31469000D01*
X64911145Y31469000D01*
X64904609Y31484779D01*
X64731150Y31744379D01*
X64510379Y31965150D01*
X64452236Y32004000D01*
X64510379Y32042850D01*
X64731150Y32263621D01*
X64904609Y32523221D01*
X65024089Y32811673D01*
X65085000Y33117891D01*
X65085000Y33430109D01*
X65024089Y33736327D01*
X64904609Y34024779D01*
X64731150Y34284379D01*
X64510379Y34505150D01*
X64378324Y34593387D01*
X64420147Y34714248D01*
X63500000Y35634395D01*
X63485858Y35620252D01*
X63306253Y35799857D01*
X63320395Y35814000D01*
X63679605Y35814000D01*
X64599752Y34893853D01*
X64859042Y34983579D01*
X64994935Y35264671D01*
X65073379Y35566873D01*
X65091359Y35878573D01*
X65048184Y36187791D01*
X64945513Y36482644D01*
X64859042Y36644421D01*
X64599752Y36734147D01*
X63679605Y35814000D01*
X63320395Y35814000D01*
X62400248Y36734147D01*
X62140958Y36644421D01*
X62005065Y36363329D01*
X61948989Y36147300D01*
X56573630Y41522659D01*
X56544344Y41558344D01*
X56401972Y41675186D01*
X56239540Y41762007D01*
X56063292Y41815471D01*
X55925932Y41829000D01*
X55880000Y41833524D01*
X55834068Y41829000D01*
X41921517Y41829000D01*
X41871150Y41904379D01*
X41650379Y42125150D01*
X41592236Y42164000D01*
X41650379Y42202850D01*
X41871150Y42423621D01*
X42044609Y42683221D01*
X42164089Y42971673D01*
X42225000Y43277891D01*
X42225000Y43590109D01*
X42164089Y43896327D01*
X42142271Y43949001D01*
X56582710Y43949001D01*
X61932687Y38599024D01*
X61915000Y38510109D01*
X61915000Y38197891D01*
X61975911Y37891673D01*
X62095391Y37603221D01*
X62268850Y37343621D01*
X62489621Y37122850D01*
X62621676Y37034613D01*
X62579853Y36913752D01*
X63500000Y35993605D01*
X64336395Y36830000D01*
X69627815Y36830000D01*
X69656487Y36538889D01*
X69741401Y36258966D01*
X69879294Y36000986D01*
X70064866Y35774866D01*
X70094687Y35750393D01*
X70025820Y35729502D01*
X69915506Y35670537D01*
X69818815Y35591185D01*
X69739463Y35494494D01*
X69680498Y35384180D01*
X69644188Y35264482D01*
X69631928Y35140000D01*
X69631928Y33440000D01*
X69644188Y33315518D01*
X69680498Y33195820D01*
X69739463Y33085506D01*
X69818815Y32988815D01*
X69915506Y32909463D01*
X70025820Y32850498D01*
X70145518Y32814188D01*
X70270000Y32801928D01*
X71970000Y32801928D01*
X72094482Y32814188D01*
X72214180Y32850498D01*
X72324494Y32909463D01*
X72421185Y32988815D01*
X72500537Y33085506D01*
X72559502Y33195820D01*
X72595812Y33315518D01*
X72608072Y33440000D01*
X72608072Y35140000D01*
X72595812Y35264482D01*
X72559502Y35384180D01*
X72500537Y35494494D01*
X72421185Y35591185D01*
X72324494Y35670537D01*
X72214180Y35729502D01*
X72145313Y35750393D01*
X72175134Y35774866D01*
X72360706Y36000986D01*
X72498599Y36258966D01*
X72583513Y36538889D01*
X72612185Y36830000D01*
X72583513Y37121111D01*
X72498599Y37401034D01*
X72360706Y37659014D01*
X72175134Y37885134D01*
X71949014Y38070706D01*
X71691034Y38208599D01*
X71411111Y38293513D01*
X71192950Y38315000D01*
X71047050Y38315000D01*
X70828889Y38293513D01*
X70548966Y38208599D01*
X70290986Y38070706D01*
X70064866Y37885134D01*
X69879294Y37659014D01*
X69741401Y37401034D01*
X69656487Y37121111D01*
X69627815Y36830000D01*
X64336395Y36830000D01*
X64420147Y36913752D01*
X64378324Y37034613D01*
X64510379Y37122850D01*
X64731150Y37343621D01*
X64904609Y37603221D01*
X65024089Y37891673D01*
X65085000Y38197891D01*
X65085000Y38510109D01*
X65024089Y38816327D01*
X64904609Y39104779D01*
X64731150Y39364379D01*
X64510379Y39585150D01*
X64452236Y39624000D01*
X64510379Y39662850D01*
X64731150Y39883621D01*
X64904609Y40143221D01*
X65024089Y40431673D01*
X65085000Y40737891D01*
X65085000Y41050109D01*
X65024089Y41356327D01*
X64904609Y41644779D01*
X64731150Y41904379D01*
X64510379Y42125150D01*
X64452236Y42164000D01*
X64510379Y42202850D01*
X64731150Y42423621D01*
X64904609Y42683221D01*
X65024089Y42971673D01*
X65085000Y43277891D01*
X65085000Y43590109D01*
X65024089Y43896327D01*
X64904609Y44184779D01*
X64731150Y44444379D01*
X64510379Y44665150D01*
X64250779Y44838609D01*
X63962327Y44958089D01*
X63656109Y45019000D01*
X63343891Y45019000D01*
X63037673Y44958089D01*
X62749221Y44838609D01*
X62489621Y44665150D01*
X62268850Y44444379D01*
X62095391Y44184779D01*
X61975911Y43896327D01*
X61915000Y43590109D01*
X61915000Y43277891D01*
X61975911Y42971673D01*
X62095391Y42683221D01*
X62268850Y42423621D01*
X62489621Y42202850D01*
X62547764Y42164000D01*
X62489621Y42125150D01*
X62268850Y41904379D01*
X62095391Y41644779D01*
X61975911Y41356327D01*
X61950037Y41226252D01*
X57663629Y45512660D01*
X57634343Y45548345D01*
X57491971Y45665187D01*
X57329539Y45752008D01*
X57153291Y45805472D01*
X57015931Y45819001D01*
X56969999Y45823525D01*
X56924067Y45819001D01*
X56793952Y45819001D01*
X56935134Y45934866D01*
X57120706Y46160986D01*
X57150000Y46215791D01*
X57179294Y46160986D01*
X57364866Y45934866D01*
X57590986Y45749294D01*
X57848966Y45611401D01*
X58128889Y45526487D01*
X58347050Y45505000D01*
X58492950Y45505000D01*
X58711111Y45526487D01*
X58991034Y45611401D01*
X59249014Y45749294D01*
X59475134Y45934866D01*
X59660706Y46160986D01*
X59798599Y46418966D01*
X59883513Y46698889D01*
X59912185Y46990000D01*
X59883513Y47281111D01*
X59798599Y47561034D01*
X59660706Y47819014D01*
X59475134Y48045134D01*
X59249014Y48230706D01*
X59155000Y48280957D01*
X59155000Y49341221D01*
X59256606Y49395531D01*
X59484797Y49582803D01*
X59672069Y49810994D01*
X59690000Y49844541D01*
X59707931Y49810994D01*
X59895203Y49582803D01*
X60123395Y49395531D01*
X60383737Y49256375D01*
X60666224Y49170684D01*
X60960000Y49141749D01*
X61253777Y49170684D01*
X61536264Y49256375D01*
X61796606Y49395531D01*
X62024797Y49582803D01*
X62212069Y49810994D01*
X62230000Y49844541D01*
X62247931Y49810994D01*
X62435203Y49582803D01*
X62663395Y49395531D01*
X62923737Y49256375D01*
X63206224Y49170684D01*
X63500000Y49141749D01*
X63793777Y49170684D01*
X64076264Y49256375D01*
X64336606Y49395531D01*
X64564797Y49582803D01*
X64752069Y49810994D01*
X64891225Y50071337D01*
X64976916Y50353824D01*
X64998600Y50573982D01*
X64998600Y51026019D01*
X64976916Y51246177D01*
X64891225Y51528664D01*
X64752069Y51789006D01*
X64625689Y51943000D01*
X67454311Y51943000D01*
X67327931Y51789005D01*
X67327931Y51789005D01*
G37*
X67327931Y51789005D02*
X67188775Y51528663D01*
X67103084Y51246176D01*
X67081400Y51026018D01*
X67081400Y50573981D01*
X67103084Y50353823D01*
X67188775Y50071336D01*
X67327931Y49810994D01*
X67515203Y49582803D01*
X67558128Y49547575D01*
X66488626Y48478072D01*
X65190000Y48478072D01*
X65065518Y48465812D01*
X64945820Y48429502D01*
X64835506Y48370537D01*
X64738815Y48291185D01*
X64659463Y48194494D01*
X64600498Y48084180D01*
X64564188Y47964482D01*
X64551928Y47840000D01*
X64551928Y46140000D01*
X64564188Y46015518D01*
X64600498Y45895820D01*
X64659463Y45785506D01*
X64738815Y45688815D01*
X64835506Y45609463D01*
X64945820Y45550498D01*
X65065518Y45514188D01*
X65190000Y45501928D01*
X66890000Y45501928D01*
X67014482Y45514188D01*
X67134180Y45550498D01*
X67244494Y45609463D01*
X67341185Y45688815D01*
X67420537Y45785506D01*
X67479502Y45895820D01*
X67500393Y45964687D01*
X67524866Y45934866D01*
X67750986Y45749294D01*
X68008966Y45611401D01*
X68288889Y45526487D01*
X68507050Y45505000D01*
X68652950Y45505000D01*
X68871111Y45526487D01*
X69151034Y45611401D01*
X69409014Y45749294D01*
X69635134Y45934866D01*
X69820706Y46160986D01*
X69850000Y46215791D01*
X69879294Y46160986D01*
X70064866Y45934866D01*
X70290986Y45749294D01*
X70548966Y45611401D01*
X70828889Y45526487D01*
X71047050Y45505000D01*
X71192950Y45505000D01*
X71411111Y45526487D01*
X71691034Y45611401D01*
X71949014Y45749294D01*
X72175134Y45934866D01*
X72360706Y46160986D01*
X72390000Y46215791D01*
X72419294Y46160986D01*
X72604866Y45934866D01*
X72830986Y45749294D01*
X73088966Y45611401D01*
X73368889Y45526487D01*
X73587050Y45505000D01*
X73732950Y45505000D01*
X73951111Y45526487D01*
X74231034Y45611401D01*
X74489014Y45749294D01*
X74715134Y45934866D01*
X74900706Y46160986D01*
X74930000Y46215791D01*
X74959294Y46160986D01*
X75144866Y45934866D01*
X75370986Y45749294D01*
X75628966Y45611401D01*
X75908889Y45526487D01*
X76127050Y45505000D01*
X76272950Y45505000D01*
X76491111Y45526487D01*
X76771034Y45611401D01*
X77029014Y45749294D01*
X77255134Y45934866D01*
X77440706Y46160986D01*
X77470000Y46215791D01*
X77499294Y46160986D01*
X77684866Y45934866D01*
X77910986Y45749294D01*
X78168966Y45611401D01*
X78448889Y45526487D01*
X78667050Y45505000D01*
X78812950Y45505000D01*
X79031111Y45526487D01*
X79311034Y45611401D01*
X79569014Y45749294D01*
X79795134Y45934866D01*
X79980706Y46160986D01*
X80010000Y46215791D01*
X80039294Y46160986D01*
X80224866Y45934866D01*
X80450986Y45749294D01*
X80708966Y45611401D01*
X80988889Y45526487D01*
X81207050Y45505000D01*
X81352950Y45505000D01*
X81571111Y45526487D01*
X81851034Y45611401D01*
X82109014Y45749294D01*
X82335134Y45934866D01*
X82520706Y46160986D01*
X82550000Y46215791D01*
X82579294Y46160986D01*
X82764866Y45934866D01*
X82990986Y45749294D01*
X83248966Y45611401D01*
X83528889Y45526487D01*
X83747050Y45505000D01*
X83892950Y45505000D01*
X84111111Y45526487D01*
X84391034Y45611401D01*
X84649014Y45749294D01*
X84875134Y45934866D01*
X85060706Y46160986D01*
X85198599Y46418966D01*
X85283513Y46698889D01*
X85312185Y46990000D01*
X85283513Y47281111D01*
X85252568Y47383122D01*
X86854193Y48984746D01*
X86882238Y49007762D01*
X86974087Y49119680D01*
X87042337Y49247367D01*
X87066126Y49325788D01*
X87196606Y49395531D01*
X87424797Y49582803D01*
X87612069Y49810994D01*
X87657621Y49896215D01*
X87806536Y49536702D01*
X88098406Y49099887D01*
X88469887Y48728406D01*
X88906702Y48436536D01*
X89189818Y48319265D01*
X88023122Y47152568D01*
X87921111Y47183513D01*
X87702950Y47205000D01*
X87557050Y47205000D01*
X87338889Y47183513D01*
X87058966Y47098599D01*
X86800986Y46960706D01*
X86574866Y46775134D01*
X86389294Y46549014D01*
X86251401Y46291034D01*
X86166487Y46011111D01*
X86137815Y45720000D01*
X86166487Y45428889D01*
X86251401Y45148966D01*
X86389294Y44890986D01*
X86574866Y44664866D01*
X86800986Y44479294D01*
X86855791Y44450000D01*
X86800986Y44420706D01*
X86574866Y44235134D01*
X86389294Y44009014D01*
X86251401Y43751034D01*
X86166487Y43471111D01*
X86137815Y43180000D01*
X86166487Y42888889D01*
X86251401Y42608966D01*
X86389294Y42350986D01*
X86574866Y42124866D01*
X86800986Y41939294D01*
X86855791Y41910000D01*
X86800986Y41880706D01*
X86574866Y41695134D01*
X86389294Y41469014D01*
X86251401Y41211034D01*
X86166487Y40931111D01*
X86137815Y40640000D01*
X86166487Y40348889D01*
X86251401Y40068966D01*
X86389294Y39810986D01*
X86574866Y39584866D01*
X86800986Y39399294D01*
X86855791Y39370000D01*
X86800986Y39340706D01*
X86574866Y39155134D01*
X86389294Y38929014D01*
X86251401Y38671034D01*
X86166487Y38391111D01*
X86137815Y38100000D01*
X86166487Y37808889D01*
X86251401Y37528966D01*
X86389294Y37270986D01*
X86574866Y37044866D01*
X86800986Y36859294D01*
X86855791Y36830000D01*
X86800986Y36800706D01*
X86574866Y36615134D01*
X86389294Y36389014D01*
X86251401Y36131034D01*
X86166487Y35851111D01*
X86137815Y35560000D01*
X86166487Y35268889D01*
X86251401Y34988966D01*
X86389294Y34730986D01*
X86574866Y34504866D01*
X86800986Y34319294D01*
X86855791Y34290000D01*
X86800986Y34260706D01*
X86574866Y34075134D01*
X86389294Y33849014D01*
X86251401Y33591034D01*
X86166487Y33311111D01*
X86137815Y33020000D01*
X86166487Y32728889D01*
X86251401Y32448966D01*
X86389294Y32190986D01*
X86574866Y31964866D01*
X86800986Y31779294D01*
X86855791Y31750000D01*
X86800986Y31720706D01*
X86574866Y31535134D01*
X86389294Y31309014D01*
X86251401Y31051034D01*
X86166487Y30771111D01*
X86137815Y30480000D01*
X86166487Y30188889D01*
X86251401Y29908966D01*
X86389294Y29650986D01*
X86574866Y29424866D01*
X86800986Y29239294D01*
X86855791Y29210000D01*
X86800986Y29180706D01*
X86574866Y28995134D01*
X86389294Y28769014D01*
X86251401Y28511034D01*
X86166487Y28231111D01*
X86137815Y27940000D01*
X86166487Y27648889D01*
X86251401Y27368966D01*
X86389294Y27110986D01*
X86574866Y26884866D01*
X86800986Y26699294D01*
X86855791Y26670000D01*
X86800986Y26640706D01*
X86574866Y26455134D01*
X86389294Y26229014D01*
X86251401Y25971034D01*
X86166487Y25691111D01*
X86137815Y25400000D01*
X86166487Y25108889D01*
X86251401Y24828966D01*
X86389294Y24570986D01*
X86574866Y24344866D01*
X86800986Y24159294D01*
X86855791Y24130000D01*
X86800986Y24100706D01*
X86574866Y23915134D01*
X86389294Y23689014D01*
X86251401Y23431034D01*
X86166487Y23151111D01*
X86137815Y22860000D01*
X86166487Y22568889D01*
X86251401Y22288966D01*
X86389294Y22030986D01*
X86574866Y21804866D01*
X86800986Y21619294D01*
X86855791Y21590000D01*
X86800986Y21560706D01*
X86574866Y21375134D01*
X86389294Y21149014D01*
X86251401Y20891034D01*
X86166487Y20611111D01*
X86137815Y20320000D01*
X86166487Y20028889D01*
X86251401Y19748966D01*
X86389294Y19490986D01*
X86574866Y19264866D01*
X86800986Y19079294D01*
X86855791Y19050000D01*
X86800986Y19020706D01*
X86574866Y18835134D01*
X86389294Y18609014D01*
X86251401Y18351034D01*
X86166487Y18071111D01*
X86137815Y17780000D01*
X86166487Y17488889D01*
X86251401Y17208966D01*
X86389294Y16950986D01*
X86574866Y16724866D01*
X86800986Y16539294D01*
X86855791Y16510000D01*
X86800986Y16480706D01*
X86574866Y16295134D01*
X86389294Y16069014D01*
X86251401Y15811034D01*
X86166487Y15531111D01*
X86137815Y15240000D01*
X86166487Y14948889D01*
X86251401Y14668966D01*
X86389294Y14410986D01*
X86574866Y14184866D01*
X86800986Y13999294D01*
X86855791Y13970000D01*
X86800986Y13940706D01*
X86574866Y13755134D01*
X86389294Y13529014D01*
X86251401Y13271034D01*
X86166487Y12991111D01*
X86137815Y12700000D01*
X86166487Y12408889D01*
X86251401Y12128966D01*
X86389294Y11870986D01*
X86574866Y11644866D01*
X86800986Y11459294D01*
X86855791Y11430000D01*
X86800986Y11400706D01*
X86574866Y11215134D01*
X86389294Y10989014D01*
X86251401Y10731034D01*
X86166487Y10451111D01*
X86137815Y10160000D01*
X86166487Y9868889D01*
X86251401Y9588966D01*
X86389294Y9330986D01*
X86574866Y9104866D01*
X86604687Y9080393D01*
X86535820Y9059502D01*
X86425506Y9000537D01*
X86328815Y8921185D01*
X86249463Y8824494D01*
X86190498Y8714180D01*
X86154188Y8594482D01*
X86141928Y8470000D01*
X86141928Y6770000D01*
X86154188Y6645518D01*
X86190498Y6525820D01*
X86249463Y6415506D01*
X86328815Y6318815D01*
X86425506Y6239463D01*
X86535820Y6180498D01*
X86655518Y6144188D01*
X86780000Y6131928D01*
X88480000Y6131928D01*
X88604482Y6144188D01*
X88724180Y6180498D01*
X88834494Y6239463D01*
X88931185Y6318815D01*
X89010537Y6415506D01*
X89069502Y6525820D01*
X89090393Y6594687D01*
X89114866Y6564866D01*
X89340986Y6379294D01*
X89598966Y6241401D01*
X89878889Y6156487D01*
X90097050Y6135000D01*
X90242950Y6135000D01*
X90461111Y6156487D01*
X90741034Y6241401D01*
X90999014Y6379294D01*
X91225134Y6564866D01*
X91239110Y6581896D01*
X93121501Y6581896D01*
X93200782Y6331433D01*
X93467141Y6204174D01*
X93753210Y6131325D01*
X94047993Y6115685D01*
X94340164Y6157855D01*
X94618493Y6256214D01*
X94759218Y6331433D01*
X94838499Y6581896D01*
X93980000Y7440395D01*
X93121501Y6581896D01*
X91239110Y6581896D01*
X91410706Y6790986D01*
X91548599Y7048966D01*
X91633513Y7328889D01*
X91662185Y7620000D01*
X91633513Y7911111D01*
X91602568Y8013122D01*
X91744446Y8155000D01*
X92574752Y8155000D01*
X92564174Y8132859D01*
X92491325Y7846790D01*
X92475685Y7552007D01*
X92517855Y7259836D01*
X92616214Y6981507D01*
X92691433Y6840782D01*
X92941896Y6761501D01*
X93800395Y7620000D01*
X93786253Y7634142D01*
X93965858Y7813747D01*
X93980000Y7799605D01*
X93994143Y7813747D01*
X94173748Y7634142D01*
X94159605Y7620000D01*
X95018104Y6761501D01*
X95251434Y6835359D01*
X95313183Y6731512D01*
X95509707Y6513146D01*
X95745056Y6337316D01*
X96010186Y6210778D01*
X96160974Y6165042D01*
X96393000Y6286183D01*
X96393000Y7493000D01*
X96647000Y7493000D01*
X96647000Y6286183D01*
X96879026Y6165042D01*
X97029814Y6210778D01*
X97294944Y6337316D01*
X97530293Y6513146D01*
X97726817Y6731512D01*
X97876964Y6984022D01*
X97974963Y7260973D01*
X97854464Y7493000D01*
X96647000Y7493000D01*
X96393000Y7493000D01*
X96373000Y7493000D01*
X96373000Y7747000D01*
X96393000Y7747000D01*
X96393000Y7767000D01*
X96647000Y7767000D01*
X96647000Y7747000D01*
X97854464Y7747000D01*
X97974963Y7979027D01*
X97876964Y8255978D01*
X97726817Y8508488D01*
X97530293Y8726854D01*
X97316567Y8886530D01*
X97356606Y8907931D01*
X97584797Y9095203D01*
X97772069Y9323394D01*
X97911225Y9583736D01*
X97996916Y9866223D01*
X98025851Y10160000D01*
X97996916Y10453777D01*
X97911225Y10736264D01*
X97772069Y10996606D01*
X97584797Y11224797D01*
X97356606Y11412069D01*
X97323060Y11430000D01*
X97356606Y11447931D01*
X97584797Y11635203D01*
X97772069Y11863394D01*
X97911225Y12123736D01*
X97996916Y12406223D01*
X98025851Y12700000D01*
X97996916Y12993777D01*
X97911225Y13276264D01*
X97772069Y13536606D01*
X97584797Y13764797D01*
X97356606Y13952069D01*
X97323060Y13970000D01*
X97356606Y13987931D01*
X97584797Y14175203D01*
X97772069Y14403394D01*
X97911225Y14663736D01*
X97996916Y14946223D01*
X98025851Y15240000D01*
X97996916Y15533777D01*
X97911225Y15816264D01*
X97772069Y16076606D01*
X97584797Y16304797D01*
X97356606Y16492069D01*
X97323060Y16510000D01*
X97356606Y16527931D01*
X97584797Y16715203D01*
X97772069Y16943394D01*
X97911225Y17203736D01*
X97996916Y17486223D01*
X98025851Y17780000D01*
X97996916Y18073777D01*
X97911225Y18356264D01*
X97772069Y18616606D01*
X97584797Y18844797D01*
X97356606Y19032069D01*
X97323060Y19050000D01*
X97356606Y19067931D01*
X97584797Y19255203D01*
X97772069Y19483394D01*
X97911225Y19743736D01*
X97996916Y20026223D01*
X98025851Y20320000D01*
X97996916Y20613777D01*
X97911225Y20896264D01*
X97772069Y21156606D01*
X97584797Y21384797D01*
X97356606Y21572069D01*
X97323060Y21590000D01*
X97356606Y21607931D01*
X97584797Y21795203D01*
X97772069Y22023394D01*
X97911225Y22283736D01*
X97996916Y22566223D01*
X98025851Y22860000D01*
X97996916Y23153777D01*
X97911225Y23436264D01*
X97772069Y23696606D01*
X97584797Y23924797D01*
X97356606Y24112069D01*
X97323060Y24130000D01*
X97356606Y24147931D01*
X97584797Y24335203D01*
X97772069Y24563394D01*
X97911225Y24823736D01*
X97996916Y25106223D01*
X98025851Y25400000D01*
X97996916Y25693777D01*
X97911225Y25976264D01*
X97772069Y26236606D01*
X97584797Y26464797D01*
X97356606Y26652069D01*
X97323060Y26670000D01*
X97356606Y26687931D01*
X97584797Y26875203D01*
X97772069Y27103394D01*
X97911225Y27363736D01*
X97996916Y27646223D01*
X98025851Y27940000D01*
X97996916Y28233777D01*
X97911225Y28516264D01*
X97772069Y28776606D01*
X97584797Y29004797D01*
X97356606Y29192069D01*
X97323060Y29210000D01*
X97356606Y29227931D01*
X97584797Y29415203D01*
X97772069Y29643394D01*
X97911225Y29903736D01*
X97996916Y30186223D01*
X98025851Y30480000D01*
X97996916Y30773777D01*
X97911225Y31056264D01*
X97772069Y31316606D01*
X97584797Y31544797D01*
X97356606Y31732069D01*
X97323060Y31750000D01*
X97356606Y31767931D01*
X97584797Y31955203D01*
X97772069Y32183394D01*
X97911225Y32443736D01*
X97996916Y32726223D01*
X98025851Y33020000D01*
X97996916Y33313777D01*
X97911225Y33596264D01*
X97772069Y33856606D01*
X97584797Y34084797D01*
X97356606Y34272069D01*
X97323060Y34290000D01*
X97356606Y34307931D01*
X97584797Y34495203D01*
X97772069Y34723394D01*
X97911225Y34983736D01*
X97996916Y35266223D01*
X98025851Y35560000D01*
X97996916Y35853777D01*
X97911225Y36136264D01*
X97772069Y36396606D01*
X97584797Y36624797D01*
X97356606Y36812069D01*
X97323060Y36830000D01*
X97356606Y36847931D01*
X97584797Y37035203D01*
X97772069Y37263394D01*
X97911225Y37523736D01*
X97996916Y37806223D01*
X98025851Y38100000D01*
X97996916Y38393777D01*
X97911225Y38676264D01*
X97772069Y38936606D01*
X97584797Y39164797D01*
X97356606Y39352069D01*
X97323060Y39370000D01*
X97356606Y39387931D01*
X97584797Y39575203D01*
X97772069Y39803394D01*
X97911225Y40063736D01*
X97975330Y40275064D01*
X98350000Y39900394D01*
X98350001Y4481706D01*
X98220113Y4611594D01*
X97783298Y4903464D01*
X97297935Y5104508D01*
X96782677Y5207000D01*
X96257323Y5207000D01*
X95742065Y5104508D01*
X95256702Y4903464D01*
X94819887Y4611594D01*
X94448406Y4240113D01*
X94156536Y3803298D01*
X93955492Y3317935D01*
X93853000Y2802677D01*
X93853000Y2277323D01*
X93955492Y1762065D01*
X94106707Y1397000D01*
X92565689Y1397000D01*
X92692069Y1550994D01*
X92831225Y1811337D01*
X92916916Y2093824D01*
X92938600Y2313982D01*
X92938600Y2766019D01*
X92916916Y2986177D01*
X92831225Y3268664D01*
X92692069Y3529006D01*
X92504797Y3757197D01*
X92276605Y3944469D01*
X92016263Y4083625D01*
X91733776Y4169316D01*
X91440000Y4198251D01*
X91146223Y4169316D01*
X91035974Y4135872D01*
X90921658Y4250188D01*
X90898638Y4278238D01*
X90786720Y4370087D01*
X90659033Y4438337D01*
X90547179Y4472267D01*
X89725270Y5294176D01*
X89702250Y5322226D01*
X89590332Y5414075D01*
X89462645Y5482325D01*
X89324097Y5524353D01*
X89216117Y5534988D01*
X89180012Y5538544D01*
X89143907Y5534988D01*
X87648758Y5534988D01*
X87489560Y5694186D01*
X87466539Y5722237D01*
X87354621Y5814086D01*
X87226934Y5882336D01*
X87088386Y5924364D01*
X86980406Y5934999D01*
X86944301Y5938555D01*
X86908196Y5934999D01*
X85274447Y5934999D01*
X85252568Y5956878D01*
X85283513Y6058889D01*
X85312185Y6350000D01*
X85283513Y6641111D01*
X85198599Y6921034D01*
X85060706Y7179014D01*
X84875134Y7405134D01*
X84649014Y7590706D01*
X84391034Y7728599D01*
X84111111Y7813513D01*
X83892950Y7835000D01*
X83747050Y7835000D01*
X83528889Y7813513D01*
X83248966Y7728599D01*
X82990986Y7590706D01*
X82764866Y7405134D01*
X82579294Y7179014D01*
X82550000Y7124209D01*
X82520706Y7179014D01*
X82335134Y7405134D01*
X82109014Y7590706D01*
X81851034Y7728599D01*
X81571111Y7813513D01*
X81352950Y7835000D01*
X81207050Y7835000D01*
X80988889Y7813513D01*
X80708966Y7728599D01*
X80450986Y7590706D01*
X80224866Y7405134D01*
X80039294Y7179014D01*
X80010000Y7124209D01*
X79980706Y7179014D01*
X79795134Y7405134D01*
X79569014Y7590706D01*
X79311034Y7728599D01*
X79031111Y7813513D01*
X78812950Y7835000D01*
X78667050Y7835000D01*
X78448889Y7813513D01*
X78168966Y7728599D01*
X77910986Y7590706D01*
X77684866Y7405134D01*
X77499294Y7179014D01*
X77470000Y7124209D01*
X77440706Y7179014D01*
X77255134Y7405134D01*
X77029014Y7590706D01*
X76771034Y7728599D01*
X76491111Y7813513D01*
X76272950Y7835000D01*
X76127050Y7835000D01*
X75908889Y7813513D01*
X75628966Y7728599D01*
X75370986Y7590706D01*
X75144866Y7405134D01*
X74959294Y7179014D01*
X74930000Y7124209D01*
X74900706Y7179014D01*
X74715134Y7405134D01*
X74489014Y7590706D01*
X74231034Y7728599D01*
X73951111Y7813513D01*
X73732950Y7835000D01*
X73587050Y7835000D01*
X73368889Y7813513D01*
X73088966Y7728599D01*
X72830986Y7590706D01*
X72604866Y7405134D01*
X72419294Y7179014D01*
X72390000Y7124209D01*
X72360706Y7179014D01*
X72175134Y7405134D01*
X71949014Y7590706D01*
X71691034Y7728599D01*
X71411111Y7813513D01*
X71192950Y7835000D01*
X71047050Y7835000D01*
X70828889Y7813513D01*
X70548966Y7728599D01*
X70290986Y7590706D01*
X70064866Y7405134D01*
X69879294Y7179014D01*
X69850000Y7124209D01*
X69820706Y7179014D01*
X69635134Y7405134D01*
X69409014Y7590706D01*
X69151034Y7728599D01*
X68871111Y7813513D01*
X68652950Y7835000D01*
X68507050Y7835000D01*
X68288889Y7813513D01*
X68008966Y7728599D01*
X67750986Y7590706D01*
X67524866Y7405134D01*
X67500393Y7375313D01*
X67479502Y7444180D01*
X67420537Y7554494D01*
X67341185Y7651185D01*
X67244494Y7730537D01*
X67134180Y7789502D01*
X67014482Y7825812D01*
X66890000Y7838072D01*
X65190000Y7838072D01*
X65065518Y7825812D01*
X64945820Y7789502D01*
X64835506Y7730537D01*
X64738815Y7651185D01*
X64659463Y7554494D01*
X64600498Y7444180D01*
X64564188Y7324482D01*
X64551928Y7200000D01*
X64551928Y5767055D01*
X64494621Y5814086D01*
X64366934Y5882336D01*
X64228386Y5924364D01*
X64120406Y5934999D01*
X64084301Y5938555D01*
X64048196Y5934999D01*
X62414447Y5934999D01*
X62392568Y5956878D01*
X62423513Y6058889D01*
X62452185Y6350000D01*
X62423513Y6641111D01*
X62338599Y6921034D01*
X62200706Y7179014D01*
X62015134Y7405134D01*
X61789014Y7590706D01*
X61531034Y7728599D01*
X61251111Y7813513D01*
X61032950Y7835000D01*
X60887050Y7835000D01*
X60668889Y7813513D01*
X60388966Y7728599D01*
X60130986Y7590706D01*
X59904866Y7405134D01*
X59719294Y7179014D01*
X59690000Y7124209D01*
X59660706Y7179014D01*
X59475134Y7405134D01*
X59249014Y7590706D01*
X58991034Y7728599D01*
X58711111Y7813513D01*
X58492950Y7835000D01*
X58347050Y7835000D01*
X58128889Y7813513D01*
X57848966Y7728599D01*
X57590986Y7590706D01*
X57364866Y7405134D01*
X57179294Y7179014D01*
X57150000Y7124209D01*
X57120706Y7179014D01*
X56935134Y7405134D01*
X56709014Y7590706D01*
X56451034Y7728599D01*
X56171111Y7813513D01*
X55952950Y7835000D01*
X55807050Y7835000D01*
X55588889Y7813513D01*
X55308966Y7728599D01*
X55050986Y7590706D01*
X54824866Y7405134D01*
X54639294Y7179014D01*
X54610000Y7124209D01*
X54580706Y7179014D01*
X54395134Y7405134D01*
X54169014Y7590706D01*
X53911034Y7728599D01*
X53631111Y7813513D01*
X53412950Y7835000D01*
X53267050Y7835000D01*
X53048889Y7813513D01*
X52768966Y7728599D01*
X52510986Y7590706D01*
X52284866Y7405134D01*
X52099294Y7179014D01*
X52070000Y7124209D01*
X52040706Y7179014D01*
X51855134Y7405134D01*
X51629014Y7590706D01*
X51371034Y7728599D01*
X51091111Y7813513D01*
X50872950Y7835000D01*
X50727050Y7835000D01*
X50508889Y7813513D01*
X50228966Y7728599D01*
X49970986Y7590706D01*
X49744866Y7405134D01*
X49559294Y7179014D01*
X49530000Y7124209D01*
X49500706Y7179014D01*
X49315134Y7405134D01*
X49089014Y7590706D01*
X48831034Y7728599D01*
X48551111Y7813513D01*
X48332950Y7835000D01*
X48187050Y7835000D01*
X47968889Y7813513D01*
X47688966Y7728599D01*
X47430986Y7590706D01*
X47204866Y7405134D01*
X47019294Y7179014D01*
X46990000Y7124209D01*
X46960706Y7179014D01*
X46775134Y7405134D01*
X46549014Y7590706D01*
X46291034Y7728599D01*
X46011111Y7813513D01*
X45792950Y7835000D01*
X45647050Y7835000D01*
X45428889Y7813513D01*
X45148966Y7728599D01*
X44890986Y7590706D01*
X44664866Y7405134D01*
X44640393Y7375313D01*
X44619502Y7444180D01*
X44560537Y7554494D01*
X44481185Y7651185D01*
X44384494Y7730537D01*
X44274180Y7789502D01*
X44154482Y7825812D01*
X44030000Y7838072D01*
X42330000Y7838072D01*
X42205518Y7825812D01*
X42085820Y7789502D01*
X41975506Y7730537D01*
X41878815Y7651185D01*
X41799463Y7554494D01*
X41740498Y7444180D01*
X41704188Y7324482D01*
X41691928Y7200000D01*
X41691928Y5500000D01*
X41704188Y5375518D01*
X41740498Y5255820D01*
X41799463Y5145506D01*
X41878815Y5048815D01*
X41975506Y4969463D01*
X42085820Y4910498D01*
X42205518Y4874188D01*
X42330000Y4861928D01*
X43628626Y4861928D01*
X43784742Y4705812D01*
X43807763Y4677761D01*
X43919681Y4585912D01*
X44047368Y4517662D01*
X44170320Y4480365D01*
X44185916Y4475634D01*
X44330001Y4461443D01*
X44366106Y4464999D01*
X45999855Y4464999D01*
X46159053Y4305801D01*
X46182074Y4277750D01*
X46293992Y4185901D01*
X46421679Y4117651D01*
X46518198Y4088372D01*
X46560226Y4075623D01*
X46704312Y4061432D01*
X46740417Y4064988D01*
X48235566Y4064988D01*
X49038746Y3261807D01*
X49061762Y3233762D01*
X49173680Y3141913D01*
X49301367Y3073663D01*
X49345556Y3060258D01*
X49323084Y2986176D01*
X49301400Y2766018D01*
X49301400Y2313981D01*
X49323084Y2093823D01*
X49408775Y1811336D01*
X49547931Y1550994D01*
X49674311Y1397000D01*
X46845689Y1397000D01*
X46972069Y1550994D01*
X47111225Y1811337D01*
X47196916Y2093824D01*
X47218600Y2313982D01*
X47218600Y2766019D01*
X47196916Y2986177D01*
X47111225Y3268664D01*
X46972069Y3529006D01*
X46784797Y3757197D01*
X46556605Y3944469D01*
X46296263Y4083625D01*
X46013776Y4169316D01*
X45720000Y4198251D01*
X45426223Y4169316D01*
X45143736Y4083625D01*
X44883394Y3944469D01*
X44655203Y3757197D01*
X44467931Y3529005D01*
X44446576Y3489053D01*
X44298486Y3691729D01*
X44082035Y3890733D01*
X43830919Y4043686D01*
X43554789Y4144709D01*
X43539026Y4147358D01*
X43307000Y4026217D01*
X43307000Y2667000D01*
X43327000Y2667000D01*
X43327000Y2413000D01*
X43307000Y2413000D01*
X43307000Y2393000D01*
X43053000Y2393000D01*
X43053000Y2413000D01*
X40767000Y2413000D01*
X40767000Y2393000D01*
X40513000Y2393000D01*
X40513000Y2413000D01*
X40493000Y2413000D01*
X40493000Y2667000D01*
X40513000Y2667000D01*
X40513000Y4026217D01*
X40767000Y4026217D01*
X40767000Y2667000D01*
X43053000Y2667000D01*
X43053000Y4026217D01*
X42820974Y4147358D01*
X42805211Y4144709D01*
X42529081Y4043686D01*
X42277965Y3890733D01*
X42061514Y3691729D01*
X41910000Y3484367D01*
X41758486Y3691729D01*
X41542035Y3890733D01*
X41290919Y4043686D01*
X41014789Y4144709D01*
X40999026Y4147358D01*
X40767000Y4026217D01*
X40513000Y4026217D01*
X40280974Y4147358D01*
X40265211Y4144709D01*
X39989081Y4043686D01*
X39737965Y3890733D01*
X39521514Y3691729D01*
X39373424Y3489053D01*
X39352069Y3529006D01*
X39164797Y3757197D01*
X38936605Y3944469D01*
X38676263Y4083625D01*
X38393776Y4169316D01*
X38100000Y4198251D01*
X37806223Y4169316D01*
X37523736Y4083625D01*
X37263394Y3944469D01*
X37035203Y3757197D01*
X36847931Y3529005D01*
X36830000Y3495459D01*
X36812069Y3529006D01*
X36624797Y3757197D01*
X36396605Y3944469D01*
X36136263Y4083625D01*
X35853776Y4169316D01*
X35560000Y4198251D01*
X35266223Y4169316D01*
X34983736Y4083625D01*
X34723394Y3944469D01*
X34495203Y3757197D01*
X34307931Y3529005D01*
X34290000Y3495459D01*
X34272069Y3529006D01*
X34084797Y3757197D01*
X33856605Y3944469D01*
X33596263Y4083625D01*
X33313776Y4169316D01*
X33020000Y4198251D01*
X32726223Y4169316D01*
X32443736Y4083625D01*
X32183394Y3944469D01*
X31955203Y3757197D01*
X31767931Y3529005D01*
X31750000Y3495459D01*
X31732069Y3529006D01*
X31544797Y3757197D01*
X31316605Y3944469D01*
X31056263Y4083625D01*
X30773776Y4169316D01*
X30480000Y4198251D01*
X30186223Y4169316D01*
X29903736Y4083625D01*
X29643394Y3944469D01*
X29415203Y3757197D01*
X29227931Y3529005D01*
X29210000Y3495459D01*
X29192069Y3529006D01*
X29004797Y3757197D01*
X28776605Y3944469D01*
X28516263Y4083625D01*
X28233776Y4169316D01*
X27940000Y4198251D01*
X27646223Y4169316D01*
X27363736Y4083625D01*
X27103394Y3944469D01*
X26875203Y3757197D01*
X26687931Y3529005D01*
X26548775Y3268663D01*
X26463084Y2986176D01*
X26441400Y2766018D01*
X26441400Y2313981D01*
X26463084Y2093823D01*
X26548775Y1811336D01*
X26687931Y1550994D01*
X26814311Y1397000D01*
X16383293Y1397000D01*
X16534508Y1762065D01*
X16637000Y2277323D01*
X16637000Y2802677D01*
X16534508Y3317935D01*
X16333464Y3803298D01*
X16041594Y4240113D01*
X15670113Y4611594D01*
X15233298Y4903464D01*
X14747935Y5104508D01*
X14232677Y5207000D01*
X13707323Y5207000D01*
X13192065Y5104508D01*
X12706702Y4903464D01*
X12269887Y4611594D01*
X11898406Y4240113D01*
X11606536Y3803298D01*
X11405492Y3317935D01*
X11303000Y2802677D01*
X11303000Y2277323D01*
X11405492Y1762065D01*
X11556707Y1397000D01*
X1397000Y1397000D01*
X1397000Y4131931D01*
X1484866Y4024866D01*
X1710986Y3839294D01*
X1968966Y3701401D01*
X2248889Y3616487D01*
X2467050Y3595000D01*
X2612950Y3595000D01*
X2831111Y3616487D01*
X3111034Y3701401D01*
X3369014Y3839294D01*
X3595134Y4024866D01*
X3619607Y4054687D01*
X3640498Y3985820D01*
X3699463Y3875506D01*
X3778815Y3778815D01*
X3875506Y3699463D01*
X3985820Y3640498D01*
X4105518Y3604188D01*
X4230000Y3591928D01*
X5930000Y3591928D01*
X6054482Y3604188D01*
X6174180Y3640498D01*
X6284494Y3699463D01*
X6381185Y3778815D01*
X6460537Y3875506D01*
X6519502Y3985820D01*
X6555812Y4105518D01*
X6568072Y4230000D01*
X6568072Y5930000D01*
X6555812Y6054482D01*
X6519502Y6174180D01*
X6460537Y6284494D01*
X6381185Y6381185D01*
X6284494Y6460537D01*
X6174180Y6519502D01*
X6105313Y6540393D01*
X6135134Y6564866D01*
X6320706Y6790986D01*
X6458599Y7048966D01*
X6543513Y7328889D01*
X6572185Y7620000D01*
X6543513Y7911111D01*
X6458599Y8191034D01*
X6320706Y8449014D01*
X6135134Y8675134D01*
X6015000Y8773725D01*
X6015000Y9006275D01*
X6135134Y9104866D01*
X6320706Y9330986D01*
X6458599Y9588966D01*
X6540817Y9860000D01*
X11438349Y9860000D01*
X11510013Y9752748D01*
X11737748Y9525013D01*
X12005537Y9346082D01*
X12303088Y9222832D01*
X12618967Y9160000D01*
X12941033Y9160000D01*
X13256912Y9222832D01*
X13554463Y9346082D01*
X13822252Y9525013D01*
X14049987Y9752748D01*
X14228918Y10020537D01*
X14352168Y10318088D01*
X14415000Y10633967D01*
X14415000Y10956033D01*
X14352168Y11271912D01*
X14228918Y11569463D01*
X14049987Y11837252D01*
X13822252Y12064987D01*
X13554463Y12243918D01*
X13256912Y12367168D01*
X13091854Y12400000D01*
X17468146Y12400000D01*
X17303088Y12367168D01*
X17005537Y12243918D01*
X16737748Y12064987D01*
X16510013Y11837252D01*
X16331082Y11569463D01*
X16207832Y11271912D01*
X16145000Y10956033D01*
X16145000Y10633967D01*
X16207832Y10318088D01*
X16331082Y10020537D01*
X16510013Y9752748D01*
X16737748Y9525013D01*
X17005537Y9346082D01*
X17303088Y9222832D01*
X17618967Y9160000D01*
X17941033Y9160000D01*
X18256912Y9222832D01*
X18554463Y9346082D01*
X18822252Y9525013D01*
X19049987Y9752748D01*
X19121651Y9860000D01*
X36403068Y9860000D01*
X36449000Y9855476D01*
X36494932Y9860000D01*
X36632292Y9873529D01*
X36808540Y9926993D01*
X36970972Y10013814D01*
X37113344Y10130656D01*
X37142630Y10166341D01*
X39090037Y12113748D01*
X39115911Y11983673D01*
X39235391Y11695221D01*
X39408850Y11435621D01*
X39629621Y11214850D01*
X39687764Y11176000D01*
X39629621Y11137150D01*
X39408850Y10916379D01*
X39235391Y10656779D01*
X39115911Y10368327D01*
X39055000Y10062109D01*
X39055000Y9749891D01*
X39115911Y9443673D01*
X39235391Y9155221D01*
X39408850Y8895621D01*
X39629621Y8674850D01*
X39889221Y8501391D01*
X40177673Y8381911D01*
X40483891Y8321000D01*
X40796109Y8321000D01*
X41102327Y8381911D01*
X41390779Y8501391D01*
X41650379Y8674850D01*
X41871150Y8895621D01*
X42044609Y9155221D01*
X42164089Y9443673D01*
X42225000Y9749891D01*
X42225000Y10062109D01*
X42164089Y10368327D01*
X42044609Y10656779D01*
X41871150Y10916379D01*
X41650379Y11137150D01*
X41592236Y11176000D01*
X41650379Y11214850D01*
X41871150Y11435621D01*
X42044609Y11695221D01*
X42164089Y11983673D01*
X42225000Y12289891D01*
X42225000Y12602109D01*
X42164089Y12908327D01*
X42044609Y13196779D01*
X41871150Y13456379D01*
X41650379Y13677150D01*
X41592236Y13716000D01*
X41650379Y13754850D01*
X41871150Y13975621D01*
X42044609Y14235221D01*
X42164089Y14523673D01*
X42225000Y14829891D01*
X42225000Y15142109D01*
X42164089Y15448327D01*
X42044609Y15736779D01*
X41871150Y15996379D01*
X41650379Y16217150D01*
X41518324Y16305387D01*
X41560147Y16426248D01*
X40640000Y17346395D01*
X39719853Y16426248D01*
X39761676Y16305387D01*
X39629621Y16217150D01*
X39408850Y15996379D01*
X39235391Y15736779D01*
X39115911Y15448327D01*
X39055000Y15142109D01*
X39055000Y14829891D01*
X39072686Y14740976D01*
X36061711Y11730000D01*
X19121651Y11730000D01*
X19049987Y11837252D01*
X18822252Y12064987D01*
X18554463Y12243918D01*
X18256912Y12367168D01*
X18091854Y12400000D01*
X33863068Y12400000D01*
X33909000Y12395476D01*
X33954932Y12400000D01*
X34092292Y12413529D01*
X34268540Y12466993D01*
X34430972Y12553814D01*
X34573344Y12670656D01*
X34602630Y12706341D01*
X39086509Y17190219D01*
X39091816Y17152209D01*
X39194487Y16857356D01*
X39280958Y16695579D01*
X39540248Y16605853D01*
X40460395Y17526000D01*
X40819605Y17526000D01*
X41739752Y16605853D01*
X41999042Y16695579D01*
X42134935Y16976671D01*
X42213379Y17278873D01*
X42231359Y17590573D01*
X42188184Y17899791D01*
X42085513Y18194644D01*
X41999042Y18356421D01*
X41739752Y18446147D01*
X40819605Y17526000D01*
X40460395Y17526000D01*
X40446253Y17540142D01*
X40625858Y17719747D01*
X40640000Y17705605D01*
X41560147Y18625752D01*
X41518324Y18746613D01*
X41650379Y18834850D01*
X41871150Y19055621D01*
X42044609Y19315221D01*
X42164089Y19603673D01*
X42225000Y19909891D01*
X42225000Y20222109D01*
X42164089Y20528327D01*
X42044609Y20816779D01*
X41871150Y21076379D01*
X41650379Y21297150D01*
X41592236Y21336000D01*
X41650379Y21374850D01*
X41871150Y21595621D01*
X41921517Y21671000D01*
X55492711Y21671000D01*
X61932686Y15231024D01*
X61915000Y15142109D01*
X61915000Y14829891D01*
X61975911Y14523673D01*
X62095391Y14235221D01*
X62268850Y13975621D01*
X62489621Y13754850D01*
X62547764Y13716000D01*
X62489621Y13677150D01*
X62268850Y13456379D01*
X62095391Y13196779D01*
X61975911Y12908327D01*
X61915000Y12602109D01*
X61915000Y12289891D01*
X61975911Y11983673D01*
X62095391Y11695221D01*
X62268850Y11435621D01*
X62489621Y11214850D01*
X62547764Y11176000D01*
X62489621Y11137150D01*
X62268850Y10916379D01*
X62095391Y10656779D01*
X61975911Y10368327D01*
X61915000Y10062109D01*
X61915000Y9749891D01*
X61975911Y9443673D01*
X62095391Y9155221D01*
X62268850Y8895621D01*
X62489621Y8674850D01*
X62749221Y8501391D01*
X63037673Y8381911D01*
X63343891Y8321000D01*
X63656109Y8321000D01*
X63962327Y8381911D01*
X64250779Y8501391D01*
X64510379Y8674850D01*
X64731150Y8895621D01*
X64904609Y9155221D01*
X64911145Y9171000D01*
X71049895Y9171000D01*
X71086000Y9167444D01*
X71122105Y9171000D01*
X71230085Y9181635D01*
X71368633Y9223663D01*
X71496320Y9291913D01*
X71608238Y9383762D01*
X71631259Y9411813D01*
X77434058Y15214611D01*
X77438815Y15208815D01*
X77535506Y15129463D01*
X77645820Y15070498D01*
X77765518Y15034188D01*
X77890000Y15021928D01*
X79590000Y15021928D01*
X79714482Y15034188D01*
X79834180Y15070498D01*
X79944494Y15129463D01*
X80041185Y15208815D01*
X80120537Y15305506D01*
X80179502Y15415820D01*
X80215812Y15535518D01*
X80228072Y15660000D01*
X80228072Y17360000D01*
X80215812Y17484482D01*
X80179502Y17604180D01*
X80120537Y17714494D01*
X80041185Y17811185D01*
X79944494Y17890537D01*
X79834180Y17949502D01*
X79765313Y17970393D01*
X79795134Y17994866D01*
X79980706Y18220986D01*
X80118599Y18478966D01*
X80203513Y18758889D01*
X80232185Y19050000D01*
X80203513Y19341111D01*
X80118599Y19621034D01*
X79980706Y19879014D01*
X79795134Y20105134D01*
X79569014Y20290706D01*
X79311034Y20428599D01*
X79031111Y20513513D01*
X78812950Y20535000D01*
X78667050Y20535000D01*
X78448889Y20513513D01*
X78168966Y20428599D01*
X77910986Y20290706D01*
X77684866Y20105134D01*
X77499294Y19879014D01*
X77449884Y19786574D01*
X77433904Y19785000D01*
X77433895Y19785000D01*
X77325915Y19774365D01*
X77187367Y19732337D01*
X77059680Y19664087D01*
X76947762Y19572238D01*
X76924746Y19544193D01*
X70561554Y13181000D01*
X64911145Y13181000D01*
X64904609Y13196779D01*
X64731150Y13456379D01*
X64510379Y13677150D01*
X64452236Y13716000D01*
X64510379Y13754850D01*
X64731150Y13975621D01*
X64904609Y14235221D01*
X65024089Y14523673D01*
X65085000Y14829891D01*
X65085000Y15142109D01*
X65024089Y15448327D01*
X64904609Y15736779D01*
X64731150Y15996379D01*
X64510379Y16217150D01*
X64378324Y16305387D01*
X64420147Y16426248D01*
X63500000Y17346395D01*
X63485858Y17332252D01*
X63306253Y17511857D01*
X63320395Y17526000D01*
X63679605Y17526000D01*
X64599752Y16605853D01*
X64859042Y16695579D01*
X64994935Y16976671D01*
X65073379Y17278873D01*
X65091359Y17590573D01*
X65048184Y17899791D01*
X64945513Y18194644D01*
X64859042Y18356421D01*
X64599752Y18446147D01*
X63679605Y17526000D01*
X63320395Y17526000D01*
X62400248Y18446147D01*
X62140958Y18356421D01*
X62005065Y18075329D01*
X61948989Y17859300D01*
X56573630Y23234659D01*
X56544344Y23270344D01*
X56401972Y23387186D01*
X56239540Y23474007D01*
X56063292Y23527471D01*
X55925932Y23541000D01*
X55880000Y23545524D01*
X55834068Y23541000D01*
X41921517Y23541000D01*
X41871150Y23616379D01*
X41650379Y23837150D01*
X41592236Y23876000D01*
X41650379Y23914850D01*
X41871150Y24135621D01*
X42044609Y24395221D01*
X42164089Y24683673D01*
X42225000Y24989891D01*
X42225000Y25302109D01*
X42164089Y25608327D01*
X42142271Y25661001D01*
X56582710Y25661001D01*
X61932687Y20311024D01*
X61915000Y20222109D01*
X61915000Y19909891D01*
X61975911Y19603673D01*
X62095391Y19315221D01*
X62268850Y19055621D01*
X62489621Y18834850D01*
X62621676Y18746613D01*
X62579853Y18625752D01*
X63500000Y17705605D01*
X64420147Y18625752D01*
X64378324Y18746613D01*
X64510379Y18834850D01*
X64725529Y19050000D01*
X69627815Y19050000D01*
X69656487Y18758889D01*
X69741401Y18478966D01*
X69879294Y18220986D01*
X70064866Y17994866D01*
X70094687Y17970393D01*
X70025820Y17949502D01*
X69915506Y17890537D01*
X69818815Y17811185D01*
X69739463Y17714494D01*
X69680498Y17604180D01*
X69644188Y17484482D01*
X69631928Y17360000D01*
X69631928Y15660000D01*
X69644188Y15535518D01*
X69680498Y15415820D01*
X69739463Y15305506D01*
X69818815Y15208815D01*
X69915506Y15129463D01*
X70025820Y15070498D01*
X70145518Y15034188D01*
X70270000Y15021928D01*
X71970000Y15021928D01*
X72094482Y15034188D01*
X72214180Y15070498D01*
X72324494Y15129463D01*
X72421185Y15208815D01*
X72500537Y15305506D01*
X72559502Y15415820D01*
X72595812Y15535518D01*
X72608072Y15660000D01*
X72608072Y17360000D01*
X72595812Y17484482D01*
X72559502Y17604180D01*
X72500537Y17714494D01*
X72421185Y17811185D01*
X72324494Y17890537D01*
X72214180Y17949502D01*
X72145313Y17970393D01*
X72175134Y17994866D01*
X72360706Y18220986D01*
X72498599Y18478966D01*
X72583513Y18758889D01*
X72612185Y19050000D01*
X72583513Y19341111D01*
X72498599Y19621034D01*
X72360706Y19879014D01*
X72175134Y20105134D01*
X71949014Y20290706D01*
X71691034Y20428599D01*
X71411111Y20513513D01*
X71192950Y20535000D01*
X71047050Y20535000D01*
X70828889Y20513513D01*
X70548966Y20428599D01*
X70290986Y20290706D01*
X70064866Y20105134D01*
X69879294Y19879014D01*
X69741401Y19621034D01*
X69656487Y19341111D01*
X69627815Y19050000D01*
X64725529Y19050000D01*
X64731150Y19055621D01*
X64904609Y19315221D01*
X65024089Y19603673D01*
X65085000Y19909891D01*
X65085000Y20222109D01*
X65024089Y20528327D01*
X64904609Y20816779D01*
X64731150Y21076379D01*
X64510379Y21297150D01*
X64452236Y21336000D01*
X64510379Y21374850D01*
X64731150Y21595621D01*
X64904609Y21855221D01*
X65024089Y22143673D01*
X65085000Y22449891D01*
X65085000Y22762109D01*
X65024089Y23068327D01*
X64904609Y23356779D01*
X64731150Y23616379D01*
X64510379Y23837150D01*
X64452236Y23876000D01*
X64510379Y23914850D01*
X64731150Y24135621D01*
X64904609Y24395221D01*
X65024089Y24683673D01*
X65085000Y24989891D01*
X65085000Y25302109D01*
X65024089Y25608327D01*
X64904609Y25896779D01*
X64731150Y26156379D01*
X64510379Y26377150D01*
X64250779Y26550609D01*
X63962542Y26670000D01*
X64250779Y26789391D01*
X64510379Y26962850D01*
X64731150Y27183621D01*
X64904609Y27443221D01*
X64911145Y27459000D01*
X71557895Y27459000D01*
X71594000Y27455444D01*
X71630105Y27459000D01*
X71738085Y27469635D01*
X71876633Y27511663D01*
X72004320Y27579913D01*
X72116238Y27671762D01*
X72139259Y27699813D01*
X77434058Y32994611D01*
X77438815Y32988815D01*
X77535506Y32909463D01*
X77645820Y32850498D01*
X77765518Y32814188D01*
X77890000Y32801928D01*
X79590000Y32801928D01*
X79714482Y32814188D01*
X79834180Y32850498D01*
X79944494Y32909463D01*
X80041185Y32988815D01*
X80120537Y33085506D01*
X80179502Y33195820D01*
X80215812Y33315518D01*
X80228072Y33440000D01*
X80228072Y35140000D01*
X80215812Y35264482D01*
X80179502Y35384180D01*
X80120537Y35494494D01*
X80041185Y35591185D01*
X79944494Y35670537D01*
X79834180Y35729502D01*
X79765313Y35750393D01*
X79795134Y35774866D01*
X79980706Y36000986D01*
X80118599Y36258966D01*
X80203513Y36538889D01*
X80232185Y36830000D01*
X80203513Y37121111D01*
X80118599Y37401034D01*
X79980706Y37659014D01*
X79795134Y37885134D01*
X79569014Y38070706D01*
X79311034Y38208599D01*
X79031111Y38293513D01*
X78812950Y38315000D01*
X78667050Y38315000D01*
X78448889Y38293513D01*
X78168966Y38208599D01*
X77910986Y38070706D01*
X77684866Y37885134D01*
X77499294Y37659014D01*
X77449884Y37566575D01*
X77433895Y37565000D01*
X77325915Y37554365D01*
X77187367Y37512337D01*
X77059680Y37444087D01*
X76947762Y37352238D01*
X76924746Y37324193D01*
X71069554Y31469000D01*
X64911145Y31469000D01*
X64904609Y31484779D01*
X64731150Y31744379D01*
X64510379Y31965150D01*
X64452236Y32004000D01*
X64510379Y32042850D01*
X64731150Y32263621D01*
X64904609Y32523221D01*
X65024089Y32811673D01*
X65085000Y33117891D01*
X65085000Y33430109D01*
X65024089Y33736327D01*
X64904609Y34024779D01*
X64731150Y34284379D01*
X64510379Y34505150D01*
X64378324Y34593387D01*
X64420147Y34714248D01*
X63500000Y35634395D01*
X63485858Y35620252D01*
X63306253Y35799857D01*
X63320395Y35814000D01*
X63679605Y35814000D01*
X64599752Y34893853D01*
X64859042Y34983579D01*
X64994935Y35264671D01*
X65073379Y35566873D01*
X65091359Y35878573D01*
X65048184Y36187791D01*
X64945513Y36482644D01*
X64859042Y36644421D01*
X64599752Y36734147D01*
X63679605Y35814000D01*
X63320395Y35814000D01*
X62400248Y36734147D01*
X62140958Y36644421D01*
X62005065Y36363329D01*
X61948989Y36147300D01*
X56573630Y41522659D01*
X56544344Y41558344D01*
X56401972Y41675186D01*
X56239540Y41762007D01*
X56063292Y41815471D01*
X55925932Y41829000D01*
X55880000Y41833524D01*
X55834068Y41829000D01*
X41921517Y41829000D01*
X41871150Y41904379D01*
X41650379Y42125150D01*
X41592236Y42164000D01*
X41650379Y42202850D01*
X41871150Y42423621D01*
X42044609Y42683221D01*
X42164089Y42971673D01*
X42225000Y43277891D01*
X42225000Y43590109D01*
X42164089Y43896327D01*
X42142271Y43949001D01*
X56582710Y43949001D01*
X61932687Y38599024D01*
X61915000Y38510109D01*
X61915000Y38197891D01*
X61975911Y37891673D01*
X62095391Y37603221D01*
X62268850Y37343621D01*
X62489621Y37122850D01*
X62621676Y37034613D01*
X62579853Y36913752D01*
X63500000Y35993605D01*
X64336395Y36830000D01*
X69627815Y36830000D01*
X69656487Y36538889D01*
X69741401Y36258966D01*
X69879294Y36000986D01*
X70064866Y35774866D01*
X70094687Y35750393D01*
X70025820Y35729502D01*
X69915506Y35670537D01*
X69818815Y35591185D01*
X69739463Y35494494D01*
X69680498Y35384180D01*
X69644188Y35264482D01*
X69631928Y35140000D01*
X69631928Y33440000D01*
X69644188Y33315518D01*
X69680498Y33195820D01*
X69739463Y33085506D01*
X69818815Y32988815D01*
X69915506Y32909463D01*
X70025820Y32850498D01*
X70145518Y32814188D01*
X70270000Y32801928D01*
X71970000Y32801928D01*
X72094482Y32814188D01*
X72214180Y32850498D01*
X72324494Y32909463D01*
X72421185Y32988815D01*
X72500537Y33085506D01*
X72559502Y33195820D01*
X72595812Y33315518D01*
X72608072Y33440000D01*
X72608072Y35140000D01*
X72595812Y35264482D01*
X72559502Y35384180D01*
X72500537Y35494494D01*
X72421185Y35591185D01*
X72324494Y35670537D01*
X72214180Y35729502D01*
X72145313Y35750393D01*
X72175134Y35774866D01*
X72360706Y36000986D01*
X72498599Y36258966D01*
X72583513Y36538889D01*
X72612185Y36830000D01*
X72583513Y37121111D01*
X72498599Y37401034D01*
X72360706Y37659014D01*
X72175134Y37885134D01*
X71949014Y38070706D01*
X71691034Y38208599D01*
X71411111Y38293513D01*
X71192950Y38315000D01*
X71047050Y38315000D01*
X70828889Y38293513D01*
X70548966Y38208599D01*
X70290986Y38070706D01*
X70064866Y37885134D01*
X69879294Y37659014D01*
X69741401Y37401034D01*
X69656487Y37121111D01*
X69627815Y36830000D01*
X64336395Y36830000D01*
X64420147Y36913752D01*
X64378324Y37034613D01*
X64510379Y37122850D01*
X64731150Y37343621D01*
X64904609Y37603221D01*
X65024089Y37891673D01*
X65085000Y38197891D01*
X65085000Y38510109D01*
X65024089Y38816327D01*
X64904609Y39104779D01*
X64731150Y39364379D01*
X64510379Y39585150D01*
X64452236Y39624000D01*
X64510379Y39662850D01*
X64731150Y39883621D01*
X64904609Y40143221D01*
X65024089Y40431673D01*
X65085000Y40737891D01*
X65085000Y41050109D01*
X65024089Y41356327D01*
X64904609Y41644779D01*
X64731150Y41904379D01*
X64510379Y42125150D01*
X64452236Y42164000D01*
X64510379Y42202850D01*
X64731150Y42423621D01*
X64904609Y42683221D01*
X65024089Y42971673D01*
X65085000Y43277891D01*
X65085000Y43590109D01*
X65024089Y43896327D01*
X64904609Y44184779D01*
X64731150Y44444379D01*
X64510379Y44665150D01*
X64250779Y44838609D01*
X63962327Y44958089D01*
X63656109Y45019000D01*
X63343891Y45019000D01*
X63037673Y44958089D01*
X62749221Y44838609D01*
X62489621Y44665150D01*
X62268850Y44444379D01*
X62095391Y44184779D01*
X61975911Y43896327D01*
X61915000Y43590109D01*
X61915000Y43277891D01*
X61975911Y42971673D01*
X62095391Y42683221D01*
X62268850Y42423621D01*
X62489621Y42202850D01*
X62547764Y42164000D01*
X62489621Y42125150D01*
X62268850Y41904379D01*
X62095391Y41644779D01*
X61975911Y41356327D01*
X61950037Y41226252D01*
X57663629Y45512660D01*
X57634343Y45548345D01*
X57491971Y45665187D01*
X57329539Y45752008D01*
X57153291Y45805472D01*
X57015931Y45819001D01*
X56969999Y45823525D01*
X56924067Y45819001D01*
X56793952Y45819001D01*
X56935134Y45934866D01*
X57120706Y46160986D01*
X57150000Y46215791D01*
X57179294Y46160986D01*
X57364866Y45934866D01*
X57590986Y45749294D01*
X57848966Y45611401D01*
X58128889Y45526487D01*
X58347050Y45505000D01*
X58492950Y45505000D01*
X58711111Y45526487D01*
X58991034Y45611401D01*
X59249014Y45749294D01*
X59475134Y45934866D01*
X59660706Y46160986D01*
X59798599Y46418966D01*
X59883513Y46698889D01*
X59912185Y46990000D01*
X59883513Y47281111D01*
X59798599Y47561034D01*
X59660706Y47819014D01*
X59475134Y48045134D01*
X59249014Y48230706D01*
X59155000Y48280957D01*
X59155000Y49341221D01*
X59256606Y49395531D01*
X59484797Y49582803D01*
X59672069Y49810994D01*
X59690000Y49844541D01*
X59707931Y49810994D01*
X59895203Y49582803D01*
X60123395Y49395531D01*
X60383737Y49256375D01*
X60666224Y49170684D01*
X60960000Y49141749D01*
X61253777Y49170684D01*
X61536264Y49256375D01*
X61796606Y49395531D01*
X62024797Y49582803D01*
X62212069Y49810994D01*
X62230000Y49844541D01*
X62247931Y49810994D01*
X62435203Y49582803D01*
X62663395Y49395531D01*
X62923737Y49256375D01*
X63206224Y49170684D01*
X63500000Y49141749D01*
X63793777Y49170684D01*
X64076264Y49256375D01*
X64336606Y49395531D01*
X64564797Y49582803D01*
X64752069Y49810994D01*
X64891225Y50071337D01*
X64976916Y50353824D01*
X64998600Y50573982D01*
X64998600Y51026019D01*
X64976916Y51246177D01*
X64891225Y51528664D01*
X64752069Y51789006D01*
X64625689Y51943000D01*
X67454311Y51943000D01*
X67327931Y51789005D01*
G36*
X61932686Y33519024D02*
G01*
X61915000Y33430109D01*
X61915000Y33117891D01*
X61975911Y32811673D01*
X62095391Y32523221D01*
X62268850Y32263621D01*
X62489621Y32042850D01*
X62547764Y32004000D01*
X62489621Y31965150D01*
X62268850Y31744379D01*
X62095391Y31484779D01*
X61975911Y31196327D01*
X61915000Y30890109D01*
X61915000Y30577891D01*
X61975911Y30271673D01*
X62095391Y29983221D01*
X62268850Y29723621D01*
X62489621Y29502850D01*
X62547764Y29464000D01*
X62489621Y29425150D01*
X62268850Y29204379D01*
X62095391Y28944779D01*
X61975911Y28656327D01*
X61915000Y28350109D01*
X61915000Y28037891D01*
X61975911Y27731673D01*
X62095391Y27443221D01*
X62268850Y27183621D01*
X62489621Y26962850D01*
X62749221Y26789391D01*
X63037458Y26670000D01*
X62749221Y26550609D01*
X62489621Y26377150D01*
X62268850Y26156379D01*
X62095391Y25896779D01*
X61975911Y25608327D01*
X61915000Y25302109D01*
X61915000Y24989891D01*
X61975911Y24683673D01*
X62095391Y24395221D01*
X62268850Y24135621D01*
X62489621Y23914850D01*
X62547764Y23876000D01*
X62489621Y23837150D01*
X62268850Y23616379D01*
X62095391Y23356779D01*
X61975911Y23068327D01*
X61950037Y22938252D01*
X57663629Y27224660D01*
X57634343Y27260345D01*
X57491971Y27377187D01*
X57329539Y27464008D01*
X57153291Y27517472D01*
X57015931Y27531001D01*
X56969999Y27535525D01*
X56924067Y27531001D01*
X42080968Y27531001D01*
X42164089Y27731673D01*
X42225000Y28037891D01*
X42225000Y28350109D01*
X42164089Y28656327D01*
X42044609Y28944779D01*
X41871150Y29204379D01*
X41650379Y29425150D01*
X41592236Y29464000D01*
X41650379Y29502850D01*
X41871150Y29723621D01*
X42044609Y29983221D01*
X42164089Y30271673D01*
X42225000Y30577891D01*
X42225000Y30890109D01*
X42164089Y31196327D01*
X42044609Y31484779D01*
X41871150Y31744379D01*
X41650379Y31965150D01*
X41592236Y32004000D01*
X41650379Y32042850D01*
X41871150Y32263621D01*
X42044609Y32523221D01*
X42164089Y32811673D01*
X42225000Y33117891D01*
X42225000Y33430109D01*
X42164089Y33736327D01*
X42044609Y34024779D01*
X41871150Y34284379D01*
X41650379Y34505150D01*
X41518324Y34593387D01*
X41560147Y34714248D01*
X40640000Y35634395D01*
X40625858Y35620252D01*
X40446253Y35799857D01*
X40460395Y35814000D01*
X40819605Y35814000D01*
X41739752Y34893853D01*
X41999042Y34983579D01*
X42134935Y35264671D01*
X42213379Y35566873D01*
X42231359Y35878573D01*
X42188184Y36187791D01*
X42085513Y36482644D01*
X41999042Y36644421D01*
X41739752Y36734147D01*
X40819605Y35814000D01*
X40460395Y35814000D01*
X39540248Y36734147D01*
X39280958Y36644421D01*
X39145065Y36363329D01*
X39066621Y36061127D01*
X39048641Y35749427D01*
X39086400Y35479000D01*
X19041651Y35479000D01*
X18969987Y35586252D01*
X18742252Y35813987D01*
X18474463Y35992918D01*
X18176912Y36116168D01*
X17861033Y36179000D01*
X17538967Y36179000D01*
X17223088Y36116168D01*
X16925537Y35992918D01*
X16657748Y35813987D01*
X16430013Y35586252D01*
X16251082Y35318463D01*
X16127832Y35020912D01*
X16065000Y34705033D01*
X16065000Y34382967D01*
X16127832Y34067088D01*
X16251082Y33769537D01*
X16430013Y33501748D01*
X16657748Y33274013D01*
X16925537Y33095082D01*
X17223088Y32971832D01*
X17538967Y32909000D01*
X17861033Y32909000D01*
X18176912Y32971832D01*
X18474463Y33095082D01*
X18742252Y33274013D01*
X18969987Y33501748D01*
X19041651Y33609000D01*
X38982711Y33609000D01*
X39072686Y33519024D01*
X39055000Y33430109D01*
X39055000Y33117891D01*
X39115911Y32811673D01*
X39235391Y32523221D01*
X39408850Y32263621D01*
X39629621Y32042850D01*
X39687764Y32004000D01*
X39629621Y31965150D01*
X39408850Y31744379D01*
X39235391Y31484779D01*
X39115911Y31196327D01*
X39055000Y30890109D01*
X39055000Y30577891D01*
X39115911Y30271673D01*
X39235391Y29983221D01*
X39408850Y29723621D01*
X39629621Y29502850D01*
X39687764Y29464000D01*
X39629621Y29425150D01*
X39408850Y29204379D01*
X39235391Y28944779D01*
X39115911Y28656327D01*
X39055000Y28350109D01*
X39055000Y28037891D01*
X39115911Y27731673D01*
X39199032Y27531001D01*
X21608437Y27531001D01*
X21562502Y27535525D01*
X21379210Y27517473D01*
X21202961Y27464008D01*
X21168908Y27445806D01*
X21040530Y27377187D01*
X20898158Y27260345D01*
X20868872Y27224660D01*
X19171214Y25527002D01*
X19100156Y25527002D01*
X19221476Y25756890D01*
X19176825Y25904099D01*
X19051641Y26166920D01*
X18877588Y26400269D01*
X18793534Y26476034D01*
X18874180Y26500498D01*
X18984494Y26559463D01*
X19081185Y26638815D01*
X19160537Y26735506D01*
X19219502Y26845820D01*
X19255812Y26965518D01*
X19268072Y27090000D01*
X19268072Y28790000D01*
X19255812Y28914482D01*
X19219502Y29034180D01*
X19160537Y29144494D01*
X19081185Y29241185D01*
X18984494Y29320537D01*
X18874180Y29379502D01*
X18754482Y29415812D01*
X18630000Y29428072D01*
X16930000Y29428072D01*
X16805518Y29415812D01*
X16685820Y29379502D01*
X16575506Y29320537D01*
X16478815Y29241185D01*
X16399463Y29144494D01*
X16340498Y29034180D01*
X16304188Y28914482D01*
X16291928Y28790000D01*
X16291928Y27090000D01*
X16304188Y26965518D01*
X16340498Y26845820D01*
X16399463Y26735506D01*
X16478815Y26638815D01*
X16575506Y26559463D01*
X16685820Y26500498D01*
X16766466Y26476034D01*
X16682412Y26400269D01*
X16508359Y26166920D01*
X16383175Y25904099D01*
X16338524Y25756890D01*
X16459845Y25527000D01*
X17653000Y25527000D01*
X17653000Y25547000D01*
X17907000Y25547000D01*
X17907000Y25527000D01*
X17927000Y25527000D01*
X17927000Y25273000D01*
X17907000Y25273000D01*
X17907000Y25253000D01*
X17653000Y25253000D01*
X17653000Y25273000D01*
X16459845Y25273000D01*
X16338524Y25043110D01*
X16383175Y24895901D01*
X16508359Y24633080D01*
X16659835Y24430000D01*
X7372290Y24430000D01*
X6963629Y24838660D01*
X6934343Y24874345D01*
X6791971Y24991187D01*
X6629539Y25078008D01*
X6453291Y25131472D01*
X6315931Y25145001D01*
X6269999Y25149525D01*
X6224067Y25145001D01*
X3935936Y25145001D01*
X3890001Y25149525D01*
X3706709Y25131473D01*
X3530460Y25078008D01*
X3473881Y25047766D01*
X3368029Y24991187D01*
X3225657Y24874345D01*
X3196371Y24838660D01*
X2694663Y24336952D01*
X2612950Y24345000D01*
X2467050Y24345000D01*
X2248889Y24323513D01*
X1968966Y24238599D01*
X1710986Y24100706D01*
X1484866Y23915134D01*
X1397000Y23808069D01*
X1397000Y29531931D01*
X1484866Y29424866D01*
X1710986Y29239294D01*
X1968966Y29101401D01*
X2248889Y29016487D01*
X2467050Y28995000D01*
X2612950Y28995000D01*
X2831111Y29016487D01*
X3111034Y29101401D01*
X3369014Y29239294D01*
X3595134Y29424866D01*
X3619607Y29454687D01*
X3640498Y29385820D01*
X3699463Y29275506D01*
X3778815Y29178815D01*
X3875506Y29099463D01*
X3985820Y29040498D01*
X4105518Y29004188D01*
X4230000Y28991928D01*
X5930000Y28991928D01*
X6054482Y29004188D01*
X6174180Y29040498D01*
X6284494Y29099463D01*
X6381185Y29178815D01*
X6460537Y29275506D01*
X6519502Y29385820D01*
X6555812Y29505518D01*
X6568072Y29630000D01*
X6568072Y31330000D01*
X6555812Y31454482D01*
X6519502Y31574180D01*
X6460537Y31684494D01*
X6381185Y31781185D01*
X6284494Y31860537D01*
X6174180Y31919502D01*
X6105313Y31940393D01*
X6135134Y31964866D01*
X6320706Y32190986D01*
X6458599Y32448966D01*
X6543513Y32728889D01*
X6572185Y33020000D01*
X6543513Y33311111D01*
X6458599Y33591034D01*
X6448996Y33609000D01*
X11358349Y33609000D01*
X11430013Y33501748D01*
X11657748Y33274013D01*
X11925537Y33095082D01*
X12223088Y32971832D01*
X12538967Y32909000D01*
X12861033Y32909000D01*
X13176912Y32971832D01*
X13474463Y33095082D01*
X13742252Y33274013D01*
X13969987Y33501748D01*
X14148918Y33769537D01*
X14272168Y34067088D01*
X14335000Y34382967D01*
X14335000Y34705033D01*
X14272168Y35020912D01*
X14148918Y35318463D01*
X13969987Y35586252D01*
X13742252Y35813987D01*
X13474463Y35992918D01*
X13176912Y36116168D01*
X12861033Y36179000D01*
X12538967Y36179000D01*
X12223088Y36116168D01*
X11925537Y35992918D01*
X11657748Y35813987D01*
X11430013Y35586252D01*
X11358349Y35479000D01*
X6564207Y35479000D01*
X6572185Y35560000D01*
X6543513Y35851111D01*
X6458599Y36131034D01*
X6320706Y36389014D01*
X6135134Y36615134D01*
X5909014Y36800706D01*
X5651034Y36938599D01*
X5371111Y37023513D01*
X5329864Y37027575D01*
X5721289Y37419000D01*
X39358483Y37419000D01*
X39408850Y37343621D01*
X39629621Y37122850D01*
X39761676Y37034613D01*
X39719853Y36913752D01*
X40640000Y35993605D01*
X41560147Y36913752D01*
X41518324Y37034613D01*
X41650379Y37122850D01*
X41871150Y37343621D01*
X42044609Y37603221D01*
X42164089Y37891673D01*
X42225000Y38197891D01*
X42225000Y38510109D01*
X42164089Y38816327D01*
X42044609Y39104779D01*
X41871150Y39364379D01*
X41650379Y39585150D01*
X41592236Y39624000D01*
X41650379Y39662850D01*
X41871150Y39883621D01*
X41921517Y39959000D01*
X55492711Y39959000D01*
X61932686Y33519024D01*
X61932686Y33519024D01*
G37*
X61932686Y33519024D02*
X61915000Y33430109D01*
X61915000Y33117891D01*
X61975911Y32811673D01*
X62095391Y32523221D01*
X62268850Y32263621D01*
X62489621Y32042850D01*
X62547764Y32004000D01*
X62489621Y31965150D01*
X62268850Y31744379D01*
X62095391Y31484779D01*
X61975911Y31196327D01*
X61915000Y30890109D01*
X61915000Y30577891D01*
X61975911Y30271673D01*
X62095391Y29983221D01*
X62268850Y29723621D01*
X62489621Y29502850D01*
X62547764Y29464000D01*
X62489621Y29425150D01*
X62268850Y29204379D01*
X62095391Y28944779D01*
X61975911Y28656327D01*
X61915000Y28350109D01*
X61915000Y28037891D01*
X61975911Y27731673D01*
X62095391Y27443221D01*
X62268850Y27183621D01*
X62489621Y26962850D01*
X62749221Y26789391D01*
X63037458Y26670000D01*
X62749221Y26550609D01*
X62489621Y26377150D01*
X62268850Y26156379D01*
X62095391Y25896779D01*
X61975911Y25608327D01*
X61915000Y25302109D01*
X61915000Y24989891D01*
X61975911Y24683673D01*
X62095391Y24395221D01*
X62268850Y24135621D01*
X62489621Y23914850D01*
X62547764Y23876000D01*
X62489621Y23837150D01*
X62268850Y23616379D01*
X62095391Y23356779D01*
X61975911Y23068327D01*
X61950037Y22938252D01*
X57663629Y27224660D01*
X57634343Y27260345D01*
X57491971Y27377187D01*
X57329539Y27464008D01*
X57153291Y27517472D01*
X57015931Y27531001D01*
X56969999Y27535525D01*
X56924067Y27531001D01*
X42080968Y27531001D01*
X42164089Y27731673D01*
X42225000Y28037891D01*
X42225000Y28350109D01*
X42164089Y28656327D01*
X42044609Y28944779D01*
X41871150Y29204379D01*
X41650379Y29425150D01*
X41592236Y29464000D01*
X41650379Y29502850D01*
X41871150Y29723621D01*
X42044609Y29983221D01*
X42164089Y30271673D01*
X42225000Y30577891D01*
X42225000Y30890109D01*
X42164089Y31196327D01*
X42044609Y31484779D01*
X41871150Y31744379D01*
X41650379Y31965150D01*
X41592236Y32004000D01*
X41650379Y32042850D01*
X41871150Y32263621D01*
X42044609Y32523221D01*
X42164089Y32811673D01*
X42225000Y33117891D01*
X42225000Y33430109D01*
X42164089Y33736327D01*
X42044609Y34024779D01*
X41871150Y34284379D01*
X41650379Y34505150D01*
X41518324Y34593387D01*
X41560147Y34714248D01*
X40640000Y35634395D01*
X40625858Y35620252D01*
X40446253Y35799857D01*
X40460395Y35814000D01*
X40819605Y35814000D01*
X41739752Y34893853D01*
X41999042Y34983579D01*
X42134935Y35264671D01*
X42213379Y35566873D01*
X42231359Y35878573D01*
X42188184Y36187791D01*
X42085513Y36482644D01*
X41999042Y36644421D01*
X41739752Y36734147D01*
X40819605Y35814000D01*
X40460395Y35814000D01*
X39540248Y36734147D01*
X39280958Y36644421D01*
X39145065Y36363329D01*
X39066621Y36061127D01*
X39048641Y35749427D01*
X39086400Y35479000D01*
X19041651Y35479000D01*
X18969987Y35586252D01*
X18742252Y35813987D01*
X18474463Y35992918D01*
X18176912Y36116168D01*
X17861033Y36179000D01*
X17538967Y36179000D01*
X17223088Y36116168D01*
X16925537Y35992918D01*
X16657748Y35813987D01*
X16430013Y35586252D01*
X16251082Y35318463D01*
X16127832Y35020912D01*
X16065000Y34705033D01*
X16065000Y34382967D01*
X16127832Y34067088D01*
X16251082Y33769537D01*
X16430013Y33501748D01*
X16657748Y33274013D01*
X16925537Y33095082D01*
X17223088Y32971832D01*
X17538967Y32909000D01*
X17861033Y32909000D01*
X18176912Y32971832D01*
X18474463Y33095082D01*
X18742252Y33274013D01*
X18969987Y33501748D01*
X19041651Y33609000D01*
X38982711Y33609000D01*
X39072686Y33519024D01*
X39055000Y33430109D01*
X39055000Y33117891D01*
X39115911Y32811673D01*
X39235391Y32523221D01*
X39408850Y32263621D01*
X39629621Y32042850D01*
X39687764Y32004000D01*
X39629621Y31965150D01*
X39408850Y31744379D01*
X39235391Y31484779D01*
X39115911Y31196327D01*
X39055000Y30890109D01*
X39055000Y30577891D01*
X39115911Y30271673D01*
X39235391Y29983221D01*
X39408850Y29723621D01*
X39629621Y29502850D01*
X39687764Y29464000D01*
X39629621Y29425150D01*
X39408850Y29204379D01*
X39235391Y28944779D01*
X39115911Y28656327D01*
X39055000Y28350109D01*
X39055000Y28037891D01*
X39115911Y27731673D01*
X39199032Y27531001D01*
X21608437Y27531001D01*
X21562502Y27535525D01*
X21379210Y27517473D01*
X21202961Y27464008D01*
X21168908Y27445806D01*
X21040530Y27377187D01*
X20898158Y27260345D01*
X20868872Y27224660D01*
X19171214Y25527002D01*
X19100156Y25527002D01*
X19221476Y25756890D01*
X19176825Y25904099D01*
X19051641Y26166920D01*
X18877588Y26400269D01*
X18793534Y26476034D01*
X18874180Y26500498D01*
X18984494Y26559463D01*
X19081185Y26638815D01*
X19160537Y26735506D01*
X19219502Y26845820D01*
X19255812Y26965518D01*
X19268072Y27090000D01*
X19268072Y28790000D01*
X19255812Y28914482D01*
X19219502Y29034180D01*
X19160537Y29144494D01*
X19081185Y29241185D01*
X18984494Y29320537D01*
X18874180Y29379502D01*
X18754482Y29415812D01*
X18630000Y29428072D01*
X16930000Y29428072D01*
X16805518Y29415812D01*
X16685820Y29379502D01*
X16575506Y29320537D01*
X16478815Y29241185D01*
X16399463Y29144494D01*
X16340498Y29034180D01*
X16304188Y28914482D01*
X16291928Y28790000D01*
X16291928Y27090000D01*
X16304188Y26965518D01*
X16340498Y26845820D01*
X16399463Y26735506D01*
X16478815Y26638815D01*
X16575506Y26559463D01*
X16685820Y26500498D01*
X16766466Y26476034D01*
X16682412Y26400269D01*
X16508359Y26166920D01*
X16383175Y25904099D01*
X16338524Y25756890D01*
X16459845Y25527000D01*
X17653000Y25527000D01*
X17653000Y25547000D01*
X17907000Y25547000D01*
X17907000Y25527000D01*
X17927000Y25527000D01*
X17927000Y25273000D01*
X17907000Y25273000D01*
X17907000Y25253000D01*
X17653000Y25253000D01*
X17653000Y25273000D01*
X16459845Y25273000D01*
X16338524Y25043110D01*
X16383175Y24895901D01*
X16508359Y24633080D01*
X16659835Y24430000D01*
X7372290Y24430000D01*
X6963629Y24838660D01*
X6934343Y24874345D01*
X6791971Y24991187D01*
X6629539Y25078008D01*
X6453291Y25131472D01*
X6315931Y25145001D01*
X6269999Y25149525D01*
X6224067Y25145001D01*
X3935936Y25145001D01*
X3890001Y25149525D01*
X3706709Y25131473D01*
X3530460Y25078008D01*
X3473881Y25047766D01*
X3368029Y24991187D01*
X3225657Y24874345D01*
X3196371Y24838660D01*
X2694663Y24336952D01*
X2612950Y24345000D01*
X2467050Y24345000D01*
X2248889Y24323513D01*
X1968966Y24238599D01*
X1710986Y24100706D01*
X1484866Y23915134D01*
X1397000Y23808069D01*
X1397000Y29531931D01*
X1484866Y29424866D01*
X1710986Y29239294D01*
X1968966Y29101401D01*
X2248889Y29016487D01*
X2467050Y28995000D01*
X2612950Y28995000D01*
X2831111Y29016487D01*
X3111034Y29101401D01*
X3369014Y29239294D01*
X3595134Y29424866D01*
X3619607Y29454687D01*
X3640498Y29385820D01*
X3699463Y29275506D01*
X3778815Y29178815D01*
X3875506Y29099463D01*
X3985820Y29040498D01*
X4105518Y29004188D01*
X4230000Y28991928D01*
X5930000Y28991928D01*
X6054482Y29004188D01*
X6174180Y29040498D01*
X6284494Y29099463D01*
X6381185Y29178815D01*
X6460537Y29275506D01*
X6519502Y29385820D01*
X6555812Y29505518D01*
X6568072Y29630000D01*
X6568072Y31330000D01*
X6555812Y31454482D01*
X6519502Y31574180D01*
X6460537Y31684494D01*
X6381185Y31781185D01*
X6284494Y31860537D01*
X6174180Y31919502D01*
X6105313Y31940393D01*
X6135134Y31964866D01*
X6320706Y32190986D01*
X6458599Y32448966D01*
X6543513Y32728889D01*
X6572185Y33020000D01*
X6543513Y33311111D01*
X6458599Y33591034D01*
X6448996Y33609000D01*
X11358349Y33609000D01*
X11430013Y33501748D01*
X11657748Y33274013D01*
X11925537Y33095082D01*
X12223088Y32971832D01*
X12538967Y32909000D01*
X12861033Y32909000D01*
X13176912Y32971832D01*
X13474463Y33095082D01*
X13742252Y33274013D01*
X13969987Y33501748D01*
X14148918Y33769537D01*
X14272168Y34067088D01*
X14335000Y34382967D01*
X14335000Y34705033D01*
X14272168Y35020912D01*
X14148918Y35318463D01*
X13969987Y35586252D01*
X13742252Y35813987D01*
X13474463Y35992918D01*
X13176912Y36116168D01*
X12861033Y36179000D01*
X12538967Y36179000D01*
X12223088Y36116168D01*
X11925537Y35992918D01*
X11657748Y35813987D01*
X11430013Y35586252D01*
X11358349Y35479000D01*
X6564207Y35479000D01*
X6572185Y35560000D01*
X6543513Y35851111D01*
X6458599Y36131034D01*
X6320706Y36389014D01*
X6135134Y36615134D01*
X5909014Y36800706D01*
X5651034Y36938599D01*
X5371111Y37023513D01*
X5329864Y37027575D01*
X5721289Y37419000D01*
X39358483Y37419000D01*
X39408850Y37343621D01*
X39629621Y37122850D01*
X39761676Y37034613D01*
X39719853Y36913752D01*
X40640000Y35993605D01*
X41560147Y36913752D01*
X41518324Y37034613D01*
X41650379Y37122850D01*
X41871150Y37343621D01*
X42044609Y37603221D01*
X42164089Y37891673D01*
X42225000Y38197891D01*
X42225000Y38510109D01*
X42164089Y38816327D01*
X42044609Y39104779D01*
X41871150Y39364379D01*
X41650379Y39585150D01*
X41592236Y39624000D01*
X41650379Y39662850D01*
X41871150Y39883621D01*
X41921517Y39959000D01*
X55492711Y39959000D01*
X61932686Y33519024D01*
G36*
X12675492Y51577935D02*
G01*
X12573000Y51062677D01*
X12573000Y50537323D01*
X12675492Y50022065D01*
X12876536Y49536702D01*
X13168406Y49099887D01*
X13539887Y48728406D01*
X13976702Y48436536D01*
X14462065Y48235492D01*
X14977323Y48133000D01*
X15502677Y48133000D01*
X16017935Y48235492D01*
X16503298Y48436536D01*
X16940113Y48728406D01*
X17311594Y49099887D01*
X17603464Y49536702D01*
X17659001Y49670781D01*
X17731203Y49582803D01*
X17959395Y49395531D01*
X18219737Y49256375D01*
X18502224Y49170684D01*
X18796000Y49141749D01*
X19089777Y49170684D01*
X19372264Y49256375D01*
X19632606Y49395531D01*
X19860797Y49582803D01*
X20048069Y49810994D01*
X20066000Y49844541D01*
X20083931Y49810994D01*
X20271203Y49582803D01*
X20499395Y49395531D01*
X20759737Y49256375D01*
X21042224Y49170684D01*
X21336000Y49141749D01*
X21629777Y49170684D01*
X21912264Y49256375D01*
X22172606Y49395531D01*
X22400797Y49582803D01*
X22588069Y49810994D01*
X22606000Y49844541D01*
X22623931Y49810994D01*
X22811203Y49582803D01*
X23039395Y49395531D01*
X23299737Y49256375D01*
X23582224Y49170684D01*
X23876000Y49141749D01*
X24169777Y49170684D01*
X24452264Y49256375D01*
X24712606Y49395531D01*
X24940797Y49582803D01*
X25128069Y49810994D01*
X25149424Y49850947D01*
X25297514Y49648271D01*
X25513965Y49449267D01*
X25765081Y49296314D01*
X26041211Y49195291D01*
X26056974Y49192642D01*
X26289000Y49313783D01*
X26289000Y50673000D01*
X26269000Y50673000D01*
X26269000Y50927000D01*
X26289000Y50927000D01*
X26289000Y50947000D01*
X26543000Y50947000D01*
X26543000Y50927000D01*
X26563000Y50927000D01*
X26563000Y50673000D01*
X26543000Y50673000D01*
X26543000Y49313783D01*
X26775026Y49192642D01*
X26790789Y49195291D01*
X27066919Y49296314D01*
X27318035Y49449267D01*
X27534486Y49648271D01*
X27682576Y49850947D01*
X27703931Y49810994D01*
X27891203Y49582803D01*
X28119395Y49395531D01*
X28221000Y49341222D01*
X28221000Y48478072D01*
X28106000Y48478072D01*
X27981518Y48465812D01*
X27861820Y48429502D01*
X27751506Y48370537D01*
X27654815Y48291185D01*
X27575463Y48194494D01*
X27516498Y48084180D01*
X27480188Y47964482D01*
X27467928Y47840000D01*
X27467928Y46140000D01*
X27480188Y46015518D01*
X27516498Y45895820D01*
X27557559Y45819001D01*
X11429790Y45819001D01*
X7010130Y50238660D01*
X6980844Y50274345D01*
X6838472Y50391187D01*
X6676040Y50478008D01*
X6499792Y50531472D01*
X6362432Y50545001D01*
X6316500Y50549525D01*
X6270568Y50545001D01*
X3935936Y50545001D01*
X3890001Y50549525D01*
X3706709Y50531473D01*
X3530460Y50478008D01*
X3488498Y50455578D01*
X3368029Y50391187D01*
X3225657Y50274345D01*
X3196367Y50238655D01*
X2761338Y49803627D01*
X2761332Y49803622D01*
X2694662Y49736952D01*
X2612950Y49745000D01*
X2467050Y49745000D01*
X2248889Y49723513D01*
X1968966Y49638599D01*
X1710986Y49500706D01*
X1484866Y49315134D01*
X1397000Y49208069D01*
X1397000Y51943000D01*
X12826707Y51943000D01*
X12675492Y51577935D01*
X12675492Y51577935D01*
G37*
X12675492Y51577935D02*
X12573000Y51062677D01*
X12573000Y50537323D01*
X12675492Y50022065D01*
X12876536Y49536702D01*
X13168406Y49099887D01*
X13539887Y48728406D01*
X13976702Y48436536D01*
X14462065Y48235492D01*
X14977323Y48133000D01*
X15502677Y48133000D01*
X16017935Y48235492D01*
X16503298Y48436536D01*
X16940113Y48728406D01*
X17311594Y49099887D01*
X17603464Y49536702D01*
X17659001Y49670781D01*
X17731203Y49582803D01*
X17959395Y49395531D01*
X18219737Y49256375D01*
X18502224Y49170684D01*
X18796000Y49141749D01*
X19089777Y49170684D01*
X19372264Y49256375D01*
X19632606Y49395531D01*
X19860797Y49582803D01*
X20048069Y49810994D01*
X20066000Y49844541D01*
X20083931Y49810994D01*
X20271203Y49582803D01*
X20499395Y49395531D01*
X20759737Y49256375D01*
X21042224Y49170684D01*
X21336000Y49141749D01*
X21629777Y49170684D01*
X21912264Y49256375D01*
X22172606Y49395531D01*
X22400797Y49582803D01*
X22588069Y49810994D01*
X22606000Y49844541D01*
X22623931Y49810994D01*
X22811203Y49582803D01*
X23039395Y49395531D01*
X23299737Y49256375D01*
X23582224Y49170684D01*
X23876000Y49141749D01*
X24169777Y49170684D01*
X24452264Y49256375D01*
X24712606Y49395531D01*
X24940797Y49582803D01*
X25128069Y49810994D01*
X25149424Y49850947D01*
X25297514Y49648271D01*
X25513965Y49449267D01*
X25765081Y49296314D01*
X26041211Y49195291D01*
X26056974Y49192642D01*
X26289000Y49313783D01*
X26289000Y50673000D01*
X26269000Y50673000D01*
X26269000Y50927000D01*
X26289000Y50927000D01*
X26289000Y50947000D01*
X26543000Y50947000D01*
X26543000Y50927000D01*
X26563000Y50927000D01*
X26563000Y50673000D01*
X26543000Y50673000D01*
X26543000Y49313783D01*
X26775026Y49192642D01*
X26790789Y49195291D01*
X27066919Y49296314D01*
X27318035Y49449267D01*
X27534486Y49648271D01*
X27682576Y49850947D01*
X27703931Y49810994D01*
X27891203Y49582803D01*
X28119395Y49395531D01*
X28221000Y49341222D01*
X28221000Y48478072D01*
X28106000Y48478072D01*
X27981518Y48465812D01*
X27861820Y48429502D01*
X27751506Y48370537D01*
X27654815Y48291185D01*
X27575463Y48194494D01*
X27516498Y48084180D01*
X27480188Y47964482D01*
X27467928Y47840000D01*
X27467928Y46140000D01*
X27480188Y46015518D01*
X27516498Y45895820D01*
X27557559Y45819001D01*
X11429790Y45819001D01*
X7010130Y50238660D01*
X6980844Y50274345D01*
X6838472Y50391187D01*
X6676040Y50478008D01*
X6499792Y50531472D01*
X6362432Y50545001D01*
X6316500Y50549525D01*
X6270568Y50545001D01*
X3935936Y50545001D01*
X3890001Y50549525D01*
X3706709Y50531473D01*
X3530460Y50478008D01*
X3488498Y50455578D01*
X3368029Y50391187D01*
X3225657Y50274345D01*
X3196367Y50238655D01*
X2761338Y49803627D01*
X2761332Y49803622D01*
X2694662Y49736952D01*
X2612950Y49745000D01*
X2467050Y49745000D01*
X2248889Y49723513D01*
X1968966Y49638599D01*
X1710986Y49500706D01*
X1484866Y49315134D01*
X1397000Y49208069D01*
X1397000Y51943000D01*
X12826707Y51943000D01*
X12675492Y51577935D01*
M02*
