M48
; DRILL file {KiCad (5.1.2-1)-1} date Monday, 15 July 2019 at 01:55:00
; FORMAT={3:3/ absolute / metric / suppress leading zeros}
; #@! TF.CreationDate,2019-07-15T01:55:00+09:00
; #@! TF.GenerationSoftware,Kicad,Pcbnew,(5.1.2-1)-1
FMAT,2
METRIC,TZ
T1C0.800
T2C1.000
T3C1.016
T4C1.190
T5C3.048
%
G90
G05
T1
X154178Y-82296
X154178Y-89916
X156718Y-82296
X156718Y-89916
X159258Y-82296
X159258Y-89916
X161798Y-82296
X161798Y-89916
X164338Y-82296
X164338Y-89916
X166878Y-82296
X166878Y-89916
X169418Y-82296
X169418Y-89916
X171958Y-82296
X171958Y-89916
X154178Y-100076
X154178Y-107696
X156718Y-100076
X156718Y-107696
X159258Y-100076
X159258Y-107696
X161798Y-100076
X161798Y-107696
X164338Y-100076
X164338Y-107696
X166878Y-100076
X166878Y-107696
X169418Y-100076
X169418Y-107696
X171958Y-100076
X171958Y-107696
T2
X169418Y-115316
X171958Y-115316
X174498Y-115316
X177038Y-115316
X179578Y-115316
X182118Y-115316
X184658Y-115316
X187198Y-115316
X132334Y-74676
X134874Y-74676
X137414Y-74676
X139954Y-74676
X142494Y-74676
X145034Y-74676
X105918Y-79121
X105918Y-81661
X105918Y-84201
X108458Y-79121
X108458Y-81661
X108458Y-84201
X191008Y-75946
X191008Y-78486
X191008Y-81026
X191008Y-83566
X191008Y-86106
X191008Y-88646
X191008Y-91186
X191008Y-93726
X191008Y-96266
X191008Y-98806
X191008Y-101346
X191008Y-103886
X191008Y-106426
X191008Y-108966
X191008Y-111506
X191008Y-114046
X193548Y-75946
X193548Y-78486
X193548Y-81026
X193548Y-83566
X193548Y-86106
X193548Y-88646
X193548Y-91186
X193548Y-93726
X193548Y-96266
X193548Y-98806
X193548Y-101346
X193548Y-103886
X193548Y-106426
X193548Y-108966
X193548Y-111506
X193548Y-114046
X146558Y-115316
X149098Y-115316
X151638Y-115316
X154178Y-115316
X156718Y-115316
X159258Y-115316
X161798Y-115316
X164338Y-115316
X149098Y-74676
X151638Y-74676
X154178Y-74676
X156718Y-74676
X159258Y-74676
X161798Y-74676
X121158Y-93726
X121158Y-96266
X182118Y-84836
X182118Y-87376
X182118Y-102616
X182118Y-105156
X169418Y-74676
X171958Y-74676
X174498Y-74676
X177038Y-74676
X179578Y-74676
X182118Y-74676
X184658Y-74676
X187198Y-74676
X113538Y-105791
X118538Y-105791
X113538Y-79121
X118538Y-79121
X105918Y-105791
X105918Y-108331
X105918Y-110871
X108458Y-105791
X108458Y-108331
X108458Y-110871
T3
X131318Y-119126
X133858Y-119126
X136398Y-119126
X138938Y-119126
X141478Y-119126
X144018Y-119126
X146558Y-119126
X149098Y-119126
X177038Y-119126
X179578Y-119126
X182118Y-119126
X184658Y-119126
X187198Y-119126
X189738Y-119126
X192278Y-119126
X194818Y-119126
X171958Y-70866
X174498Y-70866
X177038Y-70866
X179578Y-70866
X182118Y-70866
X184658Y-70866
X187198Y-70866
X189738Y-70866
X197358Y-70866
X197358Y-73406
X197358Y-75946
X197358Y-78486
X197358Y-81026
X197358Y-83566
X197358Y-86106
X197358Y-88646
X197358Y-91186
X197358Y-93726
X197358Y-96266
X197358Y-98806
X197358Y-101346
X197358Y-103886
X197358Y-106426
X197358Y-108966
X197358Y-111506
X197358Y-114046
X199898Y-70866
X199898Y-73406
X199898Y-75946
X199898Y-78486
X199898Y-81026
X199898Y-83566
X199898Y-86106
X199898Y-88646
X199898Y-91186
X199898Y-93726
X199898Y-96266
X199898Y-98806
X199898Y-101346
X199898Y-103886
X199898Y-106426
X199898Y-108966
X199898Y-111506
X199898Y-114046
X154178Y-119126
X156718Y-119126
X159258Y-119126
X161798Y-119126
X164338Y-119126
X166878Y-119126
X169418Y-119126
X171958Y-119126
X122174Y-70866
X124714Y-70866
X127254Y-70866
X129794Y-70866
X132334Y-70866
X134874Y-70866
X137414Y-70866
X139954Y-70866
X142494Y-70866
X145034Y-70866
X149098Y-70866
X151638Y-70866
X154178Y-70866
X156718Y-70866
X159258Y-70866
X161798Y-70866
X164338Y-70866
X166878Y-70866
T4
X144018Y-78486
X144018Y-81026
X144018Y-83566
X144018Y-86106
X144018Y-88646
X144018Y-91186
X144018Y-93726
X144018Y-96266
X144018Y-98806
X144018Y-101346
X144018Y-103886
X144018Y-106426
X144018Y-108966
X144018Y-111506
T5
X193548Y-70866
X118618Y-70866
X199898Y-119126
X117348Y-119126
T0
M30
