G04 #@! TF.GenerationSoftware,KiCad,Pcbnew,(5.1.2-1)-1*
G04 #@! TF.CreationDate,2019-07-15T01:53:25+09:00*
G04 #@! TF.ProjectId,powerpack-shield,706f7765-7270-4616-936b-2d736869656c,rev?*
G04 #@! TF.SameCoordinates,PX6296c50PY74079d0*
G04 #@! TF.FileFunction,Copper,L1,Top*
G04 #@! TF.FilePolarity,Positive*
%FSLAX46Y46*%
G04 Gerber Fmt 4.6, Leading zero omitted, Abs format (unit mm)*
G04 Created by KiCad (PCBNEW (5.1.2-1)-1) date 2019-07-15 01:53:25*
%MOMM*%
%LPD*%
G04 APERTURE LIST*
%ADD10C,1.727200*%
%ADD11O,1.727200X1.727200*%
%ADD12O,1.727200X2.032000*%
%ADD13C,4.064000*%
%ADD14R,1.700000X1.700000*%
%ADD15O,1.700000X1.700000*%
%ADD16C,2.000000*%
%ADD17C,1.900000*%
%ADD18R,1.200000X1.200000*%
%ADD19C,1.200000*%
%ADD20C,0.200000*%
%ADD21C,0.400000*%
%ADD22C,0.254000*%
G04 APERTURE END LIST*
D10*
X93980000Y7620000D03*
D11*
X96520000Y7620000D03*
X93980000Y10160000D03*
X96520000Y10160000D03*
X93980000Y12700000D03*
X96520000Y12700000D03*
X93980000Y15240000D03*
X96520000Y15240000D03*
X93980000Y17780000D03*
X96520000Y17780000D03*
X93980000Y20320000D03*
X96520000Y20320000D03*
X93980000Y22860000D03*
X96520000Y22860000D03*
X93980000Y25400000D03*
X96520000Y25400000D03*
X93980000Y27940000D03*
X96520000Y27940000D03*
X93980000Y30480000D03*
X96520000Y30480000D03*
X93980000Y33020000D03*
X96520000Y33020000D03*
X93980000Y35560000D03*
X96520000Y35560000D03*
X93980000Y38100000D03*
X96520000Y38100000D03*
X93980000Y40640000D03*
X96520000Y40640000D03*
X93980000Y43180000D03*
X96520000Y43180000D03*
X93980000Y45720000D03*
X96520000Y45720000D03*
X93980000Y48260000D03*
X96520000Y48260000D03*
X93980000Y50800000D03*
X96520000Y50800000D03*
D12*
X27940000Y2540000D03*
X30480000Y2540000D03*
X33020000Y2540000D03*
X35560000Y2540000D03*
X38100000Y2540000D03*
X40640000Y2540000D03*
X43180000Y2540000D03*
X45720000Y2540000D03*
X50800000Y2540000D03*
X53340000Y2540000D03*
X55880000Y2540000D03*
X58420000Y2540000D03*
X60960000Y2540000D03*
X63500000Y2540000D03*
X66040000Y2540000D03*
X68580000Y2540000D03*
X73660000Y2540000D03*
X76200000Y2540000D03*
X78740000Y2540000D03*
X81280000Y2540000D03*
X83820000Y2540000D03*
X86360000Y2540000D03*
X88900000Y2540000D03*
X91440000Y2540000D03*
X18796000Y50800000D03*
X21336000Y50800000D03*
X23876000Y50800000D03*
X26416000Y50800000D03*
X28956000Y50800000D03*
X31496000Y50800000D03*
X34036000Y50800000D03*
X36576000Y50800000D03*
X39116000Y50800000D03*
X41656000Y50800000D03*
X45720000Y50800000D03*
X48260000Y50800000D03*
X50800000Y50800000D03*
X53340000Y50800000D03*
X55880000Y50800000D03*
X58420000Y50800000D03*
X60960000Y50800000D03*
X63500000Y50800000D03*
X68580000Y50800000D03*
X71120000Y50800000D03*
X73660000Y50800000D03*
X76200000Y50800000D03*
X78740000Y50800000D03*
X81280000Y50800000D03*
X83820000Y50800000D03*
X86360000Y50800000D03*
D13*
X13970000Y2540000D03*
X96520000Y2540000D03*
X15240000Y50800000D03*
X90170000Y50800000D03*
D14*
X87630000Y7620000D03*
D15*
X90170000Y7620000D03*
X87630000Y10160000D03*
X90170000Y10160000D03*
X87630000Y12700000D03*
X90170000Y12700000D03*
X87630000Y15240000D03*
X90170000Y15240000D03*
X87630000Y17780000D03*
X90170000Y17780000D03*
X87630000Y20320000D03*
X90170000Y20320000D03*
X87630000Y22860000D03*
X90170000Y22860000D03*
X87630000Y25400000D03*
X90170000Y25400000D03*
X87630000Y27940000D03*
X90170000Y27940000D03*
X87630000Y30480000D03*
X90170000Y30480000D03*
X87630000Y33020000D03*
X90170000Y33020000D03*
X87630000Y35560000D03*
X90170000Y35560000D03*
X87630000Y38100000D03*
X90170000Y38100000D03*
X87630000Y40640000D03*
X90170000Y40640000D03*
X87630000Y43180000D03*
X90170000Y43180000D03*
X87630000Y45720000D03*
X90170000Y45720000D03*
D14*
X43180000Y6350000D03*
D15*
X45720000Y6350000D03*
X48260000Y6350000D03*
X50800000Y6350000D03*
X53340000Y6350000D03*
X55880000Y6350000D03*
X58420000Y6350000D03*
X60960000Y6350000D03*
X83820000Y6350000D03*
X81280000Y6350000D03*
X78740000Y6350000D03*
X76200000Y6350000D03*
X73660000Y6350000D03*
X71120000Y6350000D03*
X68580000Y6350000D03*
D14*
X66040000Y6350000D03*
X66040000Y46990000D03*
D15*
X68580000Y46990000D03*
X71120000Y46990000D03*
X73660000Y46990000D03*
X76200000Y46990000D03*
X78740000Y46990000D03*
X81280000Y46990000D03*
X83820000Y46990000D03*
D14*
X28956000Y46990000D03*
D15*
X31496000Y46990000D03*
X34036000Y46990000D03*
X36576000Y46990000D03*
X39116000Y46990000D03*
X41656000Y46990000D03*
X58420000Y46990000D03*
X55880000Y46990000D03*
X53340000Y46990000D03*
X50800000Y46990000D03*
X48260000Y46990000D03*
D14*
X45720000Y46990000D03*
D16*
X10160000Y15875000D03*
X15160000Y15875000D03*
D17*
X40640000Y25400000D03*
X40640000Y22860000D03*
X40640000Y20320000D03*
X40640000Y17780000D03*
X40640000Y15240000D03*
X40640000Y12700000D03*
X40640000Y10160000D03*
D18*
X50800000Y13970000D03*
D19*
X53340000Y13970000D03*
X55880000Y13970000D03*
X58420000Y13970000D03*
X60960000Y13970000D03*
X63500000Y13970000D03*
X66040000Y13970000D03*
X68580000Y13970000D03*
X68580000Y21590000D03*
X66040000Y21590000D03*
X63500000Y21590000D03*
X60960000Y21590000D03*
X58420000Y21590000D03*
X55880000Y21590000D03*
X53340000Y21590000D03*
X50800000Y21590000D03*
D14*
X5080000Y10795000D03*
D15*
X2540000Y10795000D03*
X5080000Y13335000D03*
X2540000Y13335000D03*
X5080000Y15875000D03*
X2540000Y15875000D03*
D14*
X78740000Y19050000D03*
D15*
X78740000Y16510000D03*
D14*
X17780000Y27940000D03*
D15*
X17780000Y25400000D03*
D16*
X10160000Y42545000D03*
X15160000Y42545000D03*
D17*
X40640000Y43180000D03*
X40640000Y40640000D03*
X40640000Y38100000D03*
X40640000Y35560000D03*
X40640000Y33020000D03*
X40640000Y30480000D03*
X40640000Y27940000D03*
D18*
X50800000Y31750000D03*
D19*
X53340000Y31750000D03*
X55880000Y31750000D03*
X58420000Y31750000D03*
X60960000Y31750000D03*
X63500000Y31750000D03*
X66040000Y31750000D03*
X68580000Y31750000D03*
X68580000Y39370000D03*
X66040000Y39370000D03*
X63500000Y39370000D03*
X60960000Y39370000D03*
X58420000Y39370000D03*
X55880000Y39370000D03*
X53340000Y39370000D03*
X50800000Y39370000D03*
D14*
X5080000Y37465000D03*
D15*
X2540000Y37465000D03*
X5080000Y40005000D03*
X2540000Y40005000D03*
X5080000Y42545000D03*
X2540000Y42545000D03*
D14*
X78740000Y36830000D03*
D15*
X78740000Y34290000D03*
D20*
X50800000Y13970000D02*
X53340000Y13970000D01*
X53340000Y13970000D02*
X53340000Y21590000D01*
X50800000Y31750000D02*
X53340000Y31750000D01*
X53340000Y31750000D02*
X53340000Y39370000D01*
X40640000Y6050002D02*
X43479998Y8890000D01*
X40640000Y2540000D02*
X40640000Y6050002D01*
X63500000Y8890000D02*
X68580000Y13970000D01*
X43479998Y8890000D02*
X63500000Y8890000D01*
X44450000Y13970000D02*
X40640000Y17780000D01*
X50800000Y13970000D02*
X44450000Y13970000D01*
X44450000Y31750000D02*
X40640000Y35560000D01*
X50800000Y31750000D02*
X44450000Y31750000D01*
X91872002Y10160000D02*
X90602002Y8890000D01*
X93980000Y10160000D02*
X91872002Y10160000D01*
X90602002Y8890000D02*
X88900000Y8890000D01*
X88900000Y8890000D02*
X87630000Y7620000D01*
X91019999Y8469999D02*
X90170000Y7620000D01*
X91440000Y8890000D02*
X91019999Y8469999D01*
X95250000Y8890000D02*
X91440000Y8890000D01*
X96520000Y10160000D02*
X95250000Y8890000D01*
X88479999Y11009999D02*
X87630000Y10160000D01*
X88780001Y11310001D02*
X88479999Y11009999D01*
X90482003Y11310001D02*
X88780001Y11310001D01*
X91872002Y12700000D02*
X90482003Y11310001D01*
X93980000Y12700000D02*
X91872002Y12700000D01*
X91019999Y11009999D02*
X90170000Y10160000D01*
X95250000Y11430000D02*
X91440000Y11430000D01*
X91440000Y11430000D02*
X91019999Y11009999D01*
X96520000Y12700000D02*
X95250000Y11430000D01*
X88479999Y13549999D02*
X87630000Y12700000D01*
X90482003Y13850001D02*
X88780001Y13850001D01*
X91872002Y15240000D02*
X90482003Y13850001D01*
X88780001Y13850001D02*
X88479999Y13549999D01*
X93980000Y15240000D02*
X91872002Y15240000D01*
X91019999Y13549999D02*
X90170000Y12700000D01*
X95356399Y14076399D02*
X91546399Y14076399D01*
X91546399Y14076399D02*
X91019999Y13549999D01*
X96520000Y15240000D02*
X95356399Y14076399D01*
X88479999Y16089999D02*
X87630000Y15240000D01*
X88780001Y16390001D02*
X88479999Y16089999D01*
X90482003Y16390001D02*
X88780001Y16390001D01*
X91872002Y17780000D02*
X90482003Y16390001D01*
X93980000Y17780000D02*
X91872002Y17780000D01*
X91019999Y16089999D02*
X90170000Y15240000D01*
X91333601Y16403601D02*
X91019999Y16089999D01*
X95143601Y16403601D02*
X91333601Y16403601D01*
X96520000Y17780000D02*
X95143601Y16403601D01*
X88780001Y18930001D02*
X88479999Y18629999D01*
X91872002Y20320000D02*
X90482003Y18930001D01*
X88479999Y18629999D02*
X87630000Y17780000D01*
X90482003Y18930001D02*
X88780001Y18930001D01*
X93980000Y20320000D02*
X91872002Y20320000D01*
X91019999Y18629999D02*
X90170000Y17780000D01*
X91546399Y19156399D02*
X91019999Y18629999D01*
X95356399Y19156399D02*
X91546399Y19156399D01*
X96520000Y20320000D02*
X95356399Y19156399D01*
X88479999Y21169999D02*
X87630000Y20320000D01*
X90482003Y21470001D02*
X88780001Y21470001D01*
X88780001Y21470001D02*
X88479999Y21169999D01*
X91872002Y22860000D02*
X90482003Y21470001D01*
X93980000Y22860000D02*
X91872002Y22860000D01*
X91019999Y21169999D02*
X90170000Y20320000D01*
X91546399Y21696399D02*
X91019999Y21169999D01*
X95356399Y21696399D02*
X91546399Y21696399D01*
X96520000Y22860000D02*
X95356399Y21696399D01*
X88780001Y24010001D02*
X88479999Y23709999D01*
X90482003Y24010001D02*
X88780001Y24010001D01*
X88479999Y23709999D02*
X87630000Y22860000D01*
X91872002Y25400000D02*
X90482003Y24010001D01*
X93980000Y25400000D02*
X91872002Y25400000D01*
X91546399Y24236399D02*
X91019999Y23709999D01*
X91019999Y23709999D02*
X90170000Y22860000D01*
X95356399Y24236399D02*
X91546399Y24236399D01*
X96520000Y25400000D02*
X95356399Y24236399D01*
X90482003Y26550001D02*
X88780001Y26550001D01*
X91872002Y27940000D02*
X90482003Y26550001D01*
X88479999Y26249999D02*
X87630000Y25400000D01*
X88780001Y26550001D02*
X88479999Y26249999D01*
X93980000Y27940000D02*
X91872002Y27940000D01*
X91019999Y26249999D02*
X90170000Y25400000D01*
X91333601Y26563601D02*
X91019999Y26249999D01*
X95143601Y26563601D02*
X91333601Y26563601D01*
X96520000Y27940000D02*
X95143601Y26563601D01*
X88479999Y28789999D02*
X87630000Y27940000D01*
X88780001Y29090001D02*
X88479999Y28789999D01*
X90482003Y29090001D02*
X88780001Y29090001D01*
X91872002Y30480000D02*
X90482003Y29090001D01*
X93980000Y30480000D02*
X91872002Y30480000D01*
X91019999Y28789999D02*
X90170000Y27940000D01*
X91333601Y29103601D02*
X91019999Y28789999D01*
X95143601Y29103601D02*
X91333601Y29103601D01*
X96520000Y30480000D02*
X95143601Y29103601D01*
X88780001Y31630001D02*
X88479999Y31329999D01*
X90482003Y31630001D02*
X88780001Y31630001D01*
X91872002Y33020000D02*
X90482003Y31630001D01*
X88479999Y31329999D02*
X87630000Y30480000D01*
X93980000Y33020000D02*
X91872002Y33020000D01*
X91019999Y31329999D02*
X90170000Y30480000D01*
X91546399Y31856399D02*
X91019999Y31329999D01*
X95356399Y31856399D02*
X91546399Y31856399D01*
X96520000Y33020000D02*
X95356399Y31856399D01*
X88479999Y33869999D02*
X87630000Y33020000D01*
X90482003Y34170001D02*
X88780001Y34170001D01*
X88780001Y34170001D02*
X88479999Y33869999D01*
X91872002Y35560000D02*
X90482003Y34170001D01*
X93980000Y35560000D02*
X91872002Y35560000D01*
X91019999Y33869999D02*
X90170000Y33020000D01*
X91546399Y34396399D02*
X91019999Y33869999D01*
X95356399Y34396399D02*
X91546399Y34396399D01*
X96520000Y35560000D02*
X95356399Y34396399D01*
X88780001Y36710001D02*
X88479999Y36409999D01*
X88479999Y36409999D02*
X87630000Y35560000D01*
X91872002Y38100000D02*
X90482003Y36710001D01*
X90482003Y36710001D02*
X88780001Y36710001D01*
X93980000Y38100000D02*
X91872002Y38100000D01*
X91019999Y36409999D02*
X90170000Y35560000D01*
X95356399Y36936399D02*
X91546399Y36936399D01*
X91546399Y36936399D02*
X91019999Y36409999D01*
X96520000Y38100000D02*
X95356399Y36936399D01*
X88479999Y38949999D02*
X87630000Y38100000D01*
X91872002Y40640000D02*
X90482003Y39250001D01*
X88780001Y39250001D02*
X88479999Y38949999D01*
X90482003Y39250001D02*
X88780001Y39250001D01*
X93980000Y40640000D02*
X91872002Y40640000D01*
X91019999Y38949999D02*
X90170000Y38100000D01*
X91546399Y39476399D02*
X91019999Y38949999D01*
X95356399Y39476399D02*
X91546399Y39476399D01*
X96520000Y40640000D02*
X95356399Y39476399D01*
X89019999Y42029999D02*
X88479999Y41489999D01*
X91872002Y43180000D02*
X90722001Y42029999D01*
X88479999Y41489999D02*
X87630000Y40640000D01*
X90722001Y42029999D02*
X89019999Y42029999D01*
X93980000Y43180000D02*
X91872002Y43180000D01*
X91019999Y41489999D02*
X90170000Y40640000D01*
X91546399Y42016399D02*
X91019999Y41489999D01*
X95356399Y42016399D02*
X91546399Y42016399D01*
X96520000Y43180000D02*
X95356399Y42016399D01*
X88479999Y44029999D02*
X87630000Y43180000D01*
X88780001Y44330001D02*
X88479999Y44029999D01*
X90482003Y44330001D02*
X88780001Y44330001D01*
X91872002Y45720000D02*
X90482003Y44330001D01*
X93980000Y45720000D02*
X91872002Y45720000D01*
X91019999Y44029999D02*
X90170000Y43180000D01*
X91333601Y44343601D02*
X91019999Y44029999D01*
X95143601Y44343601D02*
X91333601Y44343601D01*
X96520000Y45720000D02*
X95143601Y44343601D01*
X90170000Y48260000D02*
X87630000Y45720000D01*
X93980000Y48260000D02*
X90170000Y48260000D01*
X91019999Y46569999D02*
X90170000Y45720000D01*
X91333601Y46883601D02*
X91019999Y46569999D01*
X95143601Y46883601D02*
X91333601Y46883601D01*
X96520000Y48260000D02*
X95143601Y46883601D01*
X63500000Y39370000D02*
X63500000Y31750000D01*
X63500000Y21590000D02*
X63500000Y13970000D01*
X49584000Y3756000D02*
X48540012Y4799988D01*
X48540012Y4799988D02*
X46704312Y4799988D01*
X44330001Y5199999D02*
X44029999Y5500001D01*
X46304301Y5199999D02*
X44330001Y5199999D01*
X50800000Y2540000D02*
X50800000Y2692400D01*
X44029999Y5500001D02*
X43180000Y6350000D01*
X46704312Y4799988D02*
X46304301Y5199999D01*
X49736400Y3756000D02*
X49584000Y3756000D01*
X50800000Y2692400D02*
X49736400Y3756000D01*
X52124000Y3756000D02*
X51080012Y4799988D01*
X51080012Y4799988D02*
X49244312Y4799988D01*
X46870001Y5199999D02*
X46569999Y5500001D01*
X48844301Y5199999D02*
X46870001Y5199999D01*
X53340000Y2540000D02*
X53340000Y2692400D01*
X46569999Y5500001D02*
X45720000Y6350000D01*
X49244312Y4799988D02*
X48844301Y5199999D01*
X52276400Y3756000D02*
X52124000Y3756000D01*
X53340000Y2692400D02*
X52276400Y3756000D01*
X54664000Y3756000D02*
X53620012Y4799988D01*
X53620012Y4799988D02*
X51784312Y4799988D01*
X49410001Y5199999D02*
X49109999Y5500001D01*
X51384301Y5199999D02*
X49410001Y5199999D01*
X55880000Y2540000D02*
X55880000Y2692400D01*
X49109999Y5500001D02*
X48260000Y6350000D01*
X51784312Y4799988D02*
X51384301Y5199999D01*
X54816400Y3756000D02*
X54664000Y3756000D01*
X55880000Y2692400D02*
X54816400Y3756000D01*
X57204000Y3756000D02*
X56160012Y4799988D01*
X56160012Y4799988D02*
X54324312Y4799988D01*
X51950001Y5199999D02*
X51649999Y5500001D01*
X53924301Y5199999D02*
X51950001Y5199999D01*
X58420000Y2540000D02*
X58420000Y2692400D01*
X51649999Y5500001D02*
X50800000Y6350000D01*
X54324312Y4799988D02*
X53924301Y5199999D01*
X57356400Y3756000D02*
X57204000Y3756000D01*
X58420000Y2692400D02*
X57356400Y3756000D01*
X59744000Y3756000D02*
X58700012Y4799988D01*
X58700012Y4799988D02*
X56864312Y4799988D01*
X54490001Y5199999D02*
X54189999Y5500001D01*
X56464301Y5199999D02*
X54490001Y5199999D01*
X60960000Y2540000D02*
X60960000Y2692400D01*
X54189999Y5500001D02*
X53340000Y6350000D01*
X56864312Y4799988D02*
X56464301Y5199999D01*
X59896400Y3756000D02*
X59744000Y3756000D01*
X60960000Y2692400D02*
X59896400Y3756000D01*
X62284000Y3756000D02*
X61240012Y4799988D01*
X61240012Y4799988D02*
X59404312Y4799988D01*
X57030001Y5199999D02*
X56729999Y5500001D01*
X59004301Y5199999D02*
X57030001Y5199999D01*
X63500000Y2540000D02*
X63500000Y2692400D01*
X56729999Y5500001D02*
X55880000Y6350000D01*
X59404312Y4799988D02*
X59004301Y5199999D01*
X62436400Y3756000D02*
X62284000Y3756000D01*
X63500000Y2692400D02*
X62436400Y3756000D01*
X64824000Y3756000D02*
X63780012Y4799988D01*
X63780012Y4799988D02*
X61944312Y4799988D01*
X59570001Y5199999D02*
X59269999Y5500001D01*
X61544301Y5199999D02*
X59570001Y5199999D01*
X66040000Y2540000D02*
X66040000Y2692400D01*
X59269999Y5500001D02*
X58420000Y6350000D01*
X61944312Y4799988D02*
X61544301Y5199999D01*
X64976400Y3756000D02*
X64824000Y3756000D01*
X66040000Y2692400D02*
X64976400Y3756000D01*
X67364000Y3756000D02*
X66320012Y4799988D01*
X66320012Y4799988D02*
X64484312Y4799988D01*
X62110001Y5199999D02*
X61809999Y5500001D01*
X64084301Y5199999D02*
X62110001Y5199999D01*
X68580000Y2540000D02*
X68580000Y2692400D01*
X61809999Y5500001D02*
X60960000Y6350000D01*
X64484312Y4799988D02*
X64084301Y5199999D01*
X67516400Y3756000D02*
X67364000Y3756000D01*
X68580000Y2692400D02*
X67516400Y3756000D01*
X72444000Y3756000D02*
X71400012Y4799988D01*
X71400012Y4799988D02*
X69564312Y4799988D01*
X67190001Y5199999D02*
X66889999Y5500001D01*
X69164301Y5199999D02*
X67190001Y5199999D01*
X73660000Y2540000D02*
X73660000Y2692400D01*
X66889999Y5500001D02*
X66040000Y6350000D01*
X69564312Y4799988D02*
X69164301Y5199999D01*
X72596400Y3756000D02*
X72444000Y3756000D01*
X73660000Y2692400D02*
X72596400Y3756000D01*
X74984000Y3756000D02*
X73940012Y4799988D01*
X73940012Y4799988D02*
X72104312Y4799988D01*
X69730001Y5199999D02*
X69429999Y5500001D01*
X71704301Y5199999D02*
X69730001Y5199999D01*
X76200000Y2540000D02*
X76200000Y2692400D01*
X69429999Y5500001D02*
X68580000Y6350000D01*
X72104312Y4799988D02*
X71704301Y5199999D01*
X75136400Y3756000D02*
X74984000Y3756000D01*
X76200000Y2692400D02*
X75136400Y3756000D01*
X74644312Y4799988D02*
X74244301Y5199999D01*
X77676400Y3756000D02*
X77524000Y3756000D01*
X78740000Y2540000D02*
X78740000Y2692400D01*
X71969999Y5500001D02*
X71120000Y6350000D01*
X78740000Y2692400D02*
X77676400Y3756000D01*
X77524000Y3756000D02*
X76480012Y4799988D01*
X72270001Y5199999D02*
X71969999Y5500001D01*
X76480012Y4799988D02*
X74644312Y4799988D01*
X74244301Y5199999D02*
X72270001Y5199999D01*
X80064000Y3756000D02*
X79020012Y4799988D01*
X79020012Y4799988D02*
X77184312Y4799988D01*
X74810001Y5199999D02*
X74509999Y5500001D01*
X76784301Y5199999D02*
X74810001Y5199999D01*
X81280000Y2540000D02*
X81280000Y2692400D01*
X74509999Y5500001D02*
X73660000Y6350000D01*
X77184312Y4799988D02*
X76784301Y5199999D01*
X80216400Y3756000D02*
X80064000Y3756000D01*
X81280000Y2692400D02*
X80216400Y3756000D01*
X82604000Y3756000D02*
X81560012Y4799988D01*
X81560012Y4799988D02*
X79724312Y4799988D01*
X77350001Y5199999D02*
X77049999Y5500001D01*
X79324301Y5199999D02*
X77350001Y5199999D01*
X83820000Y2540000D02*
X83820000Y2692400D01*
X77049999Y5500001D02*
X76200000Y6350000D01*
X79724312Y4799988D02*
X79324301Y5199999D01*
X82756400Y3756000D02*
X82604000Y3756000D01*
X83820000Y2692400D02*
X82756400Y3756000D01*
X85144000Y3756000D02*
X84100012Y4799988D01*
X84100012Y4799988D02*
X82264312Y4799988D01*
X79890001Y5199999D02*
X79589999Y5500001D01*
X81864301Y5199999D02*
X79890001Y5199999D01*
X86360000Y2540000D02*
X86360000Y2692400D01*
X79589999Y5500001D02*
X78740000Y6350000D01*
X82264312Y4799988D02*
X81864301Y5199999D01*
X85296400Y3756000D02*
X85144000Y3756000D01*
X86360000Y2692400D02*
X85296400Y3756000D01*
X87684000Y3756000D02*
X86640012Y4799988D01*
X86640012Y4799988D02*
X84804312Y4799988D01*
X82430001Y5199999D02*
X82129999Y5500001D01*
X84404301Y5199999D02*
X82430001Y5199999D01*
X88900000Y2540000D02*
X88900000Y2692400D01*
X82129999Y5500001D02*
X81280000Y6350000D01*
X84804312Y4799988D02*
X84404301Y5199999D01*
X87836400Y3756000D02*
X87684000Y3756000D01*
X88900000Y2692400D02*
X87836400Y3756000D01*
X90224000Y3756000D02*
X89180012Y4799988D01*
X89180012Y4799988D02*
X87344312Y4799988D01*
X84970001Y5199999D02*
X84669999Y5500001D01*
X86944301Y5199999D02*
X84970001Y5199999D01*
X91440000Y2540000D02*
X91440000Y2692400D01*
X84669999Y5500001D02*
X83820000Y6350000D01*
X87344312Y4799988D02*
X86944301Y5199999D01*
X90376400Y3756000D02*
X90224000Y3756000D01*
X91440000Y2692400D02*
X90376400Y3756000D01*
X83820000Y49530000D02*
X81280000Y46990000D01*
X83820000Y50800000D02*
X83820000Y49530000D01*
X86360000Y49530000D02*
X83820000Y46990000D01*
X86360000Y50800000D02*
X86360000Y49530000D01*
X68580000Y49530000D02*
X66040000Y46990000D01*
X68580000Y50800000D02*
X68580000Y49530000D01*
X71120000Y49530000D02*
X68580000Y46990000D01*
X71120000Y50800000D02*
X71120000Y49530000D01*
X73660000Y49530000D02*
X71120000Y46990000D01*
X73660000Y50800000D02*
X73660000Y49530000D01*
X76200000Y49530000D02*
X73660000Y46990000D01*
X76200000Y50800000D02*
X76200000Y49530000D01*
X78740000Y49530000D02*
X76200000Y46990000D01*
X78740000Y50800000D02*
X78740000Y49530000D01*
X81280000Y49530000D02*
X78740000Y46990000D01*
X81280000Y50800000D02*
X81280000Y49530000D01*
X28956000Y49584000D02*
X28956000Y46990000D01*
X28956000Y50800000D02*
X28956000Y49584000D01*
X31496000Y49584000D02*
X31496000Y46990000D01*
X31496000Y50800000D02*
X31496000Y49584000D01*
X34036000Y49584000D02*
X34036000Y46990000D01*
X34036000Y50800000D02*
X34036000Y49584000D01*
X36576000Y49584000D02*
X36576000Y46990000D01*
X36576000Y50800000D02*
X36576000Y49584000D01*
X39116000Y49584000D02*
X39116000Y46990000D01*
X39116000Y50800000D02*
X39116000Y49584000D01*
X41656000Y49584000D02*
X41656000Y46990000D01*
X41656000Y50800000D02*
X41656000Y49584000D01*
X58420000Y50800000D02*
X58420000Y46990000D01*
X55880000Y50800000D02*
X55880000Y46990000D01*
X53340000Y50800000D02*
X53340000Y46990000D01*
X50800000Y50800000D02*
X50800000Y46990000D01*
X48260000Y50800000D02*
X48260000Y46990000D01*
X45720000Y50800000D02*
X45720000Y46990000D01*
D21*
X10160000Y15875000D02*
X5080000Y15875000D01*
X5080000Y15875000D02*
X5080000Y10795000D01*
X15795000Y15240000D02*
X15160000Y15875000D01*
X40640000Y15240000D02*
X15795000Y15240000D01*
X31115000Y42545000D02*
X40640000Y33020000D01*
X15160000Y42545000D02*
X31115000Y42545000D01*
X10160000Y42545000D02*
X5080000Y42545000D01*
X5080000Y42545000D02*
X5080000Y37465000D01*
X2540000Y15875000D02*
X2540000Y10795000D01*
X6985000Y20320000D02*
X2540000Y15875000D01*
X40640000Y20320000D02*
X6985000Y20320000D01*
D20*
X63562002Y12700000D02*
X40640000Y12700000D01*
X65139999Y14277997D02*
X63562002Y12700000D01*
X65139999Y18149999D02*
X65139999Y14277997D01*
X40640000Y12700000D02*
X41656000Y12700000D01*
X68580000Y21590000D02*
X65139999Y18149999D01*
X62230000Y10160000D02*
X40640000Y10160000D01*
X66040000Y13970000D02*
X62230000Y10160000D01*
X66940001Y22490001D02*
X66040000Y21590000D01*
X62230000Y21652002D02*
X62230000Y15240000D01*
X63437998Y22860000D02*
X62230000Y21652002D01*
X62230000Y15240000D02*
X60960000Y13970000D01*
X67310000Y22860000D02*
X66940001Y22490001D01*
X72390000Y22860000D02*
X67310000Y22860000D01*
X78740000Y16510000D02*
X72390000Y22860000D01*
X67310000Y22860000D02*
X63500000Y22860000D01*
X73660000Y24130000D02*
X78740000Y19050000D01*
X58420000Y24130000D02*
X73660000Y24130000D01*
X55880000Y21590000D02*
X58420000Y24130000D01*
X62230000Y27940000D02*
X40640000Y27940000D01*
X66040000Y31750000D02*
X62230000Y27940000D01*
X63562002Y30480000D02*
X40640000Y30480000D01*
X40640000Y30480000D02*
X41656000Y30480000D01*
X65139999Y32057997D02*
X63562002Y30480000D01*
X65139999Y35929999D02*
X65139999Y32057997D01*
X68580000Y39370000D02*
X65139999Y35929999D01*
D21*
X4445000Y44450000D02*
X2540000Y42545000D01*
X2540000Y42545000D02*
X2540000Y37465000D01*
X34290000Y44450000D02*
X40640000Y38100000D01*
X34290000Y44450000D02*
X4445000Y44450000D01*
D20*
X73660000Y41910000D02*
X78740000Y36830000D01*
X58420000Y41910000D02*
X73660000Y41910000D01*
X55880000Y39370000D02*
X58420000Y41910000D01*
X66940001Y40270001D02*
X66040000Y39370000D01*
X67310000Y40640000D02*
X66940001Y40270001D01*
X72390000Y40640000D02*
X67310000Y40640000D01*
X78740000Y34290000D02*
X72390000Y40640000D01*
X62230000Y33020000D02*
X60960000Y31750000D01*
X62230000Y39432002D02*
X62230000Y33020000D01*
X63437998Y40640000D02*
X62230000Y39432002D01*
X67310000Y40640000D02*
X63500000Y40640000D01*
D22*
G36*
X12675492Y51577935D02*
G01*
X12573000Y51062677D01*
X12573000Y50537323D01*
X12675492Y50022065D01*
X12876536Y49536702D01*
X13168406Y49099887D01*
X13539887Y48728406D01*
X13976702Y48436536D01*
X14462065Y48235492D01*
X14977323Y48133000D01*
X15502677Y48133000D01*
X16017935Y48235492D01*
X16503298Y48436536D01*
X16940113Y48728406D01*
X17311594Y49099887D01*
X17603464Y49536702D01*
X17659001Y49670781D01*
X17731203Y49582803D01*
X17959395Y49395531D01*
X18219737Y49256375D01*
X18502224Y49170684D01*
X18796000Y49141749D01*
X19089777Y49170684D01*
X19372264Y49256375D01*
X19632606Y49395531D01*
X19860797Y49582803D01*
X20048069Y49810994D01*
X20066000Y49844541D01*
X20083931Y49810994D01*
X20271203Y49582803D01*
X20499395Y49395531D01*
X20759737Y49256375D01*
X21042224Y49170684D01*
X21336000Y49141749D01*
X21629777Y49170684D01*
X21912264Y49256375D01*
X22172606Y49395531D01*
X22400797Y49582803D01*
X22588069Y49810994D01*
X22606000Y49844541D01*
X22623931Y49810994D01*
X22811203Y49582803D01*
X23039395Y49395531D01*
X23299737Y49256375D01*
X23582224Y49170684D01*
X23876000Y49141749D01*
X24169777Y49170684D01*
X24452264Y49256375D01*
X24712606Y49395531D01*
X24940797Y49582803D01*
X25128069Y49810994D01*
X25149424Y49850947D01*
X25297514Y49648271D01*
X25513965Y49449267D01*
X25765081Y49296314D01*
X26041211Y49195291D01*
X26056974Y49192642D01*
X26289000Y49313783D01*
X26289000Y50673000D01*
X26269000Y50673000D01*
X26269000Y50927000D01*
X26289000Y50927000D01*
X26289000Y50947000D01*
X26543000Y50947000D01*
X26543000Y50927000D01*
X26563000Y50927000D01*
X26563000Y50673000D01*
X26543000Y50673000D01*
X26543000Y49313783D01*
X26775026Y49192642D01*
X26790789Y49195291D01*
X27066919Y49296314D01*
X27318035Y49449267D01*
X27534486Y49648271D01*
X27682576Y49850947D01*
X27703931Y49810994D01*
X27891203Y49582803D01*
X28119395Y49395531D01*
X28221000Y49341222D01*
X28221000Y48478072D01*
X28106000Y48478072D01*
X27981518Y48465812D01*
X27861820Y48429502D01*
X27751506Y48370537D01*
X27654815Y48291185D01*
X27575463Y48194494D01*
X27516498Y48084180D01*
X27480188Y47964482D01*
X27467928Y47840000D01*
X27467928Y46140000D01*
X27480188Y46015518D01*
X27516498Y45895820D01*
X27575463Y45785506D01*
X27654815Y45688815D01*
X27751506Y45609463D01*
X27861820Y45550498D01*
X27981518Y45514188D01*
X28106000Y45501928D01*
X29806000Y45501928D01*
X29930482Y45514188D01*
X30050180Y45550498D01*
X30160494Y45609463D01*
X30257185Y45688815D01*
X30336537Y45785506D01*
X30395502Y45895820D01*
X30416393Y45964687D01*
X30440866Y45934866D01*
X30666986Y45749294D01*
X30924966Y45611401D01*
X31204889Y45526487D01*
X31423050Y45505000D01*
X31568950Y45505000D01*
X31787111Y45526487D01*
X32067034Y45611401D01*
X32325014Y45749294D01*
X32551134Y45934866D01*
X32736706Y46160986D01*
X32766000Y46215791D01*
X32795294Y46160986D01*
X32980866Y45934866D01*
X33206986Y45749294D01*
X33464966Y45611401D01*
X33744889Y45526487D01*
X33963050Y45505000D01*
X34108950Y45505000D01*
X34327111Y45526487D01*
X34607034Y45611401D01*
X34865014Y45749294D01*
X35091134Y45934866D01*
X35276706Y46160986D01*
X35306000Y46215791D01*
X35335294Y46160986D01*
X35520866Y45934866D01*
X35746986Y45749294D01*
X36004966Y45611401D01*
X36284889Y45526487D01*
X36503050Y45505000D01*
X36648950Y45505000D01*
X36867111Y45526487D01*
X37147034Y45611401D01*
X37405014Y45749294D01*
X37631134Y45934866D01*
X37816706Y46160986D01*
X37846000Y46215791D01*
X37875294Y46160986D01*
X38060866Y45934866D01*
X38286986Y45749294D01*
X38544966Y45611401D01*
X38824889Y45526487D01*
X39043050Y45505000D01*
X39188950Y45505000D01*
X39407111Y45526487D01*
X39687034Y45611401D01*
X39945014Y45749294D01*
X40171134Y45934866D01*
X40356706Y46160986D01*
X40386000Y46215791D01*
X40415294Y46160986D01*
X40600866Y45934866D01*
X40826986Y45749294D01*
X41084966Y45611401D01*
X41364889Y45526487D01*
X41583050Y45505000D01*
X41728950Y45505000D01*
X41947111Y45526487D01*
X42227034Y45611401D01*
X42485014Y45749294D01*
X42711134Y45934866D01*
X42896706Y46160986D01*
X43034599Y46418966D01*
X43119513Y46698889D01*
X43148185Y46990000D01*
X43119513Y47281111D01*
X43034599Y47561034D01*
X42896706Y47819014D01*
X42711134Y48045134D01*
X42485014Y48230706D01*
X42391000Y48280957D01*
X42391000Y49341221D01*
X42492606Y49395531D01*
X42720797Y49582803D01*
X42908069Y49810994D01*
X43047225Y50071337D01*
X43132916Y50353824D01*
X43154600Y50573982D01*
X43154600Y51026019D01*
X43132916Y51246177D01*
X43047225Y51528664D01*
X42908069Y51789006D01*
X42781689Y51943000D01*
X44594311Y51943000D01*
X44467931Y51789005D01*
X44328775Y51528663D01*
X44243084Y51246176D01*
X44221400Y51026018D01*
X44221400Y50573981D01*
X44243084Y50353823D01*
X44328775Y50071336D01*
X44467931Y49810994D01*
X44655203Y49582803D01*
X44883395Y49395531D01*
X44985000Y49341222D01*
X44985001Y48478072D01*
X44870000Y48478072D01*
X44745518Y48465812D01*
X44625820Y48429502D01*
X44515506Y48370537D01*
X44418815Y48291185D01*
X44339463Y48194494D01*
X44280498Y48084180D01*
X44244188Y47964482D01*
X44231928Y47840000D01*
X44231928Y46140000D01*
X44244188Y46015518D01*
X44280498Y45895820D01*
X44339463Y45785506D01*
X44418815Y45688815D01*
X44515506Y45609463D01*
X44625820Y45550498D01*
X44745518Y45514188D01*
X44870000Y45501928D01*
X46570000Y45501928D01*
X46694482Y45514188D01*
X46814180Y45550498D01*
X46924494Y45609463D01*
X47021185Y45688815D01*
X47100537Y45785506D01*
X47159502Y45895820D01*
X47180393Y45964687D01*
X47204866Y45934866D01*
X47430986Y45749294D01*
X47688966Y45611401D01*
X47968889Y45526487D01*
X48187050Y45505000D01*
X48332950Y45505000D01*
X48551111Y45526487D01*
X48831034Y45611401D01*
X49089014Y45749294D01*
X49315134Y45934866D01*
X49500706Y46160986D01*
X49530000Y46215791D01*
X49559294Y46160986D01*
X49744866Y45934866D01*
X49970986Y45749294D01*
X50228966Y45611401D01*
X50508889Y45526487D01*
X50727050Y45505000D01*
X50872950Y45505000D01*
X51091111Y45526487D01*
X51371034Y45611401D01*
X51629014Y45749294D01*
X51855134Y45934866D01*
X52040706Y46160986D01*
X52070000Y46215791D01*
X52099294Y46160986D01*
X52284866Y45934866D01*
X52510986Y45749294D01*
X52768966Y45611401D01*
X53048889Y45526487D01*
X53267050Y45505000D01*
X53412950Y45505000D01*
X53631111Y45526487D01*
X53911034Y45611401D01*
X54169014Y45749294D01*
X54395134Y45934866D01*
X54580706Y46160986D01*
X54610000Y46215791D01*
X54639294Y46160986D01*
X54824866Y45934866D01*
X55050986Y45749294D01*
X55308966Y45611401D01*
X55588889Y45526487D01*
X55807050Y45505000D01*
X55952950Y45505000D01*
X56171111Y45526487D01*
X56451034Y45611401D01*
X56709014Y45749294D01*
X56935134Y45934866D01*
X57120706Y46160986D01*
X57150000Y46215791D01*
X57179294Y46160986D01*
X57364866Y45934866D01*
X57590986Y45749294D01*
X57848966Y45611401D01*
X58128889Y45526487D01*
X58347050Y45505000D01*
X58492950Y45505000D01*
X58711111Y45526487D01*
X58991034Y45611401D01*
X59249014Y45749294D01*
X59475134Y45934866D01*
X59660706Y46160986D01*
X59798599Y46418966D01*
X59883513Y46698889D01*
X59912185Y46990000D01*
X59883513Y47281111D01*
X59798599Y47561034D01*
X59660706Y47819014D01*
X59475134Y48045134D01*
X59249014Y48230706D01*
X59155000Y48280957D01*
X59155000Y49341221D01*
X59256606Y49395531D01*
X59484797Y49582803D01*
X59672069Y49810994D01*
X59690000Y49844541D01*
X59707931Y49810994D01*
X59895203Y49582803D01*
X60123395Y49395531D01*
X60383737Y49256375D01*
X60666224Y49170684D01*
X60960000Y49141749D01*
X61253777Y49170684D01*
X61536264Y49256375D01*
X61796606Y49395531D01*
X62024797Y49582803D01*
X62212069Y49810994D01*
X62230000Y49844541D01*
X62247931Y49810994D01*
X62435203Y49582803D01*
X62663395Y49395531D01*
X62923737Y49256375D01*
X63206224Y49170684D01*
X63500000Y49141749D01*
X63793777Y49170684D01*
X64076264Y49256375D01*
X64336606Y49395531D01*
X64564797Y49582803D01*
X64752069Y49810994D01*
X64891225Y50071337D01*
X64976916Y50353824D01*
X64998600Y50573982D01*
X64998600Y51026019D01*
X64976916Y51246177D01*
X64891225Y51528664D01*
X64752069Y51789006D01*
X64625689Y51943000D01*
X67454311Y51943000D01*
X67327931Y51789005D01*
X67188775Y51528663D01*
X67103084Y51246176D01*
X67081400Y51026018D01*
X67081400Y50573981D01*
X67103084Y50353823D01*
X67188775Y50071336D01*
X67327931Y49810994D01*
X67515203Y49582803D01*
X67558128Y49547575D01*
X66488626Y48478072D01*
X65190000Y48478072D01*
X65065518Y48465812D01*
X64945820Y48429502D01*
X64835506Y48370537D01*
X64738815Y48291185D01*
X64659463Y48194494D01*
X64600498Y48084180D01*
X64564188Y47964482D01*
X64551928Y47840000D01*
X64551928Y46140000D01*
X64564188Y46015518D01*
X64600498Y45895820D01*
X64659463Y45785506D01*
X64738815Y45688815D01*
X64835506Y45609463D01*
X64945820Y45550498D01*
X65065518Y45514188D01*
X65190000Y45501928D01*
X66890000Y45501928D01*
X67014482Y45514188D01*
X67134180Y45550498D01*
X67244494Y45609463D01*
X67341185Y45688815D01*
X67420537Y45785506D01*
X67479502Y45895820D01*
X67500393Y45964687D01*
X67524866Y45934866D01*
X67750986Y45749294D01*
X68008966Y45611401D01*
X68288889Y45526487D01*
X68507050Y45505000D01*
X68652950Y45505000D01*
X68871111Y45526487D01*
X69151034Y45611401D01*
X69409014Y45749294D01*
X69635134Y45934866D01*
X69820706Y46160986D01*
X69850000Y46215791D01*
X69879294Y46160986D01*
X70064866Y45934866D01*
X70290986Y45749294D01*
X70548966Y45611401D01*
X70828889Y45526487D01*
X71047050Y45505000D01*
X71192950Y45505000D01*
X71411111Y45526487D01*
X71691034Y45611401D01*
X71949014Y45749294D01*
X72175134Y45934866D01*
X72360706Y46160986D01*
X72390000Y46215791D01*
X72419294Y46160986D01*
X72604866Y45934866D01*
X72830986Y45749294D01*
X73088966Y45611401D01*
X73368889Y45526487D01*
X73587050Y45505000D01*
X73732950Y45505000D01*
X73951111Y45526487D01*
X74231034Y45611401D01*
X74489014Y45749294D01*
X74715134Y45934866D01*
X74900706Y46160986D01*
X74930000Y46215791D01*
X74959294Y46160986D01*
X75144866Y45934866D01*
X75370986Y45749294D01*
X75628966Y45611401D01*
X75908889Y45526487D01*
X76127050Y45505000D01*
X76272950Y45505000D01*
X76491111Y45526487D01*
X76771034Y45611401D01*
X77029014Y45749294D01*
X77255134Y45934866D01*
X77440706Y46160986D01*
X77470000Y46215791D01*
X77499294Y46160986D01*
X77684866Y45934866D01*
X77910986Y45749294D01*
X78168966Y45611401D01*
X78448889Y45526487D01*
X78667050Y45505000D01*
X78812950Y45505000D01*
X79031111Y45526487D01*
X79311034Y45611401D01*
X79569014Y45749294D01*
X79795134Y45934866D01*
X79980706Y46160986D01*
X80010000Y46215791D01*
X80039294Y46160986D01*
X80224866Y45934866D01*
X80450986Y45749294D01*
X80708966Y45611401D01*
X80988889Y45526487D01*
X81207050Y45505000D01*
X81352950Y45505000D01*
X81571111Y45526487D01*
X81851034Y45611401D01*
X82109014Y45749294D01*
X82335134Y45934866D01*
X82520706Y46160986D01*
X82550000Y46215791D01*
X82579294Y46160986D01*
X82764866Y45934866D01*
X82990986Y45749294D01*
X83248966Y45611401D01*
X83528889Y45526487D01*
X83747050Y45505000D01*
X83892950Y45505000D01*
X84111111Y45526487D01*
X84391034Y45611401D01*
X84649014Y45749294D01*
X84875134Y45934866D01*
X85060706Y46160986D01*
X85198599Y46418966D01*
X85283513Y46698889D01*
X85312185Y46990000D01*
X85283513Y47281111D01*
X85252568Y47383122D01*
X86854193Y48984746D01*
X86882238Y49007762D01*
X86974087Y49119680D01*
X87042337Y49247367D01*
X87066126Y49325788D01*
X87196606Y49395531D01*
X87424797Y49582803D01*
X87612069Y49810994D01*
X87657621Y49896215D01*
X87806536Y49536702D01*
X88098406Y49099887D01*
X88469887Y48728406D01*
X88906702Y48436536D01*
X89189818Y48319265D01*
X88023122Y47152568D01*
X87921111Y47183513D01*
X87702950Y47205000D01*
X87557050Y47205000D01*
X87338889Y47183513D01*
X87058966Y47098599D01*
X86800986Y46960706D01*
X86574866Y46775134D01*
X86389294Y46549014D01*
X86251401Y46291034D01*
X86166487Y46011111D01*
X86137815Y45720000D01*
X86166487Y45428889D01*
X86251401Y45148966D01*
X86389294Y44890986D01*
X86574866Y44664866D01*
X86800986Y44479294D01*
X86855791Y44450000D01*
X86800986Y44420706D01*
X86574866Y44235134D01*
X86389294Y44009014D01*
X86251401Y43751034D01*
X86166487Y43471111D01*
X86137815Y43180000D01*
X86166487Y42888889D01*
X86251401Y42608966D01*
X86389294Y42350986D01*
X86574866Y42124866D01*
X86800986Y41939294D01*
X86855791Y41910000D01*
X86800986Y41880706D01*
X86574866Y41695134D01*
X86389294Y41469014D01*
X86251401Y41211034D01*
X86166487Y40931111D01*
X86137815Y40640000D01*
X86166487Y40348889D01*
X86251401Y40068966D01*
X86389294Y39810986D01*
X86574866Y39584866D01*
X86800986Y39399294D01*
X86855791Y39370000D01*
X86800986Y39340706D01*
X86574866Y39155134D01*
X86389294Y38929014D01*
X86251401Y38671034D01*
X86166487Y38391111D01*
X86137815Y38100000D01*
X86166487Y37808889D01*
X86251401Y37528966D01*
X86389294Y37270986D01*
X86574866Y37044866D01*
X86800986Y36859294D01*
X86855791Y36830000D01*
X86800986Y36800706D01*
X86574866Y36615134D01*
X86389294Y36389014D01*
X86251401Y36131034D01*
X86166487Y35851111D01*
X86137815Y35560000D01*
X86166487Y35268889D01*
X86251401Y34988966D01*
X86389294Y34730986D01*
X86574866Y34504866D01*
X86800986Y34319294D01*
X86855791Y34290000D01*
X86800986Y34260706D01*
X86574866Y34075134D01*
X86389294Y33849014D01*
X86251401Y33591034D01*
X86166487Y33311111D01*
X86137815Y33020000D01*
X86166487Y32728889D01*
X86251401Y32448966D01*
X86389294Y32190986D01*
X86574866Y31964866D01*
X86800986Y31779294D01*
X86855791Y31750000D01*
X86800986Y31720706D01*
X86574866Y31535134D01*
X86389294Y31309014D01*
X86251401Y31051034D01*
X86166487Y30771111D01*
X86137815Y30480000D01*
X86166487Y30188889D01*
X86251401Y29908966D01*
X86389294Y29650986D01*
X86574866Y29424866D01*
X86800986Y29239294D01*
X86855791Y29210000D01*
X86800986Y29180706D01*
X86574866Y28995134D01*
X86389294Y28769014D01*
X86251401Y28511034D01*
X86166487Y28231111D01*
X86137815Y27940000D01*
X86166487Y27648889D01*
X86251401Y27368966D01*
X86389294Y27110986D01*
X86574866Y26884866D01*
X86800986Y26699294D01*
X86855791Y26670000D01*
X86800986Y26640706D01*
X86574866Y26455134D01*
X86389294Y26229014D01*
X86251401Y25971034D01*
X86166487Y25691111D01*
X86137815Y25400000D01*
X86166487Y25108889D01*
X86251401Y24828966D01*
X86389294Y24570986D01*
X86574866Y24344866D01*
X86800986Y24159294D01*
X86855791Y24130000D01*
X86800986Y24100706D01*
X86574866Y23915134D01*
X86389294Y23689014D01*
X86251401Y23431034D01*
X86166487Y23151111D01*
X86137815Y22860000D01*
X86166487Y22568889D01*
X86251401Y22288966D01*
X86389294Y22030986D01*
X86574866Y21804866D01*
X86800986Y21619294D01*
X86855791Y21590000D01*
X86800986Y21560706D01*
X86574866Y21375134D01*
X86389294Y21149014D01*
X86251401Y20891034D01*
X86166487Y20611111D01*
X86137815Y20320000D01*
X86166487Y20028889D01*
X86251401Y19748966D01*
X86389294Y19490986D01*
X86574866Y19264866D01*
X86800986Y19079294D01*
X86855791Y19050000D01*
X86800986Y19020706D01*
X86574866Y18835134D01*
X86389294Y18609014D01*
X86251401Y18351034D01*
X86166487Y18071111D01*
X86137815Y17780000D01*
X86166487Y17488889D01*
X86251401Y17208966D01*
X86389294Y16950986D01*
X86574866Y16724866D01*
X86800986Y16539294D01*
X86855791Y16510000D01*
X86800986Y16480706D01*
X86574866Y16295134D01*
X86389294Y16069014D01*
X86251401Y15811034D01*
X86166487Y15531111D01*
X86137815Y15240000D01*
X86166487Y14948889D01*
X86251401Y14668966D01*
X86389294Y14410986D01*
X86574866Y14184866D01*
X86800986Y13999294D01*
X86855791Y13970000D01*
X86800986Y13940706D01*
X86574866Y13755134D01*
X86389294Y13529014D01*
X86251401Y13271034D01*
X86166487Y12991111D01*
X86137815Y12700000D01*
X86166487Y12408889D01*
X86251401Y12128966D01*
X86389294Y11870986D01*
X86574866Y11644866D01*
X86800986Y11459294D01*
X86855791Y11430000D01*
X86800986Y11400706D01*
X86574866Y11215134D01*
X86389294Y10989014D01*
X86251401Y10731034D01*
X86166487Y10451111D01*
X86137815Y10160000D01*
X86166487Y9868889D01*
X86251401Y9588966D01*
X86389294Y9330986D01*
X86574866Y9104866D01*
X86604687Y9080393D01*
X86535820Y9059502D01*
X86425506Y9000537D01*
X86328815Y8921185D01*
X86249463Y8824494D01*
X86190498Y8714180D01*
X86154188Y8594482D01*
X86141928Y8470000D01*
X86141928Y6770000D01*
X86154188Y6645518D01*
X86190498Y6525820D01*
X86249463Y6415506D01*
X86328815Y6318815D01*
X86425506Y6239463D01*
X86535820Y6180498D01*
X86655518Y6144188D01*
X86780000Y6131928D01*
X88480000Y6131928D01*
X88604482Y6144188D01*
X88724180Y6180498D01*
X88834494Y6239463D01*
X88931185Y6318815D01*
X89010537Y6415506D01*
X89069502Y6525820D01*
X89090393Y6594687D01*
X89114866Y6564866D01*
X89340986Y6379294D01*
X89598966Y6241401D01*
X89878889Y6156487D01*
X90097050Y6135000D01*
X90242950Y6135000D01*
X90461111Y6156487D01*
X90741034Y6241401D01*
X90999014Y6379294D01*
X91225134Y6564866D01*
X91239110Y6581896D01*
X93121501Y6581896D01*
X93200782Y6331433D01*
X93467141Y6204174D01*
X93753210Y6131325D01*
X94047993Y6115685D01*
X94340164Y6157855D01*
X94618493Y6256214D01*
X94759218Y6331433D01*
X94838499Y6581896D01*
X93980000Y7440395D01*
X93121501Y6581896D01*
X91239110Y6581896D01*
X91410706Y6790986D01*
X91548599Y7048966D01*
X91633513Y7328889D01*
X91662185Y7620000D01*
X91633513Y7911111D01*
X91602568Y8013122D01*
X91744446Y8155000D01*
X92574752Y8155000D01*
X92564174Y8132859D01*
X92491325Y7846790D01*
X92475685Y7552007D01*
X92517855Y7259836D01*
X92616214Y6981507D01*
X92691433Y6840782D01*
X92941896Y6761501D01*
X93800395Y7620000D01*
X93786253Y7634142D01*
X93965858Y7813747D01*
X93980000Y7799605D01*
X93994143Y7813747D01*
X94173748Y7634142D01*
X94159605Y7620000D01*
X95018104Y6761501D01*
X95251434Y6835359D01*
X95313183Y6731512D01*
X95509707Y6513146D01*
X95745056Y6337316D01*
X96010186Y6210778D01*
X96160974Y6165042D01*
X96393000Y6286183D01*
X96393000Y7493000D01*
X96647000Y7493000D01*
X96647000Y6286183D01*
X96879026Y6165042D01*
X97029814Y6210778D01*
X97294944Y6337316D01*
X97530293Y6513146D01*
X97726817Y6731512D01*
X97876964Y6984022D01*
X97974963Y7260973D01*
X97854464Y7493000D01*
X96647000Y7493000D01*
X96393000Y7493000D01*
X96373000Y7493000D01*
X96373000Y7747000D01*
X96393000Y7747000D01*
X96393000Y7767000D01*
X96647000Y7767000D01*
X96647000Y7747000D01*
X97854464Y7747000D01*
X97974963Y7979027D01*
X97876964Y8255978D01*
X97726817Y8508488D01*
X97530293Y8726854D01*
X97316567Y8886530D01*
X97356606Y8907931D01*
X97584797Y9095203D01*
X97772069Y9323394D01*
X97911225Y9583736D01*
X97996916Y9866223D01*
X98025851Y10160000D01*
X97996916Y10453777D01*
X97911225Y10736264D01*
X97772069Y10996606D01*
X97584797Y11224797D01*
X97356606Y11412069D01*
X97323060Y11430000D01*
X97356606Y11447931D01*
X97584797Y11635203D01*
X97772069Y11863394D01*
X97911225Y12123736D01*
X97996916Y12406223D01*
X98025851Y12700000D01*
X97996916Y12993777D01*
X97911225Y13276264D01*
X97772069Y13536606D01*
X97584797Y13764797D01*
X97356606Y13952069D01*
X97323060Y13970000D01*
X97356606Y13987931D01*
X97584797Y14175203D01*
X97772069Y14403394D01*
X97911225Y14663736D01*
X97996916Y14946223D01*
X98025851Y15240000D01*
X97996916Y15533777D01*
X97911225Y15816264D01*
X97772069Y16076606D01*
X97584797Y16304797D01*
X97356606Y16492069D01*
X97323060Y16510000D01*
X97356606Y16527931D01*
X97584797Y16715203D01*
X97772069Y16943394D01*
X97911225Y17203736D01*
X97996916Y17486223D01*
X98025851Y17780000D01*
X97996916Y18073777D01*
X97911225Y18356264D01*
X97772069Y18616606D01*
X97584797Y18844797D01*
X97356606Y19032069D01*
X97323060Y19050000D01*
X97356606Y19067931D01*
X97584797Y19255203D01*
X97772069Y19483394D01*
X97911225Y19743736D01*
X97996916Y20026223D01*
X98025851Y20320000D01*
X97996916Y20613777D01*
X97911225Y20896264D01*
X97772069Y21156606D01*
X97584797Y21384797D01*
X97356606Y21572069D01*
X97323060Y21590000D01*
X97356606Y21607931D01*
X97584797Y21795203D01*
X97772069Y22023394D01*
X97911225Y22283736D01*
X97996916Y22566223D01*
X98025851Y22860000D01*
X97996916Y23153777D01*
X97911225Y23436264D01*
X97772069Y23696606D01*
X97584797Y23924797D01*
X97356606Y24112069D01*
X97323060Y24130000D01*
X97356606Y24147931D01*
X97584797Y24335203D01*
X97772069Y24563394D01*
X97911225Y24823736D01*
X97996916Y25106223D01*
X98025851Y25400000D01*
X97996916Y25693777D01*
X97911225Y25976264D01*
X97772069Y26236606D01*
X97584797Y26464797D01*
X97356606Y26652069D01*
X97323060Y26670000D01*
X97356606Y26687931D01*
X97584797Y26875203D01*
X97772069Y27103394D01*
X97911225Y27363736D01*
X97996916Y27646223D01*
X98025851Y27940000D01*
X97996916Y28233777D01*
X97911225Y28516264D01*
X97772069Y28776606D01*
X97584797Y29004797D01*
X97356606Y29192069D01*
X97323060Y29210000D01*
X97356606Y29227931D01*
X97584797Y29415203D01*
X97772069Y29643394D01*
X97911225Y29903736D01*
X97996916Y30186223D01*
X98025851Y30480000D01*
X97996916Y30773777D01*
X97911225Y31056264D01*
X97772069Y31316606D01*
X97584797Y31544797D01*
X97356606Y31732069D01*
X97323060Y31750000D01*
X97356606Y31767931D01*
X97584797Y31955203D01*
X97772069Y32183394D01*
X97911225Y32443736D01*
X97996916Y32726223D01*
X98025851Y33020000D01*
X97996916Y33313777D01*
X97911225Y33596264D01*
X97772069Y33856606D01*
X97584797Y34084797D01*
X97356606Y34272069D01*
X97323060Y34290000D01*
X97356606Y34307931D01*
X97584797Y34495203D01*
X97772069Y34723394D01*
X97911225Y34983736D01*
X97996916Y35266223D01*
X98025851Y35560000D01*
X97996916Y35853777D01*
X97911225Y36136264D01*
X97772069Y36396606D01*
X97584797Y36624797D01*
X97356606Y36812069D01*
X97323060Y36830000D01*
X97356606Y36847931D01*
X97584797Y37035203D01*
X97772069Y37263394D01*
X97911225Y37523736D01*
X97996916Y37806223D01*
X98025851Y38100000D01*
X97996916Y38393777D01*
X97911225Y38676264D01*
X97772069Y38936606D01*
X97584797Y39164797D01*
X97356606Y39352069D01*
X97323060Y39370000D01*
X97356606Y39387931D01*
X97584797Y39575203D01*
X97772069Y39803394D01*
X97911225Y40063736D01*
X97975330Y40275064D01*
X100203000Y38047394D01*
X100203000Y3862606D01*
X99179712Y2839318D01*
X99084508Y3317935D01*
X98883464Y3803298D01*
X98591594Y4240113D01*
X98220113Y4611594D01*
X97783298Y4903464D01*
X97297935Y5104508D01*
X96782677Y5207000D01*
X96257323Y5207000D01*
X95742065Y5104508D01*
X95256702Y4903464D01*
X94819887Y4611594D01*
X94448406Y4240113D01*
X94156536Y3803298D01*
X93955492Y3317935D01*
X93853000Y2802677D01*
X93853000Y2277323D01*
X93955492Y1762065D01*
X94106707Y1397000D01*
X92565689Y1397000D01*
X92692069Y1550994D01*
X92831225Y1811337D01*
X92916916Y2093824D01*
X92938600Y2313982D01*
X92938600Y2766019D01*
X92916916Y2986177D01*
X92831225Y3268664D01*
X92692069Y3529006D01*
X92504797Y3757197D01*
X92276605Y3944469D01*
X92016263Y4083625D01*
X91733776Y4169316D01*
X91440000Y4198251D01*
X91146223Y4169316D01*
X91035974Y4135872D01*
X90921658Y4250188D01*
X90898638Y4278238D01*
X90786720Y4370087D01*
X90659033Y4438337D01*
X90547179Y4472267D01*
X89725270Y5294176D01*
X89702250Y5322226D01*
X89590332Y5414075D01*
X89462645Y5482325D01*
X89324097Y5524353D01*
X89216117Y5534988D01*
X89180012Y5538544D01*
X89143907Y5534988D01*
X87648758Y5534988D01*
X87489560Y5694186D01*
X87466539Y5722237D01*
X87354621Y5814086D01*
X87226934Y5882336D01*
X87088386Y5924364D01*
X86980406Y5934999D01*
X86944301Y5938555D01*
X86908196Y5934999D01*
X85274447Y5934999D01*
X85252568Y5956878D01*
X85283513Y6058889D01*
X85312185Y6350000D01*
X85283513Y6641111D01*
X85198599Y6921034D01*
X85060706Y7179014D01*
X84875134Y7405134D01*
X84649014Y7590706D01*
X84391034Y7728599D01*
X84111111Y7813513D01*
X83892950Y7835000D01*
X83747050Y7835000D01*
X83528889Y7813513D01*
X83248966Y7728599D01*
X82990986Y7590706D01*
X82764866Y7405134D01*
X82579294Y7179014D01*
X82550000Y7124209D01*
X82520706Y7179014D01*
X82335134Y7405134D01*
X82109014Y7590706D01*
X81851034Y7728599D01*
X81571111Y7813513D01*
X81352950Y7835000D01*
X81207050Y7835000D01*
X80988889Y7813513D01*
X80708966Y7728599D01*
X80450986Y7590706D01*
X80224866Y7405134D01*
X80039294Y7179014D01*
X80010000Y7124209D01*
X79980706Y7179014D01*
X79795134Y7405134D01*
X79569014Y7590706D01*
X79311034Y7728599D01*
X79031111Y7813513D01*
X78812950Y7835000D01*
X78667050Y7835000D01*
X78448889Y7813513D01*
X78168966Y7728599D01*
X77910986Y7590706D01*
X77684866Y7405134D01*
X77499294Y7179014D01*
X77470000Y7124209D01*
X77440706Y7179014D01*
X77255134Y7405134D01*
X77029014Y7590706D01*
X76771034Y7728599D01*
X76491111Y7813513D01*
X76272950Y7835000D01*
X76127050Y7835000D01*
X75908889Y7813513D01*
X75628966Y7728599D01*
X75370986Y7590706D01*
X75144866Y7405134D01*
X74959294Y7179014D01*
X74930000Y7124209D01*
X74900706Y7179014D01*
X74715134Y7405134D01*
X74489014Y7590706D01*
X74231034Y7728599D01*
X73951111Y7813513D01*
X73732950Y7835000D01*
X73587050Y7835000D01*
X73368889Y7813513D01*
X73088966Y7728599D01*
X72830986Y7590706D01*
X72604866Y7405134D01*
X72419294Y7179014D01*
X72390000Y7124209D01*
X72360706Y7179014D01*
X72175134Y7405134D01*
X71949014Y7590706D01*
X71691034Y7728599D01*
X71411111Y7813513D01*
X71192950Y7835000D01*
X71047050Y7835000D01*
X70828889Y7813513D01*
X70548966Y7728599D01*
X70290986Y7590706D01*
X70064866Y7405134D01*
X69879294Y7179014D01*
X69850000Y7124209D01*
X69820706Y7179014D01*
X69635134Y7405134D01*
X69409014Y7590706D01*
X69151034Y7728599D01*
X68871111Y7813513D01*
X68652950Y7835000D01*
X68507050Y7835000D01*
X68288889Y7813513D01*
X68008966Y7728599D01*
X67750986Y7590706D01*
X67524866Y7405134D01*
X67500393Y7375313D01*
X67479502Y7444180D01*
X67420537Y7554494D01*
X67341185Y7651185D01*
X67244494Y7730537D01*
X67134180Y7789502D01*
X67014482Y7825812D01*
X66890000Y7838072D01*
X65190000Y7838072D01*
X65065518Y7825812D01*
X64945820Y7789502D01*
X64835506Y7730537D01*
X64738815Y7651185D01*
X64659463Y7554494D01*
X64600498Y7444180D01*
X64564188Y7324482D01*
X64551928Y7200000D01*
X64551928Y5767055D01*
X64494621Y5814086D01*
X64366934Y5882336D01*
X64228386Y5924364D01*
X64120406Y5934999D01*
X64084301Y5938555D01*
X64048196Y5934999D01*
X62414447Y5934999D01*
X62392568Y5956878D01*
X62423513Y6058889D01*
X62452185Y6350000D01*
X62423513Y6641111D01*
X62338599Y6921034D01*
X62200706Y7179014D01*
X62015134Y7405134D01*
X61789014Y7590706D01*
X61531034Y7728599D01*
X61251111Y7813513D01*
X61032950Y7835000D01*
X60887050Y7835000D01*
X60668889Y7813513D01*
X60388966Y7728599D01*
X60130986Y7590706D01*
X59904866Y7405134D01*
X59719294Y7179014D01*
X59690000Y7124209D01*
X59660706Y7179014D01*
X59475134Y7405134D01*
X59249014Y7590706D01*
X58991034Y7728599D01*
X58711111Y7813513D01*
X58492950Y7835000D01*
X58347050Y7835000D01*
X58128889Y7813513D01*
X57848966Y7728599D01*
X57590986Y7590706D01*
X57364866Y7405134D01*
X57179294Y7179014D01*
X57150000Y7124209D01*
X57120706Y7179014D01*
X56935134Y7405134D01*
X56709014Y7590706D01*
X56451034Y7728599D01*
X56171111Y7813513D01*
X55952950Y7835000D01*
X55807050Y7835000D01*
X55588889Y7813513D01*
X55308966Y7728599D01*
X55050986Y7590706D01*
X54824866Y7405134D01*
X54639294Y7179014D01*
X54610000Y7124209D01*
X54580706Y7179014D01*
X54395134Y7405134D01*
X54169014Y7590706D01*
X53911034Y7728599D01*
X53631111Y7813513D01*
X53412950Y7835000D01*
X53267050Y7835000D01*
X53048889Y7813513D01*
X52768966Y7728599D01*
X52510986Y7590706D01*
X52284866Y7405134D01*
X52099294Y7179014D01*
X52070000Y7124209D01*
X52040706Y7179014D01*
X51855134Y7405134D01*
X51629014Y7590706D01*
X51371034Y7728599D01*
X51091111Y7813513D01*
X50872950Y7835000D01*
X50727050Y7835000D01*
X50508889Y7813513D01*
X50228966Y7728599D01*
X49970986Y7590706D01*
X49744866Y7405134D01*
X49559294Y7179014D01*
X49530000Y7124209D01*
X49500706Y7179014D01*
X49315134Y7405134D01*
X49089014Y7590706D01*
X48831034Y7728599D01*
X48551111Y7813513D01*
X48332950Y7835000D01*
X48187050Y7835000D01*
X47968889Y7813513D01*
X47688966Y7728599D01*
X47430986Y7590706D01*
X47204866Y7405134D01*
X47019294Y7179014D01*
X46990000Y7124209D01*
X46960706Y7179014D01*
X46775134Y7405134D01*
X46549014Y7590706D01*
X46291034Y7728599D01*
X46011111Y7813513D01*
X45792950Y7835000D01*
X45647050Y7835000D01*
X45428889Y7813513D01*
X45148966Y7728599D01*
X44890986Y7590706D01*
X44664866Y7405134D01*
X44640393Y7375313D01*
X44619502Y7444180D01*
X44560537Y7554494D01*
X44481185Y7651185D01*
X44384494Y7730537D01*
X44274180Y7789502D01*
X44154482Y7825812D01*
X44030000Y7838072D01*
X42330000Y7838072D01*
X42205518Y7825812D01*
X42085820Y7789502D01*
X41975506Y7730537D01*
X41878815Y7651185D01*
X41799463Y7554494D01*
X41740498Y7444180D01*
X41704188Y7324482D01*
X41691928Y7200000D01*
X41691928Y5500000D01*
X41704188Y5375518D01*
X41740498Y5255820D01*
X41799463Y5145506D01*
X41878815Y5048815D01*
X41975506Y4969463D01*
X42085820Y4910498D01*
X42205518Y4874188D01*
X42330000Y4861928D01*
X43628626Y4861928D01*
X43784742Y4705812D01*
X43807763Y4677761D01*
X43919681Y4585912D01*
X44047368Y4517662D01*
X44170320Y4480365D01*
X44185916Y4475634D01*
X44330001Y4461443D01*
X44366106Y4464999D01*
X45999855Y4464999D01*
X46159053Y4305801D01*
X46182074Y4277750D01*
X46293992Y4185901D01*
X46421679Y4117651D01*
X46518198Y4088372D01*
X46560226Y4075623D01*
X46704312Y4061432D01*
X46740417Y4064988D01*
X48235566Y4064988D01*
X49038746Y3261807D01*
X49061762Y3233762D01*
X49173680Y3141913D01*
X49301367Y3073663D01*
X49345556Y3060258D01*
X49323084Y2986176D01*
X49301400Y2766018D01*
X49301400Y2313981D01*
X49323084Y2093823D01*
X49408775Y1811336D01*
X49547931Y1550994D01*
X49674311Y1397000D01*
X46845689Y1397000D01*
X46972069Y1550994D01*
X47111225Y1811337D01*
X47196916Y2093824D01*
X47218600Y2313982D01*
X47218600Y2766019D01*
X47196916Y2986177D01*
X47111225Y3268664D01*
X46972069Y3529006D01*
X46784797Y3757197D01*
X46556605Y3944469D01*
X46296263Y4083625D01*
X46013776Y4169316D01*
X45720000Y4198251D01*
X45426223Y4169316D01*
X45143736Y4083625D01*
X44883394Y3944469D01*
X44655203Y3757197D01*
X44467931Y3529005D01*
X44446576Y3489053D01*
X44298486Y3691729D01*
X44082035Y3890733D01*
X43830919Y4043686D01*
X43554789Y4144709D01*
X43539026Y4147358D01*
X43307000Y4026217D01*
X43307000Y2667000D01*
X43327000Y2667000D01*
X43327000Y2413000D01*
X43307000Y2413000D01*
X43307000Y2393000D01*
X43053000Y2393000D01*
X43053000Y2413000D01*
X40767000Y2413000D01*
X40767000Y2393000D01*
X40513000Y2393000D01*
X40513000Y2413000D01*
X40493000Y2413000D01*
X40493000Y2667000D01*
X40513000Y2667000D01*
X40513000Y4026217D01*
X40767000Y4026217D01*
X40767000Y2667000D01*
X43053000Y2667000D01*
X43053000Y4026217D01*
X42820974Y4147358D01*
X42805211Y4144709D01*
X42529081Y4043686D01*
X42277965Y3890733D01*
X42061514Y3691729D01*
X41910000Y3484367D01*
X41758486Y3691729D01*
X41542035Y3890733D01*
X41290919Y4043686D01*
X41014789Y4144709D01*
X40999026Y4147358D01*
X40767000Y4026217D01*
X40513000Y4026217D01*
X40280974Y4147358D01*
X40265211Y4144709D01*
X39989081Y4043686D01*
X39737965Y3890733D01*
X39521514Y3691729D01*
X39373424Y3489053D01*
X39352069Y3529006D01*
X39164797Y3757197D01*
X38936605Y3944469D01*
X38676263Y4083625D01*
X38393776Y4169316D01*
X38100000Y4198251D01*
X37806223Y4169316D01*
X37523736Y4083625D01*
X37263394Y3944469D01*
X37035203Y3757197D01*
X36847931Y3529005D01*
X36830000Y3495459D01*
X36812069Y3529006D01*
X36624797Y3757197D01*
X36396605Y3944469D01*
X36136263Y4083625D01*
X35853776Y4169316D01*
X35560000Y4198251D01*
X35266223Y4169316D01*
X34983736Y4083625D01*
X34723394Y3944469D01*
X34495203Y3757197D01*
X34307931Y3529005D01*
X34290000Y3495459D01*
X34272069Y3529006D01*
X34084797Y3757197D01*
X33856605Y3944469D01*
X33596263Y4083625D01*
X33313776Y4169316D01*
X33020000Y4198251D01*
X32726223Y4169316D01*
X32443736Y4083625D01*
X32183394Y3944469D01*
X31955203Y3757197D01*
X31767931Y3529005D01*
X31750000Y3495459D01*
X31732069Y3529006D01*
X31544797Y3757197D01*
X31316605Y3944469D01*
X31056263Y4083625D01*
X30773776Y4169316D01*
X30480000Y4198251D01*
X30186223Y4169316D01*
X29903736Y4083625D01*
X29643394Y3944469D01*
X29415203Y3757197D01*
X29227931Y3529005D01*
X29210000Y3495459D01*
X29192069Y3529006D01*
X29004797Y3757197D01*
X28776605Y3944469D01*
X28516263Y4083625D01*
X28233776Y4169316D01*
X27940000Y4198251D01*
X27646223Y4169316D01*
X27363736Y4083625D01*
X27103394Y3944469D01*
X26875203Y3757197D01*
X26687931Y3529005D01*
X26548775Y3268663D01*
X26463084Y2986176D01*
X26441400Y2766018D01*
X26441400Y2313981D01*
X26463084Y2093823D01*
X26548775Y1811336D01*
X26687931Y1550994D01*
X26814311Y1397000D01*
X16383293Y1397000D01*
X16534508Y1762065D01*
X16637000Y2277323D01*
X16637000Y2802677D01*
X16534508Y3317935D01*
X16333464Y3803298D01*
X16041594Y4240113D01*
X15670113Y4611594D01*
X15233298Y4903464D01*
X14747935Y5104508D01*
X14232677Y5207000D01*
X13707323Y5207000D01*
X13192065Y5104508D01*
X12706702Y4903464D01*
X12269887Y4611594D01*
X11898406Y4240113D01*
X11606536Y3803298D01*
X11405492Y3317935D01*
X11303000Y2802677D01*
X11303000Y2277323D01*
X11405492Y1762065D01*
X11556707Y1397000D01*
X1397000Y1397000D01*
X1397000Y9846931D01*
X1484866Y9739866D01*
X1710986Y9554294D01*
X1968966Y9416401D01*
X2248889Y9331487D01*
X2467050Y9310000D01*
X2612950Y9310000D01*
X2831111Y9331487D01*
X3111034Y9416401D01*
X3369014Y9554294D01*
X3595134Y9739866D01*
X3619607Y9769687D01*
X3640498Y9700820D01*
X3699463Y9590506D01*
X3778815Y9493815D01*
X3875506Y9414463D01*
X3985820Y9355498D01*
X4105518Y9319188D01*
X4230000Y9306928D01*
X5930000Y9306928D01*
X6054482Y9319188D01*
X6174180Y9355498D01*
X6284494Y9414463D01*
X6381185Y9493815D01*
X6460537Y9590506D01*
X6519502Y9700820D01*
X6555812Y9820518D01*
X6568072Y9945000D01*
X6568072Y11645000D01*
X6555812Y11769482D01*
X6519502Y11889180D01*
X6460537Y11999494D01*
X6381185Y12096185D01*
X6284494Y12175537D01*
X6174180Y12234502D01*
X6105313Y12255393D01*
X6135134Y12279866D01*
X6320706Y12505986D01*
X6458599Y12763966D01*
X6543513Y13043889D01*
X6572185Y13335000D01*
X6543513Y13626111D01*
X6458599Y13906034D01*
X6320706Y14164014D01*
X6135134Y14390134D01*
X5915000Y14570793D01*
X5915000Y14639207D01*
X6135134Y14819866D01*
X6315793Y15040000D01*
X8751532Y15040000D01*
X8890013Y14832748D01*
X9117748Y14605013D01*
X9385537Y14426082D01*
X9683088Y14302832D01*
X9998967Y14240000D01*
X10321033Y14240000D01*
X10636912Y14302832D01*
X10934463Y14426082D01*
X11202252Y14605013D01*
X11429987Y14832748D01*
X11608918Y15100537D01*
X11732168Y15398088D01*
X11795000Y15713967D01*
X11795000Y16036033D01*
X13525000Y16036033D01*
X13525000Y15713967D01*
X13587832Y15398088D01*
X13711082Y15100537D01*
X13890013Y14832748D01*
X14117748Y14605013D01*
X14385537Y14426082D01*
X14683088Y14302832D01*
X14998967Y14240000D01*
X15321033Y14240000D01*
X15636912Y14302832D01*
X15883567Y14405000D01*
X39291666Y14405000D01*
X39408850Y14229621D01*
X39629621Y14008850D01*
X39687764Y13970000D01*
X39629621Y13931150D01*
X39408850Y13710379D01*
X39235391Y13450779D01*
X39115911Y13162327D01*
X39055000Y12856109D01*
X39055000Y12543891D01*
X39115911Y12237673D01*
X39235391Y11949221D01*
X39408850Y11689621D01*
X39629621Y11468850D01*
X39687764Y11430000D01*
X39629621Y11391150D01*
X39408850Y11170379D01*
X39235391Y10910779D01*
X39115911Y10622327D01*
X39055000Y10316109D01*
X39055000Y10003891D01*
X39115911Y9697673D01*
X39235391Y9409221D01*
X39408850Y9149621D01*
X39629621Y8928850D01*
X39889221Y8755391D01*
X40177673Y8635911D01*
X40483891Y8575000D01*
X40796109Y8575000D01*
X41102327Y8635911D01*
X41390779Y8755391D01*
X41650379Y8928850D01*
X41871150Y9149621D01*
X42044609Y9409221D01*
X42051145Y9425000D01*
X62193895Y9425000D01*
X62230000Y9421444D01*
X62266105Y9425000D01*
X62374085Y9435635D01*
X62512633Y9477663D01*
X62640320Y9545913D01*
X62752238Y9637762D01*
X62775259Y9665813D01*
X65856710Y12747263D01*
X65918363Y12735000D01*
X66161637Y12735000D01*
X66400236Y12782460D01*
X66624992Y12875557D01*
X66827267Y13010713D01*
X66936790Y13120236D01*
X67909841Y13120236D01*
X67957148Y12896652D01*
X68178516Y12795763D01*
X68415313Y12740000D01*
X68658438Y12731505D01*
X68898549Y12770605D01*
X69126418Y12855798D01*
X69202852Y12896652D01*
X69250159Y13120236D01*
X68580000Y13790395D01*
X67909841Y13120236D01*
X66936790Y13120236D01*
X66999287Y13182733D01*
X67134443Y13385008D01*
X67227540Y13609764D01*
X67275000Y13848363D01*
X67275000Y13891562D01*
X67341505Y13891562D01*
X67380605Y13651451D01*
X67465798Y13423582D01*
X67506652Y13347148D01*
X67730236Y13299841D01*
X68400395Y13970000D01*
X68759605Y13970000D01*
X69429764Y13299841D01*
X69653348Y13347148D01*
X69754237Y13568516D01*
X69810000Y13805313D01*
X69818495Y14048438D01*
X69779395Y14288549D01*
X69694202Y14516418D01*
X69653348Y14592852D01*
X69429764Y14640159D01*
X68759605Y13970000D01*
X68400395Y13970000D01*
X67730236Y14640159D01*
X67506652Y14592852D01*
X67405763Y14371484D01*
X67350000Y14134687D01*
X67341505Y13891562D01*
X67275000Y13891562D01*
X67275000Y14091637D01*
X67227540Y14330236D01*
X67134443Y14554992D01*
X66999287Y14757267D01*
X66936790Y14819764D01*
X67909841Y14819764D01*
X68580000Y14149605D01*
X69250159Y14819764D01*
X69202852Y15043348D01*
X68981484Y15144237D01*
X68744687Y15200000D01*
X68501562Y15208495D01*
X68261451Y15169395D01*
X68033582Y15084202D01*
X67957148Y15043348D01*
X67909841Y14819764D01*
X66936790Y14819764D01*
X66827267Y14929287D01*
X66624992Y15064443D01*
X66400236Y15157540D01*
X66161637Y15205000D01*
X65918363Y15205000D01*
X65874999Y15196374D01*
X65874999Y17845553D01*
X68396710Y20367263D01*
X68458363Y20355000D01*
X68701637Y20355000D01*
X68940236Y20402460D01*
X69164992Y20495557D01*
X69367267Y20630713D01*
X69539287Y20802733D01*
X69674443Y21005008D01*
X69767540Y21229764D01*
X69815000Y21468363D01*
X69815000Y21711637D01*
X69767540Y21950236D01*
X69695150Y22125000D01*
X72085554Y22125000D01*
X77307432Y16903121D01*
X77276487Y16801111D01*
X77247815Y16510000D01*
X77276487Y16218889D01*
X77361401Y15938966D01*
X77499294Y15680986D01*
X77684866Y15454866D01*
X77910986Y15269294D01*
X78168966Y15131401D01*
X78448889Y15046487D01*
X78667050Y15025000D01*
X78812950Y15025000D01*
X79031111Y15046487D01*
X79311034Y15131401D01*
X79569014Y15269294D01*
X79795134Y15454866D01*
X79980706Y15680986D01*
X80118599Y15938966D01*
X80203513Y16218889D01*
X80232185Y16510000D01*
X80203513Y16801111D01*
X80118599Y17081034D01*
X79980706Y17339014D01*
X79795134Y17565134D01*
X79765313Y17589607D01*
X79834180Y17610498D01*
X79944494Y17669463D01*
X80041185Y17748815D01*
X80120537Y17845506D01*
X80179502Y17955820D01*
X80215812Y18075518D01*
X80228072Y18200000D01*
X80228072Y19900000D01*
X80215812Y20024482D01*
X80179502Y20144180D01*
X80120537Y20254494D01*
X80041185Y20351185D01*
X79944494Y20430537D01*
X79834180Y20489502D01*
X79714482Y20525812D01*
X79590000Y20538072D01*
X78291375Y20538072D01*
X74205259Y24624187D01*
X74182238Y24652238D01*
X74070320Y24744087D01*
X73942633Y24812337D01*
X73804085Y24854365D01*
X73696105Y24865000D01*
X73660000Y24868556D01*
X73623895Y24865000D01*
X58456094Y24865000D01*
X58419999Y24868555D01*
X58383904Y24865000D01*
X58383895Y24865000D01*
X58275915Y24854365D01*
X58137367Y24812337D01*
X58009680Y24744087D01*
X57897762Y24652238D01*
X57874746Y24624193D01*
X56063290Y22812736D01*
X56001637Y22825000D01*
X55758363Y22825000D01*
X55519764Y22777540D01*
X55295008Y22684443D01*
X55092733Y22549287D01*
X54920713Y22377267D01*
X54785557Y22174992D01*
X54692460Y21950236D01*
X54645000Y21711637D01*
X54645000Y21468363D01*
X54692460Y21229764D01*
X54785557Y21005008D01*
X54920713Y20802733D01*
X55092733Y20630713D01*
X55295008Y20495557D01*
X55519764Y20402460D01*
X55758363Y20355000D01*
X56001637Y20355000D01*
X56240236Y20402460D01*
X56464992Y20495557D01*
X56667267Y20630713D01*
X56839287Y20802733D01*
X56974443Y21005008D01*
X57067540Y21229764D01*
X57115000Y21468363D01*
X57115000Y21711637D01*
X57102736Y21773290D01*
X57220735Y21891288D01*
X57185000Y21711637D01*
X57185000Y21468363D01*
X57232460Y21229764D01*
X57325557Y21005008D01*
X57460713Y20802733D01*
X57632733Y20630713D01*
X57835008Y20495557D01*
X58059764Y20402460D01*
X58298363Y20355000D01*
X58541637Y20355000D01*
X58780236Y20402460D01*
X59004992Y20495557D01*
X59207267Y20630713D01*
X59379287Y20802733D01*
X59514443Y21005008D01*
X59607540Y21229764D01*
X59655000Y21468363D01*
X59655000Y21711637D01*
X59607540Y21950236D01*
X59514443Y22174992D01*
X59379287Y22377267D01*
X59207267Y22549287D01*
X59004992Y22684443D01*
X58780236Y22777540D01*
X58541637Y22825000D01*
X58298363Y22825000D01*
X58118712Y22789265D01*
X58724447Y23395000D01*
X62933551Y23395000D01*
X61917553Y22379001D01*
X61747267Y22549287D01*
X61544992Y22684443D01*
X61320236Y22777540D01*
X61081637Y22825000D01*
X60838363Y22825000D01*
X60599764Y22777540D01*
X60375008Y22684443D01*
X60172733Y22549287D01*
X60000713Y22377267D01*
X59865557Y22174992D01*
X59772460Y21950236D01*
X59725000Y21711637D01*
X59725000Y21468363D01*
X59772460Y21229764D01*
X59865557Y21005008D01*
X60000713Y20802733D01*
X60172733Y20630713D01*
X60375008Y20495557D01*
X60599764Y20402460D01*
X60838363Y20355000D01*
X61081637Y20355000D01*
X61320236Y20402460D01*
X61495000Y20474850D01*
X61495001Y15544448D01*
X61143290Y15192737D01*
X61081637Y15205000D01*
X60838363Y15205000D01*
X60599764Y15157540D01*
X60375008Y15064443D01*
X60172733Y14929287D01*
X60000713Y14757267D01*
X59865557Y14554992D01*
X59772460Y14330236D01*
X59725000Y14091637D01*
X59725000Y13848363D01*
X59772460Y13609764D01*
X59844850Y13435000D01*
X59535150Y13435000D01*
X59607540Y13609764D01*
X59655000Y13848363D01*
X59655000Y14091637D01*
X59607540Y14330236D01*
X59514443Y14554992D01*
X59379287Y14757267D01*
X59207267Y14929287D01*
X59004992Y15064443D01*
X58780236Y15157540D01*
X58541637Y15205000D01*
X58298363Y15205000D01*
X58059764Y15157540D01*
X57835008Y15064443D01*
X57632733Y14929287D01*
X57460713Y14757267D01*
X57325557Y14554992D01*
X57232460Y14330236D01*
X57185000Y14091637D01*
X57185000Y13848363D01*
X57232460Y13609764D01*
X57304850Y13435000D01*
X56995150Y13435000D01*
X57067540Y13609764D01*
X57115000Y13848363D01*
X57115000Y14091637D01*
X57067540Y14330236D01*
X56974443Y14554992D01*
X56839287Y14757267D01*
X56667267Y14929287D01*
X56464992Y15064443D01*
X56240236Y15157540D01*
X56001637Y15205000D01*
X55758363Y15205000D01*
X55519764Y15157540D01*
X55295008Y15064443D01*
X55092733Y14929287D01*
X54920713Y14757267D01*
X54785557Y14554992D01*
X54692460Y14330236D01*
X54645000Y14091637D01*
X54645000Y13848363D01*
X54692460Y13609764D01*
X54764850Y13435000D01*
X54453387Y13435000D01*
X54514237Y13568516D01*
X54570000Y13805313D01*
X54578495Y14048438D01*
X54539395Y14288549D01*
X54454202Y14516418D01*
X54413348Y14592852D01*
X54189764Y14640159D01*
X53519605Y13970000D01*
X53533748Y13955857D01*
X53354143Y13776252D01*
X53340000Y13790395D01*
X53325858Y13776252D01*
X53146253Y13955857D01*
X53160395Y13970000D01*
X52490236Y14640159D01*
X52266652Y14592852D01*
X52165763Y14371484D01*
X52110000Y14134687D01*
X52101505Y13891562D01*
X52140605Y13651451D01*
X52221529Y13435000D01*
X52037437Y13435000D01*
X52035000Y13684250D01*
X51876250Y13843000D01*
X50927000Y13843000D01*
X50927000Y13823000D01*
X50673000Y13823000D01*
X50673000Y13843000D01*
X49723750Y13843000D01*
X49565000Y13684250D01*
X49562563Y13435000D01*
X42051145Y13435000D01*
X42044609Y13450779D01*
X41871150Y13710379D01*
X41650379Y13931150D01*
X41592236Y13970000D01*
X41650379Y14008850D01*
X41871150Y14229621D01*
X42044609Y14489221D01*
X42078068Y14570000D01*
X49561928Y14570000D01*
X49565000Y14255750D01*
X49723750Y14097000D01*
X50673000Y14097000D01*
X50673000Y15046250D01*
X50927000Y15046250D01*
X50927000Y14097000D01*
X51876250Y14097000D01*
X52035000Y14255750D01*
X52038072Y14570000D01*
X52025812Y14694482D01*
X51989502Y14814180D01*
X51986518Y14819764D01*
X52669841Y14819764D01*
X53340000Y14149605D01*
X54010159Y14819764D01*
X53962852Y15043348D01*
X53741484Y15144237D01*
X53504687Y15200000D01*
X53261562Y15208495D01*
X53021451Y15169395D01*
X52793582Y15084202D01*
X52717148Y15043348D01*
X52669841Y14819764D01*
X51986518Y14819764D01*
X51930537Y14924494D01*
X51851185Y15021185D01*
X51754494Y15100537D01*
X51644180Y15159502D01*
X51524482Y15195812D01*
X51400000Y15208072D01*
X51085750Y15205000D01*
X50927000Y15046250D01*
X50673000Y15046250D01*
X50514250Y15205000D01*
X50200000Y15208072D01*
X50075518Y15195812D01*
X49955820Y15159502D01*
X49845506Y15100537D01*
X49748815Y15021185D01*
X49669463Y14924494D01*
X49610498Y14814180D01*
X49574188Y14694482D01*
X49561928Y14570000D01*
X42078068Y14570000D01*
X42164089Y14777673D01*
X42225000Y15083891D01*
X42225000Y15396109D01*
X42164089Y15702327D01*
X42044609Y15990779D01*
X41871150Y16250379D01*
X41650379Y16471150D01*
X41518324Y16559387D01*
X41560147Y16680248D01*
X40640000Y17600395D01*
X39719853Y16680248D01*
X39761676Y16559387D01*
X39629621Y16471150D01*
X39408850Y16250379D01*
X39291666Y16075000D01*
X16787249Y16075000D01*
X16732168Y16351912D01*
X16608918Y16649463D01*
X16429987Y16917252D01*
X16202252Y17144987D01*
X15934463Y17323918D01*
X15636912Y17447168D01*
X15321033Y17510000D01*
X14998967Y17510000D01*
X14683088Y17447168D01*
X14385537Y17323918D01*
X14117748Y17144987D01*
X13890013Y16917252D01*
X13711082Y16649463D01*
X13587832Y16351912D01*
X13525000Y16036033D01*
X11795000Y16036033D01*
X11732168Y16351912D01*
X11608918Y16649463D01*
X11429987Y16917252D01*
X11202252Y17144987D01*
X10934463Y17323918D01*
X10636912Y17447168D01*
X10321033Y17510000D01*
X9998967Y17510000D01*
X9683088Y17447168D01*
X9385537Y17323918D01*
X9117748Y17144987D01*
X8890013Y16917252D01*
X8751532Y16710000D01*
X6315793Y16710000D01*
X6135134Y16930134D01*
X5909014Y17115706D01*
X5651034Y17253599D01*
X5371111Y17338513D01*
X5201123Y17355255D01*
X5561295Y17715427D01*
X39048641Y17715427D01*
X39091816Y17406209D01*
X39194487Y17111356D01*
X39280958Y16949579D01*
X39540248Y16859853D01*
X40460395Y17780000D01*
X40819605Y17780000D01*
X41739752Y16859853D01*
X41999042Y16949579D01*
X42134935Y17230671D01*
X42213379Y17532873D01*
X42231359Y17844573D01*
X42188184Y18153791D01*
X42085513Y18448644D01*
X41999042Y18610421D01*
X41739752Y18700147D01*
X40819605Y17780000D01*
X40460395Y17780000D01*
X39540248Y18700147D01*
X39280958Y18610421D01*
X39145065Y18329329D01*
X39066621Y18027127D01*
X39048641Y17715427D01*
X5561295Y17715427D01*
X7330868Y19485000D01*
X39291666Y19485000D01*
X39408850Y19309621D01*
X39629621Y19088850D01*
X39761676Y19000613D01*
X39719853Y18879752D01*
X40640000Y17959605D01*
X41560147Y18879752D01*
X41518324Y19000613D01*
X41650379Y19088850D01*
X41871150Y19309621D01*
X42044609Y19569221D01*
X42164089Y19857673D01*
X42225000Y20163891D01*
X42225000Y20476109D01*
X42164089Y20782327D01*
X42044609Y21070779D01*
X41871150Y21330379D01*
X41650379Y21551150D01*
X41592236Y21590000D01*
X41650379Y21628850D01*
X41733166Y21711637D01*
X49565000Y21711637D01*
X49565000Y21468363D01*
X49612460Y21229764D01*
X49705557Y21005008D01*
X49840713Y20802733D01*
X50012733Y20630713D01*
X50215008Y20495557D01*
X50439764Y20402460D01*
X50678363Y20355000D01*
X50921637Y20355000D01*
X51160236Y20402460D01*
X51384992Y20495557D01*
X51587267Y20630713D01*
X51696790Y20740236D01*
X52669841Y20740236D01*
X52717148Y20516652D01*
X52938516Y20415763D01*
X53175313Y20360000D01*
X53418438Y20351505D01*
X53658549Y20390605D01*
X53886418Y20475798D01*
X53962852Y20516652D01*
X54010159Y20740236D01*
X53340000Y21410395D01*
X52669841Y20740236D01*
X51696790Y20740236D01*
X51759287Y20802733D01*
X51894443Y21005008D01*
X51987540Y21229764D01*
X52035000Y21468363D01*
X52035000Y21511562D01*
X52101505Y21511562D01*
X52140605Y21271451D01*
X52225798Y21043582D01*
X52266652Y20967148D01*
X52490236Y20919841D01*
X53160395Y21590000D01*
X53519605Y21590000D01*
X54189764Y20919841D01*
X54413348Y20967148D01*
X54514237Y21188516D01*
X54570000Y21425313D01*
X54578495Y21668438D01*
X54539395Y21908549D01*
X54454202Y22136418D01*
X54413348Y22212852D01*
X54189764Y22260159D01*
X53519605Y21590000D01*
X53160395Y21590000D01*
X52490236Y22260159D01*
X52266652Y22212852D01*
X52165763Y21991484D01*
X52110000Y21754687D01*
X52101505Y21511562D01*
X52035000Y21511562D01*
X52035000Y21711637D01*
X51987540Y21950236D01*
X51894443Y22174992D01*
X51759287Y22377267D01*
X51696790Y22439764D01*
X52669841Y22439764D01*
X53340000Y21769605D01*
X54010159Y22439764D01*
X53962852Y22663348D01*
X53741484Y22764237D01*
X53504687Y22820000D01*
X53261562Y22828495D01*
X53021451Y22789395D01*
X52793582Y22704202D01*
X52717148Y22663348D01*
X52669841Y22439764D01*
X51696790Y22439764D01*
X51587267Y22549287D01*
X51384992Y22684443D01*
X51160236Y22777540D01*
X50921637Y22825000D01*
X50678363Y22825000D01*
X50439764Y22777540D01*
X50215008Y22684443D01*
X50012733Y22549287D01*
X49840713Y22377267D01*
X49705557Y22174992D01*
X49612460Y21950236D01*
X49565000Y21711637D01*
X41733166Y21711637D01*
X41871150Y21849621D01*
X42044609Y22109221D01*
X42164089Y22397673D01*
X42225000Y22703891D01*
X42225000Y23016109D01*
X42164089Y23322327D01*
X42044609Y23610779D01*
X41871150Y23870379D01*
X41650379Y24091150D01*
X41592236Y24130000D01*
X41650379Y24168850D01*
X41871150Y24389621D01*
X42044609Y24649221D01*
X42164089Y24937673D01*
X42225000Y25243891D01*
X42225000Y25556109D01*
X42164089Y25862327D01*
X42044609Y26150779D01*
X41871150Y26410379D01*
X41650379Y26631150D01*
X41592236Y26670000D01*
X41650379Y26708850D01*
X41871150Y26929621D01*
X42044609Y27189221D01*
X42051145Y27205000D01*
X62193895Y27205000D01*
X62230000Y27201444D01*
X62266105Y27205000D01*
X62374085Y27215635D01*
X62512633Y27257663D01*
X62640320Y27325913D01*
X62752238Y27417762D01*
X62775259Y27445813D01*
X65856710Y30527263D01*
X65918363Y30515000D01*
X66161637Y30515000D01*
X66400236Y30562460D01*
X66624992Y30655557D01*
X66827267Y30790713D01*
X66936790Y30900236D01*
X67909841Y30900236D01*
X67957148Y30676652D01*
X68178516Y30575763D01*
X68415313Y30520000D01*
X68658438Y30511505D01*
X68898549Y30550605D01*
X69126418Y30635798D01*
X69202852Y30676652D01*
X69250159Y30900236D01*
X68580000Y31570395D01*
X67909841Y30900236D01*
X66936790Y30900236D01*
X66999287Y30962733D01*
X67134443Y31165008D01*
X67227540Y31389764D01*
X67275000Y31628363D01*
X67275000Y31671562D01*
X67341505Y31671562D01*
X67380605Y31431451D01*
X67465798Y31203582D01*
X67506652Y31127148D01*
X67730236Y31079841D01*
X68400395Y31750000D01*
X68759605Y31750000D01*
X69429764Y31079841D01*
X69653348Y31127148D01*
X69754237Y31348516D01*
X69810000Y31585313D01*
X69818495Y31828438D01*
X69779395Y32068549D01*
X69694202Y32296418D01*
X69653348Y32372852D01*
X69429764Y32420159D01*
X68759605Y31750000D01*
X68400395Y31750000D01*
X67730236Y32420159D01*
X67506652Y32372852D01*
X67405763Y32151484D01*
X67350000Y31914687D01*
X67341505Y31671562D01*
X67275000Y31671562D01*
X67275000Y31871637D01*
X67227540Y32110236D01*
X67134443Y32334992D01*
X66999287Y32537267D01*
X66936790Y32599764D01*
X67909841Y32599764D01*
X68580000Y31929605D01*
X69250159Y32599764D01*
X69202852Y32823348D01*
X68981484Y32924237D01*
X68744687Y32980000D01*
X68501562Y32988495D01*
X68261451Y32949395D01*
X68033582Y32864202D01*
X67957148Y32823348D01*
X67909841Y32599764D01*
X66936790Y32599764D01*
X66827267Y32709287D01*
X66624992Y32844443D01*
X66400236Y32937540D01*
X66161637Y32985000D01*
X65918363Y32985000D01*
X65874999Y32976374D01*
X65874999Y35625553D01*
X68396710Y38147263D01*
X68458363Y38135000D01*
X68701637Y38135000D01*
X68940236Y38182460D01*
X69164992Y38275557D01*
X69367267Y38410713D01*
X69539287Y38582733D01*
X69674443Y38785008D01*
X69767540Y39009764D01*
X69815000Y39248363D01*
X69815000Y39491637D01*
X69767540Y39730236D01*
X69695150Y39905000D01*
X72085554Y39905000D01*
X77307432Y34683121D01*
X77276487Y34581111D01*
X77247815Y34290000D01*
X77276487Y33998889D01*
X77361401Y33718966D01*
X77499294Y33460986D01*
X77684866Y33234866D01*
X77910986Y33049294D01*
X78168966Y32911401D01*
X78448889Y32826487D01*
X78667050Y32805000D01*
X78812950Y32805000D01*
X79031111Y32826487D01*
X79311034Y32911401D01*
X79569014Y33049294D01*
X79795134Y33234866D01*
X79980706Y33460986D01*
X80118599Y33718966D01*
X80203513Y33998889D01*
X80232185Y34290000D01*
X80203513Y34581111D01*
X80118599Y34861034D01*
X79980706Y35119014D01*
X79795134Y35345134D01*
X79765313Y35369607D01*
X79834180Y35390498D01*
X79944494Y35449463D01*
X80041185Y35528815D01*
X80120537Y35625506D01*
X80179502Y35735820D01*
X80215812Y35855518D01*
X80228072Y35980000D01*
X80228072Y37680000D01*
X80215812Y37804482D01*
X80179502Y37924180D01*
X80120537Y38034494D01*
X80041185Y38131185D01*
X79944494Y38210537D01*
X79834180Y38269502D01*
X79714482Y38305812D01*
X79590000Y38318072D01*
X78291375Y38318072D01*
X74205259Y42404187D01*
X74182238Y42432238D01*
X74070320Y42524087D01*
X73942633Y42592337D01*
X73804085Y42634365D01*
X73696105Y42645000D01*
X73660000Y42648556D01*
X73623895Y42645000D01*
X58456094Y42645000D01*
X58419999Y42648555D01*
X58383904Y42645000D01*
X58383895Y42645000D01*
X58275915Y42634365D01*
X58137367Y42592337D01*
X58009680Y42524087D01*
X57897762Y42432238D01*
X57874746Y42404193D01*
X56063290Y40592736D01*
X56001637Y40605000D01*
X55758363Y40605000D01*
X55519764Y40557540D01*
X55295008Y40464443D01*
X55092733Y40329287D01*
X54920713Y40157267D01*
X54785557Y39954992D01*
X54692460Y39730236D01*
X54645000Y39491637D01*
X54645000Y39248363D01*
X54692460Y39009764D01*
X54785557Y38785008D01*
X54920713Y38582733D01*
X55092733Y38410713D01*
X55295008Y38275557D01*
X55519764Y38182460D01*
X55758363Y38135000D01*
X56001637Y38135000D01*
X56240236Y38182460D01*
X56464992Y38275557D01*
X56667267Y38410713D01*
X56839287Y38582733D01*
X56974443Y38785008D01*
X57067540Y39009764D01*
X57115000Y39248363D01*
X57115000Y39491637D01*
X57102736Y39553290D01*
X57220735Y39671288D01*
X57185000Y39491637D01*
X57185000Y39248363D01*
X57232460Y39009764D01*
X57325557Y38785008D01*
X57460713Y38582733D01*
X57632733Y38410713D01*
X57835008Y38275557D01*
X58059764Y38182460D01*
X58298363Y38135000D01*
X58541637Y38135000D01*
X58780236Y38182460D01*
X59004992Y38275557D01*
X59207267Y38410713D01*
X59379287Y38582733D01*
X59514443Y38785008D01*
X59607540Y39009764D01*
X59655000Y39248363D01*
X59655000Y39491637D01*
X59607540Y39730236D01*
X59514443Y39954992D01*
X59379287Y40157267D01*
X59207267Y40329287D01*
X59004992Y40464443D01*
X58780236Y40557540D01*
X58541637Y40605000D01*
X58298363Y40605000D01*
X58118712Y40569265D01*
X58724447Y41175000D01*
X62933551Y41175000D01*
X61917553Y40159001D01*
X61747267Y40329287D01*
X61544992Y40464443D01*
X61320236Y40557540D01*
X61081637Y40605000D01*
X60838363Y40605000D01*
X60599764Y40557540D01*
X60375008Y40464443D01*
X60172733Y40329287D01*
X60000713Y40157267D01*
X59865557Y39954992D01*
X59772460Y39730236D01*
X59725000Y39491637D01*
X59725000Y39248363D01*
X59772460Y39009764D01*
X59865557Y38785008D01*
X60000713Y38582733D01*
X60172733Y38410713D01*
X60375008Y38275557D01*
X60599764Y38182460D01*
X60838363Y38135000D01*
X61081637Y38135000D01*
X61320236Y38182460D01*
X61495000Y38254850D01*
X61495001Y33324448D01*
X61143290Y32972737D01*
X61081637Y32985000D01*
X60838363Y32985000D01*
X60599764Y32937540D01*
X60375008Y32844443D01*
X60172733Y32709287D01*
X60000713Y32537267D01*
X59865557Y32334992D01*
X59772460Y32110236D01*
X59725000Y31871637D01*
X59725000Y31628363D01*
X59772460Y31389764D01*
X59844850Y31215000D01*
X59535150Y31215000D01*
X59607540Y31389764D01*
X59655000Y31628363D01*
X59655000Y31871637D01*
X59607540Y32110236D01*
X59514443Y32334992D01*
X59379287Y32537267D01*
X59207267Y32709287D01*
X59004992Y32844443D01*
X58780236Y32937540D01*
X58541637Y32985000D01*
X58298363Y32985000D01*
X58059764Y32937540D01*
X57835008Y32844443D01*
X57632733Y32709287D01*
X57460713Y32537267D01*
X57325557Y32334992D01*
X57232460Y32110236D01*
X57185000Y31871637D01*
X57185000Y31628363D01*
X57232460Y31389764D01*
X57304850Y31215000D01*
X56995150Y31215000D01*
X57067540Y31389764D01*
X57115000Y31628363D01*
X57115000Y31871637D01*
X57067540Y32110236D01*
X56974443Y32334992D01*
X56839287Y32537267D01*
X56667267Y32709287D01*
X56464992Y32844443D01*
X56240236Y32937540D01*
X56001637Y32985000D01*
X55758363Y32985000D01*
X55519764Y32937540D01*
X55295008Y32844443D01*
X55092733Y32709287D01*
X54920713Y32537267D01*
X54785557Y32334992D01*
X54692460Y32110236D01*
X54645000Y31871637D01*
X54645000Y31628363D01*
X54692460Y31389764D01*
X54764850Y31215000D01*
X54453387Y31215000D01*
X54514237Y31348516D01*
X54570000Y31585313D01*
X54578495Y31828438D01*
X54539395Y32068549D01*
X54454202Y32296418D01*
X54413348Y32372852D01*
X54189764Y32420159D01*
X53519605Y31750000D01*
X53533748Y31735857D01*
X53354143Y31556252D01*
X53340000Y31570395D01*
X53325858Y31556252D01*
X53146253Y31735857D01*
X53160395Y31750000D01*
X52490236Y32420159D01*
X52266652Y32372852D01*
X52165763Y32151484D01*
X52110000Y31914687D01*
X52101505Y31671562D01*
X52140605Y31431451D01*
X52221529Y31215000D01*
X52037437Y31215000D01*
X52035000Y31464250D01*
X51876250Y31623000D01*
X50927000Y31623000D01*
X50927000Y31603000D01*
X50673000Y31603000D01*
X50673000Y31623000D01*
X49723750Y31623000D01*
X49565000Y31464250D01*
X49562563Y31215000D01*
X42051145Y31215000D01*
X42044609Y31230779D01*
X41871150Y31490379D01*
X41650379Y31711150D01*
X41592236Y31750000D01*
X41650379Y31788850D01*
X41871150Y32009621D01*
X42044609Y32269221D01*
X42078068Y32350000D01*
X49561928Y32350000D01*
X49565000Y32035750D01*
X49723750Y31877000D01*
X50673000Y31877000D01*
X50673000Y32826250D01*
X50927000Y32826250D01*
X50927000Y31877000D01*
X51876250Y31877000D01*
X52035000Y32035750D01*
X52038072Y32350000D01*
X52025812Y32474482D01*
X51989502Y32594180D01*
X51986518Y32599764D01*
X52669841Y32599764D01*
X53340000Y31929605D01*
X54010159Y32599764D01*
X53962852Y32823348D01*
X53741484Y32924237D01*
X53504687Y32980000D01*
X53261562Y32988495D01*
X53021451Y32949395D01*
X52793582Y32864202D01*
X52717148Y32823348D01*
X52669841Y32599764D01*
X51986518Y32599764D01*
X51930537Y32704494D01*
X51851185Y32801185D01*
X51754494Y32880537D01*
X51644180Y32939502D01*
X51524482Y32975812D01*
X51400000Y32988072D01*
X51085750Y32985000D01*
X50927000Y32826250D01*
X50673000Y32826250D01*
X50514250Y32985000D01*
X50200000Y32988072D01*
X50075518Y32975812D01*
X49955820Y32939502D01*
X49845506Y32880537D01*
X49748815Y32801185D01*
X49669463Y32704494D01*
X49610498Y32594180D01*
X49574188Y32474482D01*
X49561928Y32350000D01*
X42078068Y32350000D01*
X42164089Y32557673D01*
X42225000Y32863891D01*
X42225000Y33176109D01*
X42164089Y33482327D01*
X42044609Y33770779D01*
X41871150Y34030379D01*
X41650379Y34251150D01*
X41518324Y34339387D01*
X41560147Y34460248D01*
X40640000Y35380395D01*
X40625858Y35366252D01*
X40446253Y35545857D01*
X40460395Y35560000D01*
X40819605Y35560000D01*
X41739752Y34639853D01*
X41999042Y34729579D01*
X42134935Y35010671D01*
X42213379Y35312873D01*
X42231359Y35624573D01*
X42188184Y35933791D01*
X42085513Y36228644D01*
X41999042Y36390421D01*
X41739752Y36480147D01*
X40819605Y35560000D01*
X40460395Y35560000D01*
X39540248Y36480147D01*
X39280958Y36390421D01*
X39145065Y36109329D01*
X39066621Y35807127D01*
X39064828Y35776040D01*
X31734446Y43106421D01*
X31708291Y43138291D01*
X31581146Y43242636D01*
X31436087Y43320172D01*
X31278689Y43367918D01*
X31156019Y43380000D01*
X31156018Y43380000D01*
X31115000Y43384040D01*
X31073982Y43380000D01*
X16568468Y43380000D01*
X16429987Y43587252D01*
X16402239Y43615000D01*
X33944133Y43615000D01*
X39096150Y38462982D01*
X39055000Y38256109D01*
X39055000Y37943891D01*
X39115911Y37637673D01*
X39235391Y37349221D01*
X39408850Y37089621D01*
X39629621Y36868850D01*
X39761676Y36780613D01*
X39719853Y36659752D01*
X40640000Y35739605D01*
X41560147Y36659752D01*
X41518324Y36780613D01*
X41650379Y36868850D01*
X41871150Y37089621D01*
X42044609Y37349221D01*
X42164089Y37637673D01*
X42225000Y37943891D01*
X42225000Y38256109D01*
X42164089Y38562327D01*
X42044609Y38850779D01*
X41871150Y39110379D01*
X41650379Y39331150D01*
X41592236Y39370000D01*
X41650379Y39408850D01*
X41733166Y39491637D01*
X49565000Y39491637D01*
X49565000Y39248363D01*
X49612460Y39009764D01*
X49705557Y38785008D01*
X49840713Y38582733D01*
X50012733Y38410713D01*
X50215008Y38275557D01*
X50439764Y38182460D01*
X50678363Y38135000D01*
X50921637Y38135000D01*
X51160236Y38182460D01*
X51384992Y38275557D01*
X51587267Y38410713D01*
X51696790Y38520236D01*
X52669841Y38520236D01*
X52717148Y38296652D01*
X52938516Y38195763D01*
X53175313Y38140000D01*
X53418438Y38131505D01*
X53658549Y38170605D01*
X53886418Y38255798D01*
X53962852Y38296652D01*
X54010159Y38520236D01*
X53340000Y39190395D01*
X52669841Y38520236D01*
X51696790Y38520236D01*
X51759287Y38582733D01*
X51894443Y38785008D01*
X51987540Y39009764D01*
X52035000Y39248363D01*
X52035000Y39291562D01*
X52101505Y39291562D01*
X52140605Y39051451D01*
X52225798Y38823582D01*
X52266652Y38747148D01*
X52490236Y38699841D01*
X53160395Y39370000D01*
X53519605Y39370000D01*
X54189764Y38699841D01*
X54413348Y38747148D01*
X54514237Y38968516D01*
X54570000Y39205313D01*
X54578495Y39448438D01*
X54539395Y39688549D01*
X54454202Y39916418D01*
X54413348Y39992852D01*
X54189764Y40040159D01*
X53519605Y39370000D01*
X53160395Y39370000D01*
X52490236Y40040159D01*
X52266652Y39992852D01*
X52165763Y39771484D01*
X52110000Y39534687D01*
X52101505Y39291562D01*
X52035000Y39291562D01*
X52035000Y39491637D01*
X51987540Y39730236D01*
X51894443Y39954992D01*
X51759287Y40157267D01*
X51696790Y40219764D01*
X52669841Y40219764D01*
X53340000Y39549605D01*
X54010159Y40219764D01*
X53962852Y40443348D01*
X53741484Y40544237D01*
X53504687Y40600000D01*
X53261562Y40608495D01*
X53021451Y40569395D01*
X52793582Y40484202D01*
X52717148Y40443348D01*
X52669841Y40219764D01*
X51696790Y40219764D01*
X51587267Y40329287D01*
X51384992Y40464443D01*
X51160236Y40557540D01*
X50921637Y40605000D01*
X50678363Y40605000D01*
X50439764Y40557540D01*
X50215008Y40464443D01*
X50012733Y40329287D01*
X49840713Y40157267D01*
X49705557Y39954992D01*
X49612460Y39730236D01*
X49565000Y39491637D01*
X41733166Y39491637D01*
X41871150Y39629621D01*
X42044609Y39889221D01*
X42164089Y40177673D01*
X42225000Y40483891D01*
X42225000Y40796109D01*
X42164089Y41102327D01*
X42044609Y41390779D01*
X41871150Y41650379D01*
X41650379Y41871150D01*
X41592236Y41910000D01*
X41650379Y41948850D01*
X41871150Y42169621D01*
X42044609Y42429221D01*
X42164089Y42717673D01*
X42225000Y43023891D01*
X42225000Y43336109D01*
X42164089Y43642327D01*
X42044609Y43930779D01*
X41871150Y44190379D01*
X41650379Y44411150D01*
X41390779Y44584609D01*
X41102327Y44704089D01*
X40796109Y44765000D01*
X40483891Y44765000D01*
X40177673Y44704089D01*
X39889221Y44584609D01*
X39629621Y44411150D01*
X39408850Y44190379D01*
X39235391Y43930779D01*
X39115911Y43642327D01*
X39055000Y43336109D01*
X39055000Y43023891D01*
X39115911Y42717673D01*
X39235391Y42429221D01*
X39408850Y42169621D01*
X39629621Y41948850D01*
X39687764Y41910000D01*
X39629621Y41871150D01*
X39408850Y41650379D01*
X39235391Y41390779D01*
X39115911Y41102327D01*
X39066574Y40854294D01*
X34909446Y45011421D01*
X34883291Y45043291D01*
X34756146Y45147636D01*
X34611087Y45225172D01*
X34453689Y45272918D01*
X34331019Y45285000D01*
X34331018Y45285000D01*
X34290000Y45289040D01*
X34248982Y45285000D01*
X4486018Y45285000D01*
X4445000Y45289040D01*
X4403981Y45285000D01*
X4281311Y45272918D01*
X4123913Y45225172D01*
X3978854Y45147636D01*
X3851709Y45043291D01*
X3825563Y45011432D01*
X2823404Y44009272D01*
X2612950Y44030000D01*
X2467050Y44030000D01*
X2248889Y44008513D01*
X1968966Y43923599D01*
X1710986Y43785706D01*
X1484866Y43600134D01*
X1397000Y43493069D01*
X1397000Y51943000D01*
X12826707Y51943000D01*
X12675492Y51577935D01*
X12675492Y51577935D01*
G37*
X12675492Y51577935D02*
X12573000Y51062677D01*
X12573000Y50537323D01*
X12675492Y50022065D01*
X12876536Y49536702D01*
X13168406Y49099887D01*
X13539887Y48728406D01*
X13976702Y48436536D01*
X14462065Y48235492D01*
X14977323Y48133000D01*
X15502677Y48133000D01*
X16017935Y48235492D01*
X16503298Y48436536D01*
X16940113Y48728406D01*
X17311594Y49099887D01*
X17603464Y49536702D01*
X17659001Y49670781D01*
X17731203Y49582803D01*
X17959395Y49395531D01*
X18219737Y49256375D01*
X18502224Y49170684D01*
X18796000Y49141749D01*
X19089777Y49170684D01*
X19372264Y49256375D01*
X19632606Y49395531D01*
X19860797Y49582803D01*
X20048069Y49810994D01*
X20066000Y49844541D01*
X20083931Y49810994D01*
X20271203Y49582803D01*
X20499395Y49395531D01*
X20759737Y49256375D01*
X21042224Y49170684D01*
X21336000Y49141749D01*
X21629777Y49170684D01*
X21912264Y49256375D01*
X22172606Y49395531D01*
X22400797Y49582803D01*
X22588069Y49810994D01*
X22606000Y49844541D01*
X22623931Y49810994D01*
X22811203Y49582803D01*
X23039395Y49395531D01*
X23299737Y49256375D01*
X23582224Y49170684D01*
X23876000Y49141749D01*
X24169777Y49170684D01*
X24452264Y49256375D01*
X24712606Y49395531D01*
X24940797Y49582803D01*
X25128069Y49810994D01*
X25149424Y49850947D01*
X25297514Y49648271D01*
X25513965Y49449267D01*
X25765081Y49296314D01*
X26041211Y49195291D01*
X26056974Y49192642D01*
X26289000Y49313783D01*
X26289000Y50673000D01*
X26269000Y50673000D01*
X26269000Y50927000D01*
X26289000Y50927000D01*
X26289000Y50947000D01*
X26543000Y50947000D01*
X26543000Y50927000D01*
X26563000Y50927000D01*
X26563000Y50673000D01*
X26543000Y50673000D01*
X26543000Y49313783D01*
X26775026Y49192642D01*
X26790789Y49195291D01*
X27066919Y49296314D01*
X27318035Y49449267D01*
X27534486Y49648271D01*
X27682576Y49850947D01*
X27703931Y49810994D01*
X27891203Y49582803D01*
X28119395Y49395531D01*
X28221000Y49341222D01*
X28221000Y48478072D01*
X28106000Y48478072D01*
X27981518Y48465812D01*
X27861820Y48429502D01*
X27751506Y48370537D01*
X27654815Y48291185D01*
X27575463Y48194494D01*
X27516498Y48084180D01*
X27480188Y47964482D01*
X27467928Y47840000D01*
X27467928Y46140000D01*
X27480188Y46015518D01*
X27516498Y45895820D01*
X27575463Y45785506D01*
X27654815Y45688815D01*
X27751506Y45609463D01*
X27861820Y45550498D01*
X27981518Y45514188D01*
X28106000Y45501928D01*
X29806000Y45501928D01*
X29930482Y45514188D01*
X30050180Y45550498D01*
X30160494Y45609463D01*
X30257185Y45688815D01*
X30336537Y45785506D01*
X30395502Y45895820D01*
X30416393Y45964687D01*
X30440866Y45934866D01*
X30666986Y45749294D01*
X30924966Y45611401D01*
X31204889Y45526487D01*
X31423050Y45505000D01*
X31568950Y45505000D01*
X31787111Y45526487D01*
X32067034Y45611401D01*
X32325014Y45749294D01*
X32551134Y45934866D01*
X32736706Y46160986D01*
X32766000Y46215791D01*
X32795294Y46160986D01*
X32980866Y45934866D01*
X33206986Y45749294D01*
X33464966Y45611401D01*
X33744889Y45526487D01*
X33963050Y45505000D01*
X34108950Y45505000D01*
X34327111Y45526487D01*
X34607034Y45611401D01*
X34865014Y45749294D01*
X35091134Y45934866D01*
X35276706Y46160986D01*
X35306000Y46215791D01*
X35335294Y46160986D01*
X35520866Y45934866D01*
X35746986Y45749294D01*
X36004966Y45611401D01*
X36284889Y45526487D01*
X36503050Y45505000D01*
X36648950Y45505000D01*
X36867111Y45526487D01*
X37147034Y45611401D01*
X37405014Y45749294D01*
X37631134Y45934866D01*
X37816706Y46160986D01*
X37846000Y46215791D01*
X37875294Y46160986D01*
X38060866Y45934866D01*
X38286986Y45749294D01*
X38544966Y45611401D01*
X38824889Y45526487D01*
X39043050Y45505000D01*
X39188950Y45505000D01*
X39407111Y45526487D01*
X39687034Y45611401D01*
X39945014Y45749294D01*
X40171134Y45934866D01*
X40356706Y46160986D01*
X40386000Y46215791D01*
X40415294Y46160986D01*
X40600866Y45934866D01*
X40826986Y45749294D01*
X41084966Y45611401D01*
X41364889Y45526487D01*
X41583050Y45505000D01*
X41728950Y45505000D01*
X41947111Y45526487D01*
X42227034Y45611401D01*
X42485014Y45749294D01*
X42711134Y45934866D01*
X42896706Y46160986D01*
X43034599Y46418966D01*
X43119513Y46698889D01*
X43148185Y46990000D01*
X43119513Y47281111D01*
X43034599Y47561034D01*
X42896706Y47819014D01*
X42711134Y48045134D01*
X42485014Y48230706D01*
X42391000Y48280957D01*
X42391000Y49341221D01*
X42492606Y49395531D01*
X42720797Y49582803D01*
X42908069Y49810994D01*
X43047225Y50071337D01*
X43132916Y50353824D01*
X43154600Y50573982D01*
X43154600Y51026019D01*
X43132916Y51246177D01*
X43047225Y51528664D01*
X42908069Y51789006D01*
X42781689Y51943000D01*
X44594311Y51943000D01*
X44467931Y51789005D01*
X44328775Y51528663D01*
X44243084Y51246176D01*
X44221400Y51026018D01*
X44221400Y50573981D01*
X44243084Y50353823D01*
X44328775Y50071336D01*
X44467931Y49810994D01*
X44655203Y49582803D01*
X44883395Y49395531D01*
X44985000Y49341222D01*
X44985001Y48478072D01*
X44870000Y48478072D01*
X44745518Y48465812D01*
X44625820Y48429502D01*
X44515506Y48370537D01*
X44418815Y48291185D01*
X44339463Y48194494D01*
X44280498Y48084180D01*
X44244188Y47964482D01*
X44231928Y47840000D01*
X44231928Y46140000D01*
X44244188Y46015518D01*
X44280498Y45895820D01*
X44339463Y45785506D01*
X44418815Y45688815D01*
X44515506Y45609463D01*
X44625820Y45550498D01*
X44745518Y45514188D01*
X44870000Y45501928D01*
X46570000Y45501928D01*
X46694482Y45514188D01*
X46814180Y45550498D01*
X46924494Y45609463D01*
X47021185Y45688815D01*
X47100537Y45785506D01*
X47159502Y45895820D01*
X47180393Y45964687D01*
X47204866Y45934866D01*
X47430986Y45749294D01*
X47688966Y45611401D01*
X47968889Y45526487D01*
X48187050Y45505000D01*
X48332950Y45505000D01*
X48551111Y45526487D01*
X48831034Y45611401D01*
X49089014Y45749294D01*
X49315134Y45934866D01*
X49500706Y46160986D01*
X49530000Y46215791D01*
X49559294Y46160986D01*
X49744866Y45934866D01*
X49970986Y45749294D01*
X50228966Y45611401D01*
X50508889Y45526487D01*
X50727050Y45505000D01*
X50872950Y45505000D01*
X51091111Y45526487D01*
X51371034Y45611401D01*
X51629014Y45749294D01*
X51855134Y45934866D01*
X52040706Y46160986D01*
X52070000Y46215791D01*
X52099294Y46160986D01*
X52284866Y45934866D01*
X52510986Y45749294D01*
X52768966Y45611401D01*
X53048889Y45526487D01*
X53267050Y45505000D01*
X53412950Y45505000D01*
X53631111Y45526487D01*
X53911034Y45611401D01*
X54169014Y45749294D01*
X54395134Y45934866D01*
X54580706Y46160986D01*
X54610000Y46215791D01*
X54639294Y46160986D01*
X54824866Y45934866D01*
X55050986Y45749294D01*
X55308966Y45611401D01*
X55588889Y45526487D01*
X55807050Y45505000D01*
X55952950Y45505000D01*
X56171111Y45526487D01*
X56451034Y45611401D01*
X56709014Y45749294D01*
X56935134Y45934866D01*
X57120706Y46160986D01*
X57150000Y46215791D01*
X57179294Y46160986D01*
X57364866Y45934866D01*
X57590986Y45749294D01*
X57848966Y45611401D01*
X58128889Y45526487D01*
X58347050Y45505000D01*
X58492950Y45505000D01*
X58711111Y45526487D01*
X58991034Y45611401D01*
X59249014Y45749294D01*
X59475134Y45934866D01*
X59660706Y46160986D01*
X59798599Y46418966D01*
X59883513Y46698889D01*
X59912185Y46990000D01*
X59883513Y47281111D01*
X59798599Y47561034D01*
X59660706Y47819014D01*
X59475134Y48045134D01*
X59249014Y48230706D01*
X59155000Y48280957D01*
X59155000Y49341221D01*
X59256606Y49395531D01*
X59484797Y49582803D01*
X59672069Y49810994D01*
X59690000Y49844541D01*
X59707931Y49810994D01*
X59895203Y49582803D01*
X60123395Y49395531D01*
X60383737Y49256375D01*
X60666224Y49170684D01*
X60960000Y49141749D01*
X61253777Y49170684D01*
X61536264Y49256375D01*
X61796606Y49395531D01*
X62024797Y49582803D01*
X62212069Y49810994D01*
X62230000Y49844541D01*
X62247931Y49810994D01*
X62435203Y49582803D01*
X62663395Y49395531D01*
X62923737Y49256375D01*
X63206224Y49170684D01*
X63500000Y49141749D01*
X63793777Y49170684D01*
X64076264Y49256375D01*
X64336606Y49395531D01*
X64564797Y49582803D01*
X64752069Y49810994D01*
X64891225Y50071337D01*
X64976916Y50353824D01*
X64998600Y50573982D01*
X64998600Y51026019D01*
X64976916Y51246177D01*
X64891225Y51528664D01*
X64752069Y51789006D01*
X64625689Y51943000D01*
X67454311Y51943000D01*
X67327931Y51789005D01*
X67188775Y51528663D01*
X67103084Y51246176D01*
X67081400Y51026018D01*
X67081400Y50573981D01*
X67103084Y50353823D01*
X67188775Y50071336D01*
X67327931Y49810994D01*
X67515203Y49582803D01*
X67558128Y49547575D01*
X66488626Y48478072D01*
X65190000Y48478072D01*
X65065518Y48465812D01*
X64945820Y48429502D01*
X64835506Y48370537D01*
X64738815Y48291185D01*
X64659463Y48194494D01*
X64600498Y48084180D01*
X64564188Y47964482D01*
X64551928Y47840000D01*
X64551928Y46140000D01*
X64564188Y46015518D01*
X64600498Y45895820D01*
X64659463Y45785506D01*
X64738815Y45688815D01*
X64835506Y45609463D01*
X64945820Y45550498D01*
X65065518Y45514188D01*
X65190000Y45501928D01*
X66890000Y45501928D01*
X67014482Y45514188D01*
X67134180Y45550498D01*
X67244494Y45609463D01*
X67341185Y45688815D01*
X67420537Y45785506D01*
X67479502Y45895820D01*
X67500393Y45964687D01*
X67524866Y45934866D01*
X67750986Y45749294D01*
X68008966Y45611401D01*
X68288889Y45526487D01*
X68507050Y45505000D01*
X68652950Y45505000D01*
X68871111Y45526487D01*
X69151034Y45611401D01*
X69409014Y45749294D01*
X69635134Y45934866D01*
X69820706Y46160986D01*
X69850000Y46215791D01*
X69879294Y46160986D01*
X70064866Y45934866D01*
X70290986Y45749294D01*
X70548966Y45611401D01*
X70828889Y45526487D01*
X71047050Y45505000D01*
X71192950Y45505000D01*
X71411111Y45526487D01*
X71691034Y45611401D01*
X71949014Y45749294D01*
X72175134Y45934866D01*
X72360706Y46160986D01*
X72390000Y46215791D01*
X72419294Y46160986D01*
X72604866Y45934866D01*
X72830986Y45749294D01*
X73088966Y45611401D01*
X73368889Y45526487D01*
X73587050Y45505000D01*
X73732950Y45505000D01*
X73951111Y45526487D01*
X74231034Y45611401D01*
X74489014Y45749294D01*
X74715134Y45934866D01*
X74900706Y46160986D01*
X74930000Y46215791D01*
X74959294Y46160986D01*
X75144866Y45934866D01*
X75370986Y45749294D01*
X75628966Y45611401D01*
X75908889Y45526487D01*
X76127050Y45505000D01*
X76272950Y45505000D01*
X76491111Y45526487D01*
X76771034Y45611401D01*
X77029014Y45749294D01*
X77255134Y45934866D01*
X77440706Y46160986D01*
X77470000Y46215791D01*
X77499294Y46160986D01*
X77684866Y45934866D01*
X77910986Y45749294D01*
X78168966Y45611401D01*
X78448889Y45526487D01*
X78667050Y45505000D01*
X78812950Y45505000D01*
X79031111Y45526487D01*
X79311034Y45611401D01*
X79569014Y45749294D01*
X79795134Y45934866D01*
X79980706Y46160986D01*
X80010000Y46215791D01*
X80039294Y46160986D01*
X80224866Y45934866D01*
X80450986Y45749294D01*
X80708966Y45611401D01*
X80988889Y45526487D01*
X81207050Y45505000D01*
X81352950Y45505000D01*
X81571111Y45526487D01*
X81851034Y45611401D01*
X82109014Y45749294D01*
X82335134Y45934866D01*
X82520706Y46160986D01*
X82550000Y46215791D01*
X82579294Y46160986D01*
X82764866Y45934866D01*
X82990986Y45749294D01*
X83248966Y45611401D01*
X83528889Y45526487D01*
X83747050Y45505000D01*
X83892950Y45505000D01*
X84111111Y45526487D01*
X84391034Y45611401D01*
X84649014Y45749294D01*
X84875134Y45934866D01*
X85060706Y46160986D01*
X85198599Y46418966D01*
X85283513Y46698889D01*
X85312185Y46990000D01*
X85283513Y47281111D01*
X85252568Y47383122D01*
X86854193Y48984746D01*
X86882238Y49007762D01*
X86974087Y49119680D01*
X87042337Y49247367D01*
X87066126Y49325788D01*
X87196606Y49395531D01*
X87424797Y49582803D01*
X87612069Y49810994D01*
X87657621Y49896215D01*
X87806536Y49536702D01*
X88098406Y49099887D01*
X88469887Y48728406D01*
X88906702Y48436536D01*
X89189818Y48319265D01*
X88023122Y47152568D01*
X87921111Y47183513D01*
X87702950Y47205000D01*
X87557050Y47205000D01*
X87338889Y47183513D01*
X87058966Y47098599D01*
X86800986Y46960706D01*
X86574866Y46775134D01*
X86389294Y46549014D01*
X86251401Y46291034D01*
X86166487Y46011111D01*
X86137815Y45720000D01*
X86166487Y45428889D01*
X86251401Y45148966D01*
X86389294Y44890986D01*
X86574866Y44664866D01*
X86800986Y44479294D01*
X86855791Y44450000D01*
X86800986Y44420706D01*
X86574866Y44235134D01*
X86389294Y44009014D01*
X86251401Y43751034D01*
X86166487Y43471111D01*
X86137815Y43180000D01*
X86166487Y42888889D01*
X86251401Y42608966D01*
X86389294Y42350986D01*
X86574866Y42124866D01*
X86800986Y41939294D01*
X86855791Y41910000D01*
X86800986Y41880706D01*
X86574866Y41695134D01*
X86389294Y41469014D01*
X86251401Y41211034D01*
X86166487Y40931111D01*
X86137815Y40640000D01*
X86166487Y40348889D01*
X86251401Y40068966D01*
X86389294Y39810986D01*
X86574866Y39584866D01*
X86800986Y39399294D01*
X86855791Y39370000D01*
X86800986Y39340706D01*
X86574866Y39155134D01*
X86389294Y38929014D01*
X86251401Y38671034D01*
X86166487Y38391111D01*
X86137815Y38100000D01*
X86166487Y37808889D01*
X86251401Y37528966D01*
X86389294Y37270986D01*
X86574866Y37044866D01*
X86800986Y36859294D01*
X86855791Y36830000D01*
X86800986Y36800706D01*
X86574866Y36615134D01*
X86389294Y36389014D01*
X86251401Y36131034D01*
X86166487Y35851111D01*
X86137815Y35560000D01*
X86166487Y35268889D01*
X86251401Y34988966D01*
X86389294Y34730986D01*
X86574866Y34504866D01*
X86800986Y34319294D01*
X86855791Y34290000D01*
X86800986Y34260706D01*
X86574866Y34075134D01*
X86389294Y33849014D01*
X86251401Y33591034D01*
X86166487Y33311111D01*
X86137815Y33020000D01*
X86166487Y32728889D01*
X86251401Y32448966D01*
X86389294Y32190986D01*
X86574866Y31964866D01*
X86800986Y31779294D01*
X86855791Y31750000D01*
X86800986Y31720706D01*
X86574866Y31535134D01*
X86389294Y31309014D01*
X86251401Y31051034D01*
X86166487Y30771111D01*
X86137815Y30480000D01*
X86166487Y30188889D01*
X86251401Y29908966D01*
X86389294Y29650986D01*
X86574866Y29424866D01*
X86800986Y29239294D01*
X86855791Y29210000D01*
X86800986Y29180706D01*
X86574866Y28995134D01*
X86389294Y28769014D01*
X86251401Y28511034D01*
X86166487Y28231111D01*
X86137815Y27940000D01*
X86166487Y27648889D01*
X86251401Y27368966D01*
X86389294Y27110986D01*
X86574866Y26884866D01*
X86800986Y26699294D01*
X86855791Y26670000D01*
X86800986Y26640706D01*
X86574866Y26455134D01*
X86389294Y26229014D01*
X86251401Y25971034D01*
X86166487Y25691111D01*
X86137815Y25400000D01*
X86166487Y25108889D01*
X86251401Y24828966D01*
X86389294Y24570986D01*
X86574866Y24344866D01*
X86800986Y24159294D01*
X86855791Y24130000D01*
X86800986Y24100706D01*
X86574866Y23915134D01*
X86389294Y23689014D01*
X86251401Y23431034D01*
X86166487Y23151111D01*
X86137815Y22860000D01*
X86166487Y22568889D01*
X86251401Y22288966D01*
X86389294Y22030986D01*
X86574866Y21804866D01*
X86800986Y21619294D01*
X86855791Y21590000D01*
X86800986Y21560706D01*
X86574866Y21375134D01*
X86389294Y21149014D01*
X86251401Y20891034D01*
X86166487Y20611111D01*
X86137815Y20320000D01*
X86166487Y20028889D01*
X86251401Y19748966D01*
X86389294Y19490986D01*
X86574866Y19264866D01*
X86800986Y19079294D01*
X86855791Y19050000D01*
X86800986Y19020706D01*
X86574866Y18835134D01*
X86389294Y18609014D01*
X86251401Y18351034D01*
X86166487Y18071111D01*
X86137815Y17780000D01*
X86166487Y17488889D01*
X86251401Y17208966D01*
X86389294Y16950986D01*
X86574866Y16724866D01*
X86800986Y16539294D01*
X86855791Y16510000D01*
X86800986Y16480706D01*
X86574866Y16295134D01*
X86389294Y16069014D01*
X86251401Y15811034D01*
X86166487Y15531111D01*
X86137815Y15240000D01*
X86166487Y14948889D01*
X86251401Y14668966D01*
X86389294Y14410986D01*
X86574866Y14184866D01*
X86800986Y13999294D01*
X86855791Y13970000D01*
X86800986Y13940706D01*
X86574866Y13755134D01*
X86389294Y13529014D01*
X86251401Y13271034D01*
X86166487Y12991111D01*
X86137815Y12700000D01*
X86166487Y12408889D01*
X86251401Y12128966D01*
X86389294Y11870986D01*
X86574866Y11644866D01*
X86800986Y11459294D01*
X86855791Y11430000D01*
X86800986Y11400706D01*
X86574866Y11215134D01*
X86389294Y10989014D01*
X86251401Y10731034D01*
X86166487Y10451111D01*
X86137815Y10160000D01*
X86166487Y9868889D01*
X86251401Y9588966D01*
X86389294Y9330986D01*
X86574866Y9104866D01*
X86604687Y9080393D01*
X86535820Y9059502D01*
X86425506Y9000537D01*
X86328815Y8921185D01*
X86249463Y8824494D01*
X86190498Y8714180D01*
X86154188Y8594482D01*
X86141928Y8470000D01*
X86141928Y6770000D01*
X86154188Y6645518D01*
X86190498Y6525820D01*
X86249463Y6415506D01*
X86328815Y6318815D01*
X86425506Y6239463D01*
X86535820Y6180498D01*
X86655518Y6144188D01*
X86780000Y6131928D01*
X88480000Y6131928D01*
X88604482Y6144188D01*
X88724180Y6180498D01*
X88834494Y6239463D01*
X88931185Y6318815D01*
X89010537Y6415506D01*
X89069502Y6525820D01*
X89090393Y6594687D01*
X89114866Y6564866D01*
X89340986Y6379294D01*
X89598966Y6241401D01*
X89878889Y6156487D01*
X90097050Y6135000D01*
X90242950Y6135000D01*
X90461111Y6156487D01*
X90741034Y6241401D01*
X90999014Y6379294D01*
X91225134Y6564866D01*
X91239110Y6581896D01*
X93121501Y6581896D01*
X93200782Y6331433D01*
X93467141Y6204174D01*
X93753210Y6131325D01*
X94047993Y6115685D01*
X94340164Y6157855D01*
X94618493Y6256214D01*
X94759218Y6331433D01*
X94838499Y6581896D01*
X93980000Y7440395D01*
X93121501Y6581896D01*
X91239110Y6581896D01*
X91410706Y6790986D01*
X91548599Y7048966D01*
X91633513Y7328889D01*
X91662185Y7620000D01*
X91633513Y7911111D01*
X91602568Y8013122D01*
X91744446Y8155000D01*
X92574752Y8155000D01*
X92564174Y8132859D01*
X92491325Y7846790D01*
X92475685Y7552007D01*
X92517855Y7259836D01*
X92616214Y6981507D01*
X92691433Y6840782D01*
X92941896Y6761501D01*
X93800395Y7620000D01*
X93786253Y7634142D01*
X93965858Y7813747D01*
X93980000Y7799605D01*
X93994143Y7813747D01*
X94173748Y7634142D01*
X94159605Y7620000D01*
X95018104Y6761501D01*
X95251434Y6835359D01*
X95313183Y6731512D01*
X95509707Y6513146D01*
X95745056Y6337316D01*
X96010186Y6210778D01*
X96160974Y6165042D01*
X96393000Y6286183D01*
X96393000Y7493000D01*
X96647000Y7493000D01*
X96647000Y6286183D01*
X96879026Y6165042D01*
X97029814Y6210778D01*
X97294944Y6337316D01*
X97530293Y6513146D01*
X97726817Y6731512D01*
X97876964Y6984022D01*
X97974963Y7260973D01*
X97854464Y7493000D01*
X96647000Y7493000D01*
X96393000Y7493000D01*
X96373000Y7493000D01*
X96373000Y7747000D01*
X96393000Y7747000D01*
X96393000Y7767000D01*
X96647000Y7767000D01*
X96647000Y7747000D01*
X97854464Y7747000D01*
X97974963Y7979027D01*
X97876964Y8255978D01*
X97726817Y8508488D01*
X97530293Y8726854D01*
X97316567Y8886530D01*
X97356606Y8907931D01*
X97584797Y9095203D01*
X97772069Y9323394D01*
X97911225Y9583736D01*
X97996916Y9866223D01*
X98025851Y10160000D01*
X97996916Y10453777D01*
X97911225Y10736264D01*
X97772069Y10996606D01*
X97584797Y11224797D01*
X97356606Y11412069D01*
X97323060Y11430000D01*
X97356606Y11447931D01*
X97584797Y11635203D01*
X97772069Y11863394D01*
X97911225Y12123736D01*
X97996916Y12406223D01*
X98025851Y12700000D01*
X97996916Y12993777D01*
X97911225Y13276264D01*
X97772069Y13536606D01*
X97584797Y13764797D01*
X97356606Y13952069D01*
X97323060Y13970000D01*
X97356606Y13987931D01*
X97584797Y14175203D01*
X97772069Y14403394D01*
X97911225Y14663736D01*
X97996916Y14946223D01*
X98025851Y15240000D01*
X97996916Y15533777D01*
X97911225Y15816264D01*
X97772069Y16076606D01*
X97584797Y16304797D01*
X97356606Y16492069D01*
X97323060Y16510000D01*
X97356606Y16527931D01*
X97584797Y16715203D01*
X97772069Y16943394D01*
X97911225Y17203736D01*
X97996916Y17486223D01*
X98025851Y17780000D01*
X97996916Y18073777D01*
X97911225Y18356264D01*
X97772069Y18616606D01*
X97584797Y18844797D01*
X97356606Y19032069D01*
X97323060Y19050000D01*
X97356606Y19067931D01*
X97584797Y19255203D01*
X97772069Y19483394D01*
X97911225Y19743736D01*
X97996916Y20026223D01*
X98025851Y20320000D01*
X97996916Y20613777D01*
X97911225Y20896264D01*
X97772069Y21156606D01*
X97584797Y21384797D01*
X97356606Y21572069D01*
X97323060Y21590000D01*
X97356606Y21607931D01*
X97584797Y21795203D01*
X97772069Y22023394D01*
X97911225Y22283736D01*
X97996916Y22566223D01*
X98025851Y22860000D01*
X97996916Y23153777D01*
X97911225Y23436264D01*
X97772069Y23696606D01*
X97584797Y23924797D01*
X97356606Y24112069D01*
X97323060Y24130000D01*
X97356606Y24147931D01*
X97584797Y24335203D01*
X97772069Y24563394D01*
X97911225Y24823736D01*
X97996916Y25106223D01*
X98025851Y25400000D01*
X97996916Y25693777D01*
X97911225Y25976264D01*
X97772069Y26236606D01*
X97584797Y26464797D01*
X97356606Y26652069D01*
X97323060Y26670000D01*
X97356606Y26687931D01*
X97584797Y26875203D01*
X97772069Y27103394D01*
X97911225Y27363736D01*
X97996916Y27646223D01*
X98025851Y27940000D01*
X97996916Y28233777D01*
X97911225Y28516264D01*
X97772069Y28776606D01*
X97584797Y29004797D01*
X97356606Y29192069D01*
X97323060Y29210000D01*
X97356606Y29227931D01*
X97584797Y29415203D01*
X97772069Y29643394D01*
X97911225Y29903736D01*
X97996916Y30186223D01*
X98025851Y30480000D01*
X97996916Y30773777D01*
X97911225Y31056264D01*
X97772069Y31316606D01*
X97584797Y31544797D01*
X97356606Y31732069D01*
X97323060Y31750000D01*
X97356606Y31767931D01*
X97584797Y31955203D01*
X97772069Y32183394D01*
X97911225Y32443736D01*
X97996916Y32726223D01*
X98025851Y33020000D01*
X97996916Y33313777D01*
X97911225Y33596264D01*
X97772069Y33856606D01*
X97584797Y34084797D01*
X97356606Y34272069D01*
X97323060Y34290000D01*
X97356606Y34307931D01*
X97584797Y34495203D01*
X97772069Y34723394D01*
X97911225Y34983736D01*
X97996916Y35266223D01*
X98025851Y35560000D01*
X97996916Y35853777D01*
X97911225Y36136264D01*
X97772069Y36396606D01*
X97584797Y36624797D01*
X97356606Y36812069D01*
X97323060Y36830000D01*
X97356606Y36847931D01*
X97584797Y37035203D01*
X97772069Y37263394D01*
X97911225Y37523736D01*
X97996916Y37806223D01*
X98025851Y38100000D01*
X97996916Y38393777D01*
X97911225Y38676264D01*
X97772069Y38936606D01*
X97584797Y39164797D01*
X97356606Y39352069D01*
X97323060Y39370000D01*
X97356606Y39387931D01*
X97584797Y39575203D01*
X97772069Y39803394D01*
X97911225Y40063736D01*
X97975330Y40275064D01*
X100203000Y38047394D01*
X100203000Y3862606D01*
X99179712Y2839318D01*
X99084508Y3317935D01*
X98883464Y3803298D01*
X98591594Y4240113D01*
X98220113Y4611594D01*
X97783298Y4903464D01*
X97297935Y5104508D01*
X96782677Y5207000D01*
X96257323Y5207000D01*
X95742065Y5104508D01*
X95256702Y4903464D01*
X94819887Y4611594D01*
X94448406Y4240113D01*
X94156536Y3803298D01*
X93955492Y3317935D01*
X93853000Y2802677D01*
X93853000Y2277323D01*
X93955492Y1762065D01*
X94106707Y1397000D01*
X92565689Y1397000D01*
X92692069Y1550994D01*
X92831225Y1811337D01*
X92916916Y2093824D01*
X92938600Y2313982D01*
X92938600Y2766019D01*
X92916916Y2986177D01*
X92831225Y3268664D01*
X92692069Y3529006D01*
X92504797Y3757197D01*
X92276605Y3944469D01*
X92016263Y4083625D01*
X91733776Y4169316D01*
X91440000Y4198251D01*
X91146223Y4169316D01*
X91035974Y4135872D01*
X90921658Y4250188D01*
X90898638Y4278238D01*
X90786720Y4370087D01*
X90659033Y4438337D01*
X90547179Y4472267D01*
X89725270Y5294176D01*
X89702250Y5322226D01*
X89590332Y5414075D01*
X89462645Y5482325D01*
X89324097Y5524353D01*
X89216117Y5534988D01*
X89180012Y5538544D01*
X89143907Y5534988D01*
X87648758Y5534988D01*
X87489560Y5694186D01*
X87466539Y5722237D01*
X87354621Y5814086D01*
X87226934Y5882336D01*
X87088386Y5924364D01*
X86980406Y5934999D01*
X86944301Y5938555D01*
X86908196Y5934999D01*
X85274447Y5934999D01*
X85252568Y5956878D01*
X85283513Y6058889D01*
X85312185Y6350000D01*
X85283513Y6641111D01*
X85198599Y6921034D01*
X85060706Y7179014D01*
X84875134Y7405134D01*
X84649014Y7590706D01*
X84391034Y7728599D01*
X84111111Y7813513D01*
X83892950Y7835000D01*
X83747050Y7835000D01*
X83528889Y7813513D01*
X83248966Y7728599D01*
X82990986Y7590706D01*
X82764866Y7405134D01*
X82579294Y7179014D01*
X82550000Y7124209D01*
X82520706Y7179014D01*
X82335134Y7405134D01*
X82109014Y7590706D01*
X81851034Y7728599D01*
X81571111Y7813513D01*
X81352950Y7835000D01*
X81207050Y7835000D01*
X80988889Y7813513D01*
X80708966Y7728599D01*
X80450986Y7590706D01*
X80224866Y7405134D01*
X80039294Y7179014D01*
X80010000Y7124209D01*
X79980706Y7179014D01*
X79795134Y7405134D01*
X79569014Y7590706D01*
X79311034Y7728599D01*
X79031111Y7813513D01*
X78812950Y7835000D01*
X78667050Y7835000D01*
X78448889Y7813513D01*
X78168966Y7728599D01*
X77910986Y7590706D01*
X77684866Y7405134D01*
X77499294Y7179014D01*
X77470000Y7124209D01*
X77440706Y7179014D01*
X77255134Y7405134D01*
X77029014Y7590706D01*
X76771034Y7728599D01*
X76491111Y7813513D01*
X76272950Y7835000D01*
X76127050Y7835000D01*
X75908889Y7813513D01*
X75628966Y7728599D01*
X75370986Y7590706D01*
X75144866Y7405134D01*
X74959294Y7179014D01*
X74930000Y7124209D01*
X74900706Y7179014D01*
X74715134Y7405134D01*
X74489014Y7590706D01*
X74231034Y7728599D01*
X73951111Y7813513D01*
X73732950Y7835000D01*
X73587050Y7835000D01*
X73368889Y7813513D01*
X73088966Y7728599D01*
X72830986Y7590706D01*
X72604866Y7405134D01*
X72419294Y7179014D01*
X72390000Y7124209D01*
X72360706Y7179014D01*
X72175134Y7405134D01*
X71949014Y7590706D01*
X71691034Y7728599D01*
X71411111Y7813513D01*
X71192950Y7835000D01*
X71047050Y7835000D01*
X70828889Y7813513D01*
X70548966Y7728599D01*
X70290986Y7590706D01*
X70064866Y7405134D01*
X69879294Y7179014D01*
X69850000Y7124209D01*
X69820706Y7179014D01*
X69635134Y7405134D01*
X69409014Y7590706D01*
X69151034Y7728599D01*
X68871111Y7813513D01*
X68652950Y7835000D01*
X68507050Y7835000D01*
X68288889Y7813513D01*
X68008966Y7728599D01*
X67750986Y7590706D01*
X67524866Y7405134D01*
X67500393Y7375313D01*
X67479502Y7444180D01*
X67420537Y7554494D01*
X67341185Y7651185D01*
X67244494Y7730537D01*
X67134180Y7789502D01*
X67014482Y7825812D01*
X66890000Y7838072D01*
X65190000Y7838072D01*
X65065518Y7825812D01*
X64945820Y7789502D01*
X64835506Y7730537D01*
X64738815Y7651185D01*
X64659463Y7554494D01*
X64600498Y7444180D01*
X64564188Y7324482D01*
X64551928Y7200000D01*
X64551928Y5767055D01*
X64494621Y5814086D01*
X64366934Y5882336D01*
X64228386Y5924364D01*
X64120406Y5934999D01*
X64084301Y5938555D01*
X64048196Y5934999D01*
X62414447Y5934999D01*
X62392568Y5956878D01*
X62423513Y6058889D01*
X62452185Y6350000D01*
X62423513Y6641111D01*
X62338599Y6921034D01*
X62200706Y7179014D01*
X62015134Y7405134D01*
X61789014Y7590706D01*
X61531034Y7728599D01*
X61251111Y7813513D01*
X61032950Y7835000D01*
X60887050Y7835000D01*
X60668889Y7813513D01*
X60388966Y7728599D01*
X60130986Y7590706D01*
X59904866Y7405134D01*
X59719294Y7179014D01*
X59690000Y7124209D01*
X59660706Y7179014D01*
X59475134Y7405134D01*
X59249014Y7590706D01*
X58991034Y7728599D01*
X58711111Y7813513D01*
X58492950Y7835000D01*
X58347050Y7835000D01*
X58128889Y7813513D01*
X57848966Y7728599D01*
X57590986Y7590706D01*
X57364866Y7405134D01*
X57179294Y7179014D01*
X57150000Y7124209D01*
X57120706Y7179014D01*
X56935134Y7405134D01*
X56709014Y7590706D01*
X56451034Y7728599D01*
X56171111Y7813513D01*
X55952950Y7835000D01*
X55807050Y7835000D01*
X55588889Y7813513D01*
X55308966Y7728599D01*
X55050986Y7590706D01*
X54824866Y7405134D01*
X54639294Y7179014D01*
X54610000Y7124209D01*
X54580706Y7179014D01*
X54395134Y7405134D01*
X54169014Y7590706D01*
X53911034Y7728599D01*
X53631111Y7813513D01*
X53412950Y7835000D01*
X53267050Y7835000D01*
X53048889Y7813513D01*
X52768966Y7728599D01*
X52510986Y7590706D01*
X52284866Y7405134D01*
X52099294Y7179014D01*
X52070000Y7124209D01*
X52040706Y7179014D01*
X51855134Y7405134D01*
X51629014Y7590706D01*
X51371034Y7728599D01*
X51091111Y7813513D01*
X50872950Y7835000D01*
X50727050Y7835000D01*
X50508889Y7813513D01*
X50228966Y7728599D01*
X49970986Y7590706D01*
X49744866Y7405134D01*
X49559294Y7179014D01*
X49530000Y7124209D01*
X49500706Y7179014D01*
X49315134Y7405134D01*
X49089014Y7590706D01*
X48831034Y7728599D01*
X48551111Y7813513D01*
X48332950Y7835000D01*
X48187050Y7835000D01*
X47968889Y7813513D01*
X47688966Y7728599D01*
X47430986Y7590706D01*
X47204866Y7405134D01*
X47019294Y7179014D01*
X46990000Y7124209D01*
X46960706Y7179014D01*
X46775134Y7405134D01*
X46549014Y7590706D01*
X46291034Y7728599D01*
X46011111Y7813513D01*
X45792950Y7835000D01*
X45647050Y7835000D01*
X45428889Y7813513D01*
X45148966Y7728599D01*
X44890986Y7590706D01*
X44664866Y7405134D01*
X44640393Y7375313D01*
X44619502Y7444180D01*
X44560537Y7554494D01*
X44481185Y7651185D01*
X44384494Y7730537D01*
X44274180Y7789502D01*
X44154482Y7825812D01*
X44030000Y7838072D01*
X42330000Y7838072D01*
X42205518Y7825812D01*
X42085820Y7789502D01*
X41975506Y7730537D01*
X41878815Y7651185D01*
X41799463Y7554494D01*
X41740498Y7444180D01*
X41704188Y7324482D01*
X41691928Y7200000D01*
X41691928Y5500000D01*
X41704188Y5375518D01*
X41740498Y5255820D01*
X41799463Y5145506D01*
X41878815Y5048815D01*
X41975506Y4969463D01*
X42085820Y4910498D01*
X42205518Y4874188D01*
X42330000Y4861928D01*
X43628626Y4861928D01*
X43784742Y4705812D01*
X43807763Y4677761D01*
X43919681Y4585912D01*
X44047368Y4517662D01*
X44170320Y4480365D01*
X44185916Y4475634D01*
X44330001Y4461443D01*
X44366106Y4464999D01*
X45999855Y4464999D01*
X46159053Y4305801D01*
X46182074Y4277750D01*
X46293992Y4185901D01*
X46421679Y4117651D01*
X46518198Y4088372D01*
X46560226Y4075623D01*
X46704312Y4061432D01*
X46740417Y4064988D01*
X48235566Y4064988D01*
X49038746Y3261807D01*
X49061762Y3233762D01*
X49173680Y3141913D01*
X49301367Y3073663D01*
X49345556Y3060258D01*
X49323084Y2986176D01*
X49301400Y2766018D01*
X49301400Y2313981D01*
X49323084Y2093823D01*
X49408775Y1811336D01*
X49547931Y1550994D01*
X49674311Y1397000D01*
X46845689Y1397000D01*
X46972069Y1550994D01*
X47111225Y1811337D01*
X47196916Y2093824D01*
X47218600Y2313982D01*
X47218600Y2766019D01*
X47196916Y2986177D01*
X47111225Y3268664D01*
X46972069Y3529006D01*
X46784797Y3757197D01*
X46556605Y3944469D01*
X46296263Y4083625D01*
X46013776Y4169316D01*
X45720000Y4198251D01*
X45426223Y4169316D01*
X45143736Y4083625D01*
X44883394Y3944469D01*
X44655203Y3757197D01*
X44467931Y3529005D01*
X44446576Y3489053D01*
X44298486Y3691729D01*
X44082035Y3890733D01*
X43830919Y4043686D01*
X43554789Y4144709D01*
X43539026Y4147358D01*
X43307000Y4026217D01*
X43307000Y2667000D01*
X43327000Y2667000D01*
X43327000Y2413000D01*
X43307000Y2413000D01*
X43307000Y2393000D01*
X43053000Y2393000D01*
X43053000Y2413000D01*
X40767000Y2413000D01*
X40767000Y2393000D01*
X40513000Y2393000D01*
X40513000Y2413000D01*
X40493000Y2413000D01*
X40493000Y2667000D01*
X40513000Y2667000D01*
X40513000Y4026217D01*
X40767000Y4026217D01*
X40767000Y2667000D01*
X43053000Y2667000D01*
X43053000Y4026217D01*
X42820974Y4147358D01*
X42805211Y4144709D01*
X42529081Y4043686D01*
X42277965Y3890733D01*
X42061514Y3691729D01*
X41910000Y3484367D01*
X41758486Y3691729D01*
X41542035Y3890733D01*
X41290919Y4043686D01*
X41014789Y4144709D01*
X40999026Y4147358D01*
X40767000Y4026217D01*
X40513000Y4026217D01*
X40280974Y4147358D01*
X40265211Y4144709D01*
X39989081Y4043686D01*
X39737965Y3890733D01*
X39521514Y3691729D01*
X39373424Y3489053D01*
X39352069Y3529006D01*
X39164797Y3757197D01*
X38936605Y3944469D01*
X38676263Y4083625D01*
X38393776Y4169316D01*
X38100000Y4198251D01*
X37806223Y4169316D01*
X37523736Y4083625D01*
X37263394Y3944469D01*
X37035203Y3757197D01*
X36847931Y3529005D01*
X36830000Y3495459D01*
X36812069Y3529006D01*
X36624797Y3757197D01*
X36396605Y3944469D01*
X36136263Y4083625D01*
X35853776Y4169316D01*
X35560000Y4198251D01*
X35266223Y4169316D01*
X34983736Y4083625D01*
X34723394Y3944469D01*
X34495203Y3757197D01*
X34307931Y3529005D01*
X34290000Y3495459D01*
X34272069Y3529006D01*
X34084797Y3757197D01*
X33856605Y3944469D01*
X33596263Y4083625D01*
X33313776Y4169316D01*
X33020000Y4198251D01*
X32726223Y4169316D01*
X32443736Y4083625D01*
X32183394Y3944469D01*
X31955203Y3757197D01*
X31767931Y3529005D01*
X31750000Y3495459D01*
X31732069Y3529006D01*
X31544797Y3757197D01*
X31316605Y3944469D01*
X31056263Y4083625D01*
X30773776Y4169316D01*
X30480000Y4198251D01*
X30186223Y4169316D01*
X29903736Y4083625D01*
X29643394Y3944469D01*
X29415203Y3757197D01*
X29227931Y3529005D01*
X29210000Y3495459D01*
X29192069Y3529006D01*
X29004797Y3757197D01*
X28776605Y3944469D01*
X28516263Y4083625D01*
X28233776Y4169316D01*
X27940000Y4198251D01*
X27646223Y4169316D01*
X27363736Y4083625D01*
X27103394Y3944469D01*
X26875203Y3757197D01*
X26687931Y3529005D01*
X26548775Y3268663D01*
X26463084Y2986176D01*
X26441400Y2766018D01*
X26441400Y2313981D01*
X26463084Y2093823D01*
X26548775Y1811336D01*
X26687931Y1550994D01*
X26814311Y1397000D01*
X16383293Y1397000D01*
X16534508Y1762065D01*
X16637000Y2277323D01*
X16637000Y2802677D01*
X16534508Y3317935D01*
X16333464Y3803298D01*
X16041594Y4240113D01*
X15670113Y4611594D01*
X15233298Y4903464D01*
X14747935Y5104508D01*
X14232677Y5207000D01*
X13707323Y5207000D01*
X13192065Y5104508D01*
X12706702Y4903464D01*
X12269887Y4611594D01*
X11898406Y4240113D01*
X11606536Y3803298D01*
X11405492Y3317935D01*
X11303000Y2802677D01*
X11303000Y2277323D01*
X11405492Y1762065D01*
X11556707Y1397000D01*
X1397000Y1397000D01*
X1397000Y9846931D01*
X1484866Y9739866D01*
X1710986Y9554294D01*
X1968966Y9416401D01*
X2248889Y9331487D01*
X2467050Y9310000D01*
X2612950Y9310000D01*
X2831111Y9331487D01*
X3111034Y9416401D01*
X3369014Y9554294D01*
X3595134Y9739866D01*
X3619607Y9769687D01*
X3640498Y9700820D01*
X3699463Y9590506D01*
X3778815Y9493815D01*
X3875506Y9414463D01*
X3985820Y9355498D01*
X4105518Y9319188D01*
X4230000Y9306928D01*
X5930000Y9306928D01*
X6054482Y9319188D01*
X6174180Y9355498D01*
X6284494Y9414463D01*
X6381185Y9493815D01*
X6460537Y9590506D01*
X6519502Y9700820D01*
X6555812Y9820518D01*
X6568072Y9945000D01*
X6568072Y11645000D01*
X6555812Y11769482D01*
X6519502Y11889180D01*
X6460537Y11999494D01*
X6381185Y12096185D01*
X6284494Y12175537D01*
X6174180Y12234502D01*
X6105313Y12255393D01*
X6135134Y12279866D01*
X6320706Y12505986D01*
X6458599Y12763966D01*
X6543513Y13043889D01*
X6572185Y13335000D01*
X6543513Y13626111D01*
X6458599Y13906034D01*
X6320706Y14164014D01*
X6135134Y14390134D01*
X5915000Y14570793D01*
X5915000Y14639207D01*
X6135134Y14819866D01*
X6315793Y15040000D01*
X8751532Y15040000D01*
X8890013Y14832748D01*
X9117748Y14605013D01*
X9385537Y14426082D01*
X9683088Y14302832D01*
X9998967Y14240000D01*
X10321033Y14240000D01*
X10636912Y14302832D01*
X10934463Y14426082D01*
X11202252Y14605013D01*
X11429987Y14832748D01*
X11608918Y15100537D01*
X11732168Y15398088D01*
X11795000Y15713967D01*
X11795000Y16036033D01*
X13525000Y16036033D01*
X13525000Y15713967D01*
X13587832Y15398088D01*
X13711082Y15100537D01*
X13890013Y14832748D01*
X14117748Y14605013D01*
X14385537Y14426082D01*
X14683088Y14302832D01*
X14998967Y14240000D01*
X15321033Y14240000D01*
X15636912Y14302832D01*
X15883567Y14405000D01*
X39291666Y14405000D01*
X39408850Y14229621D01*
X39629621Y14008850D01*
X39687764Y13970000D01*
X39629621Y13931150D01*
X39408850Y13710379D01*
X39235391Y13450779D01*
X39115911Y13162327D01*
X39055000Y12856109D01*
X39055000Y12543891D01*
X39115911Y12237673D01*
X39235391Y11949221D01*
X39408850Y11689621D01*
X39629621Y11468850D01*
X39687764Y11430000D01*
X39629621Y11391150D01*
X39408850Y11170379D01*
X39235391Y10910779D01*
X39115911Y10622327D01*
X39055000Y10316109D01*
X39055000Y10003891D01*
X39115911Y9697673D01*
X39235391Y9409221D01*
X39408850Y9149621D01*
X39629621Y8928850D01*
X39889221Y8755391D01*
X40177673Y8635911D01*
X40483891Y8575000D01*
X40796109Y8575000D01*
X41102327Y8635911D01*
X41390779Y8755391D01*
X41650379Y8928850D01*
X41871150Y9149621D01*
X42044609Y9409221D01*
X42051145Y9425000D01*
X62193895Y9425000D01*
X62230000Y9421444D01*
X62266105Y9425000D01*
X62374085Y9435635D01*
X62512633Y9477663D01*
X62640320Y9545913D01*
X62752238Y9637762D01*
X62775259Y9665813D01*
X65856710Y12747263D01*
X65918363Y12735000D01*
X66161637Y12735000D01*
X66400236Y12782460D01*
X66624992Y12875557D01*
X66827267Y13010713D01*
X66936790Y13120236D01*
X67909841Y13120236D01*
X67957148Y12896652D01*
X68178516Y12795763D01*
X68415313Y12740000D01*
X68658438Y12731505D01*
X68898549Y12770605D01*
X69126418Y12855798D01*
X69202852Y12896652D01*
X69250159Y13120236D01*
X68580000Y13790395D01*
X67909841Y13120236D01*
X66936790Y13120236D01*
X66999287Y13182733D01*
X67134443Y13385008D01*
X67227540Y13609764D01*
X67275000Y13848363D01*
X67275000Y13891562D01*
X67341505Y13891562D01*
X67380605Y13651451D01*
X67465798Y13423582D01*
X67506652Y13347148D01*
X67730236Y13299841D01*
X68400395Y13970000D01*
X68759605Y13970000D01*
X69429764Y13299841D01*
X69653348Y13347148D01*
X69754237Y13568516D01*
X69810000Y13805313D01*
X69818495Y14048438D01*
X69779395Y14288549D01*
X69694202Y14516418D01*
X69653348Y14592852D01*
X69429764Y14640159D01*
X68759605Y13970000D01*
X68400395Y13970000D01*
X67730236Y14640159D01*
X67506652Y14592852D01*
X67405763Y14371484D01*
X67350000Y14134687D01*
X67341505Y13891562D01*
X67275000Y13891562D01*
X67275000Y14091637D01*
X67227540Y14330236D01*
X67134443Y14554992D01*
X66999287Y14757267D01*
X66936790Y14819764D01*
X67909841Y14819764D01*
X68580000Y14149605D01*
X69250159Y14819764D01*
X69202852Y15043348D01*
X68981484Y15144237D01*
X68744687Y15200000D01*
X68501562Y15208495D01*
X68261451Y15169395D01*
X68033582Y15084202D01*
X67957148Y15043348D01*
X67909841Y14819764D01*
X66936790Y14819764D01*
X66827267Y14929287D01*
X66624992Y15064443D01*
X66400236Y15157540D01*
X66161637Y15205000D01*
X65918363Y15205000D01*
X65874999Y15196374D01*
X65874999Y17845553D01*
X68396710Y20367263D01*
X68458363Y20355000D01*
X68701637Y20355000D01*
X68940236Y20402460D01*
X69164992Y20495557D01*
X69367267Y20630713D01*
X69539287Y20802733D01*
X69674443Y21005008D01*
X69767540Y21229764D01*
X69815000Y21468363D01*
X69815000Y21711637D01*
X69767540Y21950236D01*
X69695150Y22125000D01*
X72085554Y22125000D01*
X77307432Y16903121D01*
X77276487Y16801111D01*
X77247815Y16510000D01*
X77276487Y16218889D01*
X77361401Y15938966D01*
X77499294Y15680986D01*
X77684866Y15454866D01*
X77910986Y15269294D01*
X78168966Y15131401D01*
X78448889Y15046487D01*
X78667050Y15025000D01*
X78812950Y15025000D01*
X79031111Y15046487D01*
X79311034Y15131401D01*
X79569014Y15269294D01*
X79795134Y15454866D01*
X79980706Y15680986D01*
X80118599Y15938966D01*
X80203513Y16218889D01*
X80232185Y16510000D01*
X80203513Y16801111D01*
X80118599Y17081034D01*
X79980706Y17339014D01*
X79795134Y17565134D01*
X79765313Y17589607D01*
X79834180Y17610498D01*
X79944494Y17669463D01*
X80041185Y17748815D01*
X80120537Y17845506D01*
X80179502Y17955820D01*
X80215812Y18075518D01*
X80228072Y18200000D01*
X80228072Y19900000D01*
X80215812Y20024482D01*
X80179502Y20144180D01*
X80120537Y20254494D01*
X80041185Y20351185D01*
X79944494Y20430537D01*
X79834180Y20489502D01*
X79714482Y20525812D01*
X79590000Y20538072D01*
X78291375Y20538072D01*
X74205259Y24624187D01*
X74182238Y24652238D01*
X74070320Y24744087D01*
X73942633Y24812337D01*
X73804085Y24854365D01*
X73696105Y24865000D01*
X73660000Y24868556D01*
X73623895Y24865000D01*
X58456094Y24865000D01*
X58419999Y24868555D01*
X58383904Y24865000D01*
X58383895Y24865000D01*
X58275915Y24854365D01*
X58137367Y24812337D01*
X58009680Y24744087D01*
X57897762Y24652238D01*
X57874746Y24624193D01*
X56063290Y22812736D01*
X56001637Y22825000D01*
X55758363Y22825000D01*
X55519764Y22777540D01*
X55295008Y22684443D01*
X55092733Y22549287D01*
X54920713Y22377267D01*
X54785557Y22174992D01*
X54692460Y21950236D01*
X54645000Y21711637D01*
X54645000Y21468363D01*
X54692460Y21229764D01*
X54785557Y21005008D01*
X54920713Y20802733D01*
X55092733Y20630713D01*
X55295008Y20495557D01*
X55519764Y20402460D01*
X55758363Y20355000D01*
X56001637Y20355000D01*
X56240236Y20402460D01*
X56464992Y20495557D01*
X56667267Y20630713D01*
X56839287Y20802733D01*
X56974443Y21005008D01*
X57067540Y21229764D01*
X57115000Y21468363D01*
X57115000Y21711637D01*
X57102736Y21773290D01*
X57220735Y21891288D01*
X57185000Y21711637D01*
X57185000Y21468363D01*
X57232460Y21229764D01*
X57325557Y21005008D01*
X57460713Y20802733D01*
X57632733Y20630713D01*
X57835008Y20495557D01*
X58059764Y20402460D01*
X58298363Y20355000D01*
X58541637Y20355000D01*
X58780236Y20402460D01*
X59004992Y20495557D01*
X59207267Y20630713D01*
X59379287Y20802733D01*
X59514443Y21005008D01*
X59607540Y21229764D01*
X59655000Y21468363D01*
X59655000Y21711637D01*
X59607540Y21950236D01*
X59514443Y22174992D01*
X59379287Y22377267D01*
X59207267Y22549287D01*
X59004992Y22684443D01*
X58780236Y22777540D01*
X58541637Y22825000D01*
X58298363Y22825000D01*
X58118712Y22789265D01*
X58724447Y23395000D01*
X62933551Y23395000D01*
X61917553Y22379001D01*
X61747267Y22549287D01*
X61544992Y22684443D01*
X61320236Y22777540D01*
X61081637Y22825000D01*
X60838363Y22825000D01*
X60599764Y22777540D01*
X60375008Y22684443D01*
X60172733Y22549287D01*
X60000713Y22377267D01*
X59865557Y22174992D01*
X59772460Y21950236D01*
X59725000Y21711637D01*
X59725000Y21468363D01*
X59772460Y21229764D01*
X59865557Y21005008D01*
X60000713Y20802733D01*
X60172733Y20630713D01*
X60375008Y20495557D01*
X60599764Y20402460D01*
X60838363Y20355000D01*
X61081637Y20355000D01*
X61320236Y20402460D01*
X61495000Y20474850D01*
X61495001Y15544448D01*
X61143290Y15192737D01*
X61081637Y15205000D01*
X60838363Y15205000D01*
X60599764Y15157540D01*
X60375008Y15064443D01*
X60172733Y14929287D01*
X60000713Y14757267D01*
X59865557Y14554992D01*
X59772460Y14330236D01*
X59725000Y14091637D01*
X59725000Y13848363D01*
X59772460Y13609764D01*
X59844850Y13435000D01*
X59535150Y13435000D01*
X59607540Y13609764D01*
X59655000Y13848363D01*
X59655000Y14091637D01*
X59607540Y14330236D01*
X59514443Y14554992D01*
X59379287Y14757267D01*
X59207267Y14929287D01*
X59004992Y15064443D01*
X58780236Y15157540D01*
X58541637Y15205000D01*
X58298363Y15205000D01*
X58059764Y15157540D01*
X57835008Y15064443D01*
X57632733Y14929287D01*
X57460713Y14757267D01*
X57325557Y14554992D01*
X57232460Y14330236D01*
X57185000Y14091637D01*
X57185000Y13848363D01*
X57232460Y13609764D01*
X57304850Y13435000D01*
X56995150Y13435000D01*
X57067540Y13609764D01*
X57115000Y13848363D01*
X57115000Y14091637D01*
X57067540Y14330236D01*
X56974443Y14554992D01*
X56839287Y14757267D01*
X56667267Y14929287D01*
X56464992Y15064443D01*
X56240236Y15157540D01*
X56001637Y15205000D01*
X55758363Y15205000D01*
X55519764Y15157540D01*
X55295008Y15064443D01*
X55092733Y14929287D01*
X54920713Y14757267D01*
X54785557Y14554992D01*
X54692460Y14330236D01*
X54645000Y14091637D01*
X54645000Y13848363D01*
X54692460Y13609764D01*
X54764850Y13435000D01*
X54453387Y13435000D01*
X54514237Y13568516D01*
X54570000Y13805313D01*
X54578495Y14048438D01*
X54539395Y14288549D01*
X54454202Y14516418D01*
X54413348Y14592852D01*
X54189764Y14640159D01*
X53519605Y13970000D01*
X53533748Y13955857D01*
X53354143Y13776252D01*
X53340000Y13790395D01*
X53325858Y13776252D01*
X53146253Y13955857D01*
X53160395Y13970000D01*
X52490236Y14640159D01*
X52266652Y14592852D01*
X52165763Y14371484D01*
X52110000Y14134687D01*
X52101505Y13891562D01*
X52140605Y13651451D01*
X52221529Y13435000D01*
X52037437Y13435000D01*
X52035000Y13684250D01*
X51876250Y13843000D01*
X50927000Y13843000D01*
X50927000Y13823000D01*
X50673000Y13823000D01*
X50673000Y13843000D01*
X49723750Y13843000D01*
X49565000Y13684250D01*
X49562563Y13435000D01*
X42051145Y13435000D01*
X42044609Y13450779D01*
X41871150Y13710379D01*
X41650379Y13931150D01*
X41592236Y13970000D01*
X41650379Y14008850D01*
X41871150Y14229621D01*
X42044609Y14489221D01*
X42078068Y14570000D01*
X49561928Y14570000D01*
X49565000Y14255750D01*
X49723750Y14097000D01*
X50673000Y14097000D01*
X50673000Y15046250D01*
X50927000Y15046250D01*
X50927000Y14097000D01*
X51876250Y14097000D01*
X52035000Y14255750D01*
X52038072Y14570000D01*
X52025812Y14694482D01*
X51989502Y14814180D01*
X51986518Y14819764D01*
X52669841Y14819764D01*
X53340000Y14149605D01*
X54010159Y14819764D01*
X53962852Y15043348D01*
X53741484Y15144237D01*
X53504687Y15200000D01*
X53261562Y15208495D01*
X53021451Y15169395D01*
X52793582Y15084202D01*
X52717148Y15043348D01*
X52669841Y14819764D01*
X51986518Y14819764D01*
X51930537Y14924494D01*
X51851185Y15021185D01*
X51754494Y15100537D01*
X51644180Y15159502D01*
X51524482Y15195812D01*
X51400000Y15208072D01*
X51085750Y15205000D01*
X50927000Y15046250D01*
X50673000Y15046250D01*
X50514250Y15205000D01*
X50200000Y15208072D01*
X50075518Y15195812D01*
X49955820Y15159502D01*
X49845506Y15100537D01*
X49748815Y15021185D01*
X49669463Y14924494D01*
X49610498Y14814180D01*
X49574188Y14694482D01*
X49561928Y14570000D01*
X42078068Y14570000D01*
X42164089Y14777673D01*
X42225000Y15083891D01*
X42225000Y15396109D01*
X42164089Y15702327D01*
X42044609Y15990779D01*
X41871150Y16250379D01*
X41650379Y16471150D01*
X41518324Y16559387D01*
X41560147Y16680248D01*
X40640000Y17600395D01*
X39719853Y16680248D01*
X39761676Y16559387D01*
X39629621Y16471150D01*
X39408850Y16250379D01*
X39291666Y16075000D01*
X16787249Y16075000D01*
X16732168Y16351912D01*
X16608918Y16649463D01*
X16429987Y16917252D01*
X16202252Y17144987D01*
X15934463Y17323918D01*
X15636912Y17447168D01*
X15321033Y17510000D01*
X14998967Y17510000D01*
X14683088Y17447168D01*
X14385537Y17323918D01*
X14117748Y17144987D01*
X13890013Y16917252D01*
X13711082Y16649463D01*
X13587832Y16351912D01*
X13525000Y16036033D01*
X11795000Y16036033D01*
X11732168Y16351912D01*
X11608918Y16649463D01*
X11429987Y16917252D01*
X11202252Y17144987D01*
X10934463Y17323918D01*
X10636912Y17447168D01*
X10321033Y17510000D01*
X9998967Y17510000D01*
X9683088Y17447168D01*
X9385537Y17323918D01*
X9117748Y17144987D01*
X8890013Y16917252D01*
X8751532Y16710000D01*
X6315793Y16710000D01*
X6135134Y16930134D01*
X5909014Y17115706D01*
X5651034Y17253599D01*
X5371111Y17338513D01*
X5201123Y17355255D01*
X5561295Y17715427D01*
X39048641Y17715427D01*
X39091816Y17406209D01*
X39194487Y17111356D01*
X39280958Y16949579D01*
X39540248Y16859853D01*
X40460395Y17780000D01*
X40819605Y17780000D01*
X41739752Y16859853D01*
X41999042Y16949579D01*
X42134935Y17230671D01*
X42213379Y17532873D01*
X42231359Y17844573D01*
X42188184Y18153791D01*
X42085513Y18448644D01*
X41999042Y18610421D01*
X41739752Y18700147D01*
X40819605Y17780000D01*
X40460395Y17780000D01*
X39540248Y18700147D01*
X39280958Y18610421D01*
X39145065Y18329329D01*
X39066621Y18027127D01*
X39048641Y17715427D01*
X5561295Y17715427D01*
X7330868Y19485000D01*
X39291666Y19485000D01*
X39408850Y19309621D01*
X39629621Y19088850D01*
X39761676Y19000613D01*
X39719853Y18879752D01*
X40640000Y17959605D01*
X41560147Y18879752D01*
X41518324Y19000613D01*
X41650379Y19088850D01*
X41871150Y19309621D01*
X42044609Y19569221D01*
X42164089Y19857673D01*
X42225000Y20163891D01*
X42225000Y20476109D01*
X42164089Y20782327D01*
X42044609Y21070779D01*
X41871150Y21330379D01*
X41650379Y21551150D01*
X41592236Y21590000D01*
X41650379Y21628850D01*
X41733166Y21711637D01*
X49565000Y21711637D01*
X49565000Y21468363D01*
X49612460Y21229764D01*
X49705557Y21005008D01*
X49840713Y20802733D01*
X50012733Y20630713D01*
X50215008Y20495557D01*
X50439764Y20402460D01*
X50678363Y20355000D01*
X50921637Y20355000D01*
X51160236Y20402460D01*
X51384992Y20495557D01*
X51587267Y20630713D01*
X51696790Y20740236D01*
X52669841Y20740236D01*
X52717148Y20516652D01*
X52938516Y20415763D01*
X53175313Y20360000D01*
X53418438Y20351505D01*
X53658549Y20390605D01*
X53886418Y20475798D01*
X53962852Y20516652D01*
X54010159Y20740236D01*
X53340000Y21410395D01*
X52669841Y20740236D01*
X51696790Y20740236D01*
X51759287Y20802733D01*
X51894443Y21005008D01*
X51987540Y21229764D01*
X52035000Y21468363D01*
X52035000Y21511562D01*
X52101505Y21511562D01*
X52140605Y21271451D01*
X52225798Y21043582D01*
X52266652Y20967148D01*
X52490236Y20919841D01*
X53160395Y21590000D01*
X53519605Y21590000D01*
X54189764Y20919841D01*
X54413348Y20967148D01*
X54514237Y21188516D01*
X54570000Y21425313D01*
X54578495Y21668438D01*
X54539395Y21908549D01*
X54454202Y22136418D01*
X54413348Y22212852D01*
X54189764Y22260159D01*
X53519605Y21590000D01*
X53160395Y21590000D01*
X52490236Y22260159D01*
X52266652Y22212852D01*
X52165763Y21991484D01*
X52110000Y21754687D01*
X52101505Y21511562D01*
X52035000Y21511562D01*
X52035000Y21711637D01*
X51987540Y21950236D01*
X51894443Y22174992D01*
X51759287Y22377267D01*
X51696790Y22439764D01*
X52669841Y22439764D01*
X53340000Y21769605D01*
X54010159Y22439764D01*
X53962852Y22663348D01*
X53741484Y22764237D01*
X53504687Y22820000D01*
X53261562Y22828495D01*
X53021451Y22789395D01*
X52793582Y22704202D01*
X52717148Y22663348D01*
X52669841Y22439764D01*
X51696790Y22439764D01*
X51587267Y22549287D01*
X51384992Y22684443D01*
X51160236Y22777540D01*
X50921637Y22825000D01*
X50678363Y22825000D01*
X50439764Y22777540D01*
X50215008Y22684443D01*
X50012733Y22549287D01*
X49840713Y22377267D01*
X49705557Y22174992D01*
X49612460Y21950236D01*
X49565000Y21711637D01*
X41733166Y21711637D01*
X41871150Y21849621D01*
X42044609Y22109221D01*
X42164089Y22397673D01*
X42225000Y22703891D01*
X42225000Y23016109D01*
X42164089Y23322327D01*
X42044609Y23610779D01*
X41871150Y23870379D01*
X41650379Y24091150D01*
X41592236Y24130000D01*
X41650379Y24168850D01*
X41871150Y24389621D01*
X42044609Y24649221D01*
X42164089Y24937673D01*
X42225000Y25243891D01*
X42225000Y25556109D01*
X42164089Y25862327D01*
X42044609Y26150779D01*
X41871150Y26410379D01*
X41650379Y26631150D01*
X41592236Y26670000D01*
X41650379Y26708850D01*
X41871150Y26929621D01*
X42044609Y27189221D01*
X42051145Y27205000D01*
X62193895Y27205000D01*
X62230000Y27201444D01*
X62266105Y27205000D01*
X62374085Y27215635D01*
X62512633Y27257663D01*
X62640320Y27325913D01*
X62752238Y27417762D01*
X62775259Y27445813D01*
X65856710Y30527263D01*
X65918363Y30515000D01*
X66161637Y30515000D01*
X66400236Y30562460D01*
X66624992Y30655557D01*
X66827267Y30790713D01*
X66936790Y30900236D01*
X67909841Y30900236D01*
X67957148Y30676652D01*
X68178516Y30575763D01*
X68415313Y30520000D01*
X68658438Y30511505D01*
X68898549Y30550605D01*
X69126418Y30635798D01*
X69202852Y30676652D01*
X69250159Y30900236D01*
X68580000Y31570395D01*
X67909841Y30900236D01*
X66936790Y30900236D01*
X66999287Y30962733D01*
X67134443Y31165008D01*
X67227540Y31389764D01*
X67275000Y31628363D01*
X67275000Y31671562D01*
X67341505Y31671562D01*
X67380605Y31431451D01*
X67465798Y31203582D01*
X67506652Y31127148D01*
X67730236Y31079841D01*
X68400395Y31750000D01*
X68759605Y31750000D01*
X69429764Y31079841D01*
X69653348Y31127148D01*
X69754237Y31348516D01*
X69810000Y31585313D01*
X69818495Y31828438D01*
X69779395Y32068549D01*
X69694202Y32296418D01*
X69653348Y32372852D01*
X69429764Y32420159D01*
X68759605Y31750000D01*
X68400395Y31750000D01*
X67730236Y32420159D01*
X67506652Y32372852D01*
X67405763Y32151484D01*
X67350000Y31914687D01*
X67341505Y31671562D01*
X67275000Y31671562D01*
X67275000Y31871637D01*
X67227540Y32110236D01*
X67134443Y32334992D01*
X66999287Y32537267D01*
X66936790Y32599764D01*
X67909841Y32599764D01*
X68580000Y31929605D01*
X69250159Y32599764D01*
X69202852Y32823348D01*
X68981484Y32924237D01*
X68744687Y32980000D01*
X68501562Y32988495D01*
X68261451Y32949395D01*
X68033582Y32864202D01*
X67957148Y32823348D01*
X67909841Y32599764D01*
X66936790Y32599764D01*
X66827267Y32709287D01*
X66624992Y32844443D01*
X66400236Y32937540D01*
X66161637Y32985000D01*
X65918363Y32985000D01*
X65874999Y32976374D01*
X65874999Y35625553D01*
X68396710Y38147263D01*
X68458363Y38135000D01*
X68701637Y38135000D01*
X68940236Y38182460D01*
X69164992Y38275557D01*
X69367267Y38410713D01*
X69539287Y38582733D01*
X69674443Y38785008D01*
X69767540Y39009764D01*
X69815000Y39248363D01*
X69815000Y39491637D01*
X69767540Y39730236D01*
X69695150Y39905000D01*
X72085554Y39905000D01*
X77307432Y34683121D01*
X77276487Y34581111D01*
X77247815Y34290000D01*
X77276487Y33998889D01*
X77361401Y33718966D01*
X77499294Y33460986D01*
X77684866Y33234866D01*
X77910986Y33049294D01*
X78168966Y32911401D01*
X78448889Y32826487D01*
X78667050Y32805000D01*
X78812950Y32805000D01*
X79031111Y32826487D01*
X79311034Y32911401D01*
X79569014Y33049294D01*
X79795134Y33234866D01*
X79980706Y33460986D01*
X80118599Y33718966D01*
X80203513Y33998889D01*
X80232185Y34290000D01*
X80203513Y34581111D01*
X80118599Y34861034D01*
X79980706Y35119014D01*
X79795134Y35345134D01*
X79765313Y35369607D01*
X79834180Y35390498D01*
X79944494Y35449463D01*
X80041185Y35528815D01*
X80120537Y35625506D01*
X80179502Y35735820D01*
X80215812Y35855518D01*
X80228072Y35980000D01*
X80228072Y37680000D01*
X80215812Y37804482D01*
X80179502Y37924180D01*
X80120537Y38034494D01*
X80041185Y38131185D01*
X79944494Y38210537D01*
X79834180Y38269502D01*
X79714482Y38305812D01*
X79590000Y38318072D01*
X78291375Y38318072D01*
X74205259Y42404187D01*
X74182238Y42432238D01*
X74070320Y42524087D01*
X73942633Y42592337D01*
X73804085Y42634365D01*
X73696105Y42645000D01*
X73660000Y42648556D01*
X73623895Y42645000D01*
X58456094Y42645000D01*
X58419999Y42648555D01*
X58383904Y42645000D01*
X58383895Y42645000D01*
X58275915Y42634365D01*
X58137367Y42592337D01*
X58009680Y42524087D01*
X57897762Y42432238D01*
X57874746Y42404193D01*
X56063290Y40592736D01*
X56001637Y40605000D01*
X55758363Y40605000D01*
X55519764Y40557540D01*
X55295008Y40464443D01*
X55092733Y40329287D01*
X54920713Y40157267D01*
X54785557Y39954992D01*
X54692460Y39730236D01*
X54645000Y39491637D01*
X54645000Y39248363D01*
X54692460Y39009764D01*
X54785557Y38785008D01*
X54920713Y38582733D01*
X55092733Y38410713D01*
X55295008Y38275557D01*
X55519764Y38182460D01*
X55758363Y38135000D01*
X56001637Y38135000D01*
X56240236Y38182460D01*
X56464992Y38275557D01*
X56667267Y38410713D01*
X56839287Y38582733D01*
X56974443Y38785008D01*
X57067540Y39009764D01*
X57115000Y39248363D01*
X57115000Y39491637D01*
X57102736Y39553290D01*
X57220735Y39671288D01*
X57185000Y39491637D01*
X57185000Y39248363D01*
X57232460Y39009764D01*
X57325557Y38785008D01*
X57460713Y38582733D01*
X57632733Y38410713D01*
X57835008Y38275557D01*
X58059764Y38182460D01*
X58298363Y38135000D01*
X58541637Y38135000D01*
X58780236Y38182460D01*
X59004992Y38275557D01*
X59207267Y38410713D01*
X59379287Y38582733D01*
X59514443Y38785008D01*
X59607540Y39009764D01*
X59655000Y39248363D01*
X59655000Y39491637D01*
X59607540Y39730236D01*
X59514443Y39954992D01*
X59379287Y40157267D01*
X59207267Y40329287D01*
X59004992Y40464443D01*
X58780236Y40557540D01*
X58541637Y40605000D01*
X58298363Y40605000D01*
X58118712Y40569265D01*
X58724447Y41175000D01*
X62933551Y41175000D01*
X61917553Y40159001D01*
X61747267Y40329287D01*
X61544992Y40464443D01*
X61320236Y40557540D01*
X61081637Y40605000D01*
X60838363Y40605000D01*
X60599764Y40557540D01*
X60375008Y40464443D01*
X60172733Y40329287D01*
X60000713Y40157267D01*
X59865557Y39954992D01*
X59772460Y39730236D01*
X59725000Y39491637D01*
X59725000Y39248363D01*
X59772460Y39009764D01*
X59865557Y38785008D01*
X60000713Y38582733D01*
X60172733Y38410713D01*
X60375008Y38275557D01*
X60599764Y38182460D01*
X60838363Y38135000D01*
X61081637Y38135000D01*
X61320236Y38182460D01*
X61495000Y38254850D01*
X61495001Y33324448D01*
X61143290Y32972737D01*
X61081637Y32985000D01*
X60838363Y32985000D01*
X60599764Y32937540D01*
X60375008Y32844443D01*
X60172733Y32709287D01*
X60000713Y32537267D01*
X59865557Y32334992D01*
X59772460Y32110236D01*
X59725000Y31871637D01*
X59725000Y31628363D01*
X59772460Y31389764D01*
X59844850Y31215000D01*
X59535150Y31215000D01*
X59607540Y31389764D01*
X59655000Y31628363D01*
X59655000Y31871637D01*
X59607540Y32110236D01*
X59514443Y32334992D01*
X59379287Y32537267D01*
X59207267Y32709287D01*
X59004992Y32844443D01*
X58780236Y32937540D01*
X58541637Y32985000D01*
X58298363Y32985000D01*
X58059764Y32937540D01*
X57835008Y32844443D01*
X57632733Y32709287D01*
X57460713Y32537267D01*
X57325557Y32334992D01*
X57232460Y32110236D01*
X57185000Y31871637D01*
X57185000Y31628363D01*
X57232460Y31389764D01*
X57304850Y31215000D01*
X56995150Y31215000D01*
X57067540Y31389764D01*
X57115000Y31628363D01*
X57115000Y31871637D01*
X57067540Y32110236D01*
X56974443Y32334992D01*
X56839287Y32537267D01*
X56667267Y32709287D01*
X56464992Y32844443D01*
X56240236Y32937540D01*
X56001637Y32985000D01*
X55758363Y32985000D01*
X55519764Y32937540D01*
X55295008Y32844443D01*
X55092733Y32709287D01*
X54920713Y32537267D01*
X54785557Y32334992D01*
X54692460Y32110236D01*
X54645000Y31871637D01*
X54645000Y31628363D01*
X54692460Y31389764D01*
X54764850Y31215000D01*
X54453387Y31215000D01*
X54514237Y31348516D01*
X54570000Y31585313D01*
X54578495Y31828438D01*
X54539395Y32068549D01*
X54454202Y32296418D01*
X54413348Y32372852D01*
X54189764Y32420159D01*
X53519605Y31750000D01*
X53533748Y31735857D01*
X53354143Y31556252D01*
X53340000Y31570395D01*
X53325858Y31556252D01*
X53146253Y31735857D01*
X53160395Y31750000D01*
X52490236Y32420159D01*
X52266652Y32372852D01*
X52165763Y32151484D01*
X52110000Y31914687D01*
X52101505Y31671562D01*
X52140605Y31431451D01*
X52221529Y31215000D01*
X52037437Y31215000D01*
X52035000Y31464250D01*
X51876250Y31623000D01*
X50927000Y31623000D01*
X50927000Y31603000D01*
X50673000Y31603000D01*
X50673000Y31623000D01*
X49723750Y31623000D01*
X49565000Y31464250D01*
X49562563Y31215000D01*
X42051145Y31215000D01*
X42044609Y31230779D01*
X41871150Y31490379D01*
X41650379Y31711150D01*
X41592236Y31750000D01*
X41650379Y31788850D01*
X41871150Y32009621D01*
X42044609Y32269221D01*
X42078068Y32350000D01*
X49561928Y32350000D01*
X49565000Y32035750D01*
X49723750Y31877000D01*
X50673000Y31877000D01*
X50673000Y32826250D01*
X50927000Y32826250D01*
X50927000Y31877000D01*
X51876250Y31877000D01*
X52035000Y32035750D01*
X52038072Y32350000D01*
X52025812Y32474482D01*
X51989502Y32594180D01*
X51986518Y32599764D01*
X52669841Y32599764D01*
X53340000Y31929605D01*
X54010159Y32599764D01*
X53962852Y32823348D01*
X53741484Y32924237D01*
X53504687Y32980000D01*
X53261562Y32988495D01*
X53021451Y32949395D01*
X52793582Y32864202D01*
X52717148Y32823348D01*
X52669841Y32599764D01*
X51986518Y32599764D01*
X51930537Y32704494D01*
X51851185Y32801185D01*
X51754494Y32880537D01*
X51644180Y32939502D01*
X51524482Y32975812D01*
X51400000Y32988072D01*
X51085750Y32985000D01*
X50927000Y32826250D01*
X50673000Y32826250D01*
X50514250Y32985000D01*
X50200000Y32988072D01*
X50075518Y32975812D01*
X49955820Y32939502D01*
X49845506Y32880537D01*
X49748815Y32801185D01*
X49669463Y32704494D01*
X49610498Y32594180D01*
X49574188Y32474482D01*
X49561928Y32350000D01*
X42078068Y32350000D01*
X42164089Y32557673D01*
X42225000Y32863891D01*
X42225000Y33176109D01*
X42164089Y33482327D01*
X42044609Y33770779D01*
X41871150Y34030379D01*
X41650379Y34251150D01*
X41518324Y34339387D01*
X41560147Y34460248D01*
X40640000Y35380395D01*
X40625858Y35366252D01*
X40446253Y35545857D01*
X40460395Y35560000D01*
X40819605Y35560000D01*
X41739752Y34639853D01*
X41999042Y34729579D01*
X42134935Y35010671D01*
X42213379Y35312873D01*
X42231359Y35624573D01*
X42188184Y35933791D01*
X42085513Y36228644D01*
X41999042Y36390421D01*
X41739752Y36480147D01*
X40819605Y35560000D01*
X40460395Y35560000D01*
X39540248Y36480147D01*
X39280958Y36390421D01*
X39145065Y36109329D01*
X39066621Y35807127D01*
X39064828Y35776040D01*
X31734446Y43106421D01*
X31708291Y43138291D01*
X31581146Y43242636D01*
X31436087Y43320172D01*
X31278689Y43367918D01*
X31156019Y43380000D01*
X31156018Y43380000D01*
X31115000Y43384040D01*
X31073982Y43380000D01*
X16568468Y43380000D01*
X16429987Y43587252D01*
X16402239Y43615000D01*
X33944133Y43615000D01*
X39096150Y38462982D01*
X39055000Y38256109D01*
X39055000Y37943891D01*
X39115911Y37637673D01*
X39235391Y37349221D01*
X39408850Y37089621D01*
X39629621Y36868850D01*
X39761676Y36780613D01*
X39719853Y36659752D01*
X40640000Y35739605D01*
X41560147Y36659752D01*
X41518324Y36780613D01*
X41650379Y36868850D01*
X41871150Y37089621D01*
X42044609Y37349221D01*
X42164089Y37637673D01*
X42225000Y37943891D01*
X42225000Y38256109D01*
X42164089Y38562327D01*
X42044609Y38850779D01*
X41871150Y39110379D01*
X41650379Y39331150D01*
X41592236Y39370000D01*
X41650379Y39408850D01*
X41733166Y39491637D01*
X49565000Y39491637D01*
X49565000Y39248363D01*
X49612460Y39009764D01*
X49705557Y38785008D01*
X49840713Y38582733D01*
X50012733Y38410713D01*
X50215008Y38275557D01*
X50439764Y38182460D01*
X50678363Y38135000D01*
X50921637Y38135000D01*
X51160236Y38182460D01*
X51384992Y38275557D01*
X51587267Y38410713D01*
X51696790Y38520236D01*
X52669841Y38520236D01*
X52717148Y38296652D01*
X52938516Y38195763D01*
X53175313Y38140000D01*
X53418438Y38131505D01*
X53658549Y38170605D01*
X53886418Y38255798D01*
X53962852Y38296652D01*
X54010159Y38520236D01*
X53340000Y39190395D01*
X52669841Y38520236D01*
X51696790Y38520236D01*
X51759287Y38582733D01*
X51894443Y38785008D01*
X51987540Y39009764D01*
X52035000Y39248363D01*
X52035000Y39291562D01*
X52101505Y39291562D01*
X52140605Y39051451D01*
X52225798Y38823582D01*
X52266652Y38747148D01*
X52490236Y38699841D01*
X53160395Y39370000D01*
X53519605Y39370000D01*
X54189764Y38699841D01*
X54413348Y38747148D01*
X54514237Y38968516D01*
X54570000Y39205313D01*
X54578495Y39448438D01*
X54539395Y39688549D01*
X54454202Y39916418D01*
X54413348Y39992852D01*
X54189764Y40040159D01*
X53519605Y39370000D01*
X53160395Y39370000D01*
X52490236Y40040159D01*
X52266652Y39992852D01*
X52165763Y39771484D01*
X52110000Y39534687D01*
X52101505Y39291562D01*
X52035000Y39291562D01*
X52035000Y39491637D01*
X51987540Y39730236D01*
X51894443Y39954992D01*
X51759287Y40157267D01*
X51696790Y40219764D01*
X52669841Y40219764D01*
X53340000Y39549605D01*
X54010159Y40219764D01*
X53962852Y40443348D01*
X53741484Y40544237D01*
X53504687Y40600000D01*
X53261562Y40608495D01*
X53021451Y40569395D01*
X52793582Y40484202D01*
X52717148Y40443348D01*
X52669841Y40219764D01*
X51696790Y40219764D01*
X51587267Y40329287D01*
X51384992Y40464443D01*
X51160236Y40557540D01*
X50921637Y40605000D01*
X50678363Y40605000D01*
X50439764Y40557540D01*
X50215008Y40464443D01*
X50012733Y40329287D01*
X49840713Y40157267D01*
X49705557Y39954992D01*
X49612460Y39730236D01*
X49565000Y39491637D01*
X41733166Y39491637D01*
X41871150Y39629621D01*
X42044609Y39889221D01*
X42164089Y40177673D01*
X42225000Y40483891D01*
X42225000Y40796109D01*
X42164089Y41102327D01*
X42044609Y41390779D01*
X41871150Y41650379D01*
X41650379Y41871150D01*
X41592236Y41910000D01*
X41650379Y41948850D01*
X41871150Y42169621D01*
X42044609Y42429221D01*
X42164089Y42717673D01*
X42225000Y43023891D01*
X42225000Y43336109D01*
X42164089Y43642327D01*
X42044609Y43930779D01*
X41871150Y44190379D01*
X41650379Y44411150D01*
X41390779Y44584609D01*
X41102327Y44704089D01*
X40796109Y44765000D01*
X40483891Y44765000D01*
X40177673Y44704089D01*
X39889221Y44584609D01*
X39629621Y44411150D01*
X39408850Y44190379D01*
X39235391Y43930779D01*
X39115911Y43642327D01*
X39055000Y43336109D01*
X39055000Y43023891D01*
X39115911Y42717673D01*
X39235391Y42429221D01*
X39408850Y42169621D01*
X39629621Y41948850D01*
X39687764Y41910000D01*
X39629621Y41871150D01*
X39408850Y41650379D01*
X39235391Y41390779D01*
X39115911Y41102327D01*
X39066574Y40854294D01*
X34909446Y45011421D01*
X34883291Y45043291D01*
X34756146Y45147636D01*
X34611087Y45225172D01*
X34453689Y45272918D01*
X34331019Y45285000D01*
X34331018Y45285000D01*
X34290000Y45289040D01*
X34248982Y45285000D01*
X4486018Y45285000D01*
X4445000Y45289040D01*
X4403981Y45285000D01*
X4281311Y45272918D01*
X4123913Y45225172D01*
X3978854Y45147636D01*
X3851709Y45043291D01*
X3825563Y45011432D01*
X2823404Y44009272D01*
X2612950Y44030000D01*
X2467050Y44030000D01*
X2248889Y44008513D01*
X1968966Y43923599D01*
X1710986Y43785706D01*
X1484866Y43600134D01*
X1397000Y43493069D01*
X1397000Y51943000D01*
X12826707Y51943000D01*
X12675492Y51577935D01*
G36*
X13890013Y43587252D02*
G01*
X13711082Y43319463D01*
X13587832Y43021912D01*
X13525000Y42706033D01*
X13525000Y42383967D01*
X13587832Y42068088D01*
X13711082Y41770537D01*
X13890013Y41502748D01*
X14117748Y41275013D01*
X14385537Y41096082D01*
X14683088Y40972832D01*
X14998967Y40910000D01*
X15321033Y40910000D01*
X15636912Y40972832D01*
X15934463Y41096082D01*
X16202252Y41275013D01*
X16429987Y41502748D01*
X16568468Y41710000D01*
X30769133Y41710000D01*
X39096150Y33382982D01*
X39055000Y33176109D01*
X39055000Y32863891D01*
X39115911Y32557673D01*
X39235391Y32269221D01*
X39408850Y32009621D01*
X39629621Y31788850D01*
X39687764Y31750000D01*
X39629621Y31711150D01*
X39408850Y31490379D01*
X39235391Y31230779D01*
X39115911Y30942327D01*
X39055000Y30636109D01*
X39055000Y30323891D01*
X39115911Y30017673D01*
X39235391Y29729221D01*
X39408850Y29469621D01*
X39629621Y29248850D01*
X39687764Y29210000D01*
X39629621Y29171150D01*
X39408850Y28950379D01*
X39235391Y28690779D01*
X39115911Y28402327D01*
X39055000Y28096109D01*
X39055000Y27783891D01*
X39115911Y27477673D01*
X39235391Y27189221D01*
X39408850Y26929621D01*
X39629621Y26708850D01*
X39687764Y26670000D01*
X39629621Y26631150D01*
X39408850Y26410379D01*
X39235391Y26150779D01*
X39115911Y25862327D01*
X39055000Y25556109D01*
X39055000Y25243891D01*
X39115911Y24937673D01*
X39235391Y24649221D01*
X39408850Y24389621D01*
X39629621Y24168850D01*
X39687764Y24130000D01*
X39629621Y24091150D01*
X39408850Y23870379D01*
X39235391Y23610779D01*
X39115911Y23322327D01*
X39055000Y23016109D01*
X39055000Y22703891D01*
X39115911Y22397673D01*
X39235391Y22109221D01*
X39408850Y21849621D01*
X39629621Y21628850D01*
X39687764Y21590000D01*
X39629621Y21551150D01*
X39408850Y21330379D01*
X39291666Y21155000D01*
X7026007Y21155000D01*
X6984999Y21159039D01*
X6943991Y21155000D01*
X6943981Y21155000D01*
X6821311Y21142918D01*
X6663913Y21095172D01*
X6518854Y21017636D01*
X6391709Y20913291D01*
X6365559Y20881427D01*
X2823405Y17339272D01*
X2612950Y17360000D01*
X2467050Y17360000D01*
X2248889Y17338513D01*
X1968966Y17253599D01*
X1710986Y17115706D01*
X1484866Y16930134D01*
X1397000Y16823069D01*
X1397000Y25043110D01*
X16338524Y25043110D01*
X16383175Y24895901D01*
X16508359Y24633080D01*
X16682412Y24399731D01*
X16898645Y24204822D01*
X17148748Y24055843D01*
X17423109Y23958519D01*
X17653000Y24079186D01*
X17653000Y25273000D01*
X17907000Y25273000D01*
X17907000Y24079186D01*
X18136891Y23958519D01*
X18411252Y24055843D01*
X18661355Y24204822D01*
X18877588Y24399731D01*
X19051641Y24633080D01*
X19176825Y24895901D01*
X19221476Y25043110D01*
X19100155Y25273000D01*
X17907000Y25273000D01*
X17653000Y25273000D01*
X16459845Y25273000D01*
X16338524Y25043110D01*
X1397000Y25043110D01*
X1397000Y28790000D01*
X16291928Y28790000D01*
X16291928Y27090000D01*
X16304188Y26965518D01*
X16340498Y26845820D01*
X16399463Y26735506D01*
X16478815Y26638815D01*
X16575506Y26559463D01*
X16685820Y26500498D01*
X16766466Y26476034D01*
X16682412Y26400269D01*
X16508359Y26166920D01*
X16383175Y25904099D01*
X16338524Y25756890D01*
X16459845Y25527000D01*
X17653000Y25527000D01*
X17653000Y25547000D01*
X17907000Y25547000D01*
X17907000Y25527000D01*
X19100155Y25527000D01*
X19221476Y25756890D01*
X19176825Y25904099D01*
X19051641Y26166920D01*
X18877588Y26400269D01*
X18793534Y26476034D01*
X18874180Y26500498D01*
X18984494Y26559463D01*
X19081185Y26638815D01*
X19160537Y26735506D01*
X19219502Y26845820D01*
X19255812Y26965518D01*
X19268072Y27090000D01*
X19268072Y28790000D01*
X19255812Y28914482D01*
X19219502Y29034180D01*
X19160537Y29144494D01*
X19081185Y29241185D01*
X18984494Y29320537D01*
X18874180Y29379502D01*
X18754482Y29415812D01*
X18630000Y29428072D01*
X16930000Y29428072D01*
X16805518Y29415812D01*
X16685820Y29379502D01*
X16575506Y29320537D01*
X16478815Y29241185D01*
X16399463Y29144494D01*
X16340498Y29034180D01*
X16304188Y28914482D01*
X16291928Y28790000D01*
X1397000Y28790000D01*
X1397000Y36516931D01*
X1484866Y36409866D01*
X1710986Y36224294D01*
X1968966Y36086401D01*
X2248889Y36001487D01*
X2467050Y35980000D01*
X2612950Y35980000D01*
X2831111Y36001487D01*
X3111034Y36086401D01*
X3369014Y36224294D01*
X3595134Y36409866D01*
X3619607Y36439687D01*
X3640498Y36370820D01*
X3699463Y36260506D01*
X3778815Y36163815D01*
X3875506Y36084463D01*
X3985820Y36025498D01*
X4105518Y35989188D01*
X4230000Y35976928D01*
X5930000Y35976928D01*
X6054482Y35989188D01*
X6174180Y36025498D01*
X6284494Y36084463D01*
X6381185Y36163815D01*
X6460537Y36260506D01*
X6519502Y36370820D01*
X6555812Y36490518D01*
X6568072Y36615000D01*
X6568072Y38315000D01*
X6555812Y38439482D01*
X6519502Y38559180D01*
X6460537Y38669494D01*
X6381185Y38766185D01*
X6284494Y38845537D01*
X6174180Y38904502D01*
X6105313Y38925393D01*
X6135134Y38949866D01*
X6320706Y39175986D01*
X6458599Y39433966D01*
X6543513Y39713889D01*
X6572185Y40005000D01*
X6543513Y40296111D01*
X6458599Y40576034D01*
X6320706Y40834014D01*
X6135134Y41060134D01*
X5915000Y41240793D01*
X5915000Y41309207D01*
X6135134Y41489866D01*
X6315793Y41710000D01*
X8751532Y41710000D01*
X8890013Y41502748D01*
X9117748Y41275013D01*
X9385537Y41096082D01*
X9683088Y40972832D01*
X9998967Y40910000D01*
X10321033Y40910000D01*
X10636912Y40972832D01*
X10934463Y41096082D01*
X11202252Y41275013D01*
X11429987Y41502748D01*
X11608918Y41770537D01*
X11732168Y42068088D01*
X11795000Y42383967D01*
X11795000Y42706033D01*
X11732168Y43021912D01*
X11608918Y43319463D01*
X11429987Y43587252D01*
X11402239Y43615000D01*
X13917761Y43615000D01*
X13890013Y43587252D01*
X13890013Y43587252D01*
G37*
X13890013Y43587252D02*
X13711082Y43319463D01*
X13587832Y43021912D01*
X13525000Y42706033D01*
X13525000Y42383967D01*
X13587832Y42068088D01*
X13711082Y41770537D01*
X13890013Y41502748D01*
X14117748Y41275013D01*
X14385537Y41096082D01*
X14683088Y40972832D01*
X14998967Y40910000D01*
X15321033Y40910000D01*
X15636912Y40972832D01*
X15934463Y41096082D01*
X16202252Y41275013D01*
X16429987Y41502748D01*
X16568468Y41710000D01*
X30769133Y41710000D01*
X39096150Y33382982D01*
X39055000Y33176109D01*
X39055000Y32863891D01*
X39115911Y32557673D01*
X39235391Y32269221D01*
X39408850Y32009621D01*
X39629621Y31788850D01*
X39687764Y31750000D01*
X39629621Y31711150D01*
X39408850Y31490379D01*
X39235391Y31230779D01*
X39115911Y30942327D01*
X39055000Y30636109D01*
X39055000Y30323891D01*
X39115911Y30017673D01*
X39235391Y29729221D01*
X39408850Y29469621D01*
X39629621Y29248850D01*
X39687764Y29210000D01*
X39629621Y29171150D01*
X39408850Y28950379D01*
X39235391Y28690779D01*
X39115911Y28402327D01*
X39055000Y28096109D01*
X39055000Y27783891D01*
X39115911Y27477673D01*
X39235391Y27189221D01*
X39408850Y26929621D01*
X39629621Y26708850D01*
X39687764Y26670000D01*
X39629621Y26631150D01*
X39408850Y26410379D01*
X39235391Y26150779D01*
X39115911Y25862327D01*
X39055000Y25556109D01*
X39055000Y25243891D01*
X39115911Y24937673D01*
X39235391Y24649221D01*
X39408850Y24389621D01*
X39629621Y24168850D01*
X39687764Y24130000D01*
X39629621Y24091150D01*
X39408850Y23870379D01*
X39235391Y23610779D01*
X39115911Y23322327D01*
X39055000Y23016109D01*
X39055000Y22703891D01*
X39115911Y22397673D01*
X39235391Y22109221D01*
X39408850Y21849621D01*
X39629621Y21628850D01*
X39687764Y21590000D01*
X39629621Y21551150D01*
X39408850Y21330379D01*
X39291666Y21155000D01*
X7026007Y21155000D01*
X6984999Y21159039D01*
X6943991Y21155000D01*
X6943981Y21155000D01*
X6821311Y21142918D01*
X6663913Y21095172D01*
X6518854Y21017636D01*
X6391709Y20913291D01*
X6365559Y20881427D01*
X2823405Y17339272D01*
X2612950Y17360000D01*
X2467050Y17360000D01*
X2248889Y17338513D01*
X1968966Y17253599D01*
X1710986Y17115706D01*
X1484866Y16930134D01*
X1397000Y16823069D01*
X1397000Y25043110D01*
X16338524Y25043110D01*
X16383175Y24895901D01*
X16508359Y24633080D01*
X16682412Y24399731D01*
X16898645Y24204822D01*
X17148748Y24055843D01*
X17423109Y23958519D01*
X17653000Y24079186D01*
X17653000Y25273000D01*
X17907000Y25273000D01*
X17907000Y24079186D01*
X18136891Y23958519D01*
X18411252Y24055843D01*
X18661355Y24204822D01*
X18877588Y24399731D01*
X19051641Y24633080D01*
X19176825Y24895901D01*
X19221476Y25043110D01*
X19100155Y25273000D01*
X17907000Y25273000D01*
X17653000Y25273000D01*
X16459845Y25273000D01*
X16338524Y25043110D01*
X1397000Y25043110D01*
X1397000Y28790000D01*
X16291928Y28790000D01*
X16291928Y27090000D01*
X16304188Y26965518D01*
X16340498Y26845820D01*
X16399463Y26735506D01*
X16478815Y26638815D01*
X16575506Y26559463D01*
X16685820Y26500498D01*
X16766466Y26476034D01*
X16682412Y26400269D01*
X16508359Y26166920D01*
X16383175Y25904099D01*
X16338524Y25756890D01*
X16459845Y25527000D01*
X17653000Y25527000D01*
X17653000Y25547000D01*
X17907000Y25547000D01*
X17907000Y25527000D01*
X19100155Y25527000D01*
X19221476Y25756890D01*
X19176825Y25904099D01*
X19051641Y26166920D01*
X18877588Y26400269D01*
X18793534Y26476034D01*
X18874180Y26500498D01*
X18984494Y26559463D01*
X19081185Y26638815D01*
X19160537Y26735506D01*
X19219502Y26845820D01*
X19255812Y26965518D01*
X19268072Y27090000D01*
X19268072Y28790000D01*
X19255812Y28914482D01*
X19219502Y29034180D01*
X19160537Y29144494D01*
X19081185Y29241185D01*
X18984494Y29320537D01*
X18874180Y29379502D01*
X18754482Y29415812D01*
X18630000Y29428072D01*
X16930000Y29428072D01*
X16805518Y29415812D01*
X16685820Y29379502D01*
X16575506Y29320537D01*
X16478815Y29241185D01*
X16399463Y29144494D01*
X16340498Y29034180D01*
X16304188Y28914482D01*
X16291928Y28790000D01*
X1397000Y28790000D01*
X1397000Y36516931D01*
X1484866Y36409866D01*
X1710986Y36224294D01*
X1968966Y36086401D01*
X2248889Y36001487D01*
X2467050Y35980000D01*
X2612950Y35980000D01*
X2831111Y36001487D01*
X3111034Y36086401D01*
X3369014Y36224294D01*
X3595134Y36409866D01*
X3619607Y36439687D01*
X3640498Y36370820D01*
X3699463Y36260506D01*
X3778815Y36163815D01*
X3875506Y36084463D01*
X3985820Y36025498D01*
X4105518Y35989188D01*
X4230000Y35976928D01*
X5930000Y35976928D01*
X6054482Y35989188D01*
X6174180Y36025498D01*
X6284494Y36084463D01*
X6381185Y36163815D01*
X6460537Y36260506D01*
X6519502Y36370820D01*
X6555812Y36490518D01*
X6568072Y36615000D01*
X6568072Y38315000D01*
X6555812Y38439482D01*
X6519502Y38559180D01*
X6460537Y38669494D01*
X6381185Y38766185D01*
X6284494Y38845537D01*
X6174180Y38904502D01*
X6105313Y38925393D01*
X6135134Y38949866D01*
X6320706Y39175986D01*
X6458599Y39433966D01*
X6543513Y39713889D01*
X6572185Y40005000D01*
X6543513Y40296111D01*
X6458599Y40576034D01*
X6320706Y40834014D01*
X6135134Y41060134D01*
X5915000Y41240793D01*
X5915000Y41309207D01*
X6135134Y41489866D01*
X6315793Y41710000D01*
X8751532Y41710000D01*
X8890013Y41502748D01*
X9117748Y41275013D01*
X9385537Y41096082D01*
X9683088Y40972832D01*
X9998967Y40910000D01*
X10321033Y40910000D01*
X10636912Y40972832D01*
X10934463Y41096082D01*
X11202252Y41275013D01*
X11429987Y41502748D01*
X11608918Y41770537D01*
X11732168Y42068088D01*
X11795000Y42383967D01*
X11795000Y42706033D01*
X11732168Y43021912D01*
X11608918Y43319463D01*
X11429987Y43587252D01*
X11402239Y43615000D01*
X13917761Y43615000D01*
X13890013Y43587252D01*
M02*
