G04 #@! TF.GenerationSoftware,KiCad,Pcbnew,(5.1.2-1)-1*
G04 #@! TF.CreationDate,2019-07-30T03:14:59+09:00*
G04 #@! TF.ProjectId,switcher-shield,73776974-6368-4657-922d-736869656c64,rev?*
G04 #@! TF.SameCoordinates,PX6296c50PY74079d0*
G04 #@! TF.FileFunction,Legend,Top*
G04 #@! TF.FilePolarity,Positive*
%FSLAX46Y46*%
G04 Gerber Fmt 4.6, Leading zero omitted, Abs format (unit mm)*
G04 Created by KiCad (PCBNEW (5.1.2-1)-1) date 2019-07-30 03:14:59*
%MOMM*%
%LPD*%
G04 APERTURE LIST*
%ADD10C,0.150000*%
%ADD11C,0.120000*%
%ADD12C,0.200000*%
%ADD13C,0.254000*%
%ADD14O,1.700000X1.700000*%
%ADD15R,1.700000X1.700000*%
%ADD16C,1.727200*%
%ADD17O,1.727200X1.727200*%
%ADD18O,1.727200X2.032000*%
%ADD19C,4.064000*%
%ADD20C,1.900000*%
%ADD21C,2.000000*%
G04 APERTURE END LIST*
D10*
X10160000Y42672000D02*
X10160000Y10668000D01*
X0Y42672000D02*
X10160000Y42672000D01*
X0Y32004000D02*
X10160000Y32004000D01*
X0Y21336000D02*
X10160000Y21336000D01*
X0Y10668000D02*
X10160000Y10668000D01*
X0Y26670000D02*
X86360000Y26670000D01*
X2540000Y26670000D02*
X9398000Y26670000D01*
X0Y26670000D02*
X2540000Y26670000D01*
X28392380Y5365715D02*
X28392380Y4794286D01*
X28392380Y5080000D02*
X27392380Y5080000D01*
X27535238Y4984762D01*
X27630476Y4889524D01*
X27678095Y4794286D01*
D11*
X71120000Y15180000D02*
X69790000Y15180000D01*
X69790000Y15180000D02*
X69790000Y16510000D01*
X69790000Y17780000D02*
X69790000Y20380000D01*
X72450000Y20380000D02*
X69790000Y20380000D01*
X72450000Y17780000D02*
X72450000Y20380000D01*
X72450000Y17780000D02*
X69790000Y17780000D01*
D10*
X97790000Y6350000D02*
X97790000Y52070000D01*
X92710000Y52070000D02*
X92710000Y8890000D01*
X97790000Y52070000D02*
X92710000Y52070000D01*
X97790000Y6350000D02*
X95250000Y6350000D01*
X92430000Y7620000D02*
X92430000Y6070000D01*
X95250000Y6350000D02*
X95250000Y8890000D01*
X95250000Y8890000D02*
X92710000Y8890000D01*
X92430000Y6070000D02*
X93980000Y6070000D01*
X29210000Y1270000D02*
X46990000Y1270000D01*
X46990000Y1270000D02*
X46990000Y3810000D01*
X46990000Y3810000D02*
X29210000Y3810000D01*
X26390000Y990000D02*
X27940000Y990000D01*
X29210000Y1270000D02*
X29210000Y3810000D01*
X27940000Y4090000D02*
X26390000Y4090000D01*
X26390000Y4090000D02*
X26390000Y990000D01*
X52070000Y1270000D02*
X69850000Y1270000D01*
X69850000Y1270000D02*
X69850000Y3810000D01*
X69850000Y3810000D02*
X52070000Y3810000D01*
X49250000Y990000D02*
X50800000Y990000D01*
X52070000Y1270000D02*
X52070000Y3810000D01*
X50800000Y4090000D02*
X49250000Y4090000D01*
X49250000Y4090000D02*
X49250000Y990000D01*
X74930000Y1270000D02*
X92710000Y1270000D01*
X92710000Y1270000D02*
X92710000Y3810000D01*
X92710000Y3810000D02*
X74930000Y3810000D01*
X72110000Y990000D02*
X73660000Y990000D01*
X74930000Y1270000D02*
X74930000Y3810000D01*
X73660000Y4090000D02*
X72110000Y4090000D01*
X72110000Y4090000D02*
X72110000Y990000D01*
X20066000Y49530000D02*
X42926000Y49530000D01*
X42926000Y49530000D02*
X42926000Y52070000D01*
X42926000Y52070000D02*
X20066000Y52070000D01*
X17246000Y49250000D02*
X18796000Y49250000D01*
X20066000Y49530000D02*
X20066000Y52070000D01*
X18796000Y52350000D02*
X17246000Y52350000D01*
X17246000Y52350000D02*
X17246000Y49250000D01*
X46990000Y49530000D02*
X64770000Y49530000D01*
X64770000Y49530000D02*
X64770000Y52070000D01*
X64770000Y52070000D02*
X46990000Y52070000D01*
X44170000Y49250000D02*
X45720000Y49250000D01*
X46990000Y49530000D02*
X46990000Y52070000D01*
X45720000Y52350000D02*
X44170000Y52350000D01*
X44170000Y52350000D02*
X44170000Y49250000D01*
X69850000Y49530000D02*
X87630000Y49530000D01*
X87630000Y49530000D02*
X87630000Y52070000D01*
X87630000Y52070000D02*
X69850000Y52070000D01*
X67030000Y49250000D02*
X68580000Y49250000D01*
X69850000Y49530000D02*
X69850000Y52070000D01*
X68580000Y52350000D02*
X67030000Y52350000D01*
X67030000Y52350000D02*
X67030000Y49250000D01*
X16256000Y2540000D02*
G75*
G03X16256000Y2540000I-2286000J0D01*
G01*
X98806000Y2540000D02*
G75*
G03X98806000Y2540000I-2286000J0D01*
G01*
X17526000Y50800000D02*
G75*
G03X17526000Y50800000I-2286000J0D01*
G01*
X92456000Y50800000D02*
G75*
G03X92456000Y50800000I-2286000J0D01*
G01*
D11*
X91500000Y6290000D02*
X88900000Y6290000D01*
X91500000Y6290000D02*
X91500000Y47050000D01*
X91500000Y47050000D02*
X86300000Y47050000D01*
X86300000Y8890000D02*
X86300000Y47050000D01*
X88900000Y8890000D02*
X86300000Y8890000D01*
X88900000Y6290000D02*
X88900000Y8890000D01*
X86300000Y6290000D02*
X86300000Y7620000D01*
X87630000Y6290000D02*
X86300000Y6290000D01*
X44450000Y5020000D02*
X44450000Y7680000D01*
X44450000Y5020000D02*
X62290000Y5020000D01*
X62290000Y5020000D02*
X62290000Y7680000D01*
X44450000Y7680000D02*
X62290000Y7680000D01*
X41850000Y7680000D02*
X43180000Y7680000D01*
X41850000Y6350000D02*
X41850000Y7680000D01*
X64710000Y6350000D02*
X64710000Y7680000D01*
X64710000Y7680000D02*
X66040000Y7680000D01*
X67310000Y7680000D02*
X85150000Y7680000D01*
X85150000Y5020000D02*
X85150000Y7680000D01*
X67310000Y5020000D02*
X85150000Y5020000D01*
X67310000Y5020000D02*
X67310000Y7680000D01*
X67310000Y45660000D02*
X67310000Y48320000D01*
X67310000Y45660000D02*
X85150000Y45660000D01*
X85150000Y45660000D02*
X85150000Y48320000D01*
X67310000Y48320000D02*
X85150000Y48320000D01*
X64710000Y48320000D02*
X66040000Y48320000D01*
X64710000Y46990000D02*
X64710000Y48320000D01*
X30226000Y45660000D02*
X30226000Y48320000D01*
X30226000Y45660000D02*
X42986000Y45660000D01*
X42986000Y45660000D02*
X42986000Y48320000D01*
X30226000Y48320000D02*
X42986000Y48320000D01*
X27626000Y48320000D02*
X28956000Y48320000D01*
X27626000Y46990000D02*
X27626000Y48320000D01*
X44390000Y46990000D02*
X44390000Y48320000D01*
X44390000Y48320000D02*
X45720000Y48320000D01*
X46990000Y48320000D02*
X59750000Y48320000D01*
X59750000Y45660000D02*
X59750000Y48320000D01*
X46990000Y45660000D02*
X59750000Y45660000D01*
X46990000Y45660000D02*
X46990000Y48320000D01*
D12*
X38552000Y9711000D02*
G75*
G03X38552000Y9711000I-53000J0D01*
G01*
X42140000Y26026000D02*
X42140000Y9026000D01*
X39140000Y9026000D02*
X39140000Y26026000D01*
D11*
X1100000Y3750000D02*
X1100000Y11490000D01*
X1100000Y11490000D02*
X-1560000Y11490000D01*
X-1560000Y11490000D02*
X-1560000Y3750000D01*
X-1560000Y3750000D02*
X1100000Y3750000D01*
X-1560000Y4700000D02*
X-7560000Y4700000D01*
X-7560000Y4700000D02*
X-7560000Y5460000D01*
X-7560000Y5460000D02*
X-1560000Y5460000D01*
X-1560000Y4760000D02*
X-7560000Y4760000D01*
X-1560000Y4880000D02*
X-7560000Y4880000D01*
X-1560000Y5000000D02*
X-7560000Y5000000D01*
X-1560000Y5120000D02*
X-7560000Y5120000D01*
X-1560000Y5240000D02*
X-7560000Y5240000D01*
X-1560000Y5360000D02*
X-7560000Y5360000D01*
X1497071Y4700000D02*
X1100000Y4700000D01*
X1497071Y5460000D02*
X1100000Y5460000D01*
X3970000Y4700000D02*
X3582929Y4700000D01*
X3970000Y5460000D02*
X3582929Y5460000D01*
X1100000Y6350000D02*
X-1560000Y6350000D01*
X-1560000Y7240000D02*
X-7560000Y7240000D01*
X-7560000Y7240000D02*
X-7560000Y8000000D01*
X-7560000Y8000000D02*
X-1560000Y8000000D01*
X1497071Y7240000D02*
X1100000Y7240000D01*
X1497071Y8000000D02*
X1100000Y8000000D01*
X4037071Y7240000D02*
X3582929Y7240000D01*
X4037071Y8000000D02*
X3582929Y8000000D01*
X1100000Y8890000D02*
X-1560000Y8890000D01*
X-1560000Y9780000D02*
X-7560000Y9780000D01*
X-7560000Y9780000D02*
X-7560000Y10540000D01*
X-7560000Y10540000D02*
X-1560000Y10540000D01*
X1497071Y9780000D02*
X1100000Y9780000D01*
X1497071Y10540000D02*
X1100000Y10540000D01*
X4037071Y9780000D02*
X3582929Y9780000D01*
X4037071Y10540000D02*
X3582929Y10540000D01*
X6350000Y5080000D02*
X6350000Y3810000D01*
X6350000Y3810000D02*
X5080000Y3810000D01*
X16450000Y26670000D02*
X19110000Y26670000D01*
X16450000Y26670000D02*
X16450000Y24070000D01*
X16450000Y24070000D02*
X19110000Y24070000D01*
X19110000Y26670000D02*
X19110000Y24070000D01*
X19110000Y29270000D02*
X19110000Y27940000D01*
X17780000Y29270000D02*
X19110000Y29270000D01*
D12*
X61412000Y9711000D02*
G75*
G03X61412000Y9711000I-53000J0D01*
G01*
X65000000Y26026000D02*
X65000000Y9026000D01*
X62000000Y9026000D02*
X62000000Y26026000D01*
X38552000Y27999000D02*
G75*
G03X38552000Y27999000I-53000J0D01*
G01*
X42140000Y44314000D02*
X42140000Y27314000D01*
X39140000Y27314000D02*
X39140000Y44314000D01*
X62000000Y27314000D02*
X62000000Y44314000D01*
X65000000Y44314000D02*
X65000000Y27314000D01*
X61412000Y27999000D02*
G75*
G03X61412000Y27999000I-53000J0D01*
G01*
D11*
X80070000Y17780000D02*
X77410000Y17780000D01*
X80070000Y17780000D02*
X80070000Y20380000D01*
X80070000Y20380000D02*
X77410000Y20380000D01*
X77410000Y17780000D02*
X77410000Y20380000D01*
X77410000Y15180000D02*
X77410000Y16510000D01*
X78740000Y15180000D02*
X77410000Y15180000D01*
X1100000Y16450000D02*
X1100000Y24190000D01*
X1100000Y24190000D02*
X-1560000Y24190000D01*
X-1560000Y24190000D02*
X-1560000Y16450000D01*
X-1560000Y16450000D02*
X1100000Y16450000D01*
X-1560000Y17400000D02*
X-7560000Y17400000D01*
X-7560000Y17400000D02*
X-7560000Y18160000D01*
X-7560000Y18160000D02*
X-1560000Y18160000D01*
X-1560000Y17460000D02*
X-7560000Y17460000D01*
X-1560000Y17580000D02*
X-7560000Y17580000D01*
X-1560000Y17700000D02*
X-7560000Y17700000D01*
X-1560000Y17820000D02*
X-7560000Y17820000D01*
X-1560000Y17940000D02*
X-7560000Y17940000D01*
X-1560000Y18060000D02*
X-7560000Y18060000D01*
X1497071Y17400000D02*
X1100000Y17400000D01*
X1497071Y18160000D02*
X1100000Y18160000D01*
X3970000Y17400000D02*
X3582929Y17400000D01*
X3970000Y18160000D02*
X3582929Y18160000D01*
X1100000Y19050000D02*
X-1560000Y19050000D01*
X-1560000Y19940000D02*
X-7560000Y19940000D01*
X-7560000Y19940000D02*
X-7560000Y20700000D01*
X-7560000Y20700000D02*
X-1560000Y20700000D01*
X1497071Y19940000D02*
X1100000Y19940000D01*
X1497071Y20700000D02*
X1100000Y20700000D01*
X4037071Y19940000D02*
X3582929Y19940000D01*
X4037071Y20700000D02*
X3582929Y20700000D01*
X1100000Y21590000D02*
X-1560000Y21590000D01*
X-1560000Y22480000D02*
X-7560000Y22480000D01*
X-7560000Y22480000D02*
X-7560000Y23240000D01*
X-7560000Y23240000D02*
X-1560000Y23240000D01*
X1497071Y22480000D02*
X1100000Y22480000D01*
X1497071Y23240000D02*
X1100000Y23240000D01*
X4037071Y22480000D02*
X3582929Y22480000D01*
X4037071Y23240000D02*
X3582929Y23240000D01*
X6350000Y17780000D02*
X6350000Y16510000D01*
X6350000Y16510000D02*
X5080000Y16510000D01*
X71120000Y32960000D02*
X69790000Y32960000D01*
X69790000Y32960000D02*
X69790000Y34290000D01*
X69790000Y35560000D02*
X69790000Y38160000D01*
X72450000Y38160000D02*
X69790000Y38160000D01*
X72450000Y35560000D02*
X72450000Y38160000D01*
X72450000Y35560000D02*
X69790000Y35560000D01*
X80070000Y35560000D02*
X77410000Y35560000D01*
X80070000Y35560000D02*
X80070000Y38160000D01*
X80070000Y38160000D02*
X77410000Y38160000D01*
X77410000Y35560000D02*
X77410000Y38160000D01*
X77410000Y32960000D02*
X77410000Y34290000D01*
X78740000Y32960000D02*
X77410000Y32960000D01*
X1100000Y29150000D02*
X1100000Y36890000D01*
X1100000Y36890000D02*
X-1560000Y36890000D01*
X-1560000Y36890000D02*
X-1560000Y29150000D01*
X-1560000Y29150000D02*
X1100000Y29150000D01*
X-1560000Y30100000D02*
X-7560000Y30100000D01*
X-7560000Y30100000D02*
X-7560000Y30860000D01*
X-7560000Y30860000D02*
X-1560000Y30860000D01*
X-1560000Y30160000D02*
X-7560000Y30160000D01*
X-1560000Y30280000D02*
X-7560000Y30280000D01*
X-1560000Y30400000D02*
X-7560000Y30400000D01*
X-1560000Y30520000D02*
X-7560000Y30520000D01*
X-1560000Y30640000D02*
X-7560000Y30640000D01*
X-1560000Y30760000D02*
X-7560000Y30760000D01*
X1497071Y30100000D02*
X1100000Y30100000D01*
X1497071Y30860000D02*
X1100000Y30860000D01*
X3970000Y30100000D02*
X3582929Y30100000D01*
X3970000Y30860000D02*
X3582929Y30860000D01*
X1100000Y31750000D02*
X-1560000Y31750000D01*
X-1560000Y32640000D02*
X-7560000Y32640000D01*
X-7560000Y32640000D02*
X-7560000Y33400000D01*
X-7560000Y33400000D02*
X-1560000Y33400000D01*
X1497071Y32640000D02*
X1100000Y32640000D01*
X1497071Y33400000D02*
X1100000Y33400000D01*
X4037071Y32640000D02*
X3582929Y32640000D01*
X4037071Y33400000D02*
X3582929Y33400000D01*
X1100000Y34290000D02*
X-1560000Y34290000D01*
X-1560000Y35180000D02*
X-7560000Y35180000D01*
X-7560000Y35180000D02*
X-7560000Y35940000D01*
X-7560000Y35940000D02*
X-1560000Y35940000D01*
X1497071Y35180000D02*
X1100000Y35180000D01*
X1497071Y35940000D02*
X1100000Y35940000D01*
X4037071Y35180000D02*
X3582929Y35180000D01*
X4037071Y35940000D02*
X3582929Y35940000D01*
X6350000Y30480000D02*
X6350000Y29210000D01*
X6350000Y29210000D02*
X5080000Y29210000D01*
X6350000Y41910000D02*
X5080000Y41910000D01*
X6350000Y43180000D02*
X6350000Y41910000D01*
X4037071Y48640000D02*
X3582929Y48640000D01*
X4037071Y47880000D02*
X3582929Y47880000D01*
X1497071Y48640000D02*
X1100000Y48640000D01*
X1497071Y47880000D02*
X1100000Y47880000D01*
X-7560000Y48640000D02*
X-1560000Y48640000D01*
X-7560000Y47880000D02*
X-7560000Y48640000D01*
X-1560000Y47880000D02*
X-7560000Y47880000D01*
X1100000Y46990000D02*
X-1560000Y46990000D01*
X4037071Y46100000D02*
X3582929Y46100000D01*
X4037071Y45340000D02*
X3582929Y45340000D01*
X1497071Y46100000D02*
X1100000Y46100000D01*
X1497071Y45340000D02*
X1100000Y45340000D01*
X-7560000Y46100000D02*
X-1560000Y46100000D01*
X-7560000Y45340000D02*
X-7560000Y46100000D01*
X-1560000Y45340000D02*
X-7560000Y45340000D01*
X1100000Y44450000D02*
X-1560000Y44450000D01*
X3970000Y43560000D02*
X3582929Y43560000D01*
X3970000Y42800000D02*
X3582929Y42800000D01*
X1497071Y43560000D02*
X1100000Y43560000D01*
X1497071Y42800000D02*
X1100000Y42800000D01*
X-1560000Y43460000D02*
X-7560000Y43460000D01*
X-1560000Y43340000D02*
X-7560000Y43340000D01*
X-1560000Y43220000D02*
X-7560000Y43220000D01*
X-1560000Y43100000D02*
X-7560000Y43100000D01*
X-1560000Y42980000D02*
X-7560000Y42980000D01*
X-1560000Y42860000D02*
X-7560000Y42860000D01*
X-7560000Y43560000D02*
X-1560000Y43560000D01*
X-7560000Y42800000D02*
X-7560000Y43560000D01*
X-1560000Y42800000D02*
X-7560000Y42800000D01*
X-1560000Y41850000D02*
X1100000Y41850000D01*
X-1560000Y49590000D02*
X-1560000Y41850000D01*
X1100000Y49590000D02*
X-1560000Y49590000D01*
X1100000Y41850000D02*
X1100000Y49590000D01*
X11410000Y12165000D02*
X19150000Y12165000D01*
X11410000Y9425000D02*
X19150000Y9425000D01*
X11410000Y12165000D02*
X11410000Y9425000D01*
X19150000Y12165000D02*
X19150000Y9425000D01*
X19197000Y20166000D02*
X19197000Y17426000D01*
X11457000Y20166000D02*
X11457000Y17426000D01*
X11457000Y17426000D02*
X19197000Y17426000D01*
X11457000Y20166000D02*
X19197000Y20166000D01*
X11330000Y35914000D02*
X19070000Y35914000D01*
X11330000Y33174000D02*
X19070000Y33174000D01*
X11330000Y35914000D02*
X11330000Y33174000D01*
X19070000Y35914000D02*
X19070000Y33174000D01*
X19070000Y44169000D02*
X19070000Y41429000D01*
X11330000Y44169000D02*
X11330000Y41429000D01*
X11330000Y41429000D02*
X19070000Y41429000D01*
X11330000Y44169000D02*
X19070000Y44169000D01*
D10*
X70786666Y14287620D02*
X70786666Y13573334D01*
X70739047Y13430477D01*
X70643809Y13335239D01*
X70500952Y13287620D01*
X70405714Y13287620D01*
X71167619Y14287620D02*
X71834285Y14287620D01*
X71405714Y13287620D01*
X91638380Y28471905D02*
X90638380Y28471905D01*
X90638380Y28852858D01*
X90686000Y28948096D01*
X90733619Y28995715D01*
X90828857Y29043334D01*
X90971714Y29043334D01*
X91066952Y28995715D01*
X91114571Y28948096D01*
X91162190Y28852858D01*
X91162190Y28471905D01*
X91638380Y29995715D02*
X91638380Y29424286D01*
X91638380Y29710000D02*
X90638380Y29710000D01*
X90781238Y29614762D01*
X90876476Y29519524D01*
X90924095Y29424286D01*
X36091904Y4881620D02*
X36091904Y5881620D01*
X36472857Y5881620D01*
X36568095Y5834000D01*
X36615714Y5786381D01*
X36663333Y5691143D01*
X36663333Y5548286D01*
X36615714Y5453048D01*
X36568095Y5405429D01*
X36472857Y5357810D01*
X36091904Y5357810D01*
X37044285Y5786381D02*
X37091904Y5834000D01*
X37187142Y5881620D01*
X37425238Y5881620D01*
X37520476Y5834000D01*
X37568095Y5786381D01*
X37615714Y5691143D01*
X37615714Y5595905D01*
X37568095Y5453048D01*
X36996666Y4881620D01*
X37615714Y4881620D01*
X58951904Y4627620D02*
X58951904Y5627620D01*
X59332857Y5627620D01*
X59428095Y5580000D01*
X59475714Y5532381D01*
X59523333Y5437143D01*
X59523333Y5294286D01*
X59475714Y5199048D01*
X59428095Y5151429D01*
X59332857Y5103810D01*
X58951904Y5103810D01*
X59856666Y5627620D02*
X60475714Y5627620D01*
X60142380Y5246667D01*
X60285238Y5246667D01*
X60380476Y5199048D01*
X60428095Y5151429D01*
X60475714Y5056191D01*
X60475714Y4818096D01*
X60428095Y4722858D01*
X60380476Y4675239D01*
X60285238Y4627620D01*
X59999523Y4627620D01*
X59904285Y4675239D01*
X59856666Y4722858D01*
X81811904Y4881620D02*
X81811904Y5881620D01*
X82192857Y5881620D01*
X82288095Y5834000D01*
X82335714Y5786381D01*
X82383333Y5691143D01*
X82383333Y5548286D01*
X82335714Y5453048D01*
X82288095Y5405429D01*
X82192857Y5357810D01*
X81811904Y5357810D01*
X83240476Y5548286D02*
X83240476Y4881620D01*
X83002380Y5929239D02*
X82764285Y5214953D01*
X83383333Y5214953D01*
X29487904Y47553620D02*
X29487904Y48553620D01*
X29868857Y48553620D01*
X29964095Y48506000D01*
X30011714Y48458381D01*
X30059333Y48363143D01*
X30059333Y48220286D01*
X30011714Y48125048D01*
X29964095Y48077429D01*
X29868857Y48029810D01*
X29487904Y48029810D01*
X30964095Y48553620D02*
X30487904Y48553620D01*
X30440285Y48077429D01*
X30487904Y48125048D01*
X30583142Y48172667D01*
X30821238Y48172667D01*
X30916476Y48125048D01*
X30964095Y48077429D01*
X31011714Y47982191D01*
X31011714Y47744096D01*
X30964095Y47648858D01*
X30916476Y47601239D01*
X30821238Y47553620D01*
X30583142Y47553620D01*
X30487904Y47601239D01*
X30440285Y47648858D01*
X53871904Y47553620D02*
X53871904Y48553620D01*
X54252857Y48553620D01*
X54348095Y48506000D01*
X54395714Y48458381D01*
X54443333Y48363143D01*
X54443333Y48220286D01*
X54395714Y48125048D01*
X54348095Y48077429D01*
X54252857Y48029810D01*
X53871904Y48029810D01*
X55300476Y48553620D02*
X55110000Y48553620D01*
X55014761Y48506000D01*
X54967142Y48458381D01*
X54871904Y48315524D01*
X54824285Y48125048D01*
X54824285Y47744096D01*
X54871904Y47648858D01*
X54919523Y47601239D01*
X55014761Y47553620D01*
X55205238Y47553620D01*
X55300476Y47601239D01*
X55348095Y47648858D01*
X55395714Y47744096D01*
X55395714Y47982191D01*
X55348095Y48077429D01*
X55300476Y48125048D01*
X55205238Y48172667D01*
X55014761Y48172667D01*
X54919523Y48125048D01*
X54871904Y48077429D01*
X54824285Y47982191D01*
X76731904Y47553620D02*
X76731904Y48553620D01*
X77112857Y48553620D01*
X77208095Y48506000D01*
X77255714Y48458381D01*
X77303333Y48363143D01*
X77303333Y48220286D01*
X77255714Y48125048D01*
X77208095Y48077429D01*
X77112857Y48029810D01*
X76731904Y48029810D01*
X77636666Y48553620D02*
X78303333Y48553620D01*
X77874761Y47553620D01*
X88566666Y5397620D02*
X88566666Y4683334D01*
X88519047Y4540477D01*
X88423809Y4445239D01*
X88280952Y4397620D01*
X88185714Y4397620D01*
X89566666Y4397620D02*
X88995238Y4397620D01*
X89280952Y4397620D02*
X89280952Y5397620D01*
X89185714Y5254762D01*
X89090476Y5159524D01*
X88995238Y5111905D01*
X39862380Y6016667D02*
X40576666Y6016667D01*
X40719523Y5969048D01*
X40814761Y5873810D01*
X40862380Y5730953D01*
X40862380Y5635715D01*
X39957619Y6445239D02*
X39910000Y6492858D01*
X39862380Y6588096D01*
X39862380Y6826191D01*
X39910000Y6921429D01*
X39957619Y6969048D01*
X40052857Y7016667D01*
X40148095Y7016667D01*
X40290952Y6969048D01*
X40862380Y6397620D01*
X40862380Y7016667D01*
X62722380Y6016667D02*
X63436666Y6016667D01*
X63579523Y5969048D01*
X63674761Y5873810D01*
X63722380Y5730953D01*
X63722380Y5635715D01*
X62722380Y6397620D02*
X62722380Y7016667D01*
X63103333Y6683334D01*
X63103333Y6826191D01*
X63150952Y6921429D01*
X63198571Y6969048D01*
X63293809Y7016667D01*
X63531904Y7016667D01*
X63627142Y6969048D01*
X63674761Y6921429D01*
X63722380Y6826191D01*
X63722380Y6540477D01*
X63674761Y6445239D01*
X63627142Y6397620D01*
X62722380Y46656667D02*
X63436666Y46656667D01*
X63579523Y46609048D01*
X63674761Y46513810D01*
X63722380Y46370953D01*
X63722380Y46275715D01*
X62722380Y47561429D02*
X62722380Y47370953D01*
X62770000Y47275715D01*
X62817619Y47228096D01*
X62960476Y47132858D01*
X63150952Y47085239D01*
X63531904Y47085239D01*
X63627142Y47132858D01*
X63674761Y47180477D01*
X63722380Y47275715D01*
X63722380Y47466191D01*
X63674761Y47561429D01*
X63627142Y47609048D01*
X63531904Y47656667D01*
X63293809Y47656667D01*
X63198571Y47609048D01*
X63150952Y47561429D01*
X63103333Y47466191D01*
X63103333Y47275715D01*
X63150952Y47180477D01*
X63198571Y47132858D01*
X63293809Y47085239D01*
X25638380Y46656667D02*
X26352666Y46656667D01*
X26495523Y46609048D01*
X26590761Y46513810D01*
X26638380Y46370953D01*
X26638380Y46275715D01*
X25971714Y47561429D02*
X26638380Y47561429D01*
X25590761Y47323334D02*
X26305047Y47085239D01*
X26305047Y47704286D01*
X42402380Y46656667D02*
X43116666Y46656667D01*
X43259523Y46609048D01*
X43354761Y46513810D01*
X43402380Y46370953D01*
X43402380Y46275715D01*
X42402380Y47609048D02*
X42402380Y47132858D01*
X42878571Y47085239D01*
X42830952Y47132858D01*
X42783333Y47228096D01*
X42783333Y47466191D01*
X42830952Y47561429D01*
X42878571Y47609048D01*
X42973809Y47656667D01*
X43211904Y47656667D01*
X43307142Y47609048D01*
X43354761Y47561429D01*
X43402380Y47466191D01*
X43402380Y47228096D01*
X43354761Y47132858D01*
X43307142Y47085239D01*
D13*
X38798523Y15797239D02*
X37528523Y15797239D01*
X38677571Y17127715D02*
X38738047Y17067239D01*
X38798523Y16885810D01*
X38798523Y16764858D01*
X38738047Y16583429D01*
X38617095Y16462477D01*
X38496142Y16402000D01*
X38254238Y16341524D01*
X38072809Y16341524D01*
X37830904Y16402000D01*
X37709952Y16462477D01*
X37589000Y16583429D01*
X37528523Y16764858D01*
X37528523Y16885810D01*
X37589000Y17067239D01*
X37649476Y17127715D01*
X38798523Y18337239D02*
X38798523Y17611524D01*
X38798523Y17974381D02*
X37528523Y17974381D01*
X37709952Y17853429D01*
X37830904Y17732477D01*
X37891380Y17611524D01*
D10*
X-908334Y3357620D02*
X-908334Y2643334D01*
X-955953Y2500477D01*
X-1051191Y2405239D01*
X-1194048Y2357620D01*
X-1289286Y2357620D01*
X-289286Y2929048D02*
X-384524Y2976667D01*
X-432143Y3024286D01*
X-479762Y3119524D01*
X-479762Y3167143D01*
X-432143Y3262381D01*
X-384524Y3310000D01*
X-289286Y3357620D01*
X-98810Y3357620D01*
X-3572Y3310000D01*
X44047Y3262381D01*
X91666Y3167143D01*
X91666Y3119524D01*
X44047Y3024286D01*
X-3572Y2976667D01*
X-98810Y2929048D01*
X-289286Y2929048D01*
X-384524Y2881429D01*
X-432143Y2833810D01*
X-479762Y2738572D01*
X-479762Y2548096D01*
X-432143Y2452858D01*
X-384524Y2405239D01*
X-289286Y2357620D01*
X-98810Y2357620D01*
X-3572Y2405239D01*
X44047Y2452858D01*
X91666Y2548096D01*
X91666Y2738572D01*
X44047Y2833810D01*
X-3572Y2881429D01*
X-98810Y2929048D01*
X17446666Y31257620D02*
X17446666Y30543334D01*
X17399047Y30400477D01*
X17303809Y30305239D01*
X17160952Y30257620D01*
X17065714Y30257620D01*
X17970476Y30257620D02*
X18160952Y30257620D01*
X18256190Y30305239D01*
X18303809Y30352858D01*
X18399047Y30495715D01*
X18446666Y30686191D01*
X18446666Y31067143D01*
X18399047Y31162381D01*
X18351428Y31210000D01*
X18256190Y31257620D01*
X18065714Y31257620D01*
X17970476Y31210000D01*
X17922857Y31162381D01*
X17875238Y31067143D01*
X17875238Y30829048D01*
X17922857Y30733810D01*
X17970476Y30686191D01*
X18065714Y30638572D01*
X18256190Y30638572D01*
X18351428Y30686191D01*
X18399047Y30733810D01*
X18446666Y30829048D01*
D13*
X61658523Y15797239D02*
X60388523Y15797239D01*
X61537571Y17127715D02*
X61598047Y17067239D01*
X61658523Y16885810D01*
X61658523Y16764858D01*
X61598047Y16583429D01*
X61477095Y16462477D01*
X61356142Y16402000D01*
X61114238Y16341524D01*
X60932809Y16341524D01*
X60690904Y16402000D01*
X60569952Y16462477D01*
X60449000Y16583429D01*
X60388523Y16764858D01*
X60388523Y16885810D01*
X60449000Y17067239D01*
X60509476Y17127715D01*
X60509476Y17611524D02*
X60449000Y17672000D01*
X60388523Y17792953D01*
X60388523Y18095334D01*
X60449000Y18216286D01*
X60509476Y18276762D01*
X60630428Y18337239D01*
X60751380Y18337239D01*
X60932809Y18276762D01*
X61658523Y17551048D01*
X61658523Y18337239D01*
X38798523Y34085239D02*
X37528523Y34085239D01*
X38677571Y35415715D02*
X38738047Y35355239D01*
X38798523Y35173810D01*
X38798523Y35052858D01*
X38738047Y34871429D01*
X38617095Y34750477D01*
X38496142Y34690000D01*
X38254238Y34629524D01*
X38072809Y34629524D01*
X37830904Y34690000D01*
X37709952Y34750477D01*
X37589000Y34871429D01*
X37528523Y35052858D01*
X37528523Y35173810D01*
X37589000Y35355239D01*
X37649476Y35415715D01*
X37528523Y35839048D02*
X37528523Y36625239D01*
X38012333Y36201905D01*
X38012333Y36383334D01*
X38072809Y36504286D01*
X38133285Y36564762D01*
X38254238Y36625239D01*
X38556619Y36625239D01*
X38677571Y36564762D01*
X38738047Y36504286D01*
X38798523Y36383334D01*
X38798523Y36020477D01*
X38738047Y35899524D01*
X38677571Y35839048D01*
X61658523Y34085239D02*
X60388523Y34085239D01*
X61537571Y35415715D02*
X61598047Y35355239D01*
X61658523Y35173810D01*
X61658523Y35052858D01*
X61598047Y34871429D01*
X61477095Y34750477D01*
X61356142Y34690000D01*
X61114238Y34629524D01*
X60932809Y34629524D01*
X60690904Y34690000D01*
X60569952Y34750477D01*
X60449000Y34871429D01*
X60388523Y35052858D01*
X60388523Y35173810D01*
X60449000Y35355239D01*
X60509476Y35415715D01*
X60811857Y36504286D02*
X61658523Y36504286D01*
X60328047Y36201905D02*
X61235190Y35899524D01*
X61235190Y36685715D01*
D10*
X77930476Y14287620D02*
X77930476Y13573334D01*
X77882857Y13430477D01*
X77787619Y13335239D01*
X77644761Y13287620D01*
X77549523Y13287620D01*
X78930476Y13287620D02*
X78359047Y13287620D01*
X78644761Y13287620D02*
X78644761Y14287620D01*
X78549523Y14144762D01*
X78454285Y14049524D01*
X78359047Y14001905D01*
X79549523Y14287620D02*
X79644761Y14287620D01*
X79740000Y14240000D01*
X79787619Y14192381D01*
X79835238Y14097143D01*
X79882857Y13906667D01*
X79882857Y13668572D01*
X79835238Y13478096D01*
X79787619Y13382858D01*
X79740000Y13335239D01*
X79644761Y13287620D01*
X79549523Y13287620D01*
X79454285Y13335239D01*
X79406666Y13382858D01*
X79359047Y13478096D01*
X79311428Y13668572D01*
X79311428Y13906667D01*
X79359047Y14097143D01*
X79406666Y14192381D01*
X79454285Y14240000D01*
X79549523Y14287620D01*
X-1384524Y16057620D02*
X-1384524Y15343334D01*
X-1432143Y15200477D01*
X-1527381Y15105239D01*
X-1670239Y15057620D01*
X-1765477Y15057620D01*
X-384524Y15057620D02*
X-955953Y15057620D01*
X-670239Y15057620D02*
X-670239Y16057620D01*
X-765477Y15914762D01*
X-860715Y15819524D01*
X-955953Y15771905D01*
X567857Y15057620D02*
X-3572Y15057620D01*
X282142Y15057620D02*
X282142Y16057620D01*
X186904Y15914762D01*
X91666Y15819524D01*
X-3572Y15771905D01*
X70310476Y32067620D02*
X70310476Y31353334D01*
X70262857Y31210477D01*
X70167619Y31115239D01*
X70024761Y31067620D01*
X69929523Y31067620D01*
X71310476Y31067620D02*
X70739047Y31067620D01*
X71024761Y31067620D02*
X71024761Y32067620D01*
X70929523Y31924762D01*
X70834285Y31829524D01*
X70739047Y31781905D01*
X71691428Y31972381D02*
X71739047Y32020000D01*
X71834285Y32067620D01*
X72072380Y32067620D01*
X72167619Y32020000D01*
X72215238Y31972381D01*
X72262857Y31877143D01*
X72262857Y31781905D01*
X72215238Y31639048D01*
X71643809Y31067620D01*
X72262857Y31067620D01*
X77930476Y32067620D02*
X77930476Y31353334D01*
X77882857Y31210477D01*
X77787619Y31115239D01*
X77644761Y31067620D01*
X77549523Y31067620D01*
X78930476Y31067620D02*
X78359047Y31067620D01*
X78644761Y31067620D02*
X78644761Y32067620D01*
X78549523Y31924762D01*
X78454285Y31829524D01*
X78359047Y31781905D01*
X79263809Y32067620D02*
X79882857Y32067620D01*
X79549523Y31686667D01*
X79692380Y31686667D01*
X79787619Y31639048D01*
X79835238Y31591429D01*
X79882857Y31496191D01*
X79882857Y31258096D01*
X79835238Y31162858D01*
X79787619Y31115239D01*
X79692380Y31067620D01*
X79406666Y31067620D01*
X79311428Y31115239D01*
X79263809Y31162858D01*
X-1384524Y28757620D02*
X-1384524Y28043334D01*
X-1432143Y27900477D01*
X-1527381Y27805239D01*
X-1670239Y27757620D01*
X-1765477Y27757620D01*
X-384524Y27757620D02*
X-955953Y27757620D01*
X-670239Y27757620D02*
X-670239Y28757620D01*
X-765477Y28614762D01*
X-860715Y28519524D01*
X-955953Y28471905D01*
X472619Y28424286D02*
X472619Y27757620D01*
X234523Y28805239D02*
X-3572Y28090953D01*
X615476Y28090953D01*
X-1384524Y41457620D02*
X-1384524Y40743334D01*
X-1432143Y40600477D01*
X-1527381Y40505239D01*
X-1670239Y40457620D01*
X-1765477Y40457620D01*
X-384524Y40457620D02*
X-955953Y40457620D01*
X-670239Y40457620D02*
X-670239Y41457620D01*
X-765477Y41314762D01*
X-860715Y41219524D01*
X-955953Y41171905D01*
X520238Y41457620D02*
X44047Y41457620D01*
X-3572Y40981429D01*
X44047Y41029048D01*
X139285Y41076667D01*
X377380Y41076667D01*
X472619Y41029048D01*
X520238Y40981429D01*
X567857Y40886191D01*
X567857Y40648096D01*
X520238Y40552858D01*
X472619Y40505239D01*
X377380Y40457620D01*
X139285Y40457620D01*
X44047Y40505239D01*
X-3572Y40552858D01*
X14946666Y13366429D02*
X14613333Y13366429D01*
X14613333Y12842620D02*
X14613333Y13842620D01*
X15089523Y13842620D01*
X15994285Y12842620D02*
X15422857Y12842620D01*
X15708571Y12842620D02*
X15708571Y13842620D01*
X15613333Y13699762D01*
X15518095Y13604524D01*
X15422857Y13556905D01*
X14993666Y21367429D02*
X14660333Y21367429D01*
X14660333Y20843620D02*
X14660333Y21843620D01*
X15136523Y21843620D01*
X15469857Y21748381D02*
X15517476Y21796000D01*
X15612714Y21843620D01*
X15850809Y21843620D01*
X15946047Y21796000D01*
X15993666Y21748381D01*
X16041285Y21653143D01*
X16041285Y21557905D01*
X15993666Y21415048D01*
X15422238Y20843620D01*
X16041285Y20843620D01*
X14866666Y37115429D02*
X14533333Y37115429D01*
X14533333Y36591620D02*
X14533333Y37591620D01*
X15009523Y37591620D01*
X15295238Y37591620D02*
X15914285Y37591620D01*
X15580952Y37210667D01*
X15723809Y37210667D01*
X15819047Y37163048D01*
X15866666Y37115429D01*
X15914285Y37020191D01*
X15914285Y36782096D01*
X15866666Y36686858D01*
X15819047Y36639239D01*
X15723809Y36591620D01*
X15438095Y36591620D01*
X15342857Y36639239D01*
X15295238Y36686858D01*
X14866666Y45370429D02*
X14533333Y45370429D01*
X14533333Y44846620D02*
X14533333Y45846620D01*
X15009523Y45846620D01*
X15819047Y45513286D02*
X15819047Y44846620D01*
X15580952Y45894239D02*
X15342857Y45179953D01*
X15961904Y45179953D01*
%LPC*%
D14*
X71120000Y19050000D03*
D15*
X71120000Y16510000D03*
D16*
X93980000Y7620000D03*
D17*
X96520000Y7620000D03*
X93980000Y10160000D03*
X96520000Y10160000D03*
X93980000Y12700000D03*
X96520000Y12700000D03*
X93980000Y15240000D03*
X96520000Y15240000D03*
X93980000Y17780000D03*
X96520000Y17780000D03*
X93980000Y20320000D03*
X96520000Y20320000D03*
X93980000Y22860000D03*
X96520000Y22860000D03*
X93980000Y25400000D03*
X96520000Y25400000D03*
X93980000Y27940000D03*
X96520000Y27940000D03*
X93980000Y30480000D03*
X96520000Y30480000D03*
X93980000Y33020000D03*
X96520000Y33020000D03*
X93980000Y35560000D03*
X96520000Y35560000D03*
X93980000Y38100000D03*
X96520000Y38100000D03*
X93980000Y40640000D03*
X96520000Y40640000D03*
X93980000Y43180000D03*
X96520000Y43180000D03*
X93980000Y45720000D03*
X96520000Y45720000D03*
X93980000Y48260000D03*
X96520000Y48260000D03*
X93980000Y50800000D03*
X96520000Y50800000D03*
D18*
X27940000Y2540000D03*
X30480000Y2540000D03*
X33020000Y2540000D03*
X35560000Y2540000D03*
X38100000Y2540000D03*
X40640000Y2540000D03*
X43180000Y2540000D03*
X45720000Y2540000D03*
X50800000Y2540000D03*
X53340000Y2540000D03*
X55880000Y2540000D03*
X58420000Y2540000D03*
X60960000Y2540000D03*
X63500000Y2540000D03*
X66040000Y2540000D03*
X68580000Y2540000D03*
X73660000Y2540000D03*
X76200000Y2540000D03*
X78740000Y2540000D03*
X81280000Y2540000D03*
X83820000Y2540000D03*
X86360000Y2540000D03*
X88900000Y2540000D03*
X91440000Y2540000D03*
X18796000Y50800000D03*
X21336000Y50800000D03*
X23876000Y50800000D03*
X26416000Y50800000D03*
X28956000Y50800000D03*
X31496000Y50800000D03*
X34036000Y50800000D03*
X36576000Y50800000D03*
X39116000Y50800000D03*
X41656000Y50800000D03*
X45720000Y50800000D03*
X48260000Y50800000D03*
X50800000Y50800000D03*
X53340000Y50800000D03*
X55880000Y50800000D03*
X58420000Y50800000D03*
X60960000Y50800000D03*
X63500000Y50800000D03*
X68580000Y50800000D03*
X71120000Y50800000D03*
X73660000Y50800000D03*
X76200000Y50800000D03*
X78740000Y50800000D03*
X81280000Y50800000D03*
X83820000Y50800000D03*
X86360000Y50800000D03*
D19*
X13970000Y2540000D03*
X96520000Y2540000D03*
X15240000Y50800000D03*
X90170000Y50800000D03*
D15*
X87630000Y7620000D03*
D14*
X90170000Y7620000D03*
X87630000Y10160000D03*
X90170000Y10160000D03*
X87630000Y12700000D03*
X90170000Y12700000D03*
X87630000Y15240000D03*
X90170000Y15240000D03*
X87630000Y17780000D03*
X90170000Y17780000D03*
X87630000Y20320000D03*
X90170000Y20320000D03*
X87630000Y22860000D03*
X90170000Y22860000D03*
X87630000Y25400000D03*
X90170000Y25400000D03*
X87630000Y27940000D03*
X90170000Y27940000D03*
X87630000Y30480000D03*
X90170000Y30480000D03*
X87630000Y33020000D03*
X90170000Y33020000D03*
X87630000Y35560000D03*
X90170000Y35560000D03*
X87630000Y38100000D03*
X90170000Y38100000D03*
X87630000Y40640000D03*
X90170000Y40640000D03*
X87630000Y43180000D03*
X90170000Y43180000D03*
X87630000Y45720000D03*
X90170000Y45720000D03*
D15*
X43180000Y6350000D03*
D14*
X45720000Y6350000D03*
X48260000Y6350000D03*
X50800000Y6350000D03*
X53340000Y6350000D03*
X55880000Y6350000D03*
X58420000Y6350000D03*
X60960000Y6350000D03*
X83820000Y6350000D03*
X81280000Y6350000D03*
X78740000Y6350000D03*
X76200000Y6350000D03*
X73660000Y6350000D03*
X71120000Y6350000D03*
X68580000Y6350000D03*
D15*
X66040000Y6350000D03*
X66040000Y46990000D03*
D14*
X68580000Y46990000D03*
X71120000Y46990000D03*
X73660000Y46990000D03*
X76200000Y46990000D03*
X78740000Y46990000D03*
X81280000Y46990000D03*
X83820000Y46990000D03*
D15*
X28956000Y46990000D03*
D14*
X31496000Y46990000D03*
X34036000Y46990000D03*
X36576000Y46990000D03*
X39116000Y46990000D03*
X41656000Y46990000D03*
X58420000Y46990000D03*
X55880000Y46990000D03*
X53340000Y46990000D03*
X50800000Y46990000D03*
X48260000Y46990000D03*
D15*
X45720000Y46990000D03*
D20*
X40640000Y25146000D03*
X40640000Y22606000D03*
X40640000Y20066000D03*
X40640000Y17526000D03*
X40640000Y14986000D03*
X40640000Y12446000D03*
X40640000Y9906000D03*
D15*
X5080000Y5080000D03*
D14*
X2540000Y5080000D03*
X5080000Y7620000D03*
X2540000Y7620000D03*
X5080000Y10160000D03*
X2540000Y10160000D03*
D15*
X17780000Y27940000D03*
D14*
X17780000Y25400000D03*
D20*
X63500000Y25146000D03*
X63500000Y22606000D03*
X63500000Y20066000D03*
X63500000Y17526000D03*
X63500000Y14986000D03*
X63500000Y12446000D03*
X63500000Y9906000D03*
X40640000Y43434000D03*
X40640000Y40894000D03*
X40640000Y38354000D03*
X40640000Y35814000D03*
X40640000Y33274000D03*
X40640000Y30734000D03*
X40640000Y28194000D03*
X63500000Y28194000D03*
X63500000Y30734000D03*
X63500000Y33274000D03*
X63500000Y35814000D03*
X63500000Y38354000D03*
X63500000Y40894000D03*
X63500000Y43434000D03*
D15*
X78740000Y16510000D03*
D14*
X78740000Y19050000D03*
D15*
X5080000Y17780000D03*
D14*
X2540000Y17780000D03*
X5080000Y20320000D03*
X2540000Y20320000D03*
X5080000Y22860000D03*
X2540000Y22860000D03*
X71120000Y36830000D03*
D15*
X71120000Y34290000D03*
X78740000Y34290000D03*
D14*
X78740000Y36830000D03*
D15*
X5080000Y30480000D03*
D14*
X2540000Y30480000D03*
X5080000Y33020000D03*
X2540000Y33020000D03*
X5080000Y35560000D03*
X2540000Y35560000D03*
X2540000Y48260000D03*
X5080000Y48260000D03*
X2540000Y45720000D03*
X5080000Y45720000D03*
X2540000Y43180000D03*
D15*
X5080000Y43180000D03*
D21*
X12780000Y10795000D03*
X17780000Y10795000D03*
X17827000Y18796000D03*
X12827000Y18796000D03*
X12700000Y34544000D03*
X17700000Y34544000D03*
X17700000Y42799000D03*
X12700000Y42799000D03*
M02*
