M48
; DRILL file {KiCad (5.1.2-1)-1} date Tuesday, 30 July 2019 at 03:15:10
; FORMAT={3:3/ absolute / metric / suppress leading zeros}
; #@! TF.CreationDate,2019-07-30T03:15:10+09:00
; #@! TF.GenerationSoftware,Kicad,Pcbnew,(5.1.2-1)-1
FMAT,2
METRIC,TZ
T1C1.000
T2C1.016
T3C1.190
T4C3.048
%
G90
G05
T1
X78740Y36830
X78740Y34290
X28956Y46990
X31496Y46990
X34036Y46990
X36576Y46990
X39116Y46990
X41656Y46990
X17780Y27940
X17780Y25400
X43180Y6350
X45720Y6350
X48260Y6350
X50800Y6350
X53340Y6350
X55880Y6350
X58420Y6350
X60960Y6350
X12780Y10795
X17780Y10795
X87630Y45720
X87630Y43180
X87630Y40640
X87630Y38100
X87630Y35560
X87630Y33020
X87630Y30480
X87630Y27940
X87630Y25400
X87630Y22860
X87630Y20320
X87630Y17780
X87630Y15240
X87630Y12700
X87630Y10160
X87630Y7620
X90170Y45720
X90170Y43180
X90170Y40640
X90170Y38100
X90170Y35560
X90170Y33020
X90170Y30480
X90170Y27940
X90170Y25400
X90170Y22860
X90170Y20320
X90170Y17780
X90170Y15240
X90170Y12700
X90170Y10160
X90170Y7620
X71120Y36830
X71120Y34290
X12827Y18796
X17827Y18796
X66040Y46990
X68580Y46990
X71120Y46990
X73660Y46990
X76200Y46990
X78740Y46990
X81280Y46990
X83820Y46990
X2540Y10160
X2540Y7620
X2540Y5080
X5080Y10160
X5080Y7620
X5080Y5080
X2540Y22860
X2540Y20320
X2540Y17780
X5080Y22860
X5080Y20320
X5080Y17780
X71120Y19050
X71120Y16510
X12700Y34544
X17700Y34544
X78740Y19050
X78740Y16510
X2540Y48260
X2540Y45720
X2540Y43180
X5080Y48260
X5080Y45720
X5080Y43180
X12700Y42799
X17700Y42799
X66040Y6350
X68580Y6350
X71120Y6350
X73660Y6350
X76200Y6350
X78740Y6350
X81280Y6350
X83820Y6350
X2540Y35560
X2540Y33020
X2540Y30480
X5080Y35560
X5080Y33020
X5080Y30480
X45720Y46990
X48260Y46990
X50800Y46990
X53340Y46990
X55880Y46990
X58420Y46990
T2
X73660Y2540
X76200Y2540
X78740Y2540
X81280Y2540
X83820Y2540
X86360Y2540
X88900Y2540
X91440Y2540
X18796Y50800
X21336Y50800
X23876Y50800
X26416Y50800
X28956Y50800
X31496Y50800
X34036Y50800
X36576Y50800
X39116Y50800
X41656Y50800
X27940Y2540
X30480Y2540
X33020Y2540
X35560Y2540
X38100Y2540
X40640Y2540
X43180Y2540
X45720Y2540
X45720Y50800
X48260Y50800
X50800Y50800
X53340Y50800
X55880Y50800
X58420Y50800
X60960Y50800
X63500Y50800
X93980Y50800
X93980Y48260
X93980Y45720
X93980Y43180
X93980Y40640
X93980Y38100
X93980Y35560
X93980Y33020
X93980Y30480
X93980Y27940
X93980Y25400
X93980Y22860
X93980Y20320
X93980Y17780
X93980Y15240
X93980Y12700
X93980Y10160
X93980Y7620
X96520Y50800
X96520Y48260
X96520Y45720
X96520Y43180
X96520Y40640
X96520Y38100
X96520Y35560
X96520Y33020
X96520Y30480
X96520Y27940
X96520Y25400
X96520Y22860
X96520Y20320
X96520Y17780
X96520Y15240
X96520Y12700
X96520Y10160
X96520Y7620
X68580Y50800
X71120Y50800
X73660Y50800
X76200Y50800
X78740Y50800
X81280Y50800
X83820Y50800
X86360Y50800
X50800Y2540
X53340Y2540
X55880Y2540
X58420Y2540
X60960Y2540
X63500Y2540
X66040Y2540
X68580Y2540
T3
X40640Y25146
X40640Y22606
X40640Y20066
X40640Y17526
X40640Y14986
X40640Y12446
X40640Y9906
X63500Y43434
X63500Y40894
X63500Y38354
X63500Y35814
X63500Y33274
X63500Y30734
X63500Y28194
X40640Y43434
X40640Y40894
X40640Y38354
X40640Y35814
X40640Y33274
X40640Y30734
X40640Y28194
X63500Y25146
X63500Y22606
X63500Y20066
X63500Y17526
X63500Y14986
X63500Y12446
X63500Y9906
T4
X90170Y50800
X15240Y50800
X96520Y2540
X13970Y2540
T0
M30
