M48
; DRILL file {KiCad (5.1.2-1)-1} date Tuesday, 30 July 2019 at 03:11:28
; FORMAT={3:3/ absolute / metric / suppress leading zeros}
; #@! TF.CreationDate,2019-07-30T03:11:28+09:00
; #@! TF.GenerationSoftware,Kicad,Pcbnew,(5.1.2-1)-1
FMAT,2
METRIC,TZ
T1C0.800
T2C1.000
T3C1.016
T4C1.190
T5C3.048
%
G90
G05
T1
X50800Y21590
X50800Y13970
X53340Y21590
X53340Y13970
X55880Y21590
X55880Y13970
X58420Y21590
X58420Y13970
X60960Y21590
X60960Y13970
X63500Y21590
X63500Y13970
X66040Y21590
X66040Y13970
X68580Y21590
X68580Y13970
X50800Y39370
X50800Y31750
X53340Y39370
X53340Y31750
X55880Y39370
X55880Y31750
X58420Y39370
X58420Y31750
X60960Y39370
X60960Y31750
X63500Y39370
X63500Y31750
X66040Y39370
X66040Y31750
X68580Y39370
X68580Y31750
T2
X17780Y27940
X17780Y25400
X87630Y45720
X87630Y43180
X87630Y40640
X87630Y38100
X87630Y35560
X87630Y33020
X87630Y30480
X87630Y27940
X87630Y25400
X87630Y22860
X87630Y20320
X87630Y17780
X87630Y15240
X87630Y12700
X87630Y10160
X87630Y7620
X90170Y45720
X90170Y43180
X90170Y40640
X90170Y38100
X90170Y35560
X90170Y33020
X90170Y30480
X90170Y27940
X90170Y25400
X90170Y22860
X90170Y20320
X90170Y17780
X90170Y15240
X90170Y12700
X90170Y10160
X90170Y7620
X10160Y42545
X15160Y42545
X2540Y42545
X2540Y40005
X2540Y37465
X5080Y42545
X5080Y40005
X5080Y37465
X28956Y46990
X31496Y46990
X34036Y46990
X36576Y46990
X39116Y46990
X41656Y46990
X66040Y6350
X68580Y6350
X71120Y6350
X73660Y6350
X76200Y6350
X78740Y6350
X81280Y6350
X83820Y6350
X45720Y46990
X48260Y46990
X50800Y46990
X53340Y46990
X55880Y46990
X58420Y46990
X43180Y6350
X45720Y6350
X48260Y6350
X50800Y6350
X53340Y6350
X55880Y6350
X58420Y6350
X60960Y6350
X78740Y36830
X78740Y34290
X66040Y46990
X68580Y46990
X71120Y46990
X73660Y46990
X76200Y46990
X78740Y46990
X81280Y46990
X83820Y46990
X10160Y15875
X15160Y15875
X78740Y19050
X78740Y16510
X2540Y15875
X2540Y13335
X2540Y10795
X5080Y15875
X5080Y13335
X5080Y10795
T3
X50800Y2540
X53340Y2540
X55880Y2540
X58420Y2540
X60960Y2540
X63500Y2540
X66040Y2540
X68580Y2540
X27940Y2540
X30480Y2540
X33020Y2540
X35560Y2540
X38100Y2540
X40640Y2540
X43180Y2540
X45720Y2540
X45720Y50800
X48260Y50800
X50800Y50800
X53340Y50800
X55880Y50800
X58420Y50800
X60960Y50800
X63500Y50800
X73660Y2540
X76200Y2540
X78740Y2540
X81280Y2540
X83820Y2540
X86360Y2540
X88900Y2540
X91440Y2540
X18796Y50800
X21336Y50800
X23876Y50800
X26416Y50800
X28956Y50800
X31496Y50800
X34036Y50800
X36576Y50800
X39116Y50800
X41656Y50800
X93980Y50800
X93980Y48260
X93980Y45720
X93980Y43180
X93980Y40640
X93980Y38100
X93980Y35560
X93980Y33020
X93980Y30480
X93980Y27940
X93980Y25400
X93980Y22860
X93980Y20320
X93980Y17780
X93980Y15240
X93980Y12700
X93980Y10160
X93980Y7620
X96520Y50800
X96520Y48260
X96520Y45720
X96520Y43180
X96520Y40640
X96520Y38100
X96520Y35560
X96520Y33020
X96520Y30480
X96520Y27940
X96520Y25400
X96520Y22860
X96520Y20320
X96520Y17780
X96520Y15240
X96520Y12700
X96520Y10160
X96520Y7620
X68580Y50800
X71120Y50800
X73660Y50800
X76200Y50800
X78740Y50800
X81280Y50800
X83820Y50800
X86360Y50800
T4
X40640Y25400
X40640Y22860
X40640Y20320
X40640Y17780
X40640Y15240
X40640Y12700
X40640Y10160
X40640Y43180
X40640Y40640
X40640Y38100
X40640Y35560
X40640Y33020
X40640Y30480
X40640Y27940
T5
X90170Y50800
X15240Y50800
X96520Y2540
X13970Y2540
T0
M30
