G04 #@! TF.GenerationSoftware,KiCad,Pcbnew,(5.1.2-1)-1*
G04 #@! TF.CreationDate,2019-07-30T03:11:21+09:00*
G04 #@! TF.ProjectId,powerpack-shield,706f7765-7270-4616-936b-2d736869656c,rev?*
G04 #@! TF.SameCoordinates,PX6296c50PY74079d0*
G04 #@! TF.FileFunction,Legend,Top*
G04 #@! TF.FilePolarity,Positive*
%FSLAX46Y46*%
G04 Gerber Fmt 4.6, Leading zero omitted, Abs format (unit mm)*
G04 Created by KiCad (PCBNEW (5.1.2-1)-1) date 2019-07-30 03:11:21*
%MOMM*%
%LPD*%
G04 APERTURE LIST*
%ADD10C,0.150000*%
%ADD11C,0.120000*%
%ADD12C,0.200000*%
%ADD13C,0.254000*%
%ADD14C,1.727200*%
%ADD15O,1.727200X1.727200*%
%ADD16O,1.727200X2.032000*%
%ADD17C,4.064000*%
%ADD18R,1.700000X1.700000*%
%ADD19O,1.700000X1.700000*%
%ADD20C,2.000000*%
%ADD21C,1.900000*%
%ADD22R,1.200000X1.200000*%
%ADD23C,1.200000*%
G04 APERTURE END LIST*
D10*
X0Y13335000D02*
X10160000Y13335000D01*
X0Y40005000D02*
X10160000Y40005000D01*
X10160000Y40005000D02*
X10160000Y13335000D01*
X0Y26670000D02*
X86360000Y26670000D01*
X2540000Y26670000D02*
X9398000Y26670000D01*
X0Y26670000D02*
X2540000Y26670000D01*
X28392380Y5365715D02*
X28392380Y4794286D01*
X28392380Y5080000D02*
X27392380Y5080000D01*
X27535238Y4984762D01*
X27630476Y4889524D01*
X27678095Y4794286D01*
X97790000Y6350000D02*
X97790000Y52070000D01*
X92710000Y52070000D02*
X92710000Y8890000D01*
X97790000Y52070000D02*
X92710000Y52070000D01*
X97790000Y6350000D02*
X95250000Y6350000D01*
X92430000Y7620000D02*
X92430000Y6070000D01*
X95250000Y6350000D02*
X95250000Y8890000D01*
X95250000Y8890000D02*
X92710000Y8890000D01*
X92430000Y6070000D02*
X93980000Y6070000D01*
X29210000Y1270000D02*
X46990000Y1270000D01*
X46990000Y1270000D02*
X46990000Y3810000D01*
X46990000Y3810000D02*
X29210000Y3810000D01*
X26390000Y990000D02*
X27940000Y990000D01*
X29210000Y1270000D02*
X29210000Y3810000D01*
X27940000Y4090000D02*
X26390000Y4090000D01*
X26390000Y4090000D02*
X26390000Y990000D01*
X52070000Y1270000D02*
X69850000Y1270000D01*
X69850000Y1270000D02*
X69850000Y3810000D01*
X69850000Y3810000D02*
X52070000Y3810000D01*
X49250000Y990000D02*
X50800000Y990000D01*
X52070000Y1270000D02*
X52070000Y3810000D01*
X50800000Y4090000D02*
X49250000Y4090000D01*
X49250000Y4090000D02*
X49250000Y990000D01*
X74930000Y1270000D02*
X92710000Y1270000D01*
X92710000Y1270000D02*
X92710000Y3810000D01*
X92710000Y3810000D02*
X74930000Y3810000D01*
X72110000Y990000D02*
X73660000Y990000D01*
X74930000Y1270000D02*
X74930000Y3810000D01*
X73660000Y4090000D02*
X72110000Y4090000D01*
X72110000Y4090000D02*
X72110000Y990000D01*
X20066000Y49530000D02*
X42926000Y49530000D01*
X42926000Y49530000D02*
X42926000Y52070000D01*
X42926000Y52070000D02*
X20066000Y52070000D01*
X17246000Y49250000D02*
X18796000Y49250000D01*
X20066000Y49530000D02*
X20066000Y52070000D01*
X18796000Y52350000D02*
X17246000Y52350000D01*
X17246000Y52350000D02*
X17246000Y49250000D01*
X46990000Y49530000D02*
X64770000Y49530000D01*
X64770000Y49530000D02*
X64770000Y52070000D01*
X64770000Y52070000D02*
X46990000Y52070000D01*
X44170000Y49250000D02*
X45720000Y49250000D01*
X46990000Y49530000D02*
X46990000Y52070000D01*
X45720000Y52350000D02*
X44170000Y52350000D01*
X44170000Y52350000D02*
X44170000Y49250000D01*
X69850000Y49530000D02*
X87630000Y49530000D01*
X87630000Y49530000D02*
X87630000Y52070000D01*
X87630000Y52070000D02*
X69850000Y52070000D01*
X67030000Y49250000D02*
X68580000Y49250000D01*
X69850000Y49530000D02*
X69850000Y52070000D01*
X68580000Y52350000D02*
X67030000Y52350000D01*
X67030000Y52350000D02*
X67030000Y49250000D01*
X16256000Y2540000D02*
G75*
G03X16256000Y2540000I-2286000J0D01*
G01*
X98806000Y2540000D02*
G75*
G03X98806000Y2540000I-2286000J0D01*
G01*
X17526000Y50800000D02*
G75*
G03X17526000Y50800000I-2286000J0D01*
G01*
X92456000Y50800000D02*
G75*
G03X92456000Y50800000I-2286000J0D01*
G01*
D11*
X91500000Y6290000D02*
X88900000Y6290000D01*
X91500000Y6290000D02*
X91500000Y47050000D01*
X91500000Y47050000D02*
X86300000Y47050000D01*
X86300000Y8890000D02*
X86300000Y47050000D01*
X88900000Y8890000D02*
X86300000Y8890000D01*
X88900000Y6290000D02*
X88900000Y8890000D01*
X86300000Y6290000D02*
X86300000Y7620000D01*
X87630000Y6290000D02*
X86300000Y6290000D01*
X44450000Y5020000D02*
X44450000Y7680000D01*
X44450000Y5020000D02*
X62290000Y5020000D01*
X62290000Y5020000D02*
X62290000Y7680000D01*
X44450000Y7680000D02*
X62290000Y7680000D01*
X41850000Y7680000D02*
X43180000Y7680000D01*
X41850000Y6350000D02*
X41850000Y7680000D01*
X64710000Y6350000D02*
X64710000Y7680000D01*
X64710000Y7680000D02*
X66040000Y7680000D01*
X67310000Y7680000D02*
X85150000Y7680000D01*
X85150000Y5020000D02*
X85150000Y7680000D01*
X67310000Y5020000D02*
X85150000Y5020000D01*
X67310000Y5020000D02*
X67310000Y7680000D01*
X67310000Y45660000D02*
X67310000Y48320000D01*
X67310000Y45660000D02*
X85150000Y45660000D01*
X85150000Y45660000D02*
X85150000Y48320000D01*
X67310000Y48320000D02*
X85150000Y48320000D01*
X64710000Y48320000D02*
X66040000Y48320000D01*
X64710000Y46990000D02*
X64710000Y48320000D01*
X30226000Y45660000D02*
X30226000Y48320000D01*
X30226000Y45660000D02*
X42986000Y45660000D01*
X42986000Y45660000D02*
X42986000Y48320000D01*
X30226000Y48320000D02*
X42986000Y48320000D01*
X27626000Y48320000D02*
X28956000Y48320000D01*
X27626000Y46990000D02*
X27626000Y48320000D01*
X44390000Y46990000D02*
X44390000Y48320000D01*
X44390000Y48320000D02*
X45720000Y48320000D01*
X46990000Y48320000D02*
X59750000Y48320000D01*
X59750000Y45660000D02*
X59750000Y48320000D01*
X46990000Y45660000D02*
X59750000Y45660000D01*
X46990000Y45660000D02*
X46990000Y48320000D01*
X8790000Y17245000D02*
X16530000Y17245000D01*
X8790000Y14505000D02*
X16530000Y14505000D01*
X8790000Y17245000D02*
X8790000Y14505000D01*
X16530000Y17245000D02*
X16530000Y14505000D01*
D12*
X38552000Y9965000D02*
G75*
G03X38552000Y9965000I-53000J0D01*
G01*
X42140000Y26280000D02*
X42140000Y9280000D01*
X39140000Y9280000D02*
X39140000Y26280000D01*
X49965000Y13370000D02*
X49965000Y21080000D01*
X69415000Y14480000D02*
X69415000Y21080000D01*
D11*
X1100000Y9465000D02*
X1100000Y17205000D01*
X1100000Y17205000D02*
X-1560000Y17205000D01*
X-1560000Y17205000D02*
X-1560000Y9465000D01*
X-1560000Y9465000D02*
X1100000Y9465000D01*
X-1560000Y10415000D02*
X-7560000Y10415000D01*
X-7560000Y10415000D02*
X-7560000Y11175000D01*
X-7560000Y11175000D02*
X-1560000Y11175000D01*
X-1560000Y10475000D02*
X-7560000Y10475000D01*
X-1560000Y10595000D02*
X-7560000Y10595000D01*
X-1560000Y10715000D02*
X-7560000Y10715000D01*
X-1560000Y10835000D02*
X-7560000Y10835000D01*
X-1560000Y10955000D02*
X-7560000Y10955000D01*
X-1560000Y11075000D02*
X-7560000Y11075000D01*
X1497071Y10415000D02*
X1100000Y10415000D01*
X1497071Y11175000D02*
X1100000Y11175000D01*
X3970000Y10415000D02*
X3582929Y10415000D01*
X3970000Y11175000D02*
X3582929Y11175000D01*
X1100000Y12065000D02*
X-1560000Y12065000D01*
X-1560000Y12955000D02*
X-7560000Y12955000D01*
X-7560000Y12955000D02*
X-7560000Y13715000D01*
X-7560000Y13715000D02*
X-1560000Y13715000D01*
X1497071Y12955000D02*
X1100000Y12955000D01*
X1497071Y13715000D02*
X1100000Y13715000D01*
X4037071Y12955000D02*
X3582929Y12955000D01*
X4037071Y13715000D02*
X3582929Y13715000D01*
X1100000Y14605000D02*
X-1560000Y14605000D01*
X-1560000Y15495000D02*
X-7560000Y15495000D01*
X-7560000Y15495000D02*
X-7560000Y16255000D01*
X-7560000Y16255000D02*
X-1560000Y16255000D01*
X1497071Y15495000D02*
X1100000Y15495000D01*
X1497071Y16255000D02*
X1100000Y16255000D01*
X4037071Y15495000D02*
X3582929Y15495000D01*
X4037071Y16255000D02*
X3582929Y16255000D01*
X6350000Y10795000D02*
X6350000Y9525000D01*
X6350000Y9525000D02*
X5080000Y9525000D01*
X77410000Y17780000D02*
X80070000Y17780000D01*
X77410000Y17780000D02*
X77410000Y15180000D01*
X77410000Y15180000D02*
X80070000Y15180000D01*
X80070000Y17780000D02*
X80070000Y15180000D01*
X80070000Y20380000D02*
X80070000Y19050000D01*
X78740000Y20380000D02*
X80070000Y20380000D01*
X16450000Y26670000D02*
X19110000Y26670000D01*
X16450000Y26670000D02*
X16450000Y24070000D01*
X16450000Y24070000D02*
X19110000Y24070000D01*
X19110000Y26670000D02*
X19110000Y24070000D01*
X19110000Y29270000D02*
X19110000Y27940000D01*
X17780000Y29270000D02*
X19110000Y29270000D01*
X8790000Y43915000D02*
X16530000Y43915000D01*
X8790000Y41175000D02*
X16530000Y41175000D01*
X8790000Y43915000D02*
X8790000Y41175000D01*
X16530000Y43915000D02*
X16530000Y41175000D01*
D12*
X38552000Y27745000D02*
G75*
G03X38552000Y27745000I-53000J0D01*
G01*
X42140000Y44060000D02*
X42140000Y27060000D01*
X39140000Y27060000D02*
X39140000Y44060000D01*
X49965000Y31150000D02*
X49965000Y38860000D01*
X69415000Y32260000D02*
X69415000Y38860000D01*
D11*
X1100000Y36135000D02*
X1100000Y43875000D01*
X1100000Y43875000D02*
X-1560000Y43875000D01*
X-1560000Y43875000D02*
X-1560000Y36135000D01*
X-1560000Y36135000D02*
X1100000Y36135000D01*
X-1560000Y37085000D02*
X-7560000Y37085000D01*
X-7560000Y37085000D02*
X-7560000Y37845000D01*
X-7560000Y37845000D02*
X-1560000Y37845000D01*
X-1560000Y37145000D02*
X-7560000Y37145000D01*
X-1560000Y37265000D02*
X-7560000Y37265000D01*
X-1560000Y37385000D02*
X-7560000Y37385000D01*
X-1560000Y37505000D02*
X-7560000Y37505000D01*
X-1560000Y37625000D02*
X-7560000Y37625000D01*
X-1560000Y37745000D02*
X-7560000Y37745000D01*
X1497071Y37085000D02*
X1100000Y37085000D01*
X1497071Y37845000D02*
X1100000Y37845000D01*
X3970000Y37085000D02*
X3582929Y37085000D01*
X3970000Y37845000D02*
X3582929Y37845000D01*
X1100000Y38735000D02*
X-1560000Y38735000D01*
X-1560000Y39625000D02*
X-7560000Y39625000D01*
X-7560000Y39625000D02*
X-7560000Y40385000D01*
X-7560000Y40385000D02*
X-1560000Y40385000D01*
X1497071Y39625000D02*
X1100000Y39625000D01*
X1497071Y40385000D02*
X1100000Y40385000D01*
X4037071Y39625000D02*
X3582929Y39625000D01*
X4037071Y40385000D02*
X3582929Y40385000D01*
X1100000Y41275000D02*
X-1560000Y41275000D01*
X-1560000Y42165000D02*
X-7560000Y42165000D01*
X-7560000Y42165000D02*
X-7560000Y42925000D01*
X-7560000Y42925000D02*
X-1560000Y42925000D01*
X1497071Y42165000D02*
X1100000Y42165000D01*
X1497071Y42925000D02*
X1100000Y42925000D01*
X4037071Y42165000D02*
X3582929Y42165000D01*
X4037071Y42925000D02*
X3582929Y42925000D01*
X6350000Y37465000D02*
X6350000Y36195000D01*
X6350000Y36195000D02*
X5080000Y36195000D01*
X77410000Y35560000D02*
X80070000Y35560000D01*
X77410000Y35560000D02*
X77410000Y32960000D01*
X77410000Y32960000D02*
X80070000Y32960000D01*
X80070000Y35560000D02*
X80070000Y32960000D01*
X80070000Y38160000D02*
X80070000Y36830000D01*
X78740000Y38160000D02*
X80070000Y38160000D01*
D10*
X91638380Y28471905D02*
X90638380Y28471905D01*
X90638380Y28852858D01*
X90686000Y28948096D01*
X90733619Y28995715D01*
X90828857Y29043334D01*
X90971714Y29043334D01*
X91066952Y28995715D01*
X91114571Y28948096D01*
X91162190Y28852858D01*
X91162190Y28471905D01*
X91638380Y29995715D02*
X91638380Y29424286D01*
X91638380Y29710000D02*
X90638380Y29710000D01*
X90781238Y29614762D01*
X90876476Y29519524D01*
X90924095Y29424286D01*
X36091904Y4881620D02*
X36091904Y5881620D01*
X36472857Y5881620D01*
X36568095Y5834000D01*
X36615714Y5786381D01*
X36663333Y5691143D01*
X36663333Y5548286D01*
X36615714Y5453048D01*
X36568095Y5405429D01*
X36472857Y5357810D01*
X36091904Y5357810D01*
X37044285Y5786381D02*
X37091904Y5834000D01*
X37187142Y5881620D01*
X37425238Y5881620D01*
X37520476Y5834000D01*
X37568095Y5786381D01*
X37615714Y5691143D01*
X37615714Y5595905D01*
X37568095Y5453048D01*
X36996666Y4881620D01*
X37615714Y4881620D01*
X58951904Y4627620D02*
X58951904Y5627620D01*
X59332857Y5627620D01*
X59428095Y5580000D01*
X59475714Y5532381D01*
X59523333Y5437143D01*
X59523333Y5294286D01*
X59475714Y5199048D01*
X59428095Y5151429D01*
X59332857Y5103810D01*
X58951904Y5103810D01*
X59856666Y5627620D02*
X60475714Y5627620D01*
X60142380Y5246667D01*
X60285238Y5246667D01*
X60380476Y5199048D01*
X60428095Y5151429D01*
X60475714Y5056191D01*
X60475714Y4818096D01*
X60428095Y4722858D01*
X60380476Y4675239D01*
X60285238Y4627620D01*
X59999523Y4627620D01*
X59904285Y4675239D01*
X59856666Y4722858D01*
X81811904Y4881620D02*
X81811904Y5881620D01*
X82192857Y5881620D01*
X82288095Y5834000D01*
X82335714Y5786381D01*
X82383333Y5691143D01*
X82383333Y5548286D01*
X82335714Y5453048D01*
X82288095Y5405429D01*
X82192857Y5357810D01*
X81811904Y5357810D01*
X83240476Y5548286D02*
X83240476Y4881620D01*
X83002380Y5929239D02*
X82764285Y5214953D01*
X83383333Y5214953D01*
X29487904Y47553620D02*
X29487904Y48553620D01*
X29868857Y48553620D01*
X29964095Y48506000D01*
X30011714Y48458381D01*
X30059333Y48363143D01*
X30059333Y48220286D01*
X30011714Y48125048D01*
X29964095Y48077429D01*
X29868857Y48029810D01*
X29487904Y48029810D01*
X30964095Y48553620D02*
X30487904Y48553620D01*
X30440285Y48077429D01*
X30487904Y48125048D01*
X30583142Y48172667D01*
X30821238Y48172667D01*
X30916476Y48125048D01*
X30964095Y48077429D01*
X31011714Y47982191D01*
X31011714Y47744096D01*
X30964095Y47648858D01*
X30916476Y47601239D01*
X30821238Y47553620D01*
X30583142Y47553620D01*
X30487904Y47601239D01*
X30440285Y47648858D01*
X53871904Y47553620D02*
X53871904Y48553620D01*
X54252857Y48553620D01*
X54348095Y48506000D01*
X54395714Y48458381D01*
X54443333Y48363143D01*
X54443333Y48220286D01*
X54395714Y48125048D01*
X54348095Y48077429D01*
X54252857Y48029810D01*
X53871904Y48029810D01*
X55300476Y48553620D02*
X55110000Y48553620D01*
X55014761Y48506000D01*
X54967142Y48458381D01*
X54871904Y48315524D01*
X54824285Y48125048D01*
X54824285Y47744096D01*
X54871904Y47648858D01*
X54919523Y47601239D01*
X55014761Y47553620D01*
X55205238Y47553620D01*
X55300476Y47601239D01*
X55348095Y47648858D01*
X55395714Y47744096D01*
X55395714Y47982191D01*
X55348095Y48077429D01*
X55300476Y48125048D01*
X55205238Y48172667D01*
X55014761Y48172667D01*
X54919523Y48125048D01*
X54871904Y48077429D01*
X54824285Y47982191D01*
X76731904Y47553620D02*
X76731904Y48553620D01*
X77112857Y48553620D01*
X77208095Y48506000D01*
X77255714Y48458381D01*
X77303333Y48363143D01*
X77303333Y48220286D01*
X77255714Y48125048D01*
X77208095Y48077429D01*
X77112857Y48029810D01*
X76731904Y48029810D01*
X77636666Y48553620D02*
X78303333Y48553620D01*
X77874761Y47553620D01*
X88566666Y5397620D02*
X88566666Y4683334D01*
X88519047Y4540477D01*
X88423809Y4445239D01*
X88280952Y4397620D01*
X88185714Y4397620D01*
X89566666Y4397620D02*
X88995238Y4397620D01*
X89280952Y4397620D02*
X89280952Y5397620D01*
X89185714Y5254762D01*
X89090476Y5159524D01*
X88995238Y5111905D01*
X39862380Y6016667D02*
X40576666Y6016667D01*
X40719523Y5969048D01*
X40814761Y5873810D01*
X40862380Y5730953D01*
X40862380Y5635715D01*
X39957619Y6445239D02*
X39910000Y6492858D01*
X39862380Y6588096D01*
X39862380Y6826191D01*
X39910000Y6921429D01*
X39957619Y6969048D01*
X40052857Y7016667D01*
X40148095Y7016667D01*
X40290952Y6969048D01*
X40862380Y6397620D01*
X40862380Y7016667D01*
X62722380Y6016667D02*
X63436666Y6016667D01*
X63579523Y5969048D01*
X63674761Y5873810D01*
X63722380Y5730953D01*
X63722380Y5635715D01*
X62722380Y6397620D02*
X62722380Y7016667D01*
X63103333Y6683334D01*
X63103333Y6826191D01*
X63150952Y6921429D01*
X63198571Y6969048D01*
X63293809Y7016667D01*
X63531904Y7016667D01*
X63627142Y6969048D01*
X63674761Y6921429D01*
X63722380Y6826191D01*
X63722380Y6540477D01*
X63674761Y6445239D01*
X63627142Y6397620D01*
X62722380Y46656667D02*
X63436666Y46656667D01*
X63579523Y46609048D01*
X63674761Y46513810D01*
X63722380Y46370953D01*
X63722380Y46275715D01*
X62722380Y47561429D02*
X62722380Y47370953D01*
X62770000Y47275715D01*
X62817619Y47228096D01*
X62960476Y47132858D01*
X63150952Y47085239D01*
X63531904Y47085239D01*
X63627142Y47132858D01*
X63674761Y47180477D01*
X63722380Y47275715D01*
X63722380Y47466191D01*
X63674761Y47561429D01*
X63627142Y47609048D01*
X63531904Y47656667D01*
X63293809Y47656667D01*
X63198571Y47609048D01*
X63150952Y47561429D01*
X63103333Y47466191D01*
X63103333Y47275715D01*
X63150952Y47180477D01*
X63198571Y47132858D01*
X63293809Y47085239D01*
X25638380Y46656667D02*
X26352666Y46656667D01*
X26495523Y46609048D01*
X26590761Y46513810D01*
X26638380Y46370953D01*
X26638380Y46275715D01*
X25971714Y47561429D02*
X26638380Y47561429D01*
X25590761Y47323334D02*
X26305047Y47085239D01*
X26305047Y47704286D01*
X42402380Y46656667D02*
X43116666Y46656667D01*
X43259523Y46609048D01*
X43354761Y46513810D01*
X43402380Y46370953D01*
X43402380Y46275715D01*
X42402380Y47609048D02*
X42402380Y47132858D01*
X42878571Y47085239D01*
X42830952Y47132858D01*
X42783333Y47228096D01*
X42783333Y47466191D01*
X42830952Y47561429D01*
X42878571Y47609048D01*
X42973809Y47656667D01*
X43211904Y47656667D01*
X43307142Y47609048D01*
X43354761Y47561429D01*
X43402380Y47466191D01*
X43402380Y47228096D01*
X43354761Y47132858D01*
X43307142Y47085239D01*
X12326666Y18446429D02*
X11993333Y18446429D01*
X11993333Y17922620D02*
X11993333Y18922620D01*
X12469523Y18922620D01*
X13374285Y17922620D02*
X12802857Y17922620D01*
X13088571Y17922620D02*
X13088571Y18922620D01*
X12993333Y18779762D01*
X12898095Y18684524D01*
X12802857Y18636905D01*
D13*
X38798523Y16051239D02*
X37528523Y16051239D01*
X38677571Y17381715D02*
X38738047Y17321239D01*
X38798523Y17139810D01*
X38798523Y17018858D01*
X38738047Y16837429D01*
X38617095Y16716477D01*
X38496142Y16656000D01*
X38254238Y16595524D01*
X38072809Y16595524D01*
X37830904Y16656000D01*
X37709952Y16716477D01*
X37589000Y16837429D01*
X37528523Y17018858D01*
X37528523Y17139810D01*
X37589000Y17321239D01*
X37649476Y17381715D01*
X38798523Y18591239D02*
X38798523Y17865524D01*
X38798523Y18228381D02*
X37528523Y18228381D01*
X37709952Y18107429D01*
X37830904Y17986477D01*
X37891380Y17865524D01*
X60264523Y16540239D02*
X58994523Y16540239D01*
X60143571Y17870715D02*
X60204047Y17810239D01*
X60264523Y17628810D01*
X60264523Y17507858D01*
X60204047Y17326429D01*
X60083095Y17205477D01*
X59962142Y17145000D01*
X59720238Y17084524D01*
X59538809Y17084524D01*
X59296904Y17145000D01*
X59175952Y17205477D01*
X59055000Y17326429D01*
X58994523Y17507858D01*
X58994523Y17628810D01*
X59055000Y17810239D01*
X59115476Y17870715D01*
X59115476Y18354524D02*
X59055000Y18415000D01*
X58994523Y18535953D01*
X58994523Y18838334D01*
X59055000Y18959286D01*
X59115476Y19019762D01*
X59236428Y19080239D01*
X59357380Y19080239D01*
X59538809Y19019762D01*
X60264523Y18294048D01*
X60264523Y19080239D01*
D10*
X-908334Y9072620D02*
X-908334Y8358334D01*
X-955953Y8215477D01*
X-1051191Y8120239D01*
X-1194048Y8072620D01*
X-1289286Y8072620D01*
X-527381Y9072620D02*
X139285Y9072620D01*
X-289286Y8072620D01*
X78406666Y22367620D02*
X78406666Y21653334D01*
X78359047Y21510477D01*
X78263809Y21415239D01*
X78120952Y21367620D01*
X78025714Y21367620D01*
X79025714Y21939048D02*
X78930476Y21986667D01*
X78882857Y22034286D01*
X78835238Y22129524D01*
X78835238Y22177143D01*
X78882857Y22272381D01*
X78930476Y22320000D01*
X79025714Y22367620D01*
X79216190Y22367620D01*
X79311428Y22320000D01*
X79359047Y22272381D01*
X79406666Y22177143D01*
X79406666Y22129524D01*
X79359047Y22034286D01*
X79311428Y21986667D01*
X79216190Y21939048D01*
X79025714Y21939048D01*
X78930476Y21891429D01*
X78882857Y21843810D01*
X78835238Y21748572D01*
X78835238Y21558096D01*
X78882857Y21462858D01*
X78930476Y21415239D01*
X79025714Y21367620D01*
X79216190Y21367620D01*
X79311428Y21415239D01*
X79359047Y21462858D01*
X79406666Y21558096D01*
X79406666Y21748572D01*
X79359047Y21843810D01*
X79311428Y21891429D01*
X79216190Y21939048D01*
X17446666Y31257620D02*
X17446666Y30543334D01*
X17399047Y30400477D01*
X17303809Y30305239D01*
X17160952Y30257620D01*
X17065714Y30257620D01*
X17970476Y30257620D02*
X18160952Y30257620D01*
X18256190Y30305239D01*
X18303809Y30352858D01*
X18399047Y30495715D01*
X18446666Y30686191D01*
X18446666Y31067143D01*
X18399047Y31162381D01*
X18351428Y31210000D01*
X18256190Y31257620D01*
X18065714Y31257620D01*
X17970476Y31210000D01*
X17922857Y31162381D01*
X17875238Y31067143D01*
X17875238Y30829048D01*
X17922857Y30733810D01*
X17970476Y30686191D01*
X18065714Y30638572D01*
X18256190Y30638572D01*
X18351428Y30686191D01*
X18399047Y30733810D01*
X18446666Y30829048D01*
X12326666Y45116429D02*
X11993333Y45116429D01*
X11993333Y44592620D02*
X11993333Y45592620D01*
X12469523Y45592620D01*
X12802857Y45497381D02*
X12850476Y45545000D01*
X12945714Y45592620D01*
X13183809Y45592620D01*
X13279047Y45545000D01*
X13326666Y45497381D01*
X13374285Y45402143D01*
X13374285Y45306905D01*
X13326666Y45164048D01*
X12755238Y44592620D01*
X13374285Y44592620D01*
D13*
X38798523Y33831239D02*
X37528523Y33831239D01*
X38677571Y35161715D02*
X38738047Y35101239D01*
X38798523Y34919810D01*
X38798523Y34798858D01*
X38738047Y34617429D01*
X38617095Y34496477D01*
X38496142Y34436000D01*
X38254238Y34375524D01*
X38072809Y34375524D01*
X37830904Y34436000D01*
X37709952Y34496477D01*
X37589000Y34617429D01*
X37528523Y34798858D01*
X37528523Y34919810D01*
X37589000Y35101239D01*
X37649476Y35161715D01*
X37528523Y35585048D02*
X37528523Y36371239D01*
X38012333Y35947905D01*
X38012333Y36129334D01*
X38072809Y36250286D01*
X38133285Y36310762D01*
X38254238Y36371239D01*
X38556619Y36371239D01*
X38677571Y36310762D01*
X38738047Y36250286D01*
X38798523Y36129334D01*
X38798523Y35766477D01*
X38738047Y35645524D01*
X38677571Y35585048D01*
X60264523Y34320239D02*
X58994523Y34320239D01*
X60143571Y35650715D02*
X60204047Y35590239D01*
X60264523Y35408810D01*
X60264523Y35287858D01*
X60204047Y35106429D01*
X60083095Y34985477D01*
X59962142Y34925000D01*
X59720238Y34864524D01*
X59538809Y34864524D01*
X59296904Y34925000D01*
X59175952Y34985477D01*
X59055000Y35106429D01*
X58994523Y35287858D01*
X58994523Y35408810D01*
X59055000Y35590239D01*
X59115476Y35650715D01*
X59417857Y36739286D02*
X60264523Y36739286D01*
X58934047Y36436905D02*
X59841190Y36134524D01*
X59841190Y36920715D01*
D10*
X-1384524Y35742620D02*
X-1384524Y35028334D01*
X-1432143Y34885477D01*
X-1527381Y34790239D01*
X-1670239Y34742620D01*
X-1765477Y34742620D01*
X-384524Y34742620D02*
X-955953Y34742620D01*
X-670239Y34742620D02*
X-670239Y35742620D01*
X-765477Y35599762D01*
X-860715Y35504524D01*
X-955953Y35456905D01*
X234523Y35742620D02*
X329761Y35742620D01*
X425000Y35695000D01*
X472619Y35647381D01*
X520238Y35552143D01*
X567857Y35361667D01*
X567857Y35123572D01*
X520238Y34933096D01*
X472619Y34837858D01*
X425000Y34790239D01*
X329761Y34742620D01*
X234523Y34742620D01*
X139285Y34790239D01*
X91666Y34837858D01*
X44047Y34933096D01*
X-3572Y35123572D01*
X-3572Y35361667D01*
X44047Y35552143D01*
X91666Y35647381D01*
X139285Y35695000D01*
X234523Y35742620D01*
X77930476Y40147620D02*
X77930476Y39433334D01*
X77882857Y39290477D01*
X77787619Y39195239D01*
X77644761Y39147620D01*
X77549523Y39147620D01*
X78930476Y39147620D02*
X78359047Y39147620D01*
X78644761Y39147620D02*
X78644761Y40147620D01*
X78549523Y40004762D01*
X78454285Y39909524D01*
X78359047Y39861905D01*
X79882857Y39147620D02*
X79311428Y39147620D01*
X79597142Y39147620D02*
X79597142Y40147620D01*
X79501904Y40004762D01*
X79406666Y39909524D01*
X79311428Y39861905D01*
%LPC*%
D14*
X93980000Y7620000D03*
D15*
X96520000Y7620000D03*
X93980000Y10160000D03*
X96520000Y10160000D03*
X93980000Y12700000D03*
X96520000Y12700000D03*
X93980000Y15240000D03*
X96520000Y15240000D03*
X93980000Y17780000D03*
X96520000Y17780000D03*
X93980000Y20320000D03*
X96520000Y20320000D03*
X93980000Y22860000D03*
X96520000Y22860000D03*
X93980000Y25400000D03*
X96520000Y25400000D03*
X93980000Y27940000D03*
X96520000Y27940000D03*
X93980000Y30480000D03*
X96520000Y30480000D03*
X93980000Y33020000D03*
X96520000Y33020000D03*
X93980000Y35560000D03*
X96520000Y35560000D03*
X93980000Y38100000D03*
X96520000Y38100000D03*
X93980000Y40640000D03*
X96520000Y40640000D03*
X93980000Y43180000D03*
X96520000Y43180000D03*
X93980000Y45720000D03*
X96520000Y45720000D03*
X93980000Y48260000D03*
X96520000Y48260000D03*
X93980000Y50800000D03*
X96520000Y50800000D03*
D16*
X27940000Y2540000D03*
X30480000Y2540000D03*
X33020000Y2540000D03*
X35560000Y2540000D03*
X38100000Y2540000D03*
X40640000Y2540000D03*
X43180000Y2540000D03*
X45720000Y2540000D03*
X50800000Y2540000D03*
X53340000Y2540000D03*
X55880000Y2540000D03*
X58420000Y2540000D03*
X60960000Y2540000D03*
X63500000Y2540000D03*
X66040000Y2540000D03*
X68580000Y2540000D03*
X73660000Y2540000D03*
X76200000Y2540000D03*
X78740000Y2540000D03*
X81280000Y2540000D03*
X83820000Y2540000D03*
X86360000Y2540000D03*
X88900000Y2540000D03*
X91440000Y2540000D03*
X18796000Y50800000D03*
X21336000Y50800000D03*
X23876000Y50800000D03*
X26416000Y50800000D03*
X28956000Y50800000D03*
X31496000Y50800000D03*
X34036000Y50800000D03*
X36576000Y50800000D03*
X39116000Y50800000D03*
X41656000Y50800000D03*
X45720000Y50800000D03*
X48260000Y50800000D03*
X50800000Y50800000D03*
X53340000Y50800000D03*
X55880000Y50800000D03*
X58420000Y50800000D03*
X60960000Y50800000D03*
X63500000Y50800000D03*
X68580000Y50800000D03*
X71120000Y50800000D03*
X73660000Y50800000D03*
X76200000Y50800000D03*
X78740000Y50800000D03*
X81280000Y50800000D03*
X83820000Y50800000D03*
X86360000Y50800000D03*
D17*
X13970000Y2540000D03*
X96520000Y2540000D03*
X15240000Y50800000D03*
X90170000Y50800000D03*
D18*
X87630000Y7620000D03*
D19*
X90170000Y7620000D03*
X87630000Y10160000D03*
X90170000Y10160000D03*
X87630000Y12700000D03*
X90170000Y12700000D03*
X87630000Y15240000D03*
X90170000Y15240000D03*
X87630000Y17780000D03*
X90170000Y17780000D03*
X87630000Y20320000D03*
X90170000Y20320000D03*
X87630000Y22860000D03*
X90170000Y22860000D03*
X87630000Y25400000D03*
X90170000Y25400000D03*
X87630000Y27940000D03*
X90170000Y27940000D03*
X87630000Y30480000D03*
X90170000Y30480000D03*
X87630000Y33020000D03*
X90170000Y33020000D03*
X87630000Y35560000D03*
X90170000Y35560000D03*
X87630000Y38100000D03*
X90170000Y38100000D03*
X87630000Y40640000D03*
X90170000Y40640000D03*
X87630000Y43180000D03*
X90170000Y43180000D03*
X87630000Y45720000D03*
X90170000Y45720000D03*
D18*
X43180000Y6350000D03*
D19*
X45720000Y6350000D03*
X48260000Y6350000D03*
X50800000Y6350000D03*
X53340000Y6350000D03*
X55880000Y6350000D03*
X58420000Y6350000D03*
X60960000Y6350000D03*
X83820000Y6350000D03*
X81280000Y6350000D03*
X78740000Y6350000D03*
X76200000Y6350000D03*
X73660000Y6350000D03*
X71120000Y6350000D03*
X68580000Y6350000D03*
D18*
X66040000Y6350000D03*
X66040000Y46990000D03*
D19*
X68580000Y46990000D03*
X71120000Y46990000D03*
X73660000Y46990000D03*
X76200000Y46990000D03*
X78740000Y46990000D03*
X81280000Y46990000D03*
X83820000Y46990000D03*
D18*
X28956000Y46990000D03*
D19*
X31496000Y46990000D03*
X34036000Y46990000D03*
X36576000Y46990000D03*
X39116000Y46990000D03*
X41656000Y46990000D03*
X58420000Y46990000D03*
X55880000Y46990000D03*
X53340000Y46990000D03*
X50800000Y46990000D03*
X48260000Y46990000D03*
D18*
X45720000Y46990000D03*
D20*
X10160000Y15875000D03*
X15160000Y15875000D03*
D21*
X40640000Y25400000D03*
X40640000Y22860000D03*
X40640000Y20320000D03*
X40640000Y17780000D03*
X40640000Y15240000D03*
X40640000Y12700000D03*
X40640000Y10160000D03*
D22*
X50800000Y13970000D03*
D23*
X53340000Y13970000D03*
X55880000Y13970000D03*
X58420000Y13970000D03*
X60960000Y13970000D03*
X63500000Y13970000D03*
X66040000Y13970000D03*
X68580000Y13970000D03*
X68580000Y21590000D03*
X66040000Y21590000D03*
X63500000Y21590000D03*
X60960000Y21590000D03*
X58420000Y21590000D03*
X55880000Y21590000D03*
X53340000Y21590000D03*
X50800000Y21590000D03*
D18*
X5080000Y10795000D03*
D19*
X2540000Y10795000D03*
X5080000Y13335000D03*
X2540000Y13335000D03*
X5080000Y15875000D03*
X2540000Y15875000D03*
D18*
X78740000Y19050000D03*
D19*
X78740000Y16510000D03*
D18*
X17780000Y27940000D03*
D19*
X17780000Y25400000D03*
D20*
X10160000Y42545000D03*
X15160000Y42545000D03*
D21*
X40640000Y43180000D03*
X40640000Y40640000D03*
X40640000Y38100000D03*
X40640000Y35560000D03*
X40640000Y33020000D03*
X40640000Y30480000D03*
X40640000Y27940000D03*
D22*
X50800000Y31750000D03*
D23*
X53340000Y31750000D03*
X55880000Y31750000D03*
X58420000Y31750000D03*
X60960000Y31750000D03*
X63500000Y31750000D03*
X66040000Y31750000D03*
X68580000Y31750000D03*
X68580000Y39370000D03*
X66040000Y39370000D03*
X63500000Y39370000D03*
X60960000Y39370000D03*
X58420000Y39370000D03*
X55880000Y39370000D03*
X53340000Y39370000D03*
X50800000Y39370000D03*
D18*
X5080000Y37465000D03*
D19*
X2540000Y37465000D03*
X5080000Y40005000D03*
X2540000Y40005000D03*
X5080000Y42545000D03*
X2540000Y42545000D03*
D18*
X78740000Y36830000D03*
D19*
X78740000Y34290000D03*
M02*
